<?xml version="1.0" encoding="UTF-8" standalone="no"?>
<!DOCTYPE svg PUBLIC "-//W3C//DTD SVG 1.1//EN"
 "http://www.w3.org/Graphics/SVG/1.1/DTD/svg11.dtd">
<!-- Generated by graphviz version 2.43.0 (0)
 -->
<!-- Title: G Pages: 1 -->
<svg width="1706pt" height="395pt"
 viewBox="0.00 0.00 1706.00 395.00" xmlns="http://www.w3.org/2000/svg" xmlns:xlink="http://www.w3.org/1999/xlink">
<g id="graph0" class="graph" transform="scale(1 1) rotate(0) translate(4 391)">
<title>G</title>
<polygon fill="#eeeeee" stroke="transparent" points="-4,4 -4,-391 1702,-391 1702,4 -4,4"/>
<g id="clust1" class="cluster">
<title>cluster_inputs</title>
<polygon fill="#eeeeee" stroke="black" stroke-dasharray="5,2" points="8,-303 8,-379 1690,-379 1690,-303 8,-303"/>
<text text-anchor="middle" x="1623.5" y="-310.8" font-family="Times,serif" font-size="14.00">Workflow Inputs</text>
</g>
<g id="clust2" class="cluster">
<title>cluster_outputs</title>
<polygon fill="#eeeeee" stroke="black" stroke-dasharray="5,2" points="1052,-8 1052,-84 1262,-84 1262,-8 1052,-8"/>
<text text-anchor="middle" x="1189.5" y="-15.8" font-family="Times,serif" font-size="14.00">Workflow Outputs</text>
</g>
<!-- main/directory_stage_in_0 -->
<g id="node1" class="node">
<title>main/directory_stage_in_0</title>
<polygon fill="lightgoldenrodyellow" stroke="black" points="326.5,-258.5 326.5,-294.5 529.5,-294.5 529.5,-258.5 326.5,-258.5"/>
<text text-anchor="middle" x="428" y="-272.8" font-family="Times,serif" font-size="14.00">main/directory_stage_in_0</text>
</g>
<!-- main/app -->
<g id="node2" class="node">
<title>main/app</title>
<polygon fill="#f3cea1" stroke="black" points="140,-185.5 140,-221.5 412,-221.5 412,-185.5 140,-185.5"/>
<text text-anchor="middle" x="276" y="-199.8" font-family="Times,serif" font-size="14.00">NDVI and NDWI vegetation indexes</text>
</g>
<!-- main/directory_stage_in_0&#45;&gt;main/app -->
<g id="edge1" class="edge">
<title>main/directory_stage_in_0&#45;&gt;main/app</title>
<path fill="none" stroke="black" d="M391.59,-258.49C370.69,-248.73 344.24,-236.38 321.92,-225.95"/>
<polygon fill="black" stroke="black" points="323.18,-222.67 312.64,-221.61 320.22,-229.02 323.18,-222.67"/>
</g>
<!-- main/stage_out_0 -->
<g id="node3" class="node">
<title>main/stage_out_0</title>
<polygon fill="lightgoldenrodyellow" stroke="black" points="1086.5,-112.5 1086.5,-148.5 1227.5,-148.5 1227.5,-112.5 1086.5,-112.5"/>
<text text-anchor="middle" x="1157" y="-126.8" font-family="Times,serif" font-size="14.00">main/stage_out_0</text>
</g>
<!-- main/app&#45;&gt;main/stage_out_0 -->
<g id="edge2" class="edge">
<title>main/app&#45;&gt;main/stage_out_0</title>
<path fill="none" stroke="black" d="M412.21,-191.52C598,-176.55 925.01,-150.2 1076.18,-138.01"/>
<polygon fill="black" stroke="black" points="1076.63,-141.49 1086.32,-137.2 1076.07,-134.51 1076.63,-141.49"/>
</g>
<!-- main/vegetation_indexes -->
<g id="node15" class="node">
<title>main/vegetation_indexes</title>
<polygon fill="#94ddf4" stroke="black" points="1060,-39.5 1060,-75.5 1254,-75.5 1254,-39.5 1060,-39.5"/>
<text text-anchor="middle" x="1157" y="-53.8" font-family="Times,serif" font-size="14.00">main/vegetation_indexes</text>
</g>
<!-- main/stage_out_0&#45;&gt;main/vegetation_indexes -->
<g id="edge14" class="edge">
<title>main/stage_out_0&#45;&gt;main/vegetation_indexes</title>
<path fill="none" stroke="black" d="M1157,-112.31C1157,-104.29 1157,-94.55 1157,-85.57"/>
<polygon fill="black" stroke="black" points="1160.5,-85.53 1157,-75.53 1153.5,-85.53 1160.5,-85.53"/>
</g>
<!-- main/aoi -->
<g id="node4" class="node">
<title>main/aoi</title>
<polygon fill="#94ddf4" stroke="black" points="16.5,-334.5 16.5,-370.5 93.5,-370.5 93.5,-334.5 16.5,-334.5"/>
<text text-anchor="middle" x="55" y="-348.8" font-family="Times,serif" font-size="14.00">main/aoi</text>
</g>
<!-- main/aoi&#45;&gt;main/app -->
<g id="edge3" class="edge">
<title>main/aoi&#45;&gt;main/app</title>
<path fill="none" stroke="black" d="M69.97,-334.17C78.97,-324.35 90.97,-312.23 103,-303 143.16,-272.21 193.97,-244.42 230.12,-226.27"/>
<polygon fill="black" stroke="black" points="232.04,-229.22 239.44,-221.64 228.92,-222.95 232.04,-229.22"/>
</g>
<!-- main/epsg -->
<g id="node5" class="node">
<title>main/epsg</title>
<polygon fill="#94ddf4" stroke="black" points="112,-334.5 112,-370.5 202,-370.5 202,-334.5 112,-334.5"/>
<text text-anchor="middle" x="157" y="-348.8" font-family="Times,serif" font-size="14.00">main/epsg</text>
</g>
<!-- main/epsg&#45;&gt;main/app -->
<g id="edge4" class="edge">
<title>main/epsg&#45;&gt;main/app</title>
<path fill="none" stroke="black" d="M170.88,-334.35C191.84,-308.46 231.68,-259.25 255.84,-229.41"/>
<polygon fill="black" stroke="black" points="258.63,-231.52 262.2,-221.54 253.19,-227.11 258.63,-231.52"/>
</g>
<!-- main/indexes -->
<g id="node6" class="node">
<title>main/indexes</title>
<polygon fill="#94ddf4" stroke="black" points="220.5,-334.5 220.5,-370.5 331.5,-370.5 331.5,-334.5 220.5,-334.5"/>
<text text-anchor="middle" x="276" y="-348.8" font-family="Times,serif" font-size="14.00">main/indexes</text>
</g>
<!-- main/indexes&#45;&gt;main/app -->
<g id="edge5" class="edge">
<title>main/indexes&#45;&gt;main/app</title>
<path fill="none" stroke="black" d="M276,-334.35C276,-309.12 276,-261.76 276,-231.74"/>
<polygon fill="black" stroke="black" points="279.5,-231.54 276,-221.54 272.5,-231.54 279.5,-231.54"/>
</g>
<!-- main/another_input -->
<g id="node7" class="node">
<title>main/another_input</title>
<polygon fill="#94ddf4" stroke="black" points="350,-334.5 350,-370.5 506,-370.5 506,-334.5 350,-334.5"/>
<text text-anchor="middle" x="428" y="-348.8" font-family="Times,serif" font-size="14.00">main/another_input</text>
</g>
<!-- main/another_input&#45;&gt;main/directory_stage_in_0 -->
<g id="edge6" class="edge">
<title>main/another_input&#45;&gt;main/directory_stage_in_0</title>
<path fill="none" stroke="black" d="M428,-334.34C428,-325.56 428,-314.66 428,-304.77"/>
<polygon fill="black" stroke="black" points="431.5,-304.57 428,-294.57 424.5,-304.57 431.5,-304.57"/>
</g>
<!-- main/aws_access_key_id -->
<g id="node8" class="node">
<title>main/aws_access_key_id</title>
<polygon fill="#94ddf4" stroke="black" points="638.5,-334.5 638.5,-370.5 827.5,-370.5 827.5,-334.5 638.5,-334.5"/>
<text text-anchor="middle" x="733" y="-348.8" font-family="Times,serif" font-size="14.00">main/aws_access_key_id</text>
</g>
<!-- main/aws_access_key_id&#45;&gt;main/stage_out_0 -->
<g id="edge7" class="edge">
<title>main/aws_access_key_id&#45;&gt;main/stage_out_0</title>
<path fill="none" stroke="black" d="M765.92,-334.42C842.15,-294.86 1030.73,-197.02 1115.07,-153.26"/>
<polygon fill="black" stroke="black" points="1116.84,-156.28 1124.1,-148.57 1113.61,-150.07 1116.84,-156.28"/>
</g>
<!-- main/aws_secret_access_key -->
<g id="node9" class="node">
<title>main/aws_secret_access_key</title>
<polygon fill="#94ddf4" stroke="black" points="846,-334.5 846,-370.5 1066,-370.5 1066,-334.5 846,-334.5"/>
<text text-anchor="middle" x="956" y="-348.8" font-family="Times,serif" font-size="14.00">main/aws_secret_access_key</text>
</g>
<!-- main/aws_secret_access_key&#45;&gt;main/stage_out_0 -->
<g id="edge8" class="edge">
<title>main/aws_secret_access_key&#45;&gt;main/stage_out_0</title>
<path fill="none" stroke="black" d="M971.77,-334.24C1007.22,-295.44 1093.28,-201.24 1134.4,-156.23"/>
<polygon fill="black" stroke="black" points="1137.14,-158.43 1141.3,-148.68 1131.97,-153.7 1137.14,-158.43"/>
</g>
<!-- main/endpoint_url -->
<g id="node10" class="node">
<title>main/endpoint_url</title>
<polygon fill="#94ddf4" stroke="black" points="1084,-334.5 1084,-370.5 1230,-370.5 1230,-334.5 1084,-334.5"/>
<text text-anchor="middle" x="1157" y="-348.8" font-family="Times,serif" font-size="14.00">main/endpoint_url</text>
</g>
<!-- main/endpoint_url&#45;&gt;main/stage_out_0 -->
<g id="edge9" class="edge">
<title>main/endpoint_url&#45;&gt;main/stage_out_0</title>
<path fill="none" stroke="black" d="M1157,-334.24C1157,-296.16 1157,-204.73 1157,-158.8"/>
<polygon fill="black" stroke="black" points="1160.5,-158.68 1157,-148.68 1153.5,-158.68 1160.5,-158.68"/>
</g>
<!-- main/region_name -->
<g id="node11" class="node">
<title>main/region_name</title>
<polygon fill="#94ddf4" stroke="black" points="1248,-334.5 1248,-370.5 1396,-370.5 1396,-334.5 1248,-334.5"/>
<text text-anchor="middle" x="1322" y="-348.8" font-family="Times,serif" font-size="14.00">main/region_name</text>
</g>
<!-- main/region_name&#45;&gt;main/stage_out_0 -->
<g id="edge10" class="edge">
<title>main/region_name&#45;&gt;main/stage_out_0</title>
<path fill="none" stroke="black" d="M1309.05,-334.24C1280.08,-295.6 1209.89,-202.02 1175.97,-156.8"/>
<polygon fill="black" stroke="black" points="1178.69,-154.58 1169.89,-148.68 1173.09,-158.78 1178.69,-154.58"/>
</g>
<!-- main/s3_bucket -->
<g id="node12" class="node">
<title>main/s3_bucket</title>
<polygon fill="#94ddf4" stroke="black" points="1414,-334.5 1414,-370.5 1542,-370.5 1542,-334.5 1414,-334.5"/>
<text text-anchor="middle" x="1478" y="-348.8" font-family="Times,serif" font-size="14.00">main/s3_bucket</text>
</g>
<!-- main/s3_bucket&#45;&gt;main/stage_out_0 -->
<g id="edge11" class="edge">
<title>main/s3_bucket&#45;&gt;main/stage_out_0</title>
<path fill="none" stroke="black" d="M1453.08,-334.42C1395.96,-295.27 1255.54,-199.03 1190.75,-154.63"/>
<polygon fill="black" stroke="black" points="1192.35,-151.49 1182.13,-148.72 1188.4,-157.26 1192.35,-151.49"/>
</g>
<!-- main/sub_path -->
<g id="node13" class="node">
<title>main/sub_path</title>
<polygon fill="#94ddf4" stroke="black" points="1560.5,-334.5 1560.5,-370.5 1681.5,-370.5 1681.5,-334.5 1560.5,-334.5"/>
<text text-anchor="middle" x="1621" y="-348.8" font-family="Times,serif" font-size="14.00">main/sub_path</text>
</g>
<!-- main/sub_path&#45;&gt;main/stage_out_0 -->
<g id="edge12" class="edge">
<title>main/sub_path&#45;&gt;main/stage_out_0</title>
<path fill="none" stroke="black" d="M1598.71,-334.39C1585.31,-324.52 1567.66,-312.28 1551,-303 1435.84,-238.85 1291.96,-181.56 1213.86,-152.21"/>
<polygon fill="black" stroke="black" points="1214.8,-148.83 1204.2,-148.6 1212.34,-155.38 1214.8,-148.83"/>
</g>
<!-- main/items -->
<g id="node14" class="node">
<title>main/items</title>
<polygon fill="#94ddf4" stroke="black" points="524,-334.5 524,-370.5 620,-370.5 620,-334.5 524,-334.5"/>
<text text-anchor="middle" x="572" y="-348.8" font-family="Times,serif" font-size="14.00">main/items</text>
</g>
<!-- main/items&#45;&gt;main/directory_stage_in_0 -->
<g id="edge13" class="edge">
<title>main/items&#45;&gt;main/directory_stage_in_0</title>
<path fill="none" stroke="black" d="M555.46,-334.12C544.77,-323.79 530.09,-311.15 515,-303 512.09,-301.43 509.07,-299.95 505.99,-298.54"/>
<polygon fill="black" stroke="black" points="507.12,-295.23 496.55,-294.58 504.41,-301.68 507.12,-295.23"/>
</g>
</g>
</svg>
