<?xml version="1.0" encoding="UTF-8" standalone="no"?>
<!DOCTYPE svg PUBLIC "-//W3C//DTD SVG 1.1//EN"
 "http://www.w3.org/Graphics/SVG/1.1/DTD/svg11.dtd">
<!-- Generated by graphviz version 2.43.0 (0)
 -->
<!-- Title: G Pages: 1 -->
<svg width="1693pt" height="395pt"
 viewBox="0.00 0.00 1693.00 395.00" xmlns="http://www.w3.org/2000/svg" xmlns:xlink="http://www.w3.org/1999/xlink">
<g id="graph0" class="graph" transform="scale(1 1) rotate(0) translate(4 391)">
<title>G</title>
<polygon fill="#eeeeee" stroke="transparent" points="-4,4 -4,-391 1689,-391 1689,4 -4,4"/>
<g id="clust1" class="cluster">
<title>cluster_inputs</title>
<polygon fill="#eeeeee" stroke="black" stroke-dasharray="5,2" points="8,-303 8,-379 1677,-379 1677,-303 8,-303"/>
<text text-anchor="middle" x="1610.5" y="-310.8" font-family="Times,serif" font-size="14.00">Workflow Inputs</text>
</g>
<g id="clust2" class="cluster">
<title>cluster_outputs</title>
<polygon fill="#eeeeee" stroke="black" stroke-dasharray="5,2" points="1060,-8 1060,-84 1228,-84 1228,-8 1060,-8"/>
<text text-anchor="middle" x="1155.5" y="-15.8" font-family="Times,serif" font-size="14.00">Workflow Outputs</text>
</g>
<!-- main/directory_stage_in_0 -->
<g id="node1" class="node">
<title>main/directory_stage_in_0</title>
<polygon fill="lightgoldenrodyellow" stroke="black" points="313.5,-258.5 313.5,-294.5 516.5,-294.5 516.5,-258.5 313.5,-258.5"/>
<text text-anchor="middle" x="415" y="-272.8" font-family="Times,serif" font-size="14.00">main/directory_stage_in_0</text>
</g>
<!-- main/app -->
<g id="node2" class="node">
<title>main/app</title>
<polygon fill="#f3cea1" stroke="black" points="42,-185.5 42,-221.5 506,-221.5 506,-185.5 42,-185.5"/>
<text text-anchor="middle" x="274" y="-199.8" font-family="Times,serif" font-size="14.00">Water bodies detection based on NDWI and the otsu threshold</text>
</g>
<!-- main/directory_stage_in_0&#45;&gt;main/app -->
<g id="edge1" class="edge">
<title>main/directory_stage_in_0&#45;&gt;main/app</title>
<path fill="none" stroke="black" d="M381.23,-258.49C362.01,-248.82 337.74,-236.6 317.15,-226.23"/>
<polygon fill="black" stroke="black" points="318.49,-222.99 307.99,-221.61 315.34,-229.24 318.49,-222.99"/>
</g>
<!-- main/stage_out_0 -->
<g id="node3" class="node">
<title>main/stage_out_0</title>
<polygon fill="lightgoldenrodyellow" stroke="black" points="1073.5,-112.5 1073.5,-148.5 1214.5,-148.5 1214.5,-112.5 1073.5,-112.5"/>
<text text-anchor="middle" x="1144" y="-126.8" font-family="Times,serif" font-size="14.00">main/stage_out_0</text>
</g>
<!-- main/app&#45;&gt;main/stage_out_0 -->
<g id="edge2" class="edge">
<title>main/app&#45;&gt;main/stage_out_0</title>
<path fill="none" stroke="black" d="M482.39,-185.49C668.81,-170.28 932.26,-148.78 1063.37,-138.08"/>
<polygon fill="black" stroke="black" points="1063.66,-141.57 1073.34,-137.27 1063.09,-134.59 1063.66,-141.57"/>
</g>
<!-- main/water_bodies -->
<g id="node15" class="node">
<title>main/water_bodies</title>
<polygon fill="#94ddf4" stroke="black" points="1068.5,-39.5 1068.5,-75.5 1219.5,-75.5 1219.5,-39.5 1068.5,-39.5"/>
<text text-anchor="middle" x="1144" y="-53.8" font-family="Times,serif" font-size="14.00">main/water_bodies</text>
</g>
<!-- main/stage_out_0&#45;&gt;main/water_bodies -->
<g id="edge14" class="edge">
<title>main/stage_out_0&#45;&gt;main/water_bodies</title>
<path fill="none" stroke="black" d="M1144,-112.31C1144,-104.29 1144,-94.55 1144,-85.57"/>
<polygon fill="black" stroke="black" points="1147.5,-85.53 1144,-75.53 1140.5,-85.53 1147.5,-85.53"/>
</g>
<!-- main/aoi -->
<g id="node4" class="node">
<title>main/aoi</title>
<polygon fill="#94ddf4" stroke="black" points="16.5,-334.5 16.5,-370.5 93.5,-370.5 93.5,-334.5 16.5,-334.5"/>
<text text-anchor="middle" x="55" y="-348.8" font-family="Times,serif" font-size="14.00">main/aoi</text>
</g>
<!-- main/aoi&#45;&gt;main/app -->
<g id="edge3" class="edge">
<title>main/aoi&#45;&gt;main/app</title>
<path fill="none" stroke="black" d="M69.99,-334.19C78.99,-324.38 90.99,-312.26 103,-303 142.86,-272.28 193.27,-244.39 229,-226.19"/>
<polygon fill="black" stroke="black" points="230.86,-229.18 238.21,-221.55 227.71,-222.92 230.86,-229.18"/>
</g>
<!-- main/bands -->
<g id="node5" class="node">
<title>main/bands</title>
<polygon fill="#94ddf4" stroke="black" points="111.5,-334.5 111.5,-370.5 210.5,-370.5 210.5,-334.5 111.5,-334.5"/>
<text text-anchor="middle" x="161" y="-348.8" font-family="Times,serif" font-size="14.00">main/bands</text>
</g>
<!-- main/bands&#45;&gt;main/app -->
<g id="edge4" class="edge">
<title>main/bands&#45;&gt;main/app</title>
<path fill="none" stroke="black" d="M174.18,-334.35C194,-308.57 231.59,-259.67 254.56,-229.79"/>
<polygon fill="black" stroke="black" points="257.58,-231.6 260.9,-221.54 252.03,-227.34 257.58,-231.6"/>
</g>
<!-- main/epsg -->
<g id="node6" class="node">
<title>main/epsg</title>
<polygon fill="#94ddf4" stroke="black" points="229,-334.5 229,-370.5 319,-370.5 319,-334.5 229,-334.5"/>
<text text-anchor="middle" x="274" y="-348.8" font-family="Times,serif" font-size="14.00">main/epsg</text>
</g>
<!-- main/epsg&#45;&gt;main/app -->
<g id="edge5" class="edge">
<title>main/epsg&#45;&gt;main/app</title>
<path fill="none" stroke="black" d="M274,-334.35C274,-309.12 274,-261.76 274,-231.74"/>
<polygon fill="black" stroke="black" points="277.5,-231.54 274,-221.54 270.5,-231.54 277.5,-231.54"/>
</g>
<!-- main/another_input -->
<g id="node7" class="node">
<title>main/another_input</title>
<polygon fill="#94ddf4" stroke="black" points="337,-334.5 337,-370.5 493,-370.5 493,-334.5 337,-334.5"/>
<text text-anchor="middle" x="415" y="-348.8" font-family="Times,serif" font-size="14.00">main/another_input</text>
</g>
<!-- main/another_input&#45;&gt;main/directory_stage_in_0 -->
<g id="edge6" class="edge">
<title>main/another_input&#45;&gt;main/directory_stage_in_0</title>
<path fill="none" stroke="black" d="M415,-334.34C415,-325.56 415,-314.66 415,-304.77"/>
<polygon fill="black" stroke="black" points="418.5,-304.57 415,-294.57 411.5,-304.57 418.5,-304.57"/>
</g>
<!-- main/aws_access_key_id -->
<g id="node8" class="node">
<title>main/aws_access_key_id</title>
<polygon fill="#94ddf4" stroke="black" points="625.5,-334.5 625.5,-370.5 814.5,-370.5 814.5,-334.5 625.5,-334.5"/>
<text text-anchor="middle" x="720" y="-348.8" font-family="Times,serif" font-size="14.00">main/aws_access_key_id</text>
</g>
<!-- main/aws_access_key_id&#45;&gt;main/stage_out_0 -->
<g id="edge7" class="edge">
<title>main/aws_access_key_id&#45;&gt;main/stage_out_0</title>
<path fill="none" stroke="black" d="M752.92,-334.42C829.15,-294.86 1017.73,-197.02 1102.07,-153.26"/>
<polygon fill="black" stroke="black" points="1103.84,-156.28 1111.1,-148.57 1100.61,-150.07 1103.84,-156.28"/>
</g>
<!-- main/aws_secret_access_key -->
<g id="node9" class="node">
<title>main/aws_secret_access_key</title>
<polygon fill="#94ddf4" stroke="black" points="833,-334.5 833,-370.5 1053,-370.5 1053,-334.5 833,-334.5"/>
<text text-anchor="middle" x="943" y="-348.8" font-family="Times,serif" font-size="14.00">main/aws_secret_access_key</text>
</g>
<!-- main/aws_secret_access_key&#45;&gt;main/stage_out_0 -->
<g id="edge8" class="edge">
<title>main/aws_secret_access_key&#45;&gt;main/stage_out_0</title>
<path fill="none" stroke="black" d="M958.77,-334.24C994.22,-295.44 1080.28,-201.24 1121.4,-156.23"/>
<polygon fill="black" stroke="black" points="1124.14,-158.43 1128.3,-148.68 1118.97,-153.7 1124.14,-158.43"/>
</g>
<!-- main/endpoint_url -->
<g id="node10" class="node">
<title>main/endpoint_url</title>
<polygon fill="#94ddf4" stroke="black" points="1071,-334.5 1071,-370.5 1217,-370.5 1217,-334.5 1071,-334.5"/>
<text text-anchor="middle" x="1144" y="-348.8" font-family="Times,serif" font-size="14.00">main/endpoint_url</text>
</g>
<!-- main/endpoint_url&#45;&gt;main/stage_out_0 -->
<g id="edge9" class="edge">
<title>main/endpoint_url&#45;&gt;main/stage_out_0</title>
<path fill="none" stroke="black" d="M1144,-334.24C1144,-296.16 1144,-204.73 1144,-158.8"/>
<polygon fill="black" stroke="black" points="1147.5,-158.68 1144,-148.68 1140.5,-158.68 1147.5,-158.68"/>
</g>
<!-- main/region_name -->
<g id="node11" class="node">
<title>main/region_name</title>
<polygon fill="#94ddf4" stroke="black" points="1235,-334.5 1235,-370.5 1383,-370.5 1383,-334.5 1235,-334.5"/>
<text text-anchor="middle" x="1309" y="-348.8" font-family="Times,serif" font-size="14.00">main/region_name</text>
</g>
<!-- main/region_name&#45;&gt;main/stage_out_0 -->
<g id="edge10" class="edge">
<title>main/region_name&#45;&gt;main/stage_out_0</title>
<path fill="none" stroke="black" d="M1296.05,-334.24C1267.08,-295.6 1196.89,-202.02 1162.97,-156.8"/>
<polygon fill="black" stroke="black" points="1165.69,-154.58 1156.89,-148.68 1160.09,-158.78 1165.69,-154.58"/>
</g>
<!-- main/s3_bucket -->
<g id="node12" class="node">
<title>main/s3_bucket</title>
<polygon fill="#94ddf4" stroke="black" points="1401,-334.5 1401,-370.5 1529,-370.5 1529,-334.5 1401,-334.5"/>
<text text-anchor="middle" x="1465" y="-348.8" font-family="Times,serif" font-size="14.00">main/s3_bucket</text>
</g>
<!-- main/s3_bucket&#45;&gt;main/stage_out_0 -->
<g id="edge11" class="edge">
<title>main/s3_bucket&#45;&gt;main/stage_out_0</title>
<path fill="none" stroke="black" d="M1440.08,-334.42C1382.96,-295.27 1242.54,-199.03 1177.75,-154.63"/>
<polygon fill="black" stroke="black" points="1179.35,-151.49 1169.13,-148.72 1175.4,-157.26 1179.35,-151.49"/>
</g>
<!-- main/sub_path -->
<g id="node13" class="node">
<title>main/sub_path</title>
<polygon fill="#94ddf4" stroke="black" points="1547.5,-334.5 1547.5,-370.5 1668.5,-370.5 1668.5,-334.5 1547.5,-334.5"/>
<text text-anchor="middle" x="1608" y="-348.8" font-family="Times,serif" font-size="14.00">main/sub_path</text>
</g>
<!-- main/sub_path&#45;&gt;main/stage_out_0 -->
<g id="edge12" class="edge">
<title>main/sub_path&#45;&gt;main/stage_out_0</title>
<path fill="none" stroke="black" d="M1585.71,-334.39C1572.31,-324.52 1554.66,-312.28 1538,-303 1422.84,-238.85 1278.96,-181.56 1200.86,-152.21"/>
<polygon fill="black" stroke="black" points="1201.8,-148.83 1191.2,-148.6 1199.34,-155.38 1201.8,-148.83"/>
</g>
<!-- main/items -->
<g id="node14" class="node">
<title>main/items</title>
<polygon fill="#94ddf4" stroke="black" points="511,-334.5 511,-370.5 607,-370.5 607,-334.5 511,-334.5"/>
<text text-anchor="middle" x="559" y="-348.8" font-family="Times,serif" font-size="14.00">main/items</text>
</g>
<!-- main/items&#45;&gt;main/directory_stage_in_0 -->
<g id="edge13" class="edge">
<title>main/items&#45;&gt;main/directory_stage_in_0</title>
<path fill="none" stroke="black" d="M542.46,-334.12C531.77,-323.79 517.09,-311.15 502,-303 499.09,-301.43 496.07,-299.95 492.99,-298.54"/>
<polygon fill="black" stroke="black" points="494.12,-295.23 483.55,-294.58 491.41,-301.68 494.12,-295.23"/>
</g>
</g>
</svg>
