**ABCDEFGHIJKLMNOPQRSTUVWXYZabcdefghijklmnopqrstuvwxyz**************************
**PARASOLID !"#$%&'()*+,-./:;<=>?@[\]^_`{|}~0123456789**************************
**PART1;
MC=unknown;
MC_MODEL=unknown;
MC_ID=unknown;
OS=unknown;
OS_RELEASE=unknown;
FRU=sdl_parasolid_customer_support;
APPL=Example Application;
SITE=unknown;
USER=unknown;
FORMAT=text;
GUISE=transmit;
KEY=files/RoundedCube.x_t;
FILE=files/RoundedCube.x_t;
DATE=unknown;
**PART2;
SCH=SCH_3001220_30100;
USFLD_SIZE=0;
**PART3;
**END_OF_HEADER*****************************************************************
T51 : TRANSMIT FILE created by modeller version 300122023 SCH_3001220_30100_1300
6214 0 12 34 CCCCCCI4 mesh1006 0 I8 polyline1008 0 CCCCCCCDI5 owner1040 0 CCCCCC
I13 boundary_mesh1006 0 I17 boundary_polyline1008 0 CCCA16 index_map_offset0 0 1
 dA9 index_map82 0 A17 node_id_index_map82 0 A20 schema_embedding_map82 0 A5 chi
ld12 0 A14 lowest_node_id0 0 1 dA16 mesh_offset_data206 0 Z1 616 2 3 0 0 0 0 0 0
 1e3 1e-8 0 4 0 1 0 1 1 5 6 7 8 0 0 9 10 11 0 0 0 0 0 0 0 81 255 2 2 533 12 1 13
 0 0 0 0 14 70 11 CI9 list_type0 0 1 uI10 notransmit0 0 1 lCCCDCCDI12 finger_ind
ex0 0 1 dI12 finger_block1012 0 CZ3 0 4 T1 0 0 9 20 1 15 15 13 255 5 99 0 1 0 16
 0 0 17 0 51 255 6 426 0 18 19 0 0 +.001 .01209344682730898 .01 0 0 1 .001 1 0 0
 32 255 7 432 0 20 21 0 0 +.001 .01209344682730898 .006 0 -.707106781186548 -.70
7106781186548 0 -.707106781186548 .707106781186548 .001414213562373094 .001 29 2
55 8 362 0 11 22 0 .0132601563467721 .01209344682730898 .01 19 8 CCCCCCCA5 owner
12 0 Z9 33 0 1 17 0 23 V0 16 255 10 364 24 ?25 0 26 27 0 0 1 18 255 11 360 28 29
 0 30 8 ?1 81 1 28 583 31 11 0 0 32 24 33 17 255 29 0 34 25 35 11 36 26 0 37 +18
 30 350 38 39 11 40 22 ?1 81 1 38 589 31 30 0 0 41 42 43 17 39 0 44 45 46 30 47
 48 0 49 +18 40 340 50 51 30 52 53 ?1 29 22 352 0 30 53 8 .001 .0110934468273089
8 .009 29 53 342 0 40 54 22 0 .01209344682730898 .006 29 54 339 0 52 55 53 0 .01
209344682730898 .01 18 52 337 56 57 40 58 54 ?1 29 55 329 0 58 59 54 .001 .001 .
007 18 58 327 60 61 52 62 55 ?1 29 59 326 0 62 63 55 .001 .01109344682730898 .00
7 18 62 324 64 45 58 65 59 ?1 29 63 316 0 65 66 59 .0132601563467721 0 .006 18 6
5 314 67 68 62 69 63 ?1 29 66 313 0 69 70 63 0 0 .006 18 69 311 71 72 65 73 66 ?
1 29 70 310 0 73 74 66 .0132601563467721 0 .01 18 73 308 75 25 69 76 70 ?1 29 74
 300 0 76 77 70 .0122601563467721 .001 .009 18 76 298 78 79 73 80 74 ?1 29 77 29
7 0 80 81 74 .0122601563467721 .001 .007 18 80 295 82 83 76 84 77 ?1 29 81 294 0
 84 85 77 .0122601563467721 .01109344682730898 .009 18 84 292 41 86 80 87 81 ?1
 29 85 75 0 88 89 81 0 .0273196553182534 0 18 88 66 90 91 92 93 85 ?1 29 89 76 0
 93 94 85 .03994939761292135 .0273196553182534 0 18 93 67 95 96 88 97 89 ?1 29 9
4 77 0 97 98 89 .03994939761292135 0 0 18 97 68 99 100 93 101 94 ?1 29 98 78 0 1
01 102 94 0 0 0 18 101 69 103 104 97 105 98 ?1 29 102 32 0 87 106 98 0 .02731965
53182534 .01 18 87 30 107 108 84 109 102 ?1 29 106 29 0 109 110 102 .03994939761
292135 .0273196553182534 .01 18 109 27 111 112 87 92 106 ?1 29 110 26 0 92 113 1
06 .03994939761292135 0 .01 18 92 24 114 115 109 88 110 ?1 29 113 257 0 105 0 11
0 .0122601563467721 .01109344682730898 .007 18 105 204 116 117 101 0 113 ?1 81 1
 116 593 31 105 0 0 118 119 120 17 117 0 121 122 83 105 123 124 0 125 +15 255 12
1 228 0 61 126 0 17 122 0 121 61 117 62 127 128 0 129 +17 83 0 121 117 61 80 130
 131 0 123 +17 123 0 132 133 125 80 117 124 0 134 -16 124 296 135 ?117 128 20 13
6 0 0 1 17 125 0 132 123 86 105 46 137 0 127 -15 132 221 0 123 138 0 17 86 0 132
 125 133 84 139 140 0 46 +17 46 0 44 39 127 84 125 137 0 47 +16 137 185 119 ?46
 141 128 142 0 0 1 17 127 0 44 46 45 105 122 128 0 0 -15 44 217 0 39 143 0 17 45
 0 44 127 39 62 49 144 0 122 +16 128 178 118 ?122 137 124 145 0 0 1 81 1 118 592
 31 128 0 0 64 116 146 30 255 145 248 0 128 136 142 0 +0 .01109344682730898 .007
 -1 0 0 30 136 249 0 124 0 145 0 +.0122601563467721 0 .007 0 1 0 30 142 242 0 13
7 145 147 0 +.0122601563467721 .01109344682730898 .007 0 0 1 30 147 7 0 148 142
 149 0 +0 0 .01 0 -1 0 16 148 5 150 ?35 151 152 147 0 0 1 30 149 11 0 151 147 15
3 0 +0 0 .01 1 0 0 16 151 309 154 ?115 155 148 149 0 0 1 30 153 15 0 155 149 156
 0 +.03994939761292135 0 .01 0 1 0 16 155 13 157 ?112 158 151 153 0 0 1 30 156 1
9 0 158 153 159 0 +0 .0273196553182534 .01 -1 0 0 16 158 17 160 ?108 161 155 156
 0 0 1 30 159 74 0 141 156 162 0 +0 0 0 0 -1 0 16 141 62 163 ?164 165 137 159 0
 0 1 30 162 73 0 165 159 166 0 +0 0 0 1 0 0 16 165 58 167 ?100 168 141 162 0 0 1
 30 166 72 0 168 162 169 0 +.03994939761292135 0 0 0 1 0 16 168 54 170 ?96 152 1
65 166 0 0 1 30 169 71 0 152 166 171 0 +0 .0273196553182534 0 -1 0 0 16 152 50 1
72 ?91 148 168 169 0 0 1 30 171 95 0 161 169 173 0 +0 .0273196553182534 .01 0 0
 -1 16 161 79 174 ?175 176 158 171 0 0 1 30 173 96 0 176 171 177 0 +.03994939761
292135 .0273196553182534 .01 0 0 -1 16 176 80 178 ?179 180 161 173 0 0 1 30 177
 97 0 180 173 181 0 +.03994939761292135 0 .01 0 0 -1 16 180 81 182 ?183 184 176
 177 0 0 1 30 181 98 0 184 177 185 0 +0 0 .01 0 0 -1 16 184 312 186 ?104 140 180
 181 0 0 1 30 185 301 0 140 181 187 0 +.0122601563467721 0 .009 0 1 0 16 140 299
 188 ?86 189 184 185 0 0 1 30 187 304 0 189 185 190 0 +.0122601563467721 .001 .0
07 0 0 1 16 189 302 191 ?133 192 140 187 0 0 1 30 190 317 0 192 187 193 0 -0 0 .
006 1 0 0 16 192 315 194 ?72 195 189 190 0 0 1 30 193 320 0 195 190 196 0 -.0132
601563467721 0 .01 0 0 1 16 195 318 197 ?198 199 192 193 0 0 1 30 196 330 0 199
 193 200 0 +.001 0 .007 0 -1 0 16 199 328 201 ?61 131 195 196 0 0 1 30 200 333 0
 131 196 202 0 +0 .001 .007 1 0 0 16 131 331 203 ?83 204 199 200 0 0 1 30 202 34
3 0 204 200 205 0 +0 .01209344682730898 .01 0 0 1 16 204 341 206 ?57 207 131 202
 0 0 1 30 205 346 0 207 202 208 0 -0 0 .006 0 -1 0 16 207 344 209 ?51 48 204 205
 0 0 1 30 208 353 0 48 205 210 0 +0 .01109344682730898 .009 -1 0 0 16 48 351 211
 ?39 144 207 208 0 0 1 30 210 356 0 144 208 212 0 -.001 .01109344682730898 .007
 0 0 1 16 144 354 42 ?45 26 48 210 0 0 1 30 212 363 0 26 210 27 0 -0 .0120934468
2730898 .01 -1 0 0 16 26 361 32 ?29 10 144 212 0 0 1 30 27 366 0 10 212 213 0 -.
0132601563467721 0 .01 0 1 0 32 213 437 0 214 27 215 0 -.0132601563467721 .001 .
009 0 .707106781186548 .707106781186548 0 .707106781186548 -.707106781186548 .00
1414213562373094 .001 16 214 413 216 ?79 217 0 213 0 0 1 32 215 436 0 217 213 21
8 0 +.0132601563467721 .001 .006 .707106781186548 0 .707106781186548 -.707106781
186548 0 .707106781186548 .001414213562373094 .001 16 217 411 219 ?68 220 214 21
5 0 0 1 32 218 435 0 220 215 221 0 -.0132601563467721 .01209344682730898 .009 -.
707106781186548 .707106781186548 0 .707106781186548 .707106781186548 0 .00141421
3562373094 .001 16 220 408 222 ?223 224 217 218 0 0 1 32 221 434 0 224 218 21 0
 +.001 .001 .006 .707106781186548 -.707106781186548 0 -.707106781186548 -.707106
781186548 0 .001414213562373094 .001 16 224 405 225 ?226 227 220 221 0 0 1 32 21
 433 0 227 221 7 0 -.001 .01209344682730898 .009 -.707106781186548 0 -.707106781
186548 -.707106781186548 0 .707106781186548 .001414213562373094 .001 16 227 402
 228 ?229 20 224 21 0 0 1 81 1 228 606 31 227 0 0 230 231 232 17 229 0 233 47 36
 30 234 227 0 0 +16 20 399 231 ?235 124 227 7 0 0 1 81 1 231 607 31 20 0 0 228 2
36 237 17 235 0 238 239 240 40 129 20 0 0 +15 238 385 0 235 241 0 17 239 0 238 2
42 235 69 51 207 0 226 -17 240 0 238 235 242 62 61 199 0 0 -17 129 0 243 49 244
 62 235 20 0 240 -15 243 383 0 234 18 0 17 49 0 243 234 129 30 45 144 0 229 -17
 244 0 243 129 234 40 57 204 0 235 -17 234 0 243 244 49 52 229 227 0 36 -17 57 0
 245 246 51 52 244 204 0 35 +15 245 89 0 247 16 0 17 246 0 245 175 57 87 35 148
 0 0 -17 51 0 245 57 247 40 239 207 0 244 +17 35 0 34 29 108 52 246 148 0 234 +1
5 34 4 0 29 248 0 17 108 0 34 35 112 87 249 158 0 250 +17 112 0 34 108 115 109 2
51 155 0 252 +17 249 0 253 179 250 109 108 158 0 0 -17 250 0 253 249 91 87 175 1
61 0 246 -15 253 83 0 91 254 0 17 91 0 253 250 179 88 255 152 0 175 +17 175 0 24
5 164 246 88 250 161 0 256 +17 164 0 245 247 175 101 256 141 0 0 +17 256 0 257 2
55 258 88 164 141 0 0 -15 257 49 0 256 259 0 17 255 0 257 260 256 93 91 152 0 0
 -17 258 0 257 256 260 101 100 165 0 164 -17 260 0 257 258 255 97 96 168 0 0 -17
 100 0 261 262 104 97 258 165 0 183 +15 261 87 0 263 264 0 17 262 0 261 263 100
 92 183 180 0 251 -17 104 0 261 100 72 101 247 184 0 258 +17 183 0 265 96 251 97
 262 180 0 260 +15 265 85 0 96 266 0 17 96 0 265 252 183 93 260 168 0 179 +17 25
1 0 265 183 252 92 112 155 0 0 -17 252 0 265 251 96 109 179 176 0 249 -17 179 0
 253 91 249 93 252 176 0 255 +14 255 266 86 267 ?254 264 265 5 268 -0 0 254 264
 23 81 1 267 572 31 266 269 0 182 170 270 14 254 84 271 ?248 266 253 5 272 -0 0
 248 266 23 14 264 88 273 ?266 16 261 5 274 -0 0 266 16 23 50 255 268 92 0 266 2
72 274 0 +.03994939761292135 0 .01 -1 0 0 0 0 1 13 23 34 0 0 0 0 0 0 9 16 14 16
 90 275 ?264 0 245 5 276 -0 0 264 0 23 81 1 275 549 31 16 277 0 0 186 278 50 276
 94 0 16 274 279 0 +0 0 .01 1 0 0 0 0 -1 50 274 93 0 264 268 276 0 +0 0 .01 0 1
 0 0 0 1 51 279 431 0 280 276 281 0 +.0132601563467721 .001 .007 0 0 1 .001 1 0
 0 14 280 392 282 ?0 283 284 5 279 +0 0 0 283 23 51 281 430 0 283 279 285 0 +.01
32601563467721 0 .009 0 1 0 .001 0 0 1 14 283 390 286 ?280 287 288 5 281 +0 0 28
0 287 23 51 285 429 0 287 281 289 0 +0 .001 .006 1 0 0 .001 0 0 -1 14 287 388 29
0 ?283 291 292 5 285 +0 0 283 291 23 51 289 428 0 291 285 19 0 +0 .0120934468273
0898 .009 -1 0 0 .001 0 0 1 14 291 386 293 ?287 241 233 5 289 +0 0 287 241 23 51
 19 427 0 241 289 6 0 +.001 0 .006 0 -1 0 .001 0 0 -1 14 241 384 236 ?291 18 238
 5 19 +0 0 291 18 23 81 1 236 608 31 241 294 0 231 225 295 14 18 382 230 ?241 12
6 243 5 6 +0 0 241 126 23 81 1 230 605 31 18 296 0 203 228 297 14 126 226 298 ?1
8 138 121 5 299 -0 0 18 138 23 81 1 298 601 31 126 300 0 188 201 301 14 138 218
 302 ?126 143 132 5 303 -0 0 126 143 23 50 299 239 0 126 0 304 0 +0 0 .007 0 0 -
1 -1 0 0 50 304 237 0 143 299 303 0 +0 .01109344682730898 .007 0 1 0 0 0 1 14 14
3 214 305 ?138 259 44 5 304 -0 0 138 259 23 50 303 236 0 138 304 306 0 +.0122601
563467721 0 .007 1 0 0 0 0 -1 50 306 3 0 248 303 307 0 +0 0 .01 0 0 -1 -1 0 0 14
 248 1 308 ?259 254 34 5 306 -0 0 259 254 23 50 307 70 0 259 306 272 0 +0 0 0 0
 0 -1 -1 0 0 14 259 48 309 ?143 248 257 5 307 +0 0 143 248 23 50 272 91 0 254 30
7 268 0 +0 .0273196553182534 .01 0 -1 0 0 0 -1 81 1 309 585 31 259 310 0 24 305
 311 80 255 1 31 12 312 9000 1 1 1 1 1 1 1 1 0 FFFFTFTTFFFFFF3 81 1 310 548 313
 259 314 309 315 0 316 81 1 24 584 31 10 0 0 28 309 317 81 1 305 586 31 143 318
 0 309 211 319 84 255 3 311 F3681 1 318 546 313 143 320 305 321 315 322 81 1 211
 587 31 48 0 0 305 41 323 84 3 319 F3781 1 41 588 31 84 0 0 211 38 324 84 3 323
 E3884 3 324 V3980 1 313 325 326 9000 1 1 1 1 1 1 1 1 0 FFFFTFTFFFFFFF1 81 1 320
 493 327 143 0 318 314 328 329 81 1 321 545 313 138 328 302 300 318 330 81 1 315
 547 313 248 331 308 318 310 332 82 255 1 322 -1637023631 81 1 331 491 327 248 0
 315 333 314 334 81 1 308 581 31 248 315 0 160 32 335 82 1 332 917700721 81 1 16
0 580 31 158 0 0 172 308 336 81 1 32 582 31 26 0 0 308 28 337 84 3 335 F3284 3 3
37 E3381 1 172 579 31 152 0 0 271 160 338 84 3 336 E3181 1 271 578 31 254 339 0
 157 172 340 84 3 338 E3081 1 339 535 313 254 333 271 269 341 342 81 1 157 577 3
1 155 0 0 111 271 343 84 3 340 F2981 1 111 576 31 109 0 0 178 157 344 84 3 343 E
2881 1 178 575 31 176 0 0 95 111 345 84 3 344 V2781 1 95 574 31 93 0 0 170 178 3
46 84 3 345 E2681 1 170 573 31 168 0 0 267 95 347 84 3 346 V2584 3 347 E2481 1 3
33 490 327 254 0 339 348 331 349 81 1 269 534 313 266 348 267 0 339 350 81 1 341
 536 313 264 351 273 339 277 352 82 1 342 924254312 81 1 351 488 327 264 0 341 3
53 348 354 81 1 273 562 31 264 341 0 163 154 355 81 1 277 537 313 16 353 275 341
 356 357 82 1 352 924778609 81 1 353 487 327 16 0 277 0 351 358 81 1 356 538 313
 280 359 282 277 360 361 82 1 357 925040753 81 1 359 501 327 280 0 356 362 0 363
 81 1 282 616 31 280 356 0 216 0 364 81 1 360 539 313 283 362 286 356 365 366 82
 1 361 -160300943 81 1 362 500 327 283 0 360 367 359 368 81 1 286 614 31 283 360
 0 219 216 369 81 1 365 540 313 287 367 290 360 370 371 82 1 366 -158728079 81 1
 367 499 327 287 0 365 372 362 373 81 1 290 612 31 287 365 0 222 219 374 81 1 37
0 541 313 291 372 293 365 294 375 82 1 371 -157548431 81 1 372 498 327 291 0 370
 376 367 377 81 1 293 610 31 291 370 0 225 222 378 81 1 294 542 313 241 376 236
 370 296 379 82 1 375 -156434319 81 1 376 497 327 241 0 294 380 372 381 81 1 296
 543 313 18 380 230 294 300 382 82 1 379 -155320207 81 1 380 496 327 18 0 296 38
3 376 384 81 1 300 544 313 126 383 298 296 321 385 82 1 382 -154206095 81 1 383
 495 327 126 0 300 328 380 386 82 1 385 -1643577231 80 1 327 0 387 8001 0 0 0 0
 3 5 0 0 0 FFFFTFTFFFFFFF2 81 1 328 494 327 138 0 321 320 383 388 83 255 3 386 .
792156862745098 .819607843137255 .933333333333333 83 3 388 .792156862745098 .819
607843137255 .933333333333333 79 255 15 387 SDL/TYSA_COLOUR83 3 384 .79215686274
5098 .819607843137255 .933333333333333 83 3 381 .792156862745098 .81960784313725
5 .933333333333333 81 1 225 609 31 224 0 0 236 293 389 81 1 222 611 31 220 0 0 2
93 290 390 84 3 378 F6184 3 390 E6284 3 389 E6083 3 377 .792156862745098 .819607
843137255 .933333333333333 81 1 219 613 31 217 0 0 290 286 391 84 3 374 F6384 3
 391 E6483 3 373 .792156862745098 .819607843137255 .933333333333333 81 1 216 615
 31 214 0 0 286 282 392 84 3 369 F6584 3 392 E6683 3 368 .792156862745098 .81960
7843137255 .933333333333333 84 3 364 F6783 3 363 .792156862745098 .8196078431372
55 .933333333333333 83 3 358 .792156862745098 .819607843137255 .933333333333333
 81 1 163 561 31 141 0 0 90 273 393 81 1 154 563 31 151 0 0 273 75 394 84 3 355
 F1381 1 75 564 31 73 0 0 154 114 395 84 3 394 E1481 1 114 565 31 92 0 0 75 197
 396 84 3 395 V1581 1 197 566 31 195 0 0 114 67 397 84 3 396 V1681 1 67 567 31 6
5 0 0 197 194 398 84 3 397 E1781 1 194 568 31 192 0 0 67 167 399 84 3 398 V1881
 1 167 569 31 165 0 0 194 99 400 84 3 399 E1981 1 99 570 31 97 0 0 167 182 401 8
4 3 400 E2081 1 182 571 31 180 0 0 99 267 402 84 3 401 V2184 3 402 E2281 1 90 56
0 31 88 0 0 174 163 403 84 3 393 E1281 1 174 559 31 161 0 0 107 90 404 84 3 403
 V1181 1 107 558 31 87 0 0 150 174 405 84 3 404 E1081 1 150 557 31 148 0 0 56 10
7 406 84 2 405 V981 1 56 556 31 52 0 0 206 150 407 84 2 406 E881 1 206 555 31 20
4 0 0 50 56 408 84 2 407 V781 1 50 554 31 40 0 0 209 206 409 84 2 408 E681 1 209
 553 31 207 0 0 103 50 410 84 2 409 V581 1 103 552 31 101 0 0 71 209 411 84 2 41
0 E481 1 71 551 31 69 0 0 186 103 412 84 2 411 V381 1 186 550 31 184 0 0 275 71
 413 84 2 412 V284 2 413 E181 1 348 489 327 266 0 269 351 333 414 83 3 354 .7921
56862745098 .819607843137255 .933333333333333 83 3 414 .792156862745098 .8196078
43137255 .933333333333333 82 1 350 924516456 83 3 349 .792156862745098 .81960784
3137255 .933333333333333 81 1 314 492 327 259 0 310 331 320 415 83 3 334 .792156
862745098 .819607843137255 .933333333333333 83 3 415 .792156862745098 .819607843
137255 .933333333333333 81 1 302 595 31 138 321 0 119 135 416 82 1 330 -16368925
59 81 1 119 594 31 137 0 0 116 302 417 81 1 135 596 31 124 0 0 302 82 418 84 3 4
16 F4681 1 82 597 31 80 0 0 135 191 419 84 3 418 E4781 1 191 598 31 189 0 0 82 7
8 420 84 3 419 V4881 1 78 599 31 76 0 0 191 188 421 84 3 420 E4981 1 188 600 31
 140 0 0 78 298 422 84 3 421 V5084 3 422 E5184 3 417 E4583 3 329 .79215686274509
8 .819607843137255 .933333333333333 79 14 326 SWEntUnchanged84 3 317 E3582 1 316
 923336808 79 12 312 BTI/ExportId81 1 201 602 31 199 0 0 298 60 423 84 3 301 F52
81 1 60 603 31 58 0 0 201 203 424 84 3 423 E5381 1 203 604 31 131 0 0 60 230 425
 84 3 424 V5484 3 425 E5584 3 297 F5684 3 295 F5915 233 387 0 229 291 0 15 292 3
89 0 226 287 0 17 226 0 292 426 130 69 242 224 0 0 +17 426 0 292 134 226 65 72 1
92 0 198 -17 130 0 292 226 134 58 83 131 0 0 -17 242 0 238 240 239 58 226 224 0
 130 -17 134 0 292 130 426 80 68 217 0 427 -17 68 0 284 428 427 65 134 217 0 426
 +17 427 0 284 68 79 80 133 189 0 0 -15 284 393 0 68 280 0 17 79 0 284 427 428 7
6 429 214 0 139 +17 133 0 132 86 123 76 427 189 0 0 +17 428 0 284 79 68 73 198 1
95 0 429 -17 429 0 288 430 139 73 79 214 0 0 -17 139 0 288 429 223 76 86 140 0 1
33 -15 288 391 0 223 283 0 17 223 0 288 139 430 84 37 220 0 0 +17 430 0 288 223
 429 11 25 10 0 0 -17 37 0 233 36 47 11 223 220 0 430 -17 36 0 233 229 37 52 29
 26 0 0 -17 47 0 233 37 229 84 39 48 0 223 -17 25 0 34 115 29 73 430 10 0 263 +1
7 115 0 34 112 25 92 263 151 0 262 +17 263 0 261 198 262 73 115 151 0 428 -17 19
8 0 261 72 263 65 428 195 0 0 +17 72 0 261 104 198 69 426 192 0 247 +17 247 0 24
5 51 164 69 104 184 0 239 -84 2 278 F084 3 270 F2317 61 0 121 83 122 58 240 199
 0 242 +84 3 237 E5884 3 232 E5781 1 42 590 31 144 0 0 38 64 431 81 1 64 591 31
 62 0 0 42 118 432 84 3 431 E4184 3 432 V4284 3 146 E4384 3 120 V4484 3 43 V4084
 3 33 V3419 17 100 0 1 0 9 5 S0 74 4 CI16 index_map_offset0 0 1 dCCZ20 15 9 0 0
 433 434 310 435 436 13 359 2 282 0 0 0 0 0 0 0 0 0 0 0 81 2 433 124 437 1 0 434
 0 0 0 438 81 2 434 128 325 1 433 435 0 0 0 439 81 2 435 284 440 1 434 436 0 0 0
 441 81 1 436 476 442 1 435 13 0 0 443 81 2 13 485 444 1 436 2 0 0 0 0 80 2 444
 442 445 9000 0 0 0 0 3 5 0 0 0 FFTFFFFFFFFFFF9 1 79 16 445 BODY_RECIPE_200180 1
 442 313 446 9000 1 1 1 1 1 1 1 1 0 FFTFFFFFFFFFFF1 82 1 443 14001 79 10 446 BOD
Y_MATCH80 2 440 444 447 9000 0 0 0 0 3 5 0 0 0 FFTFFFFFFFFFFF9 1 82 1 441 1 79 2
4 447 BODY_IN_LIGHTWEIGHT_PERM80 2 325 437 448 9000 0 0 0 0 3 5 0 0 0 FFTFFFFFFF
FFFF9 1 82 1 439 47 79 30 448 LAST_BODY_MODIFYING_FEATURE_ID80 2 437 449 450 900
0 0 0 0 0 3 5 0 0 0 FFTFFFFFFFFFFF9 1 82 1 438 110 79 19 450 ENT_TIME_STAMP_2001
80 2 12 440 451 9000 0 0 0 0 3 5 0 0 0 FFTFFFFFFFFFFF9 1 82 1 14 102 79 12 451 A
TOM_ID_20011 0 
