<?xml version="1.0" encoding="UTF-8" standalone="no"?>
<!DOCTYPE svg PUBLIC "-//W3C//DTD SVG 1.1//EN"
 "http://www.w3.org/Graphics/SVG/1.1/DTD/svg11.dtd">
<!-- Generated by graphviz version 2.43.0 (0)
 -->
<!-- Title: G Pages: 1 -->
<svg width="1823pt" height="395pt"
 viewBox="0.00 0.00 1823.00 395.00" xmlns="http://www.w3.org/2000/svg" xmlns:xlink="http://www.w3.org/1999/xlink">
<g id="graph0" class="graph" transform="scale(1 1) rotate(0) translate(4 391)">
<title>G</title>
<polygon fill="#eeeeee" stroke="transparent" points="-4,4 -4,-391 1819,-391 1819,4 -4,4"/>
<g id="clust1" class="cluster">
<title>cluster_inputs</title>
<polygon fill="#eeeeee" stroke="black" stroke-dasharray="5,2" points="8,-303 8,-379 1807,-379 1807,-303 8,-303"/>
<text text-anchor="middle" x="1740.5" y="-310.8" font-family="Times,serif" font-size="14.00">Workflow Inputs</text>
</g>
<g id="clust2" class="cluster">
<title>cluster_outputs</title>
<polygon fill="#eeeeee" stroke="black" stroke-dasharray="5,2" points="1190,-8 1190,-84 1358,-84 1358,-8 1190,-8"/>
<text text-anchor="middle" x="1285.5" y="-15.8" font-family="Times,serif" font-size="14.00">Workflow Outputs</text>
</g>
<!-- main/directory_stage_in_0 -->
<g id="node1" class="node">
<title>main/directory_stage_in_0</title>
<polygon fill="lightgoldenrodyellow" stroke="black" points="295.5,-258.5 295.5,-294.5 498.5,-294.5 498.5,-258.5 295.5,-258.5"/>
<text text-anchor="middle" x="397" y="-272.8" font-family="Times,serif" font-size="14.00">main/directory_stage_in_0</text>
</g>
<!-- main/app -->
<g id="node2" class="node">
<title>main/app</title>
<polygon fill="#f3cea1" stroke="black" points="100,-185.5 100,-221.5 564,-221.5 564,-185.5 100,-185.5"/>
<text text-anchor="middle" x="332" y="-199.8" font-family="Times,serif" font-size="14.00">Water bodies detection based on NDWI and the otsu threshold</text>
</g>
<!-- main/directory_stage_in_0&#45;&gt;main/app -->
<g id="edge1" class="edge">
<title>main/directory_stage_in_0&#45;&gt;main/app</title>
<path fill="none" stroke="black" d="M381.27,-258.31C373.2,-249.5 363.24,-238.63 354.39,-228.96"/>
<polygon fill="black" stroke="black" points="356.92,-226.54 347.59,-221.53 351.76,-231.27 356.92,-226.54"/>
</g>
<!-- main/stage_out_0 -->
<g id="node4" class="node">
<title>main/stage_out_0</title>
<polygon fill="lightgoldenrodyellow" stroke="black" points="1203.5,-112.5 1203.5,-148.5 1344.5,-148.5 1344.5,-112.5 1203.5,-112.5"/>
<text text-anchor="middle" x="1274" y="-126.8" font-family="Times,serif" font-size="14.00">main/stage_out_0</text>
</g>
<!-- main/app&#45;&gt;main/stage_out_0 -->
<g id="edge3" class="edge">
<title>main/app&#45;&gt;main/stage_out_0</title>
<path fill="none" stroke="black" d="M557.63,-185.49C762.6,-170.04 1053.59,-148.11 1193.18,-137.59"/>
<polygon fill="black" stroke="black" points="1193.66,-141.07 1203.37,-136.82 1193.14,-134.08 1193.66,-141.07"/>
</g>
<!-- main/directory_stage_in_1 -->
<g id="node3" class="node">
<title>main/directory_stage_in_1</title>
<polygon fill="lightgoldenrodyellow" stroke="black" points="516.5,-258.5 516.5,-294.5 719.5,-294.5 719.5,-258.5 516.5,-258.5"/>
<text text-anchor="middle" x="618" y="-272.8" font-family="Times,serif" font-size="14.00">main/directory_stage_in_1</text>
</g>
<!-- main/directory_stage_in_1&#45;&gt;main/app -->
<g id="edge2" class="edge">
<title>main/directory_stage_in_1&#45;&gt;main/app</title>
<path fill="none" stroke="black" d="M549.5,-258.49C507.79,-248.14 454.37,-234.88 410.9,-224.09"/>
<polygon fill="black" stroke="black" points="411.49,-220.63 400.94,-221.61 409.8,-227.42 411.49,-220.63"/>
</g>
<!-- main/water_bodies -->
<g id="node17" class="node">
<title>main/water_bodies</title>
<polygon fill="#94ddf4" stroke="black" points="1198.5,-39.5 1198.5,-75.5 1349.5,-75.5 1349.5,-39.5 1198.5,-39.5"/>
<text text-anchor="middle" x="1274" y="-53.8" font-family="Times,serif" font-size="14.00">main/water_bodies</text>
</g>
<!-- main/stage_out_0&#45;&gt;main/water_bodies -->
<g id="edge17" class="edge">
<title>main/stage_out_0&#45;&gt;main/water_bodies</title>
<path fill="none" stroke="black" d="M1274,-112.31C1274,-104.29 1274,-94.55 1274,-85.57"/>
<polygon fill="black" stroke="black" points="1277.5,-85.53 1274,-75.53 1270.5,-85.53 1277.5,-85.53"/>
</g>
<!-- main/aoi -->
<g id="node5" class="node">
<title>main/aoi</title>
<polygon fill="#94ddf4" stroke="black" points="16.5,-334.5 16.5,-370.5 93.5,-370.5 93.5,-334.5 16.5,-334.5"/>
<text text-anchor="middle" x="55" y="-348.8" font-family="Times,serif" font-size="14.00">main/aoi</text>
</g>
<!-- main/aoi&#45;&gt;main/app -->
<g id="edge4" class="edge">
<title>main/aoi&#45;&gt;main/app</title>
<path fill="none" stroke="black" d="M69.19,-334.12C78.1,-324.05 90.28,-311.68 103,-303 154.02,-268.22 219.3,-241.61 267.09,-224.87"/>
<polygon fill="black" stroke="black" points="268.4,-228.12 276.71,-221.55 266.12,-221.5 268.4,-228.12"/>
</g>
<!-- main/bands -->
<g id="node6" class="node">
<title>main/bands</title>
<polygon fill="#94ddf4" stroke="black" points="111.5,-334.5 111.5,-370.5 210.5,-370.5 210.5,-334.5 111.5,-334.5"/>
<text text-anchor="middle" x="161" y="-348.8" font-family="Times,serif" font-size="14.00">main/bands</text>
</g>
<!-- main/bands&#45;&gt;main/app -->
<g id="edge5" class="edge">
<title>main/bands&#45;&gt;main/app</title>
<path fill="none" stroke="black" d="M180.95,-334.35C211.45,-308.13 269.78,-257.99 304.35,-228.27"/>
<polygon fill="black" stroke="black" points="306.87,-230.71 312.18,-221.54 302.31,-225.41 306.87,-230.71"/>
</g>
<!-- main/epsg -->
<g id="node7" class="node">
<title>main/epsg</title>
<polygon fill="#94ddf4" stroke="black" points="229,-334.5 229,-370.5 319,-370.5 319,-334.5 229,-334.5"/>
<text text-anchor="middle" x="274" y="-348.8" font-family="Times,serif" font-size="14.00">main/epsg</text>
</g>
<!-- main/epsg&#45;&gt;main/app -->
<g id="edge6" class="edge">
<title>main/epsg&#45;&gt;main/app</title>
<path fill="none" stroke="black" d="M273.59,-334.17C273.76,-314.79 275.94,-282.85 287,-258 291.69,-247.47 299.08,-237.4 306.54,-228.88"/>
<polygon fill="black" stroke="black" points="309.11,-231.26 313.33,-221.54 303.97,-226.51 309.11,-231.26"/>
</g>
<!-- main/another_input -->
<g id="node8" class="node">
<title>main/another_input</title>
<polygon fill="#94ddf4" stroke="black" points="459,-334.5 459,-370.5 615,-370.5 615,-334.5 459,-334.5"/>
<text text-anchor="middle" x="537" y="-348.8" font-family="Times,serif" font-size="14.00">main/another_input</text>
</g>
<!-- main/another_input&#45;&gt;main/directory_stage_in_0 -->
<g id="edge7" class="edge">
<title>main/another_input&#45;&gt;main/directory_stage_in_0</title>
<path fill="none" stroke="black" d="M507.44,-334.44C490.72,-324.94 469.34,-313.03 450,-303 447.58,-301.74 445.08,-300.47 442.56,-299.2"/>
<polygon fill="black" stroke="black" points="443.87,-295.94 433.35,-294.63 440.75,-302.21 443.87,-295.94"/>
</g>
<!-- main/another_input&#45;&gt;main/directory_stage_in_1 -->
<g id="edge8" class="edge">
<title>main/another_input&#45;&gt;main/directory_stage_in_1</title>
<path fill="none" stroke="black" d="M555.79,-334.34C566.52,-324.53 580.14,-312.08 591.91,-301.34"/>
<polygon fill="black" stroke="black" points="594.29,-303.9 599.32,-294.57 589.57,-298.73 594.29,-303.9"/>
</g>
<!-- main/item_1 -->
<g id="node9" class="node">
<title>main/item_1</title>
<polygon fill="#94ddf4" stroke="black" points="337,-334.5 337,-370.5 441,-370.5 441,-334.5 337,-334.5"/>
<text text-anchor="middle" x="389" y="-348.8" font-family="Times,serif" font-size="14.00">main/item_1</text>
</g>
<!-- main/item_1&#45;&gt;main/directory_stage_in_0 -->
<g id="edge9" class="edge">
<title>main/item_1&#45;&gt;main/directory_stage_in_0</title>
<path fill="none" stroke="black" d="M390.86,-334.34C391.8,-325.56 392.98,-314.66 394.05,-304.77"/>
<polygon fill="black" stroke="black" points="397.56,-304.89 395.15,-294.57 390.6,-304.14 397.56,-304.89"/>
</g>
<!-- main/item_2 -->
<g id="node10" class="node">
<title>main/item_2</title>
<polygon fill="#94ddf4" stroke="black" points="633,-334.5 633,-370.5 737,-370.5 737,-334.5 633,-334.5"/>
<text text-anchor="middle" x="685" y="-348.8" font-family="Times,serif" font-size="14.00">main/item_2</text>
</g>
<!-- main/item_2&#45;&gt;main/directory_stage_in_1 -->
<g id="edge10" class="edge">
<title>main/item_2&#45;&gt;main/directory_stage_in_1</title>
<path fill="none" stroke="black" d="M669.46,-334.34C660.84,-324.81 649.95,-312.79 640.42,-302.26"/>
<polygon fill="black" stroke="black" points="642.76,-299.63 633.46,-294.57 637.57,-304.33 642.76,-299.63"/>
</g>
<!-- main/aws_access_key_id -->
<g id="node11" class="node">
<title>main/aws_access_key_id</title>
<polygon fill="#94ddf4" stroke="black" points="755.5,-334.5 755.5,-370.5 944.5,-370.5 944.5,-334.5 755.5,-334.5"/>
<text text-anchor="middle" x="850" y="-348.8" font-family="Times,serif" font-size="14.00">main/aws_access_key_id</text>
</g>
<!-- main/aws_access_key_id&#45;&gt;main/stage_out_0 -->
<g id="edge11" class="edge">
<title>main/aws_access_key_id&#45;&gt;main/stage_out_0</title>
<path fill="none" stroke="black" d="M882.92,-334.42C959.15,-294.86 1147.73,-197.02 1232.07,-153.26"/>
<polygon fill="black" stroke="black" points="1233.84,-156.28 1241.1,-148.57 1230.61,-150.07 1233.84,-156.28"/>
</g>
<!-- main/aws_secret_access_key -->
<g id="node12" class="node">
<title>main/aws_secret_access_key</title>
<polygon fill="#94ddf4" stroke="black" points="963,-334.5 963,-370.5 1183,-370.5 1183,-334.5 963,-334.5"/>
<text text-anchor="middle" x="1073" y="-348.8" font-family="Times,serif" font-size="14.00">main/aws_secret_access_key</text>
</g>
<!-- main/aws_secret_access_key&#45;&gt;main/stage_out_0 -->
<g id="edge12" class="edge">
<title>main/aws_secret_access_key&#45;&gt;main/stage_out_0</title>
<path fill="none" stroke="black" d="M1088.77,-334.24C1124.22,-295.44 1210.28,-201.24 1251.4,-156.23"/>
<polygon fill="black" stroke="black" points="1254.14,-158.43 1258.3,-148.68 1248.97,-153.7 1254.14,-158.43"/>
</g>
<!-- main/endpoint_url -->
<g id="node13" class="node">
<title>main/endpoint_url</title>
<polygon fill="#94ddf4" stroke="black" points="1201,-334.5 1201,-370.5 1347,-370.5 1347,-334.5 1201,-334.5"/>
<text text-anchor="middle" x="1274" y="-348.8" font-family="Times,serif" font-size="14.00">main/endpoint_url</text>
</g>
<!-- main/endpoint_url&#45;&gt;main/stage_out_0 -->
<g id="edge13" class="edge">
<title>main/endpoint_url&#45;&gt;main/stage_out_0</title>
<path fill="none" stroke="black" d="M1274,-334.24C1274,-296.16 1274,-204.73 1274,-158.8"/>
<polygon fill="black" stroke="black" points="1277.5,-158.68 1274,-148.68 1270.5,-158.68 1277.5,-158.68"/>
</g>
<!-- main/region_name -->
<g id="node14" class="node">
<title>main/region_name</title>
<polygon fill="#94ddf4" stroke="black" points="1365,-334.5 1365,-370.5 1513,-370.5 1513,-334.5 1365,-334.5"/>
<text text-anchor="middle" x="1439" y="-348.8" font-family="Times,serif" font-size="14.00">main/region_name</text>
</g>
<!-- main/region_name&#45;&gt;main/stage_out_0 -->
<g id="edge14" class="edge">
<title>main/region_name&#45;&gt;main/stage_out_0</title>
<path fill="none" stroke="black" d="M1426.05,-334.24C1397.08,-295.6 1326.89,-202.02 1292.97,-156.8"/>
<polygon fill="black" stroke="black" points="1295.69,-154.58 1286.89,-148.68 1290.09,-158.78 1295.69,-154.58"/>
</g>
<!-- main/s3_bucket -->
<g id="node15" class="node">
<title>main/s3_bucket</title>
<polygon fill="#94ddf4" stroke="black" points="1531,-334.5 1531,-370.5 1659,-370.5 1659,-334.5 1531,-334.5"/>
<text text-anchor="middle" x="1595" y="-348.8" font-family="Times,serif" font-size="14.00">main/s3_bucket</text>
</g>
<!-- main/s3_bucket&#45;&gt;main/stage_out_0 -->
<g id="edge15" class="edge">
<title>main/s3_bucket&#45;&gt;main/stage_out_0</title>
<path fill="none" stroke="black" d="M1570.08,-334.42C1512.96,-295.27 1372.54,-199.03 1307.75,-154.63"/>
<polygon fill="black" stroke="black" points="1309.35,-151.49 1299.13,-148.72 1305.4,-157.26 1309.35,-151.49"/>
</g>
<!-- main/sub_path -->
<g id="node16" class="node">
<title>main/sub_path</title>
<polygon fill="#94ddf4" stroke="black" points="1677.5,-334.5 1677.5,-370.5 1798.5,-370.5 1798.5,-334.5 1677.5,-334.5"/>
<text text-anchor="middle" x="1738" y="-348.8" font-family="Times,serif" font-size="14.00">main/sub_path</text>
</g>
<!-- main/sub_path&#45;&gt;main/stage_out_0 -->
<g id="edge16" class="edge">
<title>main/sub_path&#45;&gt;main/stage_out_0</title>
<path fill="none" stroke="black" d="M1715.71,-334.39C1702.31,-324.52 1684.66,-312.28 1668,-303 1552.84,-238.85 1408.96,-181.56 1330.86,-152.21"/>
<polygon fill="black" stroke="black" points="1331.8,-148.83 1321.2,-148.6 1329.34,-155.38 1331.8,-148.83"/>
</g>
</g>
</svg>
