<?xml version="1.0" encoding="UTF-8" standalone="no"?>
<!DOCTYPE svg PUBLIC "-//W3C//DTD SVG 1.1//EN"
 "http://www.w3.org/Graphics/SVG/1.1/DTD/svg11.dtd">
<!-- Generated by graphviz version 2.43.0 (0)
 -->
<!-- Title: G Pages: 1 -->
<svg width="1872pt" height="395pt"
 viewBox="0.00 0.00 1872.00 395.00" xmlns="http://www.w3.org/2000/svg" xmlns:xlink="http://www.w3.org/1999/xlink">
<g id="graph0" class="graph" transform="scale(1 1) rotate(0) translate(4 391)">
<title>G</title>
<polygon fill="#eeeeee" stroke="transparent" points="-4,4 -4,-391 1868,-391 1868,4 -4,4"/>
<g id="clust1" class="cluster">
<title>cluster_inputs</title>
<polygon fill="#eeeeee" stroke="black" stroke-dasharray="5,2" points="8,-303 8,-379 1856,-379 1856,-303 8,-303"/>
<text text-anchor="middle" x="1789.5" y="-310.8" font-family="Times,serif" font-size="14.00">Workflow Inputs</text>
</g>
<g id="clust2" class="cluster">
<title>cluster_outputs</title>
<polygon fill="#eeeeee" stroke="black" stroke-dasharray="5,2" points="1239,-8 1239,-84 1407,-84 1407,-8 1239,-8"/>
<text text-anchor="middle" x="1334.5" y="-15.8" font-family="Times,serif" font-size="14.00">Workflow Outputs</text>
</g>
<!-- main/directory_stage_in_0 -->
<g id="node1" class="node">
<title>main/directory_stage_in_0</title>
<polygon fill="lightgoldenrodyellow" stroke="black" points="465.5,-258.5 465.5,-294.5 668.5,-294.5 668.5,-258.5 465.5,-258.5"/>
<text text-anchor="middle" x="567" y="-272.8" font-family="Times,serif" font-size="14.00">main/directory_stage_in_0</text>
</g>
<!-- main/app -->
<g id="node2" class="node">
<title>main/app</title>
<polygon fill="#f3cea1" stroke="black" points="89,-185.5 89,-221.5 553,-221.5 553,-185.5 89,-185.5"/>
<text text-anchor="middle" x="321" y="-199.8" font-family="Times,serif" font-size="14.00">Water bodies detection based on NDWI and the otsu threshold</text>
</g>
<!-- main/directory_stage_in_0&#45;&gt;main/app -->
<g id="edge1" class="edge">
<title>main/directory_stage_in_0&#45;&gt;main/app</title>
<path fill="none" stroke="black" d="M508.08,-258.49C472.59,-248.25 427.22,-235.16 390.05,-224.43"/>
<polygon fill="black" stroke="black" points="390.87,-221.02 380.29,-221.61 388.93,-227.75 390.87,-221.02"/>
</g>
<!-- main/stage_out_0 -->
<g id="node3" class="node">
<title>main/stage_out_0</title>
<polygon fill="lightgoldenrodyellow" stroke="black" points="1252.5,-112.5 1252.5,-148.5 1393.5,-148.5 1393.5,-112.5 1252.5,-112.5"/>
<text text-anchor="middle" x="1323" y="-126.8" font-family="Times,serif" font-size="14.00">main/stage_out_0</text>
</g>
<!-- main/app&#45;&gt;main/stage_out_0 -->
<g id="edge2" class="edge">
<title>main/app&#45;&gt;main/stage_out_0</title>
<path fill="none" stroke="black" d="M553.08,-186.06C773.96,-170.4 1093.94,-147.73 1242.1,-137.23"/>
<polygon fill="black" stroke="black" points="1242.74,-140.7 1252.47,-136.5 1242.25,-133.71 1242.74,-140.7"/>
</g>
<!-- main/water_bodies -->
<g id="node16" class="node">
<title>main/water_bodies</title>
<polygon fill="#94ddf4" stroke="black" points="1247.5,-39.5 1247.5,-75.5 1398.5,-75.5 1398.5,-39.5 1247.5,-39.5"/>
<text text-anchor="middle" x="1323" y="-53.8" font-family="Times,serif" font-size="14.00">main/water_bodies</text>
</g>
<!-- main/stage_out_0&#45;&gt;main/water_bodies -->
<g id="edge15" class="edge">
<title>main/stage_out_0&#45;&gt;main/water_bodies</title>
<path fill="none" stroke="black" d="M1323,-112.31C1323,-104.29 1323,-94.55 1323,-85.57"/>
<polygon fill="black" stroke="black" points="1326.5,-85.53 1323,-75.53 1319.5,-85.53 1326.5,-85.53"/>
</g>
<!-- main/aoi -->
<g id="node4" class="node">
<title>main/aoi</title>
<polygon fill="#94ddf4" stroke="black" points="16.5,-334.5 16.5,-370.5 93.5,-370.5 93.5,-334.5 16.5,-334.5"/>
<text text-anchor="middle" x="55" y="-348.8" font-family="Times,serif" font-size="14.00">main/aoi</text>
</g>
<!-- main/aoi&#45;&gt;main/app -->
<g id="edge3" class="edge">
<title>main/aoi&#45;&gt;main/app</title>
<path fill="none" stroke="black" d="M69.25,-334.21C78.17,-324.16 90.35,-311.79 103,-303 152.03,-268.92 214.75,-242.05 260.31,-225.04"/>
<polygon fill="black" stroke="black" points="261.59,-228.3 269.77,-221.56 259.17,-221.73 261.59,-228.3"/>
</g>
<!-- main/bands -->
<g id="node5" class="node">
<title>main/bands</title>
<polygon fill="#94ddf4" stroke="black" points="111.5,-334.5 111.5,-370.5 210.5,-370.5 210.5,-334.5 111.5,-334.5"/>
<text text-anchor="middle" x="161" y="-348.8" font-family="Times,serif" font-size="14.00">main/bands</text>
</g>
<!-- main/bands&#45;&gt;main/app -->
<g id="edge4" class="edge">
<title>main/bands&#45;&gt;main/app</title>
<path fill="none" stroke="black" d="M179.67,-334.35C208.09,-308.24 262.32,-258.41 294.72,-228.65"/>
<polygon fill="black" stroke="black" points="297.46,-230.88 302.45,-221.54 292.72,-225.73 297.46,-230.88"/>
</g>
<!-- main/epsg -->
<g id="node6" class="node">
<title>main/epsg</title>
<polygon fill="#94ddf4" stroke="black" points="229,-334.5 229,-370.5 319,-370.5 319,-334.5 229,-334.5"/>
<text text-anchor="middle" x="274" y="-348.8" font-family="Times,serif" font-size="14.00">main/epsg</text>
</g>
<!-- main/epsg&#45;&gt;main/app -->
<g id="edge5" class="edge">
<title>main/epsg&#45;&gt;main/app</title>
<path fill="none" stroke="black" d="M279.48,-334.35C287.58,-309.01 302.83,-261.35 312.42,-231.35"/>
<polygon fill="black" stroke="black" points="315.84,-232.13 315.55,-221.54 309.17,-230 315.84,-232.13"/>
</g>
<!-- main/produce_output -->
<g id="node7" class="node">
<title>main/produce_output</title>
<polygon fill="#94ddf4" stroke="black" points="337,-334.5 337,-370.5 505,-370.5 505,-334.5 337,-334.5"/>
<text text-anchor="middle" x="421" y="-348.8" font-family="Times,serif" font-size="14.00">main/produce_output</text>
</g>
<!-- main/produce_output&#45;&gt;main/app -->
<g id="edge6" class="edge">
<title>main/produce_output&#45;&gt;main/app</title>
<path fill="none" stroke="black" d="M409.33,-334.35C391.87,-308.68 358.82,-260.09 338.47,-230.18"/>
<polygon fill="black" stroke="black" points="341.11,-227.84 332.59,-221.54 335.32,-231.78 341.11,-227.84"/>
</g>
<!-- main/another_input -->
<g id="node8" class="node">
<title>main/another_input</title>
<polygon fill="#94ddf4" stroke="black" points="630,-334.5 630,-370.5 786,-370.5 786,-334.5 630,-334.5"/>
<text text-anchor="middle" x="708" y="-348.8" font-family="Times,serif" font-size="14.00">main/another_input</text>
</g>
<!-- main/another_input&#45;&gt;main/directory_stage_in_0 -->
<g id="edge7" class="edge">
<title>main/another_input&#45;&gt;main/directory_stage_in_0</title>
<path fill="none" stroke="black" d="M678.47,-334.39C661.76,-324.87 640.38,-312.96 621,-303 618.45,-301.69 615.82,-300.36 613.16,-299.04"/>
<polygon fill="black" stroke="black" points="614.57,-295.84 604.05,-294.59 611.5,-302.13 614.57,-295.84"/>
</g>
<!-- main/item -->
<g id="node9" class="node">
<title>main/item</title>
<polygon fill="#94ddf4" stroke="black" points="522.5,-334.5 522.5,-370.5 611.5,-370.5 611.5,-334.5 522.5,-334.5"/>
<text text-anchor="middle" x="567" y="-348.8" font-family="Times,serif" font-size="14.00">main/item</text>
</g>
<!-- main/item&#45;&gt;main/directory_stage_in_0 -->
<g id="edge8" class="edge">
<title>main/item&#45;&gt;main/directory_stage_in_0</title>
<path fill="none" stroke="black" d="M567,-334.34C567,-325.56 567,-314.66 567,-304.77"/>
<polygon fill="black" stroke="black" points="570.5,-304.57 567,-294.57 563.5,-304.57 570.5,-304.57"/>
</g>
<!-- main/aws_access_key_id -->
<g id="node10" class="node">
<title>main/aws_access_key_id</title>
<polygon fill="#94ddf4" stroke="black" points="804.5,-334.5 804.5,-370.5 993.5,-370.5 993.5,-334.5 804.5,-334.5"/>
<text text-anchor="middle" x="899" y="-348.8" font-family="Times,serif" font-size="14.00">main/aws_access_key_id</text>
</g>
<!-- main/aws_access_key_id&#45;&gt;main/stage_out_0 -->
<g id="edge9" class="edge">
<title>main/aws_access_key_id&#45;&gt;main/stage_out_0</title>
<path fill="none" stroke="black" d="M931.92,-334.42C1008.15,-294.86 1196.73,-197.02 1281.07,-153.26"/>
<polygon fill="black" stroke="black" points="1282.84,-156.28 1290.1,-148.57 1279.61,-150.07 1282.84,-156.28"/>
</g>
<!-- main/aws_secret_access_key -->
<g id="node11" class="node">
<title>main/aws_secret_access_key</title>
<polygon fill="#94ddf4" stroke="black" points="1012,-334.5 1012,-370.5 1232,-370.5 1232,-334.5 1012,-334.5"/>
<text text-anchor="middle" x="1122" y="-348.8" font-family="Times,serif" font-size="14.00">main/aws_secret_access_key</text>
</g>
<!-- main/aws_secret_access_key&#45;&gt;main/stage_out_0 -->
<g id="edge10" class="edge">
<title>main/aws_secret_access_key&#45;&gt;main/stage_out_0</title>
<path fill="none" stroke="black" d="M1137.77,-334.24C1173.22,-295.44 1259.28,-201.24 1300.4,-156.23"/>
<polygon fill="black" stroke="black" points="1303.14,-158.43 1307.3,-148.68 1297.97,-153.7 1303.14,-158.43"/>
</g>
<!-- main/endpoint_url -->
<g id="node12" class="node">
<title>main/endpoint_url</title>
<polygon fill="#94ddf4" stroke="black" points="1250,-334.5 1250,-370.5 1396,-370.5 1396,-334.5 1250,-334.5"/>
<text text-anchor="middle" x="1323" y="-348.8" font-family="Times,serif" font-size="14.00">main/endpoint_url</text>
</g>
<!-- main/endpoint_url&#45;&gt;main/stage_out_0 -->
<g id="edge11" class="edge">
<title>main/endpoint_url&#45;&gt;main/stage_out_0</title>
<path fill="none" stroke="black" d="M1323,-334.24C1323,-296.16 1323,-204.73 1323,-158.8"/>
<polygon fill="black" stroke="black" points="1326.5,-158.68 1323,-148.68 1319.5,-158.68 1326.5,-158.68"/>
</g>
<!-- main/region_name -->
<g id="node13" class="node">
<title>main/region_name</title>
<polygon fill="#94ddf4" stroke="black" points="1414,-334.5 1414,-370.5 1562,-370.5 1562,-334.5 1414,-334.5"/>
<text text-anchor="middle" x="1488" y="-348.8" font-family="Times,serif" font-size="14.00">main/region_name</text>
</g>
<!-- main/region_name&#45;&gt;main/stage_out_0 -->
<g id="edge12" class="edge">
<title>main/region_name&#45;&gt;main/stage_out_0</title>
<path fill="none" stroke="black" d="M1475.05,-334.24C1446.08,-295.6 1375.89,-202.02 1341.97,-156.8"/>
<polygon fill="black" stroke="black" points="1344.69,-154.58 1335.89,-148.68 1339.09,-158.78 1344.69,-154.58"/>
</g>
<!-- main/s3_bucket -->
<g id="node14" class="node">
<title>main/s3_bucket</title>
<polygon fill="#94ddf4" stroke="black" points="1580,-334.5 1580,-370.5 1708,-370.5 1708,-334.5 1580,-334.5"/>
<text text-anchor="middle" x="1644" y="-348.8" font-family="Times,serif" font-size="14.00">main/s3_bucket</text>
</g>
<!-- main/s3_bucket&#45;&gt;main/stage_out_0 -->
<g id="edge13" class="edge">
<title>main/s3_bucket&#45;&gt;main/stage_out_0</title>
<path fill="none" stroke="black" d="M1619.08,-334.42C1561.96,-295.27 1421.54,-199.03 1356.75,-154.63"/>
<polygon fill="black" stroke="black" points="1358.35,-151.49 1348.13,-148.72 1354.4,-157.26 1358.35,-151.49"/>
</g>
<!-- main/sub_path -->
<g id="node15" class="node">
<title>main/sub_path</title>
<polygon fill="#94ddf4" stroke="black" points="1726.5,-334.5 1726.5,-370.5 1847.5,-370.5 1847.5,-334.5 1726.5,-334.5"/>
<text text-anchor="middle" x="1787" y="-348.8" font-family="Times,serif" font-size="14.00">main/sub_path</text>
</g>
<!-- main/sub_path&#45;&gt;main/stage_out_0 -->
<g id="edge14" class="edge">
<title>main/sub_path&#45;&gt;main/stage_out_0</title>
<path fill="none" stroke="black" d="M1764.71,-334.39C1751.31,-324.52 1733.66,-312.28 1717,-303 1601.84,-238.85 1457.96,-181.56 1379.86,-152.21"/>
<polygon fill="black" stroke="black" points="1380.8,-148.83 1370.2,-148.6 1378.34,-155.38 1380.8,-148.83"/>
</g>
</g>
</svg>
