<svg class="rich-terminal" viewBox="0 0 994 635.5999999999999" xmlns="http://www.w3.org/2000/svg">
    <!-- Generated with Rich https://www.textualize.io -->
    <style>

    @font-face {
        font-family: "Fira Code";
        src: local("FiraCode-Regular"),
                url("https://cdnjs.cloudflare.com/ajax/libs/firacode/6.2.0/woff2/FiraCode-Regular.woff2") format("woff2"),
                url("https://cdnjs.cloudflare.com/ajax/libs/firacode/6.2.0/woff/FiraCode-Regular.woff") format("woff");
        font-style: normal;
        font-weight: 400;
    }
    @font-face {
        font-family: "Fira Code";
        src: local("FiraCode-Bold"),
                url("https://cdnjs.cloudflare.com/ajax/libs/firacode/6.2.0/woff2/FiraCode-Bold.woff2") format("woff2"),
                url("https://cdnjs.cloudflare.com/ajax/libs/firacode/6.2.0/woff/FiraCode-Bold.woff") format("woff");
        font-style: bold;
        font-weight: 700;
    }

    .terminal-1582782557-matrix {
        font-family: Fira Code, monospace;
        font-size: 20px;
        line-height: 24.4px;
        font-variant-east-asian: full-width;
    }

    .terminal-1582782557-title {
        font-size: 18px;
        font-weight: bold;
        font-family: arial;
    }

    .terminal-1582782557-r1 { fill: #0f2b41 }
.terminal-1582782557-r2 { fill: #c5c8c6 }
.terminal-1582782557-r3 { fill: #e3e3e3 }
.terminal-1582782557-r4 { fill: #e1e1e1 }
    </style>

    <defs>
    <clipPath id="terminal-1582782557-clip-terminal">
      <rect x="0" y="0" width="975.0" height="584.5999999999999" />
    </clipPath>
    <clipPath id="terminal-1582782557-line-0">
    <rect x="0" y="1.5" width="976" height="24.65"/>
            </clipPath>
<clipPath id="terminal-1582782557-line-1">
    <rect x="0" y="25.9" width="976" height="24.65"/>
            </clipPath>
<clipPath id="terminal-1582782557-line-2">
    <rect x="0" y="50.3" width="976" height="24.65"/>
            </clipPath>
<clipPath id="terminal-1582782557-line-3">
    <rect x="0" y="74.7" width="976" height="24.65"/>
            </clipPath>
<clipPath id="terminal-1582782557-line-4">
    <rect x="0" y="99.1" width="976" height="24.65"/>
            </clipPath>
<clipPath id="terminal-1582782557-line-5">
    <rect x="0" y="123.5" width="976" height="24.65"/>
            </clipPath>
<clipPath id="terminal-1582782557-line-6">
    <rect x="0" y="147.9" width="976" height="24.65"/>
            </clipPath>
<clipPath id="terminal-1582782557-line-7">
    <rect x="0" y="172.3" width="976" height="24.65"/>
            </clipPath>
<clipPath id="terminal-1582782557-line-8">
    <rect x="0" y="196.7" width="976" height="24.65"/>
            </clipPath>
<clipPath id="terminal-1582782557-line-9">
    <rect x="0" y="221.1" width="976" height="24.65"/>
            </clipPath>
<clipPath id="terminal-1582782557-line-10">
    <rect x="0" y="245.5" width="976" height="24.65"/>
            </clipPath>
<clipPath id="terminal-1582782557-line-11">
    <rect x="0" y="269.9" width="976" height="24.65"/>
            </clipPath>
<clipPath id="terminal-1582782557-line-12">
    <rect x="0" y="294.3" width="976" height="24.65"/>
            </clipPath>
<clipPath id="terminal-1582782557-line-13">
    <rect x="0" y="318.7" width="976" height="24.65"/>
            </clipPath>
<clipPath id="terminal-1582782557-line-14">
    <rect x="0" y="343.1" width="976" height="24.65"/>
            </clipPath>
<clipPath id="terminal-1582782557-line-15">
    <rect x="0" y="367.5" width="976" height="24.65"/>
            </clipPath>
<clipPath id="terminal-1582782557-line-16">
    <rect x="0" y="391.9" width="976" height="24.65"/>
            </clipPath>
<clipPath id="terminal-1582782557-line-17">
    <rect x="0" y="416.3" width="976" height="24.65"/>
            </clipPath>
<clipPath id="terminal-1582782557-line-18">
    <rect x="0" y="440.7" width="976" height="24.65"/>
            </clipPath>
<clipPath id="terminal-1582782557-line-19">
    <rect x="0" y="465.1" width="976" height="24.65"/>
            </clipPath>
<clipPath id="terminal-1582782557-line-20">
    <rect x="0" y="489.5" width="976" height="24.65"/>
            </clipPath>
<clipPath id="terminal-1582782557-line-21">
    <rect x="0" y="513.9" width="976" height="24.65"/>
            </clipPath>
<clipPath id="terminal-1582782557-line-22">
    <rect x="0" y="538.3" width="976" height="24.65"/>
            </clipPath>
    </defs>

    <rect fill="#292929" stroke="rgba(255,255,255,0.35)" stroke-width="1" x="1" y="1" width="992" height="633.6" rx="8"/><text class="terminal-1582782557-title" fill="#c5c8c6" text-anchor="middle" x="496" y="27">DockLayoutExample</text>
            <g transform="translate(26,22)">
            <circle cx="0" cy="0" r="7" fill="#ff5f57"/>
            <circle cx="22" cy="0" r="7" fill="#febc2e"/>
            <circle cx="44" cy="0" r="7" fill="#28c840"/>
            </g>
        
    <g transform="translate(9, 41)" clip-path="url(#terminal-1582782557-clip-terminal)">
    <rect fill="#1e90ff" x="0" y="1.5" width="97.6" height="24.65" shape-rendering="crispEdges"/><rect fill="#1e90ff" x="97.6" y="1.5" width="85.4" height="24.65" shape-rendering="crispEdges"/><rect fill="#282828" x="183" y="1.5" width="170.8" height="24.65" shape-rendering="crispEdges"/><rect fill="#282828" x="353.8" y="1.5" width="207.4" height="24.65" shape-rendering="crispEdges"/><rect fill="#282828" x="561.2" y="1.5" width="268.4" height="24.65" shape-rendering="crispEdges"/><rect fill="#282828" x="829.6" y="1.5" width="12.2" height="24.65" shape-rendering="crispEdges"/><rect fill="#282828" x="841.8" y="1.5" width="0" height="24.65" shape-rendering="crispEdges"/><rect fill="#282828" x="841.8" y="1.5" width="97.6" height="24.65" shape-rendering="crispEdges"/><rect fill="#282828" x="939.4" y="1.5" width="12.2" height="24.65" shape-rendering="crispEdges"/><rect fill="#23568b" x="951.6" y="1.5" width="24.4" height="24.65" shape-rendering="crispEdges"/><rect fill="#1e90ff" x="0" y="25.9" width="183" height="24.65" shape-rendering="crispEdges"/><rect fill="#1e1e1e" x="183" y="25.9" width="707.6" height="24.65" shape-rendering="crispEdges"/><rect fill="#1e1e1e" x="890.6" y="25.9" width="61" height="24.65" shape-rendering="crispEdges"/><rect fill="#23568b" x="951.6" y="25.9" width="24.4" height="24.65" shape-rendering="crispEdges"/><rect fill="#1e90ff" x="0" y="50.3" width="183" height="24.65" shape-rendering="crispEdges"/><rect fill="#1e1e1e" x="183" y="50.3" width="732" height="24.65" shape-rendering="crispEdges"/><rect fill="#1e1e1e" x="915" y="50.3" width="36.6" height="24.65" shape-rendering="crispEdges"/><rect fill="#23568b" x="951.6" y="50.3" width="24.4" height="24.65" shape-rendering="crispEdges"/><rect fill="#1e90ff" x="0" y="74.7" width="183" height="24.65" shape-rendering="crispEdges"/><rect fill="#1e1e1e" x="183" y="74.7" width="256.2" height="24.65" shape-rendering="crispEdges"/><rect fill="#1e1e1e" x="439.2" y="74.7" width="512.4" height="24.65" shape-rendering="crispEdges"/><rect fill="#23568b" x="951.6" y="74.7" width="24.4" height="24.65" shape-rendering="crispEdges"/><rect fill="#1e90ff" x="0" y="99.1" width="183" height="24.65" shape-rendering="crispEdges"/><rect fill="#1e1e1e" x="183" y="99.1" width="768.6" height="24.65" shape-rendering="crispEdges"/><rect fill="#23568b" x="951.6" y="99.1" width="24.4" height="24.65" shape-rendering="crispEdges"/><rect fill="#1e90ff" x="0" y="123.5" width="183" height="24.65" shape-rendering="crispEdges"/><rect fill="#1e1e1e" x="183" y="123.5" width="756.4" height="24.65" shape-rendering="crispEdges"/><rect fill="#1e1e1e" x="939.4" y="123.5" width="12.2" height="24.65" shape-rendering="crispEdges"/><rect fill="#23568b" x="951.6" y="123.5" width="24.4" height="24.65" shape-rendering="crispEdges"/><rect fill="#1e90ff" x="0" y="147.9" width="183" height="24.65" shape-rendering="crispEdges"/><rect fill="#1e1e1e" x="183" y="147.9" width="512.4" height="24.65" shape-rendering="crispEdges"/><rect fill="#1e1e1e" x="695.4" y="147.9" width="256.2" height="24.65" shape-rendering="crispEdges"/><rect fill="#23568b" x="951.6" y="147.9" width="24.4" height="24.65" shape-rendering="crispEdges"/><rect fill="#1e90ff" x="0" y="172.3" width="183" height="24.65" shape-rendering="crispEdges"/><rect fill="#1e1e1e" x="183" y="172.3" width="768.6" height="24.65" shape-rendering="crispEdges"/><rect fill="#23568b" x="951.6" y="172.3" width="24.4" height="24.65" shape-rendering="crispEdges"/><rect fill="#1e90ff" x="0" y="196.7" width="183" height="24.65" shape-rendering="crispEdges"/><rect fill="#1e1e1e" x="183" y="196.7" width="707.6" height="24.65" shape-rendering="crispEdges"/><rect fill="#1e1e1e" x="890.6" y="196.7" width="61" height="24.65" shape-rendering="crispEdges"/><rect fill="#14191f" x="951.6" y="196.7" width="24.4" height="24.65" shape-rendering="crispEdges"/><rect fill="#1e90ff" x="0" y="221.1" width="183" height="24.65" shape-rendering="crispEdges"/><rect fill="#1e1e1e" x="183" y="221.1" width="732" height="24.65" shape-rendering="crispEdges"/><rect fill="#1e1e1e" x="915" y="221.1" width="36.6" height="24.65" shape-rendering="crispEdges"/><rect fill="#14191f" x="951.6" y="221.1" width="24.4" height="24.65" shape-rendering="crispEdges"/><rect fill="#1e90ff" x="0" y="245.5" width="183" height="24.65" shape-rendering="crispEdges"/><rect fill="#1e1e1e" x="183" y="245.5" width="256.2" height="24.65" shape-rendering="crispEdges"/><rect fill="#1e1e1e" x="439.2" y="245.5" width="512.4" height="24.65" shape-rendering="crispEdges"/><rect fill="#14191f" x="951.6" y="245.5" width="24.4" height="24.65" shape-rendering="crispEdges"/><rect fill="#1e90ff" x="0" y="269.9" width="183" height="24.65" shape-rendering="crispEdges"/><rect fill="#1e1e1e" x="183" y="269.9" width="768.6" height="24.65" shape-rendering="crispEdges"/><rect fill="#14191f" x="951.6" y="269.9" width="24.4" height="24.65" shape-rendering="crispEdges"/><rect fill="#1e90ff" x="0" y="294.3" width="183" height="24.65" shape-rendering="crispEdges"/><rect fill="#1e1e1e" x="183" y="294.3" width="756.4" height="24.65" shape-rendering="crispEdges"/><rect fill="#1e1e1e" x="939.4" y="294.3" width="12.2" height="24.65" shape-rendering="crispEdges"/><rect fill="#14191f" x="951.6" y="294.3" width="24.4" height="24.65" shape-rendering="crispEdges"/><rect fill="#1e90ff" x="0" y="318.7" width="183" height="24.65" shape-rendering="crispEdges"/><rect fill="#1e1e1e" x="183" y="318.7" width="512.4" height="24.65" shape-rendering="crispEdges"/><rect fill="#1e1e1e" x="695.4" y="318.7" width="256.2" height="24.65" shape-rendering="crispEdges"/><rect fill="#14191f" x="951.6" y="318.7" width="24.4" height="24.65" shape-rendering="crispEdges"/><rect fill="#1e90ff" x="0" y="343.1" width="183" height="24.65" shape-rendering="crispEdges"/><rect fill="#1e1e1e" x="183" y="343.1" width="768.6" height="24.65" shape-rendering="crispEdges"/><rect fill="#14191f" x="951.6" y="343.1" width="24.4" height="24.65" shape-rendering="crispEdges"/><rect fill="#1e90ff" x="0" y="367.5" width="183" height="24.65" shape-rendering="crispEdges"/><rect fill="#1e1e1e" x="183" y="367.5" width="707.6" height="24.65" shape-rendering="crispEdges"/><rect fill="#1e1e1e" x="890.6" y="367.5" width="61" height="24.65" shape-rendering="crispEdges"/><rect fill="#14191f" x="951.6" y="367.5" width="24.4" height="24.65" shape-rendering="crispEdges"/><rect fill="#1e90ff" x="0" y="391.9" width="183" height="24.65" shape-rendering="crispEdges"/><rect fill="#1e1e1e" x="183" y="391.9" width="732" height="24.65" shape-rendering="crispEdges"/><rect fill="#1e1e1e" x="915" y="391.9" width="36.6" height="24.65" shape-rendering="crispEdges"/><rect fill="#14191f" x="951.6" y="391.9" width="24.4" height="24.65" shape-rendering="crispEdges"/><rect fill="#1e90ff" x="0" y="416.3" width="183" height="24.65" shape-rendering="crispEdges"/><rect fill="#1e1e1e" x="183" y="416.3" width="256.2" height="24.65" shape-rendering="crispEdges"/><rect fill="#1e1e1e" x="439.2" y="416.3" width="512.4" height="24.65" shape-rendering="crispEdges"/><rect fill="#14191f" x="951.6" y="416.3" width="24.4" height="24.65" shape-rendering="crispEdges"/><rect fill="#1e90ff" x="0" y="440.7" width="183" height="24.65" shape-rendering="crispEdges"/><rect fill="#1e1e1e" x="183" y="440.7" width="768.6" height="24.65" shape-rendering="crispEdges"/><rect fill="#14191f" x="951.6" y="440.7" width="24.4" height="24.65" shape-rendering="crispEdges"/><rect fill="#1e90ff" x="0" y="465.1" width="183" height="24.65" shape-rendering="crispEdges"/><rect fill="#1e1e1e" x="183" y="465.1" width="756.4" height="24.65" shape-rendering="crispEdges"/><rect fill="#1e1e1e" x="939.4" y="465.1" width="12.2" height="24.65" shape-rendering="crispEdges"/><rect fill="#14191f" x="951.6" y="465.1" width="24.4" height="24.65" shape-rendering="crispEdges"/><rect fill="#1e90ff" x="0" y="489.5" width="183" height="24.65" shape-rendering="crispEdges"/><rect fill="#1e1e1e" x="183" y="489.5" width="512.4" height="24.65" shape-rendering="crispEdges"/><rect fill="#1e1e1e" x="695.4" y="489.5" width="256.2" height="24.65" shape-rendering="crispEdges"/><rect fill="#14191f" x="951.6" y="489.5" width="24.4" height="24.65" shape-rendering="crispEdges"/><rect fill="#1e90ff" x="0" y="513.9" width="183" height="24.65" shape-rendering="crispEdges"/><rect fill="#1e1e1e" x="183" y="513.9" width="768.6" height="24.65" shape-rendering="crispEdges"/><rect fill="#14191f" x="951.6" y="513.9" width="24.4" height="24.65" shape-rendering="crispEdges"/><rect fill="#1e90ff" x="0" y="538.3" width="183" height="24.65" shape-rendering="crispEdges"/><rect fill="#1e1e1e" x="183" y="538.3" width="707.6" height="24.65" shape-rendering="crispEdges"/><rect fill="#1e1e1e" x="890.6" y="538.3" width="61" height="24.65" shape-rendering="crispEdges"/><rect fill="#14191f" x="951.6" y="538.3" width="24.4" height="24.65" shape-rendering="crispEdges"/><rect fill="#1e90ff" x="0" y="562.7" width="183" height="24.65" shape-rendering="crispEdges"/><rect fill="#1e1e1e" x="183" y="562.7" width="732" height="24.65" shape-rendering="crispEdges"/><rect fill="#1e1e1e" x="915" y="562.7" width="36.6" height="24.65" shape-rendering="crispEdges"/><rect fill="#14191f" x="951.6" y="562.7" width="24.4" height="24.65" shape-rendering="crispEdges"/>
    <g class="terminal-1582782557-matrix">
    <text class="terminal-1582782557-r1" x="0" y="20" textLength="97.6" clip-path="url(#terminal-1582782557-line-0)">Sidebar1</text><text class="terminal-1582782557-r3" x="353.8" y="20" textLength="207.4" clip-path="url(#terminal-1582782557-line-0)">DockLayoutExample</text><text class="terminal-1582782557-r2" x="976" y="20" textLength="12.2" clip-path="url(#terminal-1582782557-line-0)">
</text><text class="terminal-1582782557-r4" x="183" y="44.4" textLength="707.6" clip-path="url(#terminal-1582782557-line-1)">Docking&#160;a&#160;widget&#160;removes&#160;it&#160;from&#160;the&#160;layout&#160;and&#160;fixes&#160;its&#160;</text><text class="terminal-1582782557-r2" x="976" y="44.4" textLength="12.2" clip-path="url(#terminal-1582782557-line-1)">
</text><text class="terminal-1582782557-r4" x="183" y="68.8" textLength="732" clip-path="url(#terminal-1582782557-line-2)">position,&#160;aligned&#160;to&#160;either&#160;the&#160;top,&#160;right,&#160;bottom,&#160;or&#160;left&#160;</text><text class="terminal-1582782557-r2" x="976" y="68.8" textLength="12.2" clip-path="url(#terminal-1582782557-line-2)">
</text><text class="terminal-1582782557-r4" x="183" y="93.2" textLength="256.2" clip-path="url(#terminal-1582782557-line-3)">edges&#160;of&#160;a&#160;container.</text><text class="terminal-1582782557-r2" x="976" y="93.2" textLength="12.2" clip-path="url(#terminal-1582782557-line-3)">
</text><text class="terminal-1582782557-r2" x="976" y="117.6" textLength="12.2" clip-path="url(#terminal-1582782557-line-4)">
</text><text class="terminal-1582782557-r4" x="183" y="142" textLength="756.4" clip-path="url(#terminal-1582782557-line-5)">Docked&#160;widgets&#160;will&#160;not&#160;scroll&#160;out&#160;of&#160;view,&#160;making&#160;them&#160;ideal&#160;</text><text class="terminal-1582782557-r2" x="976" y="142" textLength="12.2" clip-path="url(#terminal-1582782557-line-5)">
</text><text class="terminal-1582782557-r4" x="183" y="166.4" textLength="512.4" clip-path="url(#terminal-1582782557-line-6)">for&#160;sticky&#160;headers,&#160;footers,&#160;and&#160;sidebars.</text><text class="terminal-1582782557-r2" x="976" y="166.4" textLength="12.2" clip-path="url(#terminal-1582782557-line-6)">
</text><text class="terminal-1582782557-r2" x="976" y="190.8" textLength="12.2" clip-path="url(#terminal-1582782557-line-7)">
</text><text class="terminal-1582782557-r4" x="183" y="215.2" textLength="707.6" clip-path="url(#terminal-1582782557-line-8)">Docking&#160;a&#160;widget&#160;removes&#160;it&#160;from&#160;the&#160;layout&#160;and&#160;fixes&#160;its&#160;</text><text class="terminal-1582782557-r2" x="976" y="215.2" textLength="12.2" clip-path="url(#terminal-1582782557-line-8)">
</text><text class="terminal-1582782557-r4" x="183" y="239.6" textLength="732" clip-path="url(#terminal-1582782557-line-9)">position,&#160;aligned&#160;to&#160;either&#160;the&#160;top,&#160;right,&#160;bottom,&#160;or&#160;left&#160;</text><text class="terminal-1582782557-r2" x="976" y="239.6" textLength="12.2" clip-path="url(#terminal-1582782557-line-9)">
</text><text class="terminal-1582782557-r4" x="183" y="264" textLength="256.2" clip-path="url(#terminal-1582782557-line-10)">edges&#160;of&#160;a&#160;container.</text><text class="terminal-1582782557-r2" x="976" y="264" textLength="12.2" clip-path="url(#terminal-1582782557-line-10)">
</text><text class="terminal-1582782557-r2" x="976" y="288.4" textLength="12.2" clip-path="url(#terminal-1582782557-line-11)">
</text><text class="terminal-1582782557-r4" x="183" y="312.8" textLength="756.4" clip-path="url(#terminal-1582782557-line-12)">Docked&#160;widgets&#160;will&#160;not&#160;scroll&#160;out&#160;of&#160;view,&#160;making&#160;them&#160;ideal&#160;</text><text class="terminal-1582782557-r2" x="976" y="312.8" textLength="12.2" clip-path="url(#terminal-1582782557-line-12)">
</text><text class="terminal-1582782557-r4" x="183" y="337.2" textLength="512.4" clip-path="url(#terminal-1582782557-line-13)">for&#160;sticky&#160;headers,&#160;footers,&#160;and&#160;sidebars.</text><text class="terminal-1582782557-r2" x="976" y="337.2" textLength="12.2" clip-path="url(#terminal-1582782557-line-13)">
</text><text class="terminal-1582782557-r2" x="976" y="361.6" textLength="12.2" clip-path="url(#terminal-1582782557-line-14)">
</text><text class="terminal-1582782557-r4" x="183" y="386" textLength="707.6" clip-path="url(#terminal-1582782557-line-15)">Docking&#160;a&#160;widget&#160;removes&#160;it&#160;from&#160;the&#160;layout&#160;and&#160;fixes&#160;its&#160;</text><text class="terminal-1582782557-r2" x="976" y="386" textLength="12.2" clip-path="url(#terminal-1582782557-line-15)">
</text><text class="terminal-1582782557-r4" x="183" y="410.4" textLength="732" clip-path="url(#terminal-1582782557-line-16)">position,&#160;aligned&#160;to&#160;either&#160;the&#160;top,&#160;right,&#160;bottom,&#160;or&#160;left&#160;</text><text class="terminal-1582782557-r2" x="976" y="410.4" textLength="12.2" clip-path="url(#terminal-1582782557-line-16)">
</text><text class="terminal-1582782557-r4" x="183" y="434.8" textLength="256.2" clip-path="url(#terminal-1582782557-line-17)">edges&#160;of&#160;a&#160;container.</text><text class="terminal-1582782557-r2" x="976" y="434.8" textLength="12.2" clip-path="url(#terminal-1582782557-line-17)">
</text><text class="terminal-1582782557-r2" x="976" y="459.2" textLength="12.2" clip-path="url(#terminal-1582782557-line-18)">
</text><text class="terminal-1582782557-r4" x="183" y="483.6" textLength="756.4" clip-path="url(#terminal-1582782557-line-19)">Docked&#160;widgets&#160;will&#160;not&#160;scroll&#160;out&#160;of&#160;view,&#160;making&#160;them&#160;ideal&#160;</text><text class="terminal-1582782557-r2" x="976" y="483.6" textLength="12.2" clip-path="url(#terminal-1582782557-line-19)">
</text><text class="terminal-1582782557-r4" x="183" y="508" textLength="512.4" clip-path="url(#terminal-1582782557-line-20)">for&#160;sticky&#160;headers,&#160;footers,&#160;and&#160;sidebars.</text><text class="terminal-1582782557-r2" x="976" y="508" textLength="12.2" clip-path="url(#terminal-1582782557-line-20)">
</text><text class="terminal-1582782557-r2" x="976" y="532.4" textLength="12.2" clip-path="url(#terminal-1582782557-line-21)">
</text><text class="terminal-1582782557-r4" x="183" y="556.8" textLength="707.6" clip-path="url(#terminal-1582782557-line-22)">Docking&#160;a&#160;widget&#160;removes&#160;it&#160;from&#160;the&#160;layout&#160;and&#160;fixes&#160;its&#160;</text><text class="terminal-1582782557-r2" x="976" y="556.8" textLength="12.2" clip-path="url(#terminal-1582782557-line-22)">
</text><text class="terminal-1582782557-r4" x="183" y="581.2" textLength="732" clip-path="url(#terminal-1582782557-line-23)">position,&#160;aligned&#160;to&#160;either&#160;the&#160;top,&#160;right,&#160;bottom,&#160;or&#160;left&#160;</text>
    </g>
    </g>
</svg>
