**ABCDEFGHIJKLMNOPQRSTUVWXYZabcdefghijklmnopqrstuvwxyz**************************
**PARASOLID !"#$%&'()*+,-./:;<=>?@[\]^_`{|}~0123456789**************************
**PART1;
MC=unknown;
MC_MODEL=unknown;
MC_ID=unknown;
OS=unknown;
OS_RELEASE=unknown;
FRU=sdl_parasolid_customer_support;
APPL=Example Application;
SITE=unknown;
USER=unknown;
FORMAT=text;
GUISE=transmit;
KEY=files/Cube.x_t;
FILE=files/Cube.x_t;
DATE=unknown;
**PART2;
SCH=SCH_3001220_30100;
USFLD_SIZE=0;
**PART3;
**END_OF_HEADER*****************************************************************
T51 : TRANSMIT FILE created by modeller version 300122023 SCH_3001220_30100_1300
6214 0 12 34 CCCCCCI4 mesh1006 0 I8 polyline1008 0 CCCCCCCDI5 owner1040 0 CCCCCC
I13 boundary_mesh1006 0 I17 boundary_polyline1008 0 CCCA16 index_map_offset0 0 1
 dA9 index_map82 0 A17 node_id_index_map82 0 A20 schema_embedding_map82 0 A5 chi
ld12 0 A14 lowest_node_id0 0 1 dA16 mesh_offset_data206 0 Z1 370 2 3 0 0 0 0 0 0
 1e3 1e-8 0 4 0 1 0 1 1 5 6 7 8 0 0 9 10 11 0 0 0 0 0 0 0 81 255 2 2 317 12 1 13
 0 0 0 0 14 70 11 CI9 list_type0 0 1 uI10 notransmit0 0 1 lCCCDCCDI12 finger_ind
ex0 0 1 dI12 finger_block1012 0 CZ3 0 4 T1 0 0 9 20 1 15 15 13 255 5 99 0 1 0 16
 0 0 17 0 50 255 6 94 0 16 18 0 0 +0 0 .01 1 0 0 0 0 -1 30 255 7 98 0 10 19 0 0
 +0 0 .01 0 0 -1 29 255 8 142 0 11 20 0 .0122601563467721 0 .01 19 8 CCCCCCCA5 o
wner12 0 Z9 33 0 1 17 0 21 V0 16 255 10 153 22 ?23 0 24 7 0 0 1 18 255 11 140 25
 26 0 27 8 ?1 81 1 25 342 28 11 0 0 29 30 31 17 255 26 0 32 33 34 11 35 36 0 37
 +18 27 30 38 39 11 40 41 ?1 81 1 38 334 28 27 0 0 42 43 44 17 39 0 45 46 47 27
 48 49 0 50 +18 40 27 51 47 27 52 53 ?1 29 41 32 0 27 53 54 0 .0273196553182534
 .01 29 53 29 0 40 55 41 .03994939761292135 .0273196553182534 .01 29 54 78 0 56
 41 57 0 0 0 18 56 69 58 23 59 60 54 ?1 29 57 77 0 59 54 61 .03994939761292135 0
 0 18 59 68 62 63 64 56 57 ?1 29 61 76 0 64 57 20 .03994939761292135 .0273196553
182534 0 18 64 67 65 66 67 59 61 ?1 29 20 75 0 67 61 8 0 .0273196553182534 0 18
 67 66 68 69 52 64 20 ?1 81 1 68 336 28 67 0 0 43 70 71 17 69 0 72 50 73 67 74 7
5 0 76 +18 52 24 30 77 40 67 55 ?1 81 1 30 343 28 52 0 0 25 78 79 17 77 0 45 47
 37 52 80 81 0 82 +29 55 26 0 52 83 53 .03994939761292135 0 .01 29 83 252 0 84 8
5 55 0 .01109344682730898 .01 18 84 205 86 87 88 89 83 ?1 29 85 253 0 89 90 83 .
0122601563467721 .01109344682730898 .01 18 89 207 91 92 84 0 85 ?1 29 90 256 0 6
0 93 85 0 .01109344682730898 .007 18 60 202 94 95 56 96 90 ?1 29 93 257 0 96 97
 90 .0122601563467721 .01109344682730898 .007 18 96 204 98 99 60 100 93 ?1 29 97
 258 0 100 101 93 .0122601563467721 0 .007 18 100 206 102 34 96 88 97 ?1 29 101
 259 0 88 0 97 0 0 .007 18 88 208 103 104 100 84 101 ?1 81 1 103 330 28 88 0 0 9
4 105 106 17 104 0 107 108 109 88 110 111 0 112 +15 255 107 228 0 104 113 0 17 1
08 0 107 114 104 100 112 115 0 35 +17 109 0 107 104 114 60 116 117 0 110 +17 110
 0 118 119 120 60 104 111 0 0 -16 111 174 121 ?104 115 122 123 0 0 1 17 112 0 12
4 23 35 88 108 115 0 120 -15 124 87 0 80 125 0 17 23 0 124 63 112 56 120 10 0 12
6 +17 35 0 124 112 80 100 26 36 0 0 -16 115 186 127 ?108 128 111 129 0 0 1 17 12
0 0 118 110 130 88 23 10 0 0 -15 118 89 0 110 16 0 17 130 0 118 120 76 56 131 13
2 0 0 +17 76 0 118 130 133 67 50 134 0 131 +17 131 0 135 74 126 67 130 132 0 0 -
16 132 62 70 ?130 136 137 138 0 0 1 81 1 70 337 28 132 0 0 68 58 139 16 136 58 1
40 ?63 141 132 142 0 0 1 16 137 181 105 ?119 132 143 144 0 0 1 30 138 74 0 132 1
45 142 0 +0 0 0 0 -1 0 30 145 19 0 49 146 138 0 +0 .0273196553182534 .01 -1 0 0
 30 142 73 0 136 138 147 0 +0 0 0 1 0 0 30 147 72 0 141 142 148 0 +.039949397612
92135 0 0 0 1 0 16 141 54 149 ?66 75 136 147 0 0 1 30 148 71 0 75 147 150 0 +0 .
0273196553182534 0 -1 0 0 16 75 50 151 ?69 152 141 148 0 0 1 30 150 95 0 134 148
 153 0 +0 .0273196553182534 .01 0 0 -1 16 134 79 43 ?76 154 49 150 0 0 1 30 153
 96 0 154 150 19 0 +.03994939761292135 .0273196553182534 .01 0 0 -1 16 154 80 15
5 ?73 24 134 153 0 0 1 30 19 97 0 24 153 7 0 +.03994939761292135 0 .01 0 0 -1 16
 24 81 156 ?157 10 154 19 0 0 1 81 1 156 349 28 24 0 0 62 158 159 17 157 0 160 6
6 161 59 82 24 0 162 +15 160 85 0 66 163 0 17 66 0 160 164 157 64 162 141 0 73 +
17 161 0 160 157 164 52 47 165 0 0 -17 82 0 124 80 63 52 157 24 0 161 -17 162 0
 135 126 74 59 66 141 0 0 -15 135 49 0 131 166 0 17 126 0 135 131 162 56 63 136
 0 130 -17 74 0 135 162 131 64 69 75 0 0 -17 63 0 124 82 23 59 126 136 0 157 +14
 255 166 48 167 ?168 169 135 5 170 +0 0 168 169 21 81 1 167 363 28 166 171 0 172
 173 174 14 168 214 173 ?175 166 176 5 177 -0 0 175 166 21 14 169 1 178 ?166 179
 45 5 180 -0 0 166 179 21 50 170 70 0 166 180 181 0 +0 0 0 0 0 -1 -1 0 0 13 21 3
4 0 0 0 0 0 0 9 16 14 16 90 182 ?125 0 118 5 6 -0 0 125 0 21 81 1 182 327 28 16
 183 0 0 121 184 14 125 88 185 ?163 16 124 5 18 -0 0 163 16 21 81 1 185 340 28 1
25 186 0 22 29 187 14 163 86 158 ?179 125 160 5 188 -0 0 179 125 21 50 18 93 0 1
25 188 6 0 +0 0 .01 0 1 0 0 0 1 50 188 92 0 163 181 18 0 +.03994939761292135 0 .
01 -1 0 0 0 0 1 50 181 91 0 179 170 188 0 +0 .0273196553182534 .01 0 -1 0 0 0 -1
 14 179 84 189 ?169 163 72 5 181 -0 0 169 163 21 81 1 189 356 28 179 190 0 191 1
51 192 15 72 83 0 69 179 0 80 255 1 28 12 193 9000 1 1 1 1 1 1 1 1 0 FFFFTFTTFFF
FFF3 81 1 190 324 194 179 195 189 196 197 198 81 1 191 355 28 165 0 0 51 189 199
 81 1 151 357 28 75 0 0 189 200 201 84 255 3 192 F2981 1 200 358 28 49 0 0 151 1
78 202 84 3 201 E3016 49 17 200 ?39 134 165 145 0 0 1 81 1 178 359 28 169 203 0
 200 204 205 84 3 202 E3181 1 203 320 194 169 206 178 207 183 208 81 1 204 360 2
8 122 0 0 178 91 209 84 3 205 F3216 122 199 204 ?87 111 210 211 0 0 1 81 1 91 36
1 28 89 0 0 204 172 212 84 3 209 E3381 1 172 362 28 210 0 0 91 167 213 84 3 212
 V3416 210 196 172 ?33 122 0 214 0 0 1 84 3 213 E3517 33 0 32 99 26 89 37 210 0
 215 +30 214 245 0 210 216 211 0 +.0122601563467721 0 .01 0 1 0 30 216 248 0 117
 217 214 0 +0 .01109344682730898 .007 -1 0 0 30 211 244 0 122 214 144 0 +0 .0110
9344682730898 .01 -1 0 0 30 144 243 0 137 211 218 0 +0 .01109344682730898 .007 0
 0 1 30 218 242 0 143 144 219 0 +.0122601563467721 .01109344682730898 .007 0 0 1
 16 143 185 220 ?92 137 36 218 0 0 1 30 219 241 0 36 218 221 0 +.012260156346772
1 0 .007 0 0 1 16 36 189 78 ?26 143 117 219 0 0 1 30 221 7 0 152 219 222 0 +0 0
 .01 0 -1 0 16 152 5 42 ?46 81 75 221 0 0 1 30 222 11 0 81 221 146 0 +0 0 .01 1
 0 0 16 81 141 29 ?77 165 152 222 0 0 1 30 146 15 0 165 222 145 0 +.039949397612
92135 0 .01 0 1 0 16 165 13 191 ?47 49 81 146 0 0 1 17 47 0 45 39 77 40 161 165
 0 164 +15 45 4 0 46 169 0 17 164 0 160 161 66 40 73 154 0 48 -17 73 0 72 69 48
 64 164 154 0 74 +17 48 0 72 73 50 40 39 49 0 0 -17 50 0 72 48 69 27 76 134 0 13
3 -17 133 0 118 76 119 27 46 152 0 0 -17 119 0 118 133 110 84 95 137 0 46 +17 46
 0 45 215 39 84 133 152 0 0 +17 215 0 45 37 46 89 87 122 0 0 -17 37 0 45 77 215
 11 33 210 0 80 -17 87 0 176 95 92 84 215 122 0 119 +15 176 217 0 87 168 0 17 95
 0 176 116 87 60 119 137 0 109 -17 92 0 176 87 116 89 99 143 0 33 +17 116 0 176
 92 95 96 109 117 0 0 -17 99 0 32 34 33 96 92 143 0 114 -15 32 221 0 33 175 0 17
 34 0 32 26 99 100 114 128 0 108 -17 114 0 107 109 108 96 34 128 0 116 +16 128 1
82 223 ?114 117 115 217 0 0 1 81 1 223 369 28 128 0 0 224 225 226 16 117 178 227
 ?109 36 128 216 0 0 1 30 217 249 0 128 129 216 0 +.0122601563467721 0 .007 0 1
 0 30 129 250 0 115 123 217 0 +0 0 .007 1 0 0 30 123 251 0 111 0 129 0 +0 0 .007
 0 -1 0 81 1 227 365 28 117 0 0 173 98 228 81 1 173 364 28 168 207 0 167 227 229
 81 1 98 366 28 96 0 0 227 220 230 84 3 228 E3881 1 220 367 28 143 0 0 98 224 23
1 84 3 230 V3981 1 224 368 28 175 197 0 220 223 232 84 3 231 E4014 175 218 224 ?
113 168 32 5 233 -0 0 113 168 21 81 1 197 325 194 175 234 224 190 235 236 84 3 2
32 F4180 1 194 237 238 9000 1 1 1 1 1 1 1 1 0 FFFFTFTFFFFFFF1 81 1 234 296 239 1
75 0 197 240 241 242 81 1 235 326 194 113 241 225 197 0 243 82 255 1 236 -163689
2564 14 113 226 225 ?0 175 107 5 244 -0 0 0 175 21 81 1 241 297 239 113 0 235 23
4 0 245 81 1 225 370 28 113 235 0 223 0 246 82 1 243 -1643577236 84 3 246 F4380
 1 239 0 247 8001 0 0 0 0 3 5 0 0 0 FFFFTFTFFFFFFF2 83 255 3 245 .79215686274509
8 .819607843137255 .933333333333333 79 255 15 247 SDL/TYSA_COLOUR50 244 239 0 11
3 0 177 0 +0 0 .007 0 0 -1 -1 0 0 50 177 237 0 168 244 233 0 +0 .011093446827308
98 .007 0 1 0 0 0 1 50 233 236 0 175 177 180 0 +.0122601563467721 0 .007 1 0 0 0
 0 -1 50 180 3 0 169 233 170 0 +0 0 .01 0 0 -1 -1 0 0 81 1 240 295 239 168 0 207
 248 234 249 83 3 242 .792156862745098 .819607843137255 .933333333333333 81 1 20
7 319 194 168 240 173 171 203 250 81 1 248 294 239 166 0 171 206 240 251 83 3 24
9 .792156862745098 .819607843137255 .933333333333333 81 1 171 318 194 166 248 16
7 0 207 252 81 1 206 293 239 169 0 203 195 248 253 83 3 251 .792156862745098 .81
9607843137255 .933333333333333 81 1 195 292 239 179 0 190 254 206 255 83 3 253 .
792156862745098 .819607843137255 .933333333333333 81 1 254 291 239 163 0 196 256
 195 257 83 3 255 .792156862745098 .819607843137255 .933333333333333 81 1 196 32
3 194 163 254 158 186 190 258 81 1 256 290 239 125 0 186 259 254 260 83 3 257 .7
92156862745098 .819607843137255 .933333333333333 81 1 186 322 194 125 256 185 18
3 196 261 81 1 259 289 239 16 0 183 0 256 262 83 3 260 .792156862745098 .8196078
43137255 .933333333333333 81 1 183 321 194 16 259 182 203 186 263 83 3 262 .7921
56862745098 .819607843137255 .933333333333333 82 1 263 925040748 82 1 261 924778
604 81 1 158 350 28 163 196 0 156 149 264 82 1 258 924516456 81 1 149 351 28 141
 0 0 158 65 265 84 3 264 F2381 1 65 352 28 64 0 0 149 155 266 84 3 265 E2481 1 1
55 353 28 154 0 0 65 51 267 84 3 266 V2581 1 51 354 28 40 0 0 155 191 268 84 3 2
67 E2684 3 268 V2782 1 252 923336808 82 1 250 -1637023636 79 14 238 SWEntUnchang
ed84 3 229 F3784 3 226 E4217 80 0 124 35 82 11 77 81 0 0 -81 1 29 341 28 81 0 0
 185 25 269 84 3 269 E1481 1 42 333 28 152 0 0 86 38 270 81 1 86 332 28 84 0 0 1
05 42 271 84 2 270 E681 1 105 331 28 137 0 0 103 86 272 84 2 271 V584 2 272 E481
 1 78 344 28 36 0 0 30 102 273 81 1 102 345 28 100 0 0 78 127 274 84 3 273 E1781
 1 127 346 28 115 0 0 102 140 275 84 3 274 V1881 1 140 347 28 136 0 0 127 62 276
 84 3 275 E1981 1 62 348 28 59 0 0 140 156 277 84 3 276 E2084 3 277 V2182 1 208
 917700716 84 3 199 E2882 1 198 924254312 79 12 193 BTI/ExportId81 1 22 339 28 1
0 0 0 58 185 278 84 3 187 F1381 1 58 338 28 56 0 0 70 22 279 84 3 278 E1284 3 27
9 V1181 1 121 328 28 111 0 0 182 94 280 84 2 184 F081 1 94 329 28 60 0 0 121 103
 281 84 2 280 E184 2 281 V284 3 174 F3684 3 159 E2281 1 43 335 28 134 0 0 38 68
 282 84 2 282 E884 3 139 E1084 2 106 V384 3 79 V1684 2 71 V984 2 44 V784 3 31 V1
519 17 100 0 1 0 9 5 S0 74 4 CI16 index_map_offset0 0 1 dCCZ20 15 9 0 0 283 284
 235 285 286 13 241 2 225 0 0 0 0 0 0 0 0 0 0 0 81 2 283 124 287 1 0 284 0 0 0 2
88 81 2 284 128 237 1 283 285 0 0 0 289 81 1 285 274 290 1 284 286 0 0 291 81 2
 286 284 292 1 285 13 0 0 0 293 81 2 13 287 294 1 286 2 0 0 0 0 80 2 294 290 295
 9000 0 0 0 0 3 5 0 0 0 FFTFFFFFFFFFFF9 1 79 16 295 BODY_RECIPE_200180 2 292 294
 296 9000 0 0 0 0 3 5 0 0 0 FFTFFFFFFFFFFF9 1 82 1 293 1 79 24 296 BODY_IN_LIGHT
WEIGHT_PERM80 1 290 194 297 9000 1 1 1 1 1 1 1 1 0 FFTFFFFFFFFFFF1 82 1 291 1400
1 79 10 297 BODY_MATCH80 2 237 287 298 9000 0 0 0 0 3 5 0 0 0 FFTFFFFFFFFFFF9 1
 82 1 289 45 79 30 298 LAST_BODY_MODIFYING_FEATURE_ID80 2 287 299 300 9000 0 0 0
 0 3 5 0 0 0 FFTFFFFFFFFFFF9 1 82 1 288 105 79 19 300 ENT_TIME_STAMP_200180 2 12
 292 301 9000 0 0 0 0 3 5 0 0 0 FFTFFFFFFFFFFF9 1 82 1 14 102 79 12 301 ATOM_ID_
20011 0 
