**ABCDEFGHIJKLMNOPQRSTUVWXYZabcdefghijklmnopqrstuvwxyz**************************
**PARASOLID !"#$%&'()*+,-./:;<=>?@[\]^_`{|}~0123456789**************************
**PART1;
MC=unknown;
MC_MODEL=unknown;
MC_ID=unknown;
OS=unknown;
OS_RELEASE=unknown;
FRU=sdl_parasolid_customer_support;
APPL=Example Application;
SITE=unknown;
USER=unknown;
FORMAT=text;
GUISE=transmit;
KEY=files/model_orig.x_t;
FILE=files/model_orig.x_t;
DATE=unknown;
**PART2;
SCH=SCH_3001220_30100;
USFLD_SIZE=0;
**PART3;
**END_OF_HEADER*****************************************************************
T51 : TRANSMIT FILE created by modeller version 300122023 SCH_3001220_30100_1300
6214 0 12 34 CCCCCCI4 mesh1006 0 I8 polyline1008 0 CCCCCCCDI5 owner1040 0 CCCCCC
I13 boundary_mesh1006 0 I17 boundary_polyline1008 0 CCCA16 index_map_offset0 0 1
 dA9 index_map82 0 A17 node_id_index_map82 0 A20 schema_embedding_map82 0 A5 chi
ld12 0 A14 lowest_node_id0 0 1 dA16 mesh_offset_data206 0 Z1 231 2 3 0 0 0 0 0 0
 1e3 1e-8 0 4 0 1 0 1 1 5 6 7 8 0 0 9 10 11 0 0 0 0 0 0 0 81 255 2 2 199 12 1 13
 0 0 0 0 14 70 11 CI9 list_type0 0 1 uI10 notransmit0 0 1 lCCCDCCDI12 finger_ind
ex0 0 1 dI12 finger_block1012 0 CZ3 0 4 T1 0 0 9 20 1 15 15 13 255 5 99 0 1 0 16
 0 0 17 0 50 255 6 94 0 16 18 0 0 +-.0092785979531762 .01 .00777082578578506 1 0
 0 0 0 -1 30 255 7 98 0 10 19 0 0 +-.0092785979531762 .01 .00777082578578506 0 -
1 0 29 255 8 75 0 20 21 0 -.0092785979531762 0 -.01449780930183778 19 8 CCCCCCCA
5 owner12 0 Z9 33 0 1 17 0 22 V0 16 255 10 82 23 ?24 0 25 7 0 0 1 18 255 11 30 2
6 27 0 28 29 ?1 81 1 26 213 30 11 0 0 31 32 33 17 255 27 0 34 35 36 11 37 38 0 3
9 +18 28 27 40 36 11 41 42 ?1 29 29 32 0 11 42 43 -.0092785979531762 .01 -.01449
780930183778 29 42 29 0 28 44 29 .01484575672508186 .01 -.01449780930183778 29 4
3 78 0 45 29 46 -.0092785979531762 0 .00777082578578506 18 45 69 47 48 49 0 43 ?
1 29 46 77 0 49 43 21 .01484575672508186 0 .00777082578578506 18 49 68 50 51 52
 45 46 ?1 29 21 76 0 52 46 8 .01484575672508186 0 -.01449780930183778 18 52 67 5
3 54 20 49 21 ?1 81 1 53 223 30 52 0 0 55 56 57 17 54 0 58 59 60 52 61 62 0 63 +
18 20 66 64 65 66 52 8 ?1 81 1 64 208 30 20 0 0 67 47 68 17 65 0 69 39 63 20 70
 71 0 72 +18 66 21 73 74 41 20 75 ?1 81 1 73 211 30 66 0 0 23 31 76 17 74 0 77 2
4 78 66 79 80 0 35 -18 41 24 81 79 28 66 44 ?1 29 75 23 0 66 0 44 -.009278597953
1762 .01 .00777082578578506 29 44 26 0 41 75 42 .01484575672508186 .01 .00777082
578578506 81 1 81 219 30 41 0 0 82 83 84 17 79 0 34 36 35 41 74 80 0 78 +15 255
 34 4 0 35 85 0 17 36 0 34 27 79 28 86 87 0 59 +17 35 0 34 79 27 66 88 89 0 90 +
16 80 9 83 ?79 87 89 91 0 0 1 17 78 0 77 74 51 41 60 25 0 86 -15 77 87 0 51 92 0
 17 51 0 77 78 24 49 48 93 0 60 +17 60 0 58 54 86 49 78 25 0 61 +16 25 81 82 ?60
 10 94 19 0 0 1 17 86 0 58 60 59 41 36 87 0 0 -15 58 85 0 54 95 0 17 59 0 58 86
 54 28 63 94 0 37 -16 87 13 96 ?36 38 80 97 0 0 1 81 1 96 226 30 87 0 0 40 98 99
 16 38 17 100 ?27 101 87 102 0 0 1 30 97 15 0 87 91 102 0 +.01484575672508186 .0
1 .00777082578578506 0 0 -1 30 91 11 0 80 103 97 0 +-.0092785979531762 .01 .0077
7082578578506 1 0 0 30 102 19 0 38 97 104 0 +-.0092785979531762 .01 -.0144978093
0183778 -1 0 0 30 104 74 0 105 102 106 0 +-.0092785979531762 0 .0077708257857850
6 0 0 1 16 105 62 67 ?107 93 0 104 0 0 1 30 106 73 0 93 104 108 0 +-.00927859795
31762 0 .00777082578578506 1 0 0 16 93 58 109 ?51 62 105 106 0 0 1 30 108 72 0 6
2 106 110 0 +.01484575672508186 0 .00777082578578506 0 0 -1 16 62 54 55 ?54 71 9
3 108 0 0 1 30 110 71 0 71 108 111 0 +-.0092785979531762 0 -.01449780930183778 -
1 0 0 16 71 50 112 ?65 89 62 110 0 0 1 30 111 95 0 101 110 113 0 +-.009278597953
1762 .01 -.01449780930183778 0 -1 0 16 101 79 32 ?72 94 38 111 0 0 1 30 113 96 0
 94 111 19 0 +.01484575672508186 .01 -.01449780930183778 0 -1 0 16 94 80 56 ?63
 25 101 113 0 0 1 30 19 97 0 25 113 7 0 +.01484575672508186 .01 .007770825785785
06 0 -1 0 81 1 56 224 30 94 0 0 53 40 114 17 63 0 69 65 37 52 59 94 0 70 +15 69
 83 0 65 115 0 17 37 0 69 63 39 28 27 38 0 0 -17 70 0 116 61 117 52 65 71 0 0 -1
5 116 49 0 117 118 0 17 61 0 116 48 70 49 54 62 0 0 -17 117 0 116 70 48 20 107 1
05 0 0 -17 48 0 116 117 61 45 51 93 0 24 -17 107 0 119 90 72 45 117 105 0 0 +15
 119 89 0 107 16 0 17 90 0 119 88 107 66 24 10 0 0 -17 72 0 119 107 88 20 39 101
 0 117 +17 88 0 119 72 90 11 35 89 0 0 -17 39 0 69 37 65 11 72 101 0 88 -16 89 5
 31 ?35 80 71 103 0 0 1 81 1 31 212 30 89 0 0 73 26 120 30 103 7 0 89 0 91 0 +-.
0092785979531762 .01 .00777082578578506 0 0 1 80 255 1 30 12 121 9000 1 1 1 1 1
 1 1 1 0 FFFFTFTTFFFFFF3 84 255 2 120 E679 255 12 121 BTI/ExportId17 24 0 77 51
 74 45 90 10 0 107 +14 255 16 90 122 ?92 0 119 5 6 -0 0 92 0 22 81 1 122 206 30
 16 123 0 0 67 124 14 92 88 125 ?95 16 77 5 18 -0 0 95 16 22 13 22 34 0 0 0 0 0
 0 9 16 81 1 125 215 30 92 126 0 32 109 127 14 95 86 128 ?115 92 58 5 129 -0 0 1
15 92 22 50 18 93 0 92 129 6 0 +-.0092785979531762 .01 .00777082578578506 0 0 -1
 -1 0 0 50 129 92 0 95 130 18 0 +.01484575672508186 .01 .00777082578578506 -1 0
 0 0 0 1 50 130 91 0 115 131 129 0 +-.0092785979531762 .01 -.01449780930183778 0
 0 1 1 0 0 14 115 84 98 ?85 95 69 5 130 -0 0 85 95 22 50 131 70 0 118 132 130 0
 +0 0 0 0 -1 0 0 0 -1 14 118 48 133 ?0 85 116 5 131 +0 0 0 85 22 50 132 3 0 85 0
 131 0 +0 .01 0 0 -1 0 0 0 -1 14 85 1 134 ?118 115 34 5 132 -0 0 118 115 22 81 1
 134 230 30 85 135 0 100 133 136 81 1 135 205 137 85 138 134 139 0 140 81 1 100
 229 30 38 0 0 112 134 141 81 1 133 231 30 118 139 0 134 0 142 84 3 136 F2481 1
 139 204 137 118 143 133 144 135 145 84 3 142 F2580 1 137 146 147 9000 1 1 1 1 1
 1 1 1 0 FFFFTFTFFFFFFF1 81 1 143 185 148 118 0 139 138 0 149 81 1 144 203 137 1
15 150 98 151 139 152 82 255 1 145 -1534656375 81 1 150 183 148 115 0 144 153 13
8 154 81 1 98 227 30 115 144 0 96 112 155 81 1 151 202 137 95 153 128 126 144 15
6 82 1 152 -1533738871 81 1 153 182 148 95 0 151 157 150 158 81 1 128 221 30 95
 151 0 83 55 159 81 1 126 201 137 92 157 125 123 151 160 82 1 156 -1533476727 81
 1 157 181 148 92 0 126 161 153 162 81 1 123 200 137 16 161 122 0 126 163 82 1 1
60 -1533214583 81 1 161 180 148 16 0 123 0 157 164 82 1 163 -1532952439 80 1 148
 0 165 8001 0 0 0 0 3 5 0 0 0 FFFFTFTFFFFFFF2 83 255 3 164 .792156862745098 .819
607843137255 .933333333333333 79 15 165 SDL/TYSA_COLOUR83 3 162 .792156862745098
 .819607843137255 .933333333333333 81 1 83 220 30 80 0 0 81 128 166 81 1 55 222
 30 62 0 0 128 53 167 84 3 159 F1584 3 167 E1684 3 166 E1483 3 158 .792156862745
098 .819607843137255 .933333333333333 81 1 112 228 30 71 0 0 98 100 168 84 3 155
 F2184 3 168 E2281 1 138 184 148 85 0 135 150 143 169 83 3 154 .792156862745098
 .819607843137255 .933333333333333 83 3 169 .792156862745098 .819607843137255 .9
33333333333333 83 3 149 .792156862745098 .819607843137255 .933333333333333 79 14
 147 SWEntUnchanged84 3 141 E2382 1 140 -1540292471 81 1 32 214 30 101 0 0 26 12
5 170 81 1 109 216 30 93 0 0 125 50 171 84 2 127 F981 1 50 217 30 49 0 0 109 82
 172 84 3 171 E1081 1 82 218 30 25 0 0 50 81 173 84 3 172 V1184 3 173 E1284 2 17
0 E881 1 67 207 30 105 0 0 122 64 174 84 2 124 F084 2 174 E181 1 40 225 30 28 0
 0 56 96 175 84 3 114 E1884 3 175 V1984 3 99 E2084 3 84 V1381 1 23 210 30 10 0 0
 47 73 176 84 2 76 V581 1 47 209 30 45 0 0 64 23 177 84 2 176 E484 2 177 V384 2
 68 V284 3 57 V1784 2 33 V719 17 100 0 1 0 9 5 S0 74 4 CI16 index_map_offset0 0
 1 dCCZ20 15 9 0 0 178 179 135 180 181 13 143 2 133 0 0 0 0 0 0 0 0 0 0 0 81 2 1
78 124 182 1 0 179 0 0 0 183 81 2 179 128 146 1 178 180 0 0 0 184 81 1 180 135 1
85 1 179 181 0 0 186 81 2 181 136 187 1 180 13 0 0 0 0 81 2 13 143 188 1 181 2 0
 0 0 189 80 2 188 187 190 9000 0 0 0 0 3 5 0 0 0 FFTFFFFFFFFFFF9 1 82 1 189 1 79
 24 190 BODY_IN_LIGHTWEIGHT_PERM80 2 187 185 191 9000 0 0 0 0 3 5 0 0 0 FFTFFFFF
FFFFFF9 1 79 16 191 BODY_RECIPE_200180 1 185 137 192 9000 1 1 1 1 1 1 1 1 0 FFTF
FFFFFFFFFF1 82 1 186 42031 79 10 192 BODY_MATCH80 2 146 182 193 9000 0 0 0 0 3 5
 0 0 0 FFTFFFFFFFFFFF9 1 82 1 184 56 79 30 193 LAST_BODY_MODIFYING_FEATURE_ID80
 2 182 194 195 9000 0 0 0 0 3 5 0 0 0 FFTFFFFFFFFFFF9 1 82 1 183 121 79 19 195 E
NT_TIME_STAMP_200180 2 12 188 196 9000 0 0 0 0 3 5 0 0 0 FFTFFFFFFFFFFF9 1 82 1
 14 103 79 12 196 ATOM_ID_20011 0 
