<svg class="rich-terminal" viewBox="0 0 1238 782.0" xmlns="http://www.w3.org/2000/svg">
    <!-- Generated with Rich https://www.textualize.io -->
    <style>

    @font-face {
        font-family: "Fira Code";
        src: local("FiraCode-Regular"),
                url("https://cdnjs.cloudflare.com/ajax/libs/firacode/6.2.0/woff2/FiraCode-Regular.woff2") format("woff2"),
                url("https://cdnjs.cloudflare.com/ajax/libs/firacode/6.2.0/woff/FiraCode-Regular.woff") format("woff");
        font-style: normal;
        font-weight: 400;
    }
    @font-face {
        font-family: "Fira Code";
        src: local("FiraCode-Bold"),
                url("https://cdnjs.cloudflare.com/ajax/libs/firacode/6.2.0/woff2/FiraCode-Bold.woff2") format("woff2"),
                url("https://cdnjs.cloudflare.com/ajax/libs/firacode/6.2.0/woff/FiraCode-Bold.woff") format("woff");
        font-style: bold;
        font-weight: 700;
    }

    .terminal-318839591-matrix {
        font-family: Fira Code, monospace;
        font-size: 20px;
        line-height: 24.4px;
        font-variant-east-asian: full-width;
    }

    .terminal-318839591-title {
        font-size: 18px;
        font-weight: bold;
        font-family: arial;
    }

    .terminal-318839591-r1 { fill: #c5c8c6 }
.terminal-318839591-r2 { fill: #1e1e1e }
.terminal-318839591-r3 { fill: #1f1f1f }
.terminal-318839591-r4 { fill: #7ae998 }
.terminal-318839591-r5 { fill: #c4c9cc }
.terminal-318839591-r6 { fill: #0a180e;font-weight: bold }
.terminal-318839591-r7 { fill: #707070 }
.terminal-318839591-r8 { fill: #e1e6ea;font-weight: bold }
.terminal-318839591-r9 { fill: #008139 }
.terminal-318839591-r10 { fill: #fafafa }
.terminal-318839591-r11 { fill: #ffffff }
.terminal-318839591-r12 { fill: #1c1d1e;font-weight: bold }
.terminal-318839591-r13 { fill: #9ea4a9 }
.terminal-318839591-r14 { fill: #dde8f3;font-weight: bold }
.terminal-318839591-r15 { fill: #ddedf9 }
    </style>

    <defs>
    <clipPath id="terminal-318839591-clip-terminal">
      <rect x="0" y="0" width="1219.0" height="731.0" />
    </clipPath>
    <clipPath id="terminal-318839591-line-0">
    <rect x="0" y="1.5" width="1220" height="24.65"/>
            </clipPath>
<clipPath id="terminal-318839591-line-1">
    <rect x="0" y="25.9" width="1220" height="24.65"/>
            </clipPath>
<clipPath id="terminal-318839591-line-2">
    <rect x="0" y="50.3" width="1220" height="24.65"/>
            </clipPath>
<clipPath id="terminal-318839591-line-3">
    <rect x="0" y="74.7" width="1220" height="24.65"/>
            </clipPath>
<clipPath id="terminal-318839591-line-4">
    <rect x="0" y="99.1" width="1220" height="24.65"/>
            </clipPath>
<clipPath id="terminal-318839591-line-5">
    <rect x="0" y="123.5" width="1220" height="24.65"/>
            </clipPath>
<clipPath id="terminal-318839591-line-6">
    <rect x="0" y="147.9" width="1220" height="24.65"/>
            </clipPath>
<clipPath id="terminal-318839591-line-7">
    <rect x="0" y="172.3" width="1220" height="24.65"/>
            </clipPath>
<clipPath id="terminal-318839591-line-8">
    <rect x="0" y="196.7" width="1220" height="24.65"/>
            </clipPath>
<clipPath id="terminal-318839591-line-9">
    <rect x="0" y="221.1" width="1220" height="24.65"/>
            </clipPath>
<clipPath id="terminal-318839591-line-10">
    <rect x="0" y="245.5" width="1220" height="24.65"/>
            </clipPath>
<clipPath id="terminal-318839591-line-11">
    <rect x="0" y="269.9" width="1220" height="24.65"/>
            </clipPath>
<clipPath id="terminal-318839591-line-12">
    <rect x="0" y="294.3" width="1220" height="24.65"/>
            </clipPath>
<clipPath id="terminal-318839591-line-13">
    <rect x="0" y="318.7" width="1220" height="24.65"/>
            </clipPath>
<clipPath id="terminal-318839591-line-14">
    <rect x="0" y="343.1" width="1220" height="24.65"/>
            </clipPath>
<clipPath id="terminal-318839591-line-15">
    <rect x="0" y="367.5" width="1220" height="24.65"/>
            </clipPath>
<clipPath id="terminal-318839591-line-16">
    <rect x="0" y="391.9" width="1220" height="24.65"/>
            </clipPath>
<clipPath id="terminal-318839591-line-17">
    <rect x="0" y="416.3" width="1220" height="24.65"/>
            </clipPath>
<clipPath id="terminal-318839591-line-18">
    <rect x="0" y="440.7" width="1220" height="24.65"/>
            </clipPath>
<clipPath id="terminal-318839591-line-19">
    <rect x="0" y="465.1" width="1220" height="24.65"/>
            </clipPath>
<clipPath id="terminal-318839591-line-20">
    <rect x="0" y="489.5" width="1220" height="24.65"/>
            </clipPath>
<clipPath id="terminal-318839591-line-21">
    <rect x="0" y="513.9" width="1220" height="24.65"/>
            </clipPath>
<clipPath id="terminal-318839591-line-22">
    <rect x="0" y="538.3" width="1220" height="24.65"/>
            </clipPath>
<clipPath id="terminal-318839591-line-23">
    <rect x="0" y="562.7" width="1220" height="24.65"/>
            </clipPath>
<clipPath id="terminal-318839591-line-24">
    <rect x="0" y="587.1" width="1220" height="24.65"/>
            </clipPath>
<clipPath id="terminal-318839591-line-25">
    <rect x="0" y="611.5" width="1220" height="24.65"/>
            </clipPath>
<clipPath id="terminal-318839591-line-26">
    <rect x="0" y="635.9" width="1220" height="24.65"/>
            </clipPath>
<clipPath id="terminal-318839591-line-27">
    <rect x="0" y="660.3" width="1220" height="24.65"/>
            </clipPath>
<clipPath id="terminal-318839591-line-28">
    <rect x="0" y="684.7" width="1220" height="24.65"/>
            </clipPath>
    </defs>

    <rect fill="#292929" stroke="rgba(255,255,255,0.35)" stroke-width="1" x="1" y="1" width="1236" height="780" rx="8"/><text class="terminal-318839591-title" fill="#c5c8c6" text-anchor="middle" x="618" y="27">StopwatchApp</text>
            <g transform="translate(26,22)">
            <circle cx="0" cy="0" r="7" fill="#ff5f57"/>
            <circle cx="22" cy="0" r="7" fill="#febc2e"/>
            <circle cx="44" cy="0" r="7" fill="#28c840"/>
            </g>
        
    <g transform="translate(9, 41)" clip-path="url(#terminal-318839591-clip-terminal)">
    <rect fill="#e9e9e9" x="0" y="1.5" width="12.2" height="24.65" shape-rendering="crispEdges"/><rect fill="#e9e9e9" x="12.2" y="1.5" width="12.2" height="24.65" shape-rendering="crispEdges"/><rect fill="#e9e9e9" x="24.4" y="1.5" width="61" height="24.65" shape-rendering="crispEdges"/><rect fill="#e9e9e9" x="85.4" y="1.5" width="12.2" height="24.65" shape-rendering="crispEdges"/><rect fill="#e9e9e9" x="97.6" y="1.5" width="427" height="24.65" shape-rendering="crispEdges"/><rect fill="#e9e9e9" x="524.6" y="1.5" width="146.4" height="24.65" shape-rendering="crispEdges"/><rect fill="#e9e9e9" x="671" y="1.5" width="427" height="24.65" shape-rendering="crispEdges"/><rect fill="#e9e9e9" x="1098" y="1.5" width="12.2" height="24.65" shape-rendering="crispEdges"/><rect fill="#e9e9e9" x="1110.2" y="1.5" width="0" height="24.65" shape-rendering="crispEdges"/><rect fill="#e9e9e9" x="1110.2" y="1.5" width="97.6" height="24.65" shape-rendering="crispEdges"/><rect fill="#e9e9e9" x="1207.8" y="1.5" width="12.2" height="24.65" shape-rendering="crispEdges"/><rect fill="#f5f5f5" x="0" y="25.9" width="0" height="24.65" shape-rendering="crispEdges"/><rect fill="#f5f5f5" x="0" y="25.9" width="1220" height="24.65" shape-rendering="crispEdges"/><rect fill="#f5f5f5" x="0" y="50.3" width="12.2" height="24.65" shape-rendering="crispEdges"/><rect fill="#ebebeb" x="12.2" y="50.3" width="1195.6" height="24.65" shape-rendering="crispEdges"/><rect fill="#f5f5f5" x="1207.8" y="50.3" width="12.2" height="24.65" shape-rendering="crispEdges"/><rect fill="#f5f5f5" x="0" y="74.7" width="12.2" height="24.65" shape-rendering="crispEdges"/><rect fill="#ebebeb" x="12.2" y="74.7" width="12.2" height="24.65" shape-rendering="crispEdges"/><rect fill="#4ebf71" x="24.4" y="74.7" width="195.2" height="24.65" shape-rendering="crispEdges"/><rect fill="#ebebeb" x="219.6" y="74.7" width="780.8" height="24.65" shape-rendering="crispEdges"/><rect fill="#e1e6ea" x="1000.4" y="74.7" width="195.2" height="24.65" shape-rendering="crispEdges"/><rect fill="#ebebeb" x="1195.6" y="74.7" width="12.2" height="24.65" shape-rendering="crispEdges"/><rect fill="#f5f5f5" x="1207.8" y="74.7" width="12.2" height="24.65" shape-rendering="crispEdges"/><rect fill="#f5f5f5" x="0" y="99.1" width="12.2" height="24.65" shape-rendering="crispEdges"/><rect fill="#ebebeb" x="12.2" y="99.1" width="12.2" height="24.65" shape-rendering="crispEdges"/><rect fill="#4ebf71" x="24.4" y="99.1" width="48.8" height="24.65" shape-rendering="crispEdges"/><rect fill="#4ebf71" x="73.2" y="99.1" width="85.4" height="24.65" shape-rendering="crispEdges"/><rect fill="#4ebf71" x="158.6" y="99.1" width="61" height="24.65" shape-rendering="crispEdges"/><rect fill="#ebebeb" x="219.6" y="99.1" width="317.2" height="24.65" shape-rendering="crispEdges"/><rect fill="#ebebeb" x="536.8" y="99.1" width="134.2" height="24.65" shape-rendering="crispEdges"/><rect fill="#ebebeb" x="671" y="99.1" width="329.4" height="24.65" shape-rendering="crispEdges"/><rect fill="#e1e6ea" x="1000.4" y="99.1" width="48.8" height="24.65" shape-rendering="crispEdges"/><rect fill="#5b5c5c" x="1049.2" y="99.1" width="85.4" height="24.65" shape-rendering="crispEdges"/><rect fill="#e1e6ea" x="1134.6" y="99.1" width="61" height="24.65" shape-rendering="crispEdges"/><rect fill="#ebebeb" x="1195.6" y="99.1" width="12.2" height="24.65" shape-rendering="crispEdges"/><rect fill="#f5f5f5" x="1207.8" y="99.1" width="12.2" height="24.65" shape-rendering="crispEdges"/><rect fill="#f5f5f5" x="0" y="123.5" width="12.2" height="24.65" shape-rendering="crispEdges"/><rect fill="#ebebeb" x="12.2" y="123.5" width="12.2" height="24.65" shape-rendering="crispEdges"/><rect fill="#4ebf71" x="24.4" y="123.5" width="195.2" height="24.65" shape-rendering="crispEdges"/><rect fill="#ebebeb" x="219.6" y="123.5" width="780.8" height="24.65" shape-rendering="crispEdges"/><rect fill="#e1e6ea" x="1000.4" y="123.5" width="195.2" height="24.65" shape-rendering="crispEdges"/><rect fill="#ebebeb" x="1195.6" y="123.5" width="12.2" height="24.65" shape-rendering="crispEdges"/><rect fill="#f5f5f5" x="1207.8" y="123.5" width="12.2" height="24.65" shape-rendering="crispEdges"/><rect fill="#f5f5f5" x="0" y="147.9" width="12.2" height="24.65" shape-rendering="crispEdges"/><rect fill="#ebebeb" x="12.2" y="147.9" width="1195.6" height="24.65" shape-rendering="crispEdges"/><rect fill="#f5f5f5" x="1207.8" y="147.9" width="12.2" height="24.65" shape-rendering="crispEdges"/><rect fill="#f5f5f5" x="0" y="172.3" width="1220" height="24.65" shape-rendering="crispEdges"/><rect fill="#f5f5f5" x="0" y="196.7" width="12.2" height="24.65" shape-rendering="crispEdges"/><rect fill="#ebebeb" x="12.2" y="196.7" width="1195.6" height="24.65" shape-rendering="crispEdges"/><rect fill="#f5f5f5" x="1207.8" y="196.7" width="12.2" height="24.65" shape-rendering="crispEdges"/><rect fill="#f5f5f5" x="0" y="221.1" width="12.2" height="24.65" shape-rendering="crispEdges"/><rect fill="#ebebeb" x="12.2" y="221.1" width="12.2" height="24.65" shape-rendering="crispEdges"/><rect fill="#4ebf71" x="24.4" y="221.1" width="195.2" height="24.65" shape-rendering="crispEdges"/><rect fill="#ebebeb" x="219.6" y="221.1" width="780.8" height="24.65" shape-rendering="crispEdges"/><rect fill="#dce3e8" x="1000.4" y="221.1" width="195.2" height="24.65" shape-rendering="crispEdges"/><rect fill="#ebebeb" x="1195.6" y="221.1" width="12.2" height="24.65" shape-rendering="crispEdges"/><rect fill="#f5f5f5" x="1207.8" y="221.1" width="12.2" height="24.65" shape-rendering="crispEdges"/><rect fill="#f5f5f5" x="0" y="245.5" width="12.2" height="24.65" shape-rendering="crispEdges"/><rect fill="#ebebeb" x="12.2" y="245.5" width="12.2" height="24.65" shape-rendering="crispEdges"/><rect fill="#4ebf71" x="24.4" y="245.5" width="48.8" height="24.65" shape-rendering="crispEdges"/><rect fill="#4ebf71" x="73.2" y="245.5" width="85.4" height="24.65" shape-rendering="crispEdges"/><rect fill="#4ebf71" x="158.6" y="245.5" width="61" height="24.65" shape-rendering="crispEdges"/><rect fill="#ebebeb" x="219.6" y="245.5" width="317.2" height="24.65" shape-rendering="crispEdges"/><rect fill="#ebebeb" x="536.8" y="245.5" width="134.2" height="24.65" shape-rendering="crispEdges"/><rect fill="#ebebeb" x="671" y="245.5" width="329.4" height="24.65" shape-rendering="crispEdges"/><rect fill="#dce3e8" x="1000.4" y="245.5" width="48.8" height="24.65" shape-rendering="crispEdges"/><rect fill="#dce3e8" x="1049.2" y="245.5" width="85.4" height="24.65" shape-rendering="crispEdges"/><rect fill="#dce3e8" x="1134.6" y="245.5" width="61" height="24.65" shape-rendering="crispEdges"/><rect fill="#ebebeb" x="1195.6" y="245.5" width="12.2" height="24.65" shape-rendering="crispEdges"/><rect fill="#f5f5f5" x="1207.8" y="245.5" width="12.2" height="24.65" shape-rendering="crispEdges"/><rect fill="#f5f5f5" x="0" y="269.9" width="12.2" height="24.65" shape-rendering="crispEdges"/><rect fill="#ebebeb" x="12.2" y="269.9" width="12.2" height="24.65" shape-rendering="crispEdges"/><rect fill="#4ebf71" x="24.4" y="269.9" width="195.2" height="24.65" shape-rendering="crispEdges"/><rect fill="#ebebeb" x="219.6" y="269.9" width="780.8" height="24.65" shape-rendering="crispEdges"/><rect fill="#dce3e8" x="1000.4" y="269.9" width="195.2" height="24.65" shape-rendering="crispEdges"/><rect fill="#ebebeb" x="1195.6" y="269.9" width="12.2" height="24.65" shape-rendering="crispEdges"/><rect fill="#f5f5f5" x="1207.8" y="269.9" width="12.2" height="24.65" shape-rendering="crispEdges"/><rect fill="#f5f5f5" x="0" y="294.3" width="12.2" height="24.65" shape-rendering="crispEdges"/><rect fill="#ebebeb" x="12.2" y="294.3" width="1195.6" height="24.65" shape-rendering="crispEdges"/><rect fill="#f5f5f5" x="1207.8" y="294.3" width="12.2" height="24.65" shape-rendering="crispEdges"/><rect fill="#f5f5f5" x="0" y="318.7" width="1220" height="24.65" shape-rendering="crispEdges"/><rect fill="#f5f5f5" x="0" y="343.1" width="12.2" height="24.65" shape-rendering="crispEdges"/><rect fill="#ebebeb" x="12.2" y="343.1" width="1195.6" height="24.65" shape-rendering="crispEdges"/><rect fill="#f5f5f5" x="1207.8" y="343.1" width="12.2" height="24.65" shape-rendering="crispEdges"/><rect fill="#f5f5f5" x="0" y="367.5" width="12.2" height="24.65" shape-rendering="crispEdges"/><rect fill="#ebebeb" x="12.2" y="367.5" width="12.2" height="24.65" shape-rendering="crispEdges"/><rect fill="#4ebf71" x="24.4" y="367.5" width="195.2" height="24.65" shape-rendering="crispEdges"/><rect fill="#ebebeb" x="219.6" y="367.5" width="780.8" height="24.65" shape-rendering="crispEdges"/><rect fill="#dce3e8" x="1000.4" y="367.5" width="195.2" height="24.65" shape-rendering="crispEdges"/><rect fill="#ebebeb" x="1195.6" y="367.5" width="12.2" height="24.65" shape-rendering="crispEdges"/><rect fill="#f5f5f5" x="1207.8" y="367.5" width="12.2" height="24.65" shape-rendering="crispEdges"/><rect fill="#f5f5f5" x="0" y="391.9" width="12.2" height="24.65" shape-rendering="crispEdges"/><rect fill="#ebebeb" x="12.2" y="391.9" width="12.2" height="24.65" shape-rendering="crispEdges"/><rect fill="#4ebf71" x="24.4" y="391.9" width="48.8" height="24.65" shape-rendering="crispEdges"/><rect fill="#4ebf71" x="73.2" y="391.9" width="85.4" height="24.65" shape-rendering="crispEdges"/><rect fill="#4ebf71" x="158.6" y="391.9" width="61" height="24.65" shape-rendering="crispEdges"/><rect fill="#ebebeb" x="219.6" y="391.9" width="317.2" height="24.65" shape-rendering="crispEdges"/><rect fill="#ebebeb" x="536.8" y="391.9" width="134.2" height="24.65" shape-rendering="crispEdges"/><rect fill="#ebebeb" x="671" y="391.9" width="329.4" height="24.65" shape-rendering="crispEdges"/><rect fill="#dce3e8" x="1000.4" y="391.9" width="48.8" height="24.65" shape-rendering="crispEdges"/><rect fill="#dce3e8" x="1049.2" y="391.9" width="85.4" height="24.65" shape-rendering="crispEdges"/><rect fill="#dce3e8" x="1134.6" y="391.9" width="61" height="24.65" shape-rendering="crispEdges"/><rect fill="#ebebeb" x="1195.6" y="391.9" width="12.2" height="24.65" shape-rendering="crispEdges"/><rect fill="#f5f5f5" x="1207.8" y="391.9" width="12.2" height="24.65" shape-rendering="crispEdges"/><rect fill="#f5f5f5" x="0" y="416.3" width="12.2" height="24.65" shape-rendering="crispEdges"/><rect fill="#ebebeb" x="12.2" y="416.3" width="12.2" height="24.65" shape-rendering="crispEdges"/><rect fill="#4ebf71" x="24.4" y="416.3" width="195.2" height="24.65" shape-rendering="crispEdges"/><rect fill="#ebebeb" x="219.6" y="416.3" width="780.8" height="24.65" shape-rendering="crispEdges"/><rect fill="#dce3e8" x="1000.4" y="416.3" width="195.2" height="24.65" shape-rendering="crispEdges"/><rect fill="#ebebeb" x="1195.6" y="416.3" width="12.2" height="24.65" shape-rendering="crispEdges"/><rect fill="#f5f5f5" x="1207.8" y="416.3" width="12.2" height="24.65" shape-rendering="crispEdges"/><rect fill="#f5f5f5" x="0" y="440.7" width="12.2" height="24.65" shape-rendering="crispEdges"/><rect fill="#ebebeb" x="12.2" y="440.7" width="1195.6" height="24.65" shape-rendering="crispEdges"/><rect fill="#f5f5f5" x="1207.8" y="440.7" width="12.2" height="24.65" shape-rendering="crispEdges"/><rect fill="#f5f5f5" x="0" y="465.1" width="1220" height="24.65" shape-rendering="crispEdges"/><rect fill="#f5f5f5" x="0" y="489.5" width="1220" height="24.65" shape-rendering="crispEdges"/><rect fill="#f5f5f5" x="0" y="513.9" width="1220" height="24.65" shape-rendering="crispEdges"/><rect fill="#f5f5f5" x="0" y="538.3" width="1220" height="24.65" shape-rendering="crispEdges"/><rect fill="#f5f5f5" x="0" y="562.7" width="1220" height="24.65" shape-rendering="crispEdges"/><rect fill="#f5f5f5" x="0" y="587.1" width="1220" height="24.65" shape-rendering="crispEdges"/><rect fill="#f5f5f5" x="0" y="611.5" width="1220" height="24.65" shape-rendering="crispEdges"/><rect fill="#f5f5f5" x="0" y="635.9" width="1220" height="24.65" shape-rendering="crispEdges"/><rect fill="#f5f5f5" x="0" y="660.3" width="1220" height="24.65" shape-rendering="crispEdges"/><rect fill="#f5f5f5" x="0" y="684.7" width="1220" height="24.65" shape-rendering="crispEdges"/><rect fill="#0053aa" x="0" y="709.1" width="36.6" height="24.65" shape-rendering="crispEdges"/><rect fill="#0178d4" x="36.6" y="709.1" width="219.6" height="24.65" shape-rendering="crispEdges"/><rect fill="#0053aa" x="256.2" y="709.1" width="36.6" height="24.65" shape-rendering="crispEdges"/><rect fill="#0178d4" x="292.8" y="709.1" width="61" height="24.65" shape-rendering="crispEdges"/><rect fill="#0053aa" x="353.8" y="709.1" width="36.6" height="24.65" shape-rendering="crispEdges"/><rect fill="#0178d4" x="390.4" y="709.1" width="97.6" height="24.65" shape-rendering="crispEdges"/><rect fill="#0178d4" x="488" y="709.1" width="732" height="24.65" shape-rendering="crispEdges"/>
    <g class="terminal-318839591-matrix">
    <text class="terminal-318839591-r2" x="12.2" y="20" textLength="12.2" clip-path="url(#terminal-318839591-line-0)">⭘</text><text class="terminal-318839591-r2" x="524.6" y="20" textLength="146.4" clip-path="url(#terminal-318839591-line-0)">StopwatchApp</text><text class="terminal-318839591-r1" x="1220" y="20" textLength="12.2" clip-path="url(#terminal-318839591-line-0)">
</text><text class="terminal-318839591-r1" x="1220" y="44.4" textLength="12.2" clip-path="url(#terminal-318839591-line-1)">
</text><text class="terminal-318839591-r1" x="1220" y="68.8" textLength="12.2" clip-path="url(#terminal-318839591-line-2)">
</text><text class="terminal-318839591-r4" x="24.4" y="93.2" textLength="195.2" clip-path="url(#terminal-318839591-line-3)">▔▔▔▔▔▔▔▔▔▔▔▔▔▔▔▔</text><text class="terminal-318839591-r5" x="1000.4" y="93.2" textLength="195.2" clip-path="url(#terminal-318839591-line-3)">▔▔▔▔▔▔▔▔▔▔▔▔▔▔▔▔</text><text class="terminal-318839591-r1" x="1220" y="93.2" textLength="12.2" clip-path="url(#terminal-318839591-line-3)">
</text><text class="terminal-318839591-r6" x="73.2" y="117.6" textLength="85.4" clip-path="url(#terminal-318839591-line-4)">&#160;Start&#160;</text><text class="terminal-318839591-r7" x="536.8" y="117.6" textLength="134.2" clip-path="url(#terminal-318839591-line-4)">00:00:00.00</text><text class="terminal-318839591-r8" x="1049.2" y="117.6" textLength="85.4" clip-path="url(#terminal-318839591-line-4)">&#160;Reset&#160;</text><text class="terminal-318839591-r1" x="1220" y="117.6" textLength="12.2" clip-path="url(#terminal-318839591-line-4)">
</text><text class="terminal-318839591-r9" x="24.4" y="142" textLength="195.2" clip-path="url(#terminal-318839591-line-5)">▁▁▁▁▁▁▁▁▁▁▁▁▁▁▁▁</text><text class="terminal-318839591-r10" x="1000.4" y="142" textLength="195.2" clip-path="url(#terminal-318839591-line-5)">▁▁▁▁▁▁▁▁▁▁▁▁▁▁▁▁</text><text class="terminal-318839591-r1" x="1220" y="142" textLength="12.2" clip-path="url(#terminal-318839591-line-5)">
</text><text class="terminal-318839591-r1" x="1220" y="166.4" textLength="12.2" clip-path="url(#terminal-318839591-line-6)">
</text><text class="terminal-318839591-r1" x="1220" y="190.8" textLength="12.2" clip-path="url(#terminal-318839591-line-7)">
</text><text class="terminal-318839591-r1" x="1220" y="215.2" textLength="12.2" clip-path="url(#terminal-318839591-line-8)">
</text><text class="terminal-318839591-r4" x="24.4" y="239.6" textLength="195.2" clip-path="url(#terminal-318839591-line-9)">▔▔▔▔▔▔▔▔▔▔▔▔▔▔▔▔</text><text class="terminal-318839591-r11" x="1000.4" y="239.6" textLength="195.2" clip-path="url(#terminal-318839591-line-9)">▔▔▔▔▔▔▔▔▔▔▔▔▔▔▔▔</text><text class="terminal-318839591-r1" x="1220" y="239.6" textLength="12.2" clip-path="url(#terminal-318839591-line-9)">
</text><text class="terminal-318839591-r6" x="73.2" y="264" textLength="85.4" clip-path="url(#terminal-318839591-line-10)">&#160;Start&#160;</text><text class="terminal-318839591-r7" x="536.8" y="264" textLength="134.2" clip-path="url(#terminal-318839591-line-10)">00:00:00.00</text><text class="terminal-318839591-r12" x="1049.2" y="264" textLength="85.4" clip-path="url(#terminal-318839591-line-10)">&#160;Reset&#160;</text><text class="terminal-318839591-r1" x="1220" y="264" textLength="12.2" clip-path="url(#terminal-318839591-line-10)">
</text><text class="terminal-318839591-r9" x="24.4" y="288.4" textLength="195.2" clip-path="url(#terminal-318839591-line-11)">▁▁▁▁▁▁▁▁▁▁▁▁▁▁▁▁</text><text class="terminal-318839591-r13" x="1000.4" y="288.4" textLength="195.2" clip-path="url(#terminal-318839591-line-11)">▁▁▁▁▁▁▁▁▁▁▁▁▁▁▁▁</text><text class="terminal-318839591-r1" x="1220" y="288.4" textLength="12.2" clip-path="url(#terminal-318839591-line-11)">
</text><text class="terminal-318839591-r1" x="1220" y="312.8" textLength="12.2" clip-path="url(#terminal-318839591-line-12)">
</text><text class="terminal-318839591-r1" x="1220" y="337.2" textLength="12.2" clip-path="url(#terminal-318839591-line-13)">
</text><text class="terminal-318839591-r1" x="1220" y="361.6" textLength="12.2" clip-path="url(#terminal-318839591-line-14)">
</text><text class="terminal-318839591-r4" x="24.4" y="386" textLength="195.2" clip-path="url(#terminal-318839591-line-15)">▔▔▔▔▔▔▔▔▔▔▔▔▔▔▔▔</text><text class="terminal-318839591-r11" x="1000.4" y="386" textLength="195.2" clip-path="url(#terminal-318839591-line-15)">▔▔▔▔▔▔▔▔▔▔▔▔▔▔▔▔</text><text class="terminal-318839591-r1" x="1220" y="386" textLength="12.2" clip-path="url(#terminal-318839591-line-15)">
</text><text class="terminal-318839591-r6" x="73.2" y="410.4" textLength="85.4" clip-path="url(#terminal-318839591-line-16)">&#160;Start&#160;</text><text class="terminal-318839591-r7" x="536.8" y="410.4" textLength="134.2" clip-path="url(#terminal-318839591-line-16)">00:00:00.00</text><text class="terminal-318839591-r12" x="1049.2" y="410.4" textLength="85.4" clip-path="url(#terminal-318839591-line-16)">&#160;Reset&#160;</text><text class="terminal-318839591-r1" x="1220" y="410.4" textLength="12.2" clip-path="url(#terminal-318839591-line-16)">
</text><text class="terminal-318839591-r9" x="24.4" y="434.8" textLength="195.2" clip-path="url(#terminal-318839591-line-17)">▁▁▁▁▁▁▁▁▁▁▁▁▁▁▁▁</text><text class="terminal-318839591-r13" x="1000.4" y="434.8" textLength="195.2" clip-path="url(#terminal-318839591-line-17)">▁▁▁▁▁▁▁▁▁▁▁▁▁▁▁▁</text><text class="terminal-318839591-r1" x="1220" y="434.8" textLength="12.2" clip-path="url(#terminal-318839591-line-17)">
</text><text class="terminal-318839591-r1" x="1220" y="459.2" textLength="12.2" clip-path="url(#terminal-318839591-line-18)">
</text><text class="terminal-318839591-r1" x="1220" y="483.6" textLength="12.2" clip-path="url(#terminal-318839591-line-19)">
</text><text class="terminal-318839591-r1" x="1220" y="508" textLength="12.2" clip-path="url(#terminal-318839591-line-20)">
</text><text class="terminal-318839591-r1" x="1220" y="532.4" textLength="12.2" clip-path="url(#terminal-318839591-line-21)">
</text><text class="terminal-318839591-r1" x="1220" y="556.8" textLength="12.2" clip-path="url(#terminal-318839591-line-22)">
</text><text class="terminal-318839591-r1" x="1220" y="581.2" textLength="12.2" clip-path="url(#terminal-318839591-line-23)">
</text><text class="terminal-318839591-r1" x="1220" y="605.6" textLength="12.2" clip-path="url(#terminal-318839591-line-24)">
</text><text class="terminal-318839591-r1" x="1220" y="630" textLength="12.2" clip-path="url(#terminal-318839591-line-25)">
</text><text class="terminal-318839591-r1" x="1220" y="654.4" textLength="12.2" clip-path="url(#terminal-318839591-line-26)">
</text><text class="terminal-318839591-r1" x="1220" y="678.8" textLength="12.2" clip-path="url(#terminal-318839591-line-27)">
</text><text class="terminal-318839591-r1" x="1220" y="703.2" textLength="12.2" clip-path="url(#terminal-318839591-line-28)">
</text><text class="terminal-318839591-r14" x="0" y="727.6" textLength="36.6" clip-path="url(#terminal-318839591-line-29)">&#160;D&#160;</text><text class="terminal-318839591-r15" x="36.6" y="727.6" textLength="219.6" clip-path="url(#terminal-318839591-line-29)">&#160;Toggle&#160;dark&#160;mode&#160;</text><text class="terminal-318839591-r14" x="256.2" y="727.6" textLength="36.6" clip-path="url(#terminal-318839591-line-29)">&#160;A&#160;</text><text class="terminal-318839591-r15" x="292.8" y="727.6" textLength="61" clip-path="url(#terminal-318839591-line-29)">&#160;Add&#160;</text><text class="terminal-318839591-r14" x="353.8" y="727.6" textLength="36.6" clip-path="url(#terminal-318839591-line-29)">&#160;R&#160;</text><text class="terminal-318839591-r15" x="390.4" y="727.6" textLength="97.6" clip-path="url(#terminal-318839591-line-29)">&#160;Remove&#160;</text>
    </g>
    </g>
</svg>
