<svg class="rich-terminal" viewBox="0 0 994 635.5999999999999" xmlns="http://www.w3.org/2000/svg">
    <!-- Generated with Rich https://www.textualize.io -->
    <style>

    @font-face {
        font-family: "Fira Code";
        src: local("FiraCode-Regular"),
                url("https://cdnjs.cloudflare.com/ajax/libs/firacode/6.2.0/woff2/FiraCode-Regular.woff2") format("woff2"),
                url("https://cdnjs.cloudflare.com/ajax/libs/firacode/6.2.0/woff/FiraCode-Regular.woff") format("woff");
        font-style: normal;
        font-weight: 400;
    }
    @font-face {
        font-family: "Fira Code";
        src: local("FiraCode-Bold"),
                url("https://cdnjs.cloudflare.com/ajax/libs/firacode/6.2.0/woff2/FiraCode-Bold.woff2") format("woff2"),
                url("https://cdnjs.cloudflare.com/ajax/libs/firacode/6.2.0/woff/FiraCode-Bold.woff") format("woff");
        font-style: bold;
        font-weight: 700;
    }

    .terminal-155432316-matrix {
        font-family: Fira Code, monospace;
        font-size: 20px;
        line-height: 24.4px;
        font-variant-east-asian: full-width;
    }

    .terminal-155432316-title {
        font-size: 18px;
        font-weight: bold;
        font-family: arial;
    }

    .terminal-155432316-r1 { fill: #c5c8c6 }
.terminal-155432316-r2 { fill: #e3e3e3 }
.terminal-155432316-r3 { fill: #989898 }
.terminal-155432316-r4 { fill: #e1e1e1;font-weight: bold }
.terminal-155432316-r5 { fill: #e1e1e1 }
.terminal-155432316-r6 { fill: #507bb3 }
.terminal-155432316-r7 { fill: #e76580 }
.terminal-155432316-r8 { fill: #004578;font-weight: bold }
.terminal-155432316-r9 { fill: #f5e5e9;font-weight: bold }
.terminal-155432316-r10 { fill: #001541 }
.terminal-155432316-r11 { fill: #780028 }
    </style>

    <defs>
    <clipPath id="terminal-155432316-clip-terminal">
      <rect x="0" y="0" width="975.0" height="584.5999999999999" />
    </clipPath>
    <clipPath id="terminal-155432316-line-0">
    <rect x="0" y="1.5" width="976" height="24.65"/>
            </clipPath>
<clipPath id="terminal-155432316-line-1">
    <rect x="0" y="25.9" width="976" height="24.65"/>
            </clipPath>
<clipPath id="terminal-155432316-line-2">
    <rect x="0" y="50.3" width="976" height="24.65"/>
            </clipPath>
<clipPath id="terminal-155432316-line-3">
    <rect x="0" y="74.7" width="976" height="24.65"/>
            </clipPath>
<clipPath id="terminal-155432316-line-4">
    <rect x="0" y="99.1" width="976" height="24.65"/>
            </clipPath>
<clipPath id="terminal-155432316-line-5">
    <rect x="0" y="123.5" width="976" height="24.65"/>
            </clipPath>
<clipPath id="terminal-155432316-line-6">
    <rect x="0" y="147.9" width="976" height="24.65"/>
            </clipPath>
<clipPath id="terminal-155432316-line-7">
    <rect x="0" y="172.3" width="976" height="24.65"/>
            </clipPath>
<clipPath id="terminal-155432316-line-8">
    <rect x="0" y="196.7" width="976" height="24.65"/>
            </clipPath>
<clipPath id="terminal-155432316-line-9">
    <rect x="0" y="221.1" width="976" height="24.65"/>
            </clipPath>
<clipPath id="terminal-155432316-line-10">
    <rect x="0" y="245.5" width="976" height="24.65"/>
            </clipPath>
<clipPath id="terminal-155432316-line-11">
    <rect x="0" y="269.9" width="976" height="24.65"/>
            </clipPath>
<clipPath id="terminal-155432316-line-12">
    <rect x="0" y="294.3" width="976" height="24.65"/>
            </clipPath>
<clipPath id="terminal-155432316-line-13">
    <rect x="0" y="318.7" width="976" height="24.65"/>
            </clipPath>
<clipPath id="terminal-155432316-line-14">
    <rect x="0" y="343.1" width="976" height="24.65"/>
            </clipPath>
<clipPath id="terminal-155432316-line-15">
    <rect x="0" y="367.5" width="976" height="24.65"/>
            </clipPath>
<clipPath id="terminal-155432316-line-16">
    <rect x="0" y="391.9" width="976" height="24.65"/>
            </clipPath>
<clipPath id="terminal-155432316-line-17">
    <rect x="0" y="416.3" width="976" height="24.65"/>
            </clipPath>
<clipPath id="terminal-155432316-line-18">
    <rect x="0" y="440.7" width="976" height="24.65"/>
            </clipPath>
<clipPath id="terminal-155432316-line-19">
    <rect x="0" y="465.1" width="976" height="24.65"/>
            </clipPath>
<clipPath id="terminal-155432316-line-20">
    <rect x="0" y="489.5" width="976" height="24.65"/>
            </clipPath>
<clipPath id="terminal-155432316-line-21">
    <rect x="0" y="513.9" width="976" height="24.65"/>
            </clipPath>
<clipPath id="terminal-155432316-line-22">
    <rect x="0" y="538.3" width="976" height="24.65"/>
            </clipPath>
    </defs>

    <rect fill="#292929" stroke="rgba(255,255,255,0.35)" stroke-width="1" x="1" y="1" width="992" height="633.6" rx="8"/><text class="terminal-155432316-title" fill="#c5c8c6" text-anchor="middle" x="496" y="27">A&#160;Question&#160;App</text>
            <g transform="translate(26,22)">
            <circle cx="0" cy="0" r="7" fill="#ff5f57"/>
            <circle cx="22" cy="0" r="7" fill="#febc2e"/>
            <circle cx="44" cy="0" r="7" fill="#28c840"/>
            </g>
        
    <g transform="translate(9, 41)" clip-path="url(#terminal-155432316-clip-terminal)">
    <rect fill="#1e1e1e" x="0" y="1.5" width="976" height="24.65" shape-rendering="crispEdges"/><rect fill="#1e1e1e" x="0" y="25.9" width="976" height="24.65" shape-rendering="crispEdges"/><rect fill="#1e1e1e" x="0" y="50.3" width="24.4" height="24.65" shape-rendering="crispEdges"/><rect fill="#282828" x="24.4" y="50.3" width="12.2" height="24.65" shape-rendering="crispEdges"/><rect fill="#282828" x="36.6" y="50.3" width="12.2" height="24.65" shape-rendering="crispEdges"/><rect fill="#282828" x="48.8" y="50.3" width="61" height="24.65" shape-rendering="crispEdges"/><rect fill="#282828" x="109.8" y="50.3" width="12.2" height="24.65" shape-rendering="crispEdges"/><rect fill="#282828" x="122" y="50.3" width="85.4" height="24.65" shape-rendering="crispEdges"/><rect fill="#282828" x="207.4" y="50.3" width="207.4" height="24.65" shape-rendering="crispEdges"/><rect fill="#282828" x="414.8" y="50.3" width="329.4" height="24.65" shape-rendering="crispEdges"/><rect fill="#282828" x="744.2" y="50.3" width="85.4" height="24.65" shape-rendering="crispEdges"/><rect fill="#282828" x="829.6" y="50.3" width="12.2" height="24.65" shape-rendering="crispEdges"/><rect fill="#282828" x="841.8" y="50.3" width="0" height="24.65" shape-rendering="crispEdges"/><rect fill="#282828" x="841.8" y="50.3" width="97.6" height="24.65" shape-rendering="crispEdges"/><rect fill="#282828" x="939.4" y="50.3" width="12.2" height="24.65" shape-rendering="crispEdges"/><rect fill="#1e1e1e" x="951.6" y="50.3" width="24.4" height="24.65" shape-rendering="crispEdges"/><rect fill="#1e1e1e" x="0" y="74.7" width="24.4" height="24.65" shape-rendering="crispEdges"/><rect fill="#1e1e1e" x="24.4" y="74.7" width="927.2" height="24.65" shape-rendering="crispEdges"/><rect fill="#1e1e1e" x="951.6" y="74.7" width="24.4" height="24.65" shape-rendering="crispEdges"/><rect fill="#1e1e1e" x="0" y="99.1" width="24.4" height="24.65" shape-rendering="crispEdges"/><rect fill="#1e1e1e" x="24.4" y="99.1" width="927.2" height="24.65" shape-rendering="crispEdges"/><rect fill="#1e1e1e" x="951.6" y="99.1" width="24.4" height="24.65" shape-rendering="crispEdges"/><rect fill="#1e1e1e" x="0" y="123.5" width="24.4" height="24.65" shape-rendering="crispEdges"/><rect fill="#1e1e1e" x="24.4" y="123.5" width="927.2" height="24.65" shape-rendering="crispEdges"/><rect fill="#1e1e1e" x="951.6" y="123.5" width="24.4" height="24.65" shape-rendering="crispEdges"/><rect fill="#1e1e1e" x="0" y="147.9" width="24.4" height="24.65" shape-rendering="crispEdges"/><rect fill="#1e1e1e" x="24.4" y="147.9" width="927.2" height="24.65" shape-rendering="crispEdges"/><rect fill="#1e1e1e" x="951.6" y="147.9" width="24.4" height="24.65" shape-rendering="crispEdges"/><rect fill="#1e1e1e" x="0" y="172.3" width="24.4" height="24.65" shape-rendering="crispEdges"/><rect fill="#1e1e1e" x="24.4" y="172.3" width="927.2" height="24.65" shape-rendering="crispEdges"/><rect fill="#1e1e1e" x="951.6" y="172.3" width="24.4" height="24.65" shape-rendering="crispEdges"/><rect fill="#1e1e1e" x="0" y="196.7" width="24.4" height="24.65" shape-rendering="crispEdges"/><rect fill="#1e1e1e" x="24.4" y="196.7" width="927.2" height="24.65" shape-rendering="crispEdges"/><rect fill="#1e1e1e" x="951.6" y="196.7" width="24.4" height="24.65" shape-rendering="crispEdges"/><rect fill="#1e1e1e" x="0" y="221.1" width="24.4" height="24.65" shape-rendering="crispEdges"/><rect fill="#1e1e1e" x="24.4" y="221.1" width="927.2" height="24.65" shape-rendering="crispEdges"/><rect fill="#1e1e1e" x="951.6" y="221.1" width="24.4" height="24.65" shape-rendering="crispEdges"/><rect fill="#1e1e1e" x="0" y="245.5" width="24.4" height="24.65" shape-rendering="crispEdges"/><rect fill="#1e1e1e" x="24.4" y="245.5" width="341.6" height="24.65" shape-rendering="crispEdges"/><rect fill="#1e1e1e" x="366" y="245.5" width="244" height="24.65" shape-rendering="crispEdges"/><rect fill="#1e1e1e" x="610" y="245.5" width="341.6" height="24.65" shape-rendering="crispEdges"/><rect fill="#1e1e1e" x="951.6" y="245.5" width="24.4" height="24.65" shape-rendering="crispEdges"/><rect fill="#1e1e1e" x="0" y="269.9" width="24.4" height="24.65" shape-rendering="crispEdges"/><rect fill="#1e1e1e" x="24.4" y="269.9" width="927.2" height="24.65" shape-rendering="crispEdges"/><rect fill="#1e1e1e" x="951.6" y="269.9" width="24.4" height="24.65" shape-rendering="crispEdges"/><rect fill="#1e1e1e" x="0" y="294.3" width="24.4" height="24.65" shape-rendering="crispEdges"/><rect fill="#1e1e1e" x="24.4" y="294.3" width="927.2" height="24.65" shape-rendering="crispEdges"/><rect fill="#1e1e1e" x="951.6" y="294.3" width="24.4" height="24.65" shape-rendering="crispEdges"/><rect fill="#1e1e1e" x="0" y="318.7" width="24.4" height="24.65" shape-rendering="crispEdges"/><rect fill="#004578" x="24.4" y="318.7" width="451.4" height="24.65" shape-rendering="crispEdges"/><rect fill="#1e1e1e" x="475.8" y="318.7" width="24.4" height="24.65" shape-rendering="crispEdges"/><rect fill="#b93c5b" x="500.2" y="318.7" width="451.4" height="24.65" shape-rendering="crispEdges"/><rect fill="#1e1e1e" x="951.6" y="318.7" width="24.4" height="24.65" shape-rendering="crispEdges"/><rect fill="#1e1e1e" x="0" y="343.1" width="24.4" height="24.65" shape-rendering="crispEdges"/><rect fill="#004578" x="24.4" y="343.1" width="195.2" height="24.65" shape-rendering="crispEdges"/><rect fill="#dde6ed" x="219.6" y="343.1" width="61" height="24.65" shape-rendering="crispEdges"/><rect fill="#004578" x="280.6" y="343.1" width="195.2" height="24.65" shape-rendering="crispEdges"/><rect fill="#1e1e1e" x="475.8" y="343.1" width="24.4" height="24.65" shape-rendering="crispEdges"/><rect fill="#b93c5b" x="500.2" y="343.1" width="195.2" height="24.65" shape-rendering="crispEdges"/><rect fill="#b93c5b" x="695.4" y="343.1" width="48.8" height="24.65" shape-rendering="crispEdges"/><rect fill="#b93c5b" x="744.2" y="343.1" width="207.4" height="24.65" shape-rendering="crispEdges"/><rect fill="#1e1e1e" x="951.6" y="343.1" width="24.4" height="24.65" shape-rendering="crispEdges"/><rect fill="#1e1e1e" x="0" y="367.5" width="24.4" height="24.65" shape-rendering="crispEdges"/><rect fill="#004578" x="24.4" y="367.5" width="451.4" height="24.65" shape-rendering="crispEdges"/><rect fill="#1e1e1e" x="475.8" y="367.5" width="24.4" height="24.65" shape-rendering="crispEdges"/><rect fill="#b93c5b" x="500.2" y="367.5" width="451.4" height="24.65" shape-rendering="crispEdges"/><rect fill="#1e1e1e" x="951.6" y="367.5" width="24.4" height="24.65" shape-rendering="crispEdges"/><rect fill="#1e1e1e" x="0" y="391.9" width="24.4" height="24.65" shape-rendering="crispEdges"/><rect fill="#1e1e1e" x="24.4" y="391.9" width="927.2" height="24.65" shape-rendering="crispEdges"/><rect fill="#1e1e1e" x="951.6" y="391.9" width="24.4" height="24.65" shape-rendering="crispEdges"/><rect fill="#1e1e1e" x="0" y="416.3" width="24.4" height="24.65" shape-rendering="crispEdges"/><rect fill="#1e1e1e" x="24.4" y="416.3" width="927.2" height="24.65" shape-rendering="crispEdges"/><rect fill="#1e1e1e" x="951.6" y="416.3" width="24.4" height="24.65" shape-rendering="crispEdges"/><rect fill="#1e1e1e" x="0" y="440.7" width="24.4" height="24.65" shape-rendering="crispEdges"/><rect fill="#1e1e1e" x="24.4" y="440.7" width="927.2" height="24.65" shape-rendering="crispEdges"/><rect fill="#1e1e1e" x="951.6" y="440.7" width="24.4" height="24.65" shape-rendering="crispEdges"/><rect fill="#1e1e1e" x="0" y="465.1" width="24.4" height="24.65" shape-rendering="crispEdges"/><rect fill="#1e1e1e" x="24.4" y="465.1" width="927.2" height="24.65" shape-rendering="crispEdges"/><rect fill="#1e1e1e" x="951.6" y="465.1" width="24.4" height="24.65" shape-rendering="crispEdges"/><rect fill="#1e1e1e" x="0" y="489.5" width="24.4" height="24.65" shape-rendering="crispEdges"/><rect fill="#1e1e1e" x="24.4" y="489.5" width="927.2" height="24.65" shape-rendering="crispEdges"/><rect fill="#1e1e1e" x="951.6" y="489.5" width="24.4" height="24.65" shape-rendering="crispEdges"/><rect fill="#1e1e1e" x="0" y="513.9" width="24.4" height="24.65" shape-rendering="crispEdges"/><rect fill="#1e1e1e" x="24.4" y="513.9" width="927.2" height="24.65" shape-rendering="crispEdges"/><rect fill="#1e1e1e" x="951.6" y="513.9" width="24.4" height="24.65" shape-rendering="crispEdges"/><rect fill="#1e1e1e" x="0" y="538.3" width="976" height="24.65" shape-rendering="crispEdges"/><rect fill="#1e1e1e" x="0" y="562.7" width="976" height="24.65" shape-rendering="crispEdges"/>
    <g class="terminal-155432316-matrix">
    <text class="terminal-155432316-r1" x="976" y="20" textLength="12.2" clip-path="url(#terminal-155432316-line-0)">
</text><text class="terminal-155432316-r1" x="976" y="44.4" textLength="12.2" clip-path="url(#terminal-155432316-line-1)">
</text><text class="terminal-155432316-r2" x="36.6" y="68.8" textLength="12.2" clip-path="url(#terminal-155432316-line-2)">⭘</text><text class="terminal-155432316-r2" x="207.4" y="68.8" textLength="207.4" clip-path="url(#terminal-155432316-line-2)">A&#160;Question&#160;App&#160;—&#160;</text><text class="terminal-155432316-r3" x="414.8" y="68.8" textLength="329.4" clip-path="url(#terminal-155432316-line-2)">The&#160;most&#160;important&#160;question</text><text class="terminal-155432316-r1" x="976" y="68.8" textLength="12.2" clip-path="url(#terminal-155432316-line-2)">
</text><text class="terminal-155432316-r1" x="976" y="93.2" textLength="12.2" clip-path="url(#terminal-155432316-line-3)">
</text><text class="terminal-155432316-r1" x="976" y="117.6" textLength="12.2" clip-path="url(#terminal-155432316-line-4)">
</text><text class="terminal-155432316-r1" x="976" y="142" textLength="12.2" clip-path="url(#terminal-155432316-line-5)">
</text><text class="terminal-155432316-r1" x="976" y="166.4" textLength="12.2" clip-path="url(#terminal-155432316-line-6)">
</text><text class="terminal-155432316-r1" x="976" y="190.8" textLength="12.2" clip-path="url(#terminal-155432316-line-7)">
</text><text class="terminal-155432316-r1" x="976" y="215.2" textLength="12.2" clip-path="url(#terminal-155432316-line-8)">
</text><text class="terminal-155432316-r1" x="976" y="239.6" textLength="12.2" clip-path="url(#terminal-155432316-line-9)">
</text><text class="terminal-155432316-r4" x="366" y="264" textLength="244" clip-path="url(#terminal-155432316-line-10)">Do&#160;you&#160;love&#160;Textual?</text><text class="terminal-155432316-r1" x="976" y="264" textLength="12.2" clip-path="url(#terminal-155432316-line-10)">
</text><text class="terminal-155432316-r1" x="976" y="288.4" textLength="12.2" clip-path="url(#terminal-155432316-line-11)">
</text><text class="terminal-155432316-r1" x="976" y="312.8" textLength="12.2" clip-path="url(#terminal-155432316-line-12)">
</text><text class="terminal-155432316-r6" x="24.4" y="337.2" textLength="451.4" clip-path="url(#terminal-155432316-line-13)">▔▔▔▔▔▔▔▔▔▔▔▔▔▔▔▔▔▔▔▔▔▔▔▔▔▔▔▔▔▔▔▔▔▔▔▔▔</text><text class="terminal-155432316-r7" x="500.2" y="337.2" textLength="451.4" clip-path="url(#terminal-155432316-line-13)">▔▔▔▔▔▔▔▔▔▔▔▔▔▔▔▔▔▔▔▔▔▔▔▔▔▔▔▔▔▔▔▔▔▔▔▔▔</text><text class="terminal-155432316-r1" x="976" y="337.2" textLength="12.2" clip-path="url(#terminal-155432316-line-13)">
</text><text class="terminal-155432316-r8" x="219.6" y="361.6" textLength="61" clip-path="url(#terminal-155432316-line-14)">&#160;Yes&#160;</text><text class="terminal-155432316-r9" x="695.4" y="361.6" textLength="48.8" clip-path="url(#terminal-155432316-line-14)">&#160;No&#160;</text><text class="terminal-155432316-r1" x="976" y="361.6" textLength="12.2" clip-path="url(#terminal-155432316-line-14)">
</text><text class="terminal-155432316-r10" x="24.4" y="386" textLength="451.4" clip-path="url(#terminal-155432316-line-15)">▁▁▁▁▁▁▁▁▁▁▁▁▁▁▁▁▁▁▁▁▁▁▁▁▁▁▁▁▁▁▁▁▁▁▁▁▁</text><text class="terminal-155432316-r11" x="500.2" y="386" textLength="451.4" clip-path="url(#terminal-155432316-line-15)">▁▁▁▁▁▁▁▁▁▁▁▁▁▁▁▁▁▁▁▁▁▁▁▁▁▁▁▁▁▁▁▁▁▁▁▁▁</text><text class="terminal-155432316-r1" x="976" y="386" textLength="12.2" clip-path="url(#terminal-155432316-line-15)">
</text><text class="terminal-155432316-r1" x="976" y="410.4" textLength="12.2" clip-path="url(#terminal-155432316-line-16)">
</text><text class="terminal-155432316-r1" x="976" y="434.8" textLength="12.2" clip-path="url(#terminal-155432316-line-17)">
</text><text class="terminal-155432316-r1" x="976" y="459.2" textLength="12.2" clip-path="url(#terminal-155432316-line-18)">
</text><text class="terminal-155432316-r1" x="976" y="483.6" textLength="12.2" clip-path="url(#terminal-155432316-line-19)">
</text><text class="terminal-155432316-r1" x="976" y="508" textLength="12.2" clip-path="url(#terminal-155432316-line-20)">
</text><text class="terminal-155432316-r1" x="976" y="532.4" textLength="12.2" clip-path="url(#terminal-155432316-line-21)">
</text><text class="terminal-155432316-r1" x="976" y="556.8" textLength="12.2" clip-path="url(#terminal-155432316-line-22)">
</text>
    </g>
    </g>
</svg>
