<svg xmlns="http://www.w3.org/2000/svg" xmlns:xlink="http://www.w3.org/1999/xlink" contentStyleType="text/css" data-diagram-type="DESCRIPTION" height="784px" preserveAspectRatio="none" style="width:1178px;height:784px;background:#FFFFFF;" version="1.1" viewBox="0 0 1178 784" width="1178px" zoomAndPan="magnify"><defs/><g><!--cluster Workflow 'main'--><g class="cluster" data-entity="Workflow 'main'" data-source-line="4" data-uid="ent0002" id="cluster_Workflow 'main'"><polygon fill="none" points="16,16,26,6,527,6,527,682,517,692,16,692,16,16" style="stroke:#181818;stroke-width:1;"/><line style="stroke:#181818;stroke-width:1;" x1="517" x2="527" y1="16" y2="6"/><line style="stroke:#181818;stroke-width:1;" x1="16" x2="517" y1="16" y2="16"/><line style="stroke:#181818;stroke-width:1;" x1="517" x2="517" y1="16" y2="692"/><text fill="#000000" font-family="sans-serif" font-size="14" font-weight="bold" lengthAdjust="spacing" textLength="126.9639" x="204.0181" y="31.9951">Workflow 'main'</text></g><!--cluster main--><g class="cluster" data-entity="main" data-source-line="5" data-uid="ent0003" id="cluster_main"><rect fill="none" height="195.5" rx="2.5" ry="2.5" style="stroke:#181818;stroke-width:1;" width="213.5" x="28" y="72"/><rect fill="none" height="10" style="stroke:#181818;stroke-width:1;" width="15" x="221.5" y="77"/><rect fill="none" height="2" style="stroke:#181818;stroke-width:1;" width="4" x="219.5" y="79"/><rect fill="none" height="2" style="stroke:#181818;stroke-width:1;" width="4" x="219.5" y="83"/><text fill="#000000" font-family="sans-serif" font-size="14" font-weight="bold" lengthAdjust="spacing" textLength="38.8008" x="115.3496" y="97.9951">main</text></g><!--cluster main_directory_stage_in_0--><g class="cluster" data-entity="main_directory_stage_in_0" data-source-line="21" data-uid="ent0009" id="cluster_main_directory_stage_in_0"><rect fill="none" height="175" rx="2.5" ry="2.5" style="stroke:#181818;stroke-width:1;" width="171" x="281.75" y="180"/><rect fill="none" height="10" style="stroke:#181818;stroke-width:1;" width="15" x="432.75" y="185"/><rect fill="none" height="2" style="stroke:#181818;stroke-width:1;" width="4" x="430.75" y="187"/><rect fill="none" height="2" style="stroke:#181818;stroke-width:1;" width="4" x="430.75" y="191"/><text fill="#000000" font-family="sans-serif" font-size="14" font-weight="bold" lengthAdjust="spacing" textLength="161.3555" x="286.5723" y="205.9951">directory_stage_in_0</text></g><!--cluster main_app--><g class="cluster" data-entity="main_app" data-source-line="35" data-uid="ent0015" id="cluster_main_app"><rect fill="none" height="163" rx="2.5" ry="2.5" style="stroke:#181818;stroke-width:1;" width="130" x="120" y="491"/><rect fill="none" height="10" style="stroke:#181818;stroke-width:1;" width="15" x="230" y="496"/><rect fill="none" height="2" style="stroke:#181818;stroke-width:1;" width="4" x="228" y="498"/><rect fill="none" height="2" style="stroke:#181818;stroke-width:1;" width="4" x="228" y="502"/><text fill="#000000" font-family="sans-serif" font-size="14" font-weight="bold" lengthAdjust="spacing" textLength="29.4902" x="170.2549" y="516.9951">app</text></g><!--cluster CommandLineTool 'my-asthonishing-stage-in-directory'--><g class="cluster" data-entity="CommandLineTool 'my-asthonishing-stage-in-directory'" data-source-line="54" data-uid="ent0023" id="cluster_CommandLineTool 'my-asthonishing-stage-in-directory'"><polygon fill="none" points="551,116,561,106,1065,106,1065,395,1055,405,551,405,551,116" style="stroke:#181818;stroke-width:1;"/><line style="stroke:#181818;stroke-width:1;" x1="1055" x2="1065" y1="116" y2="106"/><line style="stroke:#181818;stroke-width:1;" x1="551" x2="1055" y1="116" y2="116"/><line style="stroke:#181818;stroke-width:1;" x1="1055" x2="1055" y1="116" y2="405"/><text fill="#000000" font-family="sans-serif" font-size="14" font-weight="bold" lengthAdjust="spacing" textLength="438.1973" x="584.9014" y="131.9951">CommandLineTool 'my-asthonishing-stage-in-directory'</text></g><!--cluster my_asthonishing_stage_in_directory--><g class="cluster" data-entity="my_asthonishing_stage_in_directory" data-source-line="55" data-uid="ent0024" id="cluster_my_asthonishing_stage_in_directory"><rect fill="none" height="175" rx="2.5" ry="2.5" style="stroke:#181818;stroke-width:1;" width="308" x="632" y="180"/><rect fill="none" height="10" style="stroke:#181818;stroke-width:1;" width="15" x="920" y="185"/><rect fill="none" height="2" style="stroke:#181818;stroke-width:1;" width="4" x="918" y="187"/><rect fill="none" height="2" style="stroke:#181818;stroke-width:1;" width="4" x="918" y="191"/><text fill="#000000" font-family="sans-serif" font-size="14" font-weight="bold" lengthAdjust="spacing" textLength="279.4805" x="646.2598" y="205.9951">my-asthonishing-stage-in-directory</text></g><!--cluster Workflow 'pattern-6'--><g class="cluster" data-entity="Workflow 'pattern-6'" data-source-line="69" data-uid="ent0028" id="cluster_Workflow 'pattern-6'"><polygon fill="none" points="551,439,561,429,883,429,883,757.5,873,767.5,551,767.5,551,439" style="stroke:#181818;stroke-width:1;"/><line style="stroke:#181818;stroke-width:1;" x1="873" x2="883" y1="439" y2="429"/><line style="stroke:#181818;stroke-width:1;" x1="551" x2="873" y1="439" y2="439"/><line style="stroke:#181818;stroke-width:1;" x1="873" x2="873" y1="439" y2="767.5"/><text fill="#000000" font-family="sans-serif" font-size="14" font-weight="bold" lengthAdjust="spacing" textLength="162.9346" x="631.5327" y="454.9951">Workflow 'pattern-6'</text></g><!--cluster pattern_6--><g class="cluster" data-entity="pattern_6" data-source-line="70" data-uid="ent0029" id="cluster_pattern_6"><rect fill="none" height="163" rx="2.5" ry="2.5" style="stroke:#181818;stroke-width:1;" width="130" x="587" y="491"/><rect fill="none" height="10" style="stroke:#181818;stroke-width:1;" width="15" x="697" y="496"/><rect fill="none" height="2" style="stroke:#181818;stroke-width:1;" width="4" x="695" y="498"/><rect fill="none" height="2" style="stroke:#181818;stroke-width:1;" width="4" x="695" y="502"/><text fill="#000000" font-family="sans-serif" font-size="14" font-weight="bold" lengthAdjust="spacing" textLength="74.7715" x="614.6143" y="516.9951">pattern-6</text></g><!--cluster pattern_6_step--><g class="cluster" data-entity="pattern_6_step" data-source-line="84" data-uid="ent0034" id="cluster_pattern_6_step"><rect fill="none" height="154.5" rx="2.5" ry="2.5" style="stroke:#181818;stroke-width:1;" width="130" x="733" y="575"/><rect fill="none" height="10" style="stroke:#181818;stroke-width:1;" width="15" x="843" y="580"/><rect fill="none" height="2" style="stroke:#181818;stroke-width:1;" width="4" x="841" y="582"/><rect fill="none" height="2" style="stroke:#181818;stroke-width:1;" width="4" x="841" y="586"/><text fill="#000000" font-family="sans-serif" font-size="14" font-weight="bold" lengthAdjust="spacing" textLength="34.542" x="780.729" y="600.9951">step</text></g><!--cluster CommandLineTool 'clt'--><g class="cluster" data-entity="CommandLineTool 'clt'" data-source-line="103" data-uid="ent0042" id="cluster_CommandLineTool 'clt'"><polygon fill="none" points="907,523,917,513,1161,513,1161,757.5,1151,767.5,907,767.5,907,523" style="stroke:#181818;stroke-width:1;"/><line style="stroke:#181818;stroke-width:1;" x1="1151" x2="1161" y1="523" y2="513"/><line style="stroke:#181818;stroke-width:1;" x1="907" x2="1151" y1="523" y2="523"/><line style="stroke:#181818;stroke-width:1;" x1="1151" x2="1151" y1="523" y2="767.5"/><text fill="#000000" font-family="sans-serif" font-size="14" font-weight="bold" lengthAdjust="spacing" textLength="178.5068" x="940.7466" y="538.9951">CommandLineTool 'clt'</text></g><!--cluster clt--><g class="cluster" data-entity="clt" data-source-line="104" data-uid="ent0043" id="cluster_clt"><rect fill="none" height="154.5" rx="2.5" ry="2.5" style="stroke:#181818;stroke-width:1;" width="130" x="927" y="575"/><rect fill="none" height="10" style="stroke:#181818;stroke-width:1;" width="15" x="1037" y="580"/><rect fill="none" height="2" style="stroke:#181818;stroke-width:1;" width="4" x="1035" y="582"/><rect fill="none" height="2" style="stroke:#181818;stroke-width:1;" width="4" x="1035" y="586"/><text fill="#000000" font-family="sans-serif" font-size="14" font-weight="bold" lengthAdjust="spacing" textLength="19.79" x="982.105" y="600.9951">clt</text></g><g class="entity" data-entity="main_aoi" data-source-line="7" data-uid="ent0004" id="entity_main_aoi"><text fill="#000000" font-family="sans-serif" font-size="14" lengthAdjust="spacing" textLength="21.0342" x="82.4829" y="50.6982">aoi</text><rect fill="#F1F1F1" height="12" style="stroke:#181818;stroke-width:1.5;" width="12" x="87" y="66"/></g><g class="entity" data-entity="main_epsg" data-source-line="9" data-uid="ent0005" id="entity_main_epsg"><text fill="#000000" font-family="sans-serif" font-size="14" lengthAdjust="spacing" textLength="33.6807" x="123.1597" y="50.6982">epsg</text><rect fill="#F1F1F1" height="12" style="stroke:#181818;stroke-width:1.5;" width="12" x="134" y="66"/></g><g class="entity" data-entity="main_another_input" data-source-line="11" data-uid="ent0006" id="entity_main_another_input"><text fill="#000000" font-family="sans-serif" font-size="14" lengthAdjust="spacing" textLength="97.7607" x="174.6196" y="50.6982">another_input</text><rect fill="#F1F1F1" height="12" style="stroke:#181818;stroke-width:1.5;" width="12" x="217.5" y="66"/></g><g class="entity" data-entity="main_item" data-source-line="13" data-uid="ent0007" id="entity_main_item"><text fill="#000000" font-family="sans-serif" font-size="14" lengthAdjust="spacing" textLength="31.6299" x="30.1851" y="50.6982">item</text><rect fill="#F1F1F1" height="12" style="stroke:#181818;stroke-width:1.5;" width="12" x="40" y="66"/></g><g class="entity" data-entity="main_mean" data-source-line="16" data-uid="ent0008" id="entity_main_mean"><text fill="#000000" font-family="sans-serif" font-size="14" lengthAdjust="spacing" textLength="39.7031" x="60.1484" y="286.4951">mean</text><rect fill="#F1F1F1" height="12" style="stroke:#181818;stroke-width:1.5;" width="12" x="74" y="261.5"/></g><g class="entity" data-entity="main_directory_stage_in_0_reference" data-source-line="23" data-uid="ent0010" id="entity_main_directory_stage_in_0_reference"><text fill="#000000" font-family="sans-serif" font-size="14" lengthAdjust="spacing" textLength="67.4639" x="282.2681" y="158.6982">reference</text><rect fill="#F1F1F1" height="12" style="stroke:#181818;stroke-width:1.5;" width="12" x="310" y="174"/></g><g class="entity" data-entity="main_directory_stage_in_0_another_input" data-source-line="26" data-uid="ent0012" id="entity_main_directory_stage_in_0_another_input"><text fill="#000000" font-family="sans-serif" font-size="14" lengthAdjust="spacing" textLength="97.7607" x="369.6196" y="158.6982">another_input</text><rect fill="#F1F1F1" height="12" style="stroke:#181818;stroke-width:1.5;" width="12" x="412.5" y="174"/></g><g class="entity" data-entity="main_directory_stage_in_0_staged" data-source-line="31" data-uid="ent0014" id="entity_main_directory_stage_in_0_staged"><text fill="#000000" font-family="sans-serif" font-size="14" lengthAdjust="spacing" textLength="47.749" x="328.1255" y="373.9951">staged</text><rect fill="#F1F1F1" height="12" style="stroke:#181818;stroke-width:1.5;" width="12" x="346" y="349"/></g><g class="entity" data-entity="main_app_aoi" data-source-line="37" data-uid="ent0016" id="entity_main_app_aoi"><text fill="#000000" font-family="sans-serif" font-size="14" lengthAdjust="spacing" textLength="21.0342" x="127.4829" y="469.6982">aoi</text><rect fill="#F1F1F1" height="12" style="stroke:#181818;stroke-width:1.5;" width="12" x="132" y="485"/></g><g class="entity" data-entity="main_app_epsg" data-source-line="40" data-uid="ent0018" id="entity_main_app_epsg"><text fill="#000000" font-family="sans-serif" font-size="14" lengthAdjust="spacing" textLength="33.6807" x="168.1597" y="469.6982">epsg</text><rect fill="#F1F1F1" height="12" style="stroke:#181818;stroke-width:1.5;" width="12" x="179" y="485"/></g><g class="entity" data-entity="main_app_item" data-source-line="43" data-uid="ent0020" id="entity_main_app_item"><text fill="#000000" font-family="sans-serif" font-size="14" lengthAdjust="spacing" textLength="31.6299" x="216.1851" y="469.6982">item</text><rect fill="#F1F1F1" height="12" style="stroke:#181818;stroke-width:1.5;" width="12" x="226" y="485"/></g><g class="entity" data-entity="main_app_mean" data-source-line="48" data-uid="ent0022" id="entity_main_app_mean"><text fill="#000000" font-family="sans-serif" font-size="14" lengthAdjust="spacing" textLength="39.7031" x="148.1484" y="672.9951">mean</text><rect fill="#F1F1F1" height="12" style="stroke:#181818;stroke-width:1.5;" width="12" x="162" y="648"/></g><g class="entity" data-entity="my_asthonishing_stage_in_directory_reference" data-source-line="57" data-uid="ent0025" id="entity_my_asthonishing_stage_in_directory_reference"><text fill="#000000" font-family="sans-serif" font-size="14" lengthAdjust="spacing" textLength="67.4639" x="616.2681" y="158.6982">reference</text><rect fill="#F1F1F1" height="12" style="stroke:#181818;stroke-width:1.5;" width="12" x="644" y="174"/></g><g class="entity" data-entity="my_asthonishing_stage_in_directory_another_input" data-source-line="59" data-uid="ent0026" id="entity_my_asthonishing_stage_in_directory_another_input"><text fill="#000000" font-family="sans-serif" font-size="14" lengthAdjust="spacing" textLength="97.7607" x="703.6196" y="158.6982">another_input</text><rect fill="#F1F1F1" height="12" style="stroke:#181818;stroke-width:1.5;" width="12" x="746.5" y="174"/></g><g class="entity" data-entity="my_asthonishing_stage_in_directory_staged" data-source-line="62" data-uid="ent0027" id="entity_my_asthonishing_stage_in_directory_staged"><text fill="#000000" font-family="sans-serif" font-size="14" lengthAdjust="spacing" textLength="47.749" x="723.1255" y="373.9951">staged</text><rect fill="#F1F1F1" height="12" style="stroke:#181818;stroke-width:1.5;" width="12" x="741" y="349"/></g><g class="entity" data-entity="pattern_6_aoi" data-source-line="72" data-uid="ent0030" id="entity_pattern_6_aoi"><text fill="#000000" font-family="sans-serif" font-size="14" lengthAdjust="spacing" textLength="21.0342" x="641.4829" y="469.6982">aoi</text><rect fill="#F1F1F1" height="12" style="stroke:#181818;stroke-width:1.5;" width="12" x="646" y="485"/></g><g class="entity" data-entity="pattern_6_epsg" data-source-line="74" data-uid="ent0031" id="entity_pattern_6_epsg"><text fill="#000000" font-family="sans-serif" font-size="14" lengthAdjust="spacing" textLength="33.6807" x="682.1597" y="469.6982">epsg</text><rect fill="#F1F1F1" height="12" style="stroke:#181818;stroke-width:1.5;" width="12" x="693" y="485"/></g><g class="entity" data-entity="pattern_6_item" data-source-line="76" data-uid="ent0032" id="entity_pattern_6_item"><text fill="#000000" font-family="sans-serif" font-size="14" lengthAdjust="spacing" textLength="31.6299" x="589.1851" y="469.6982">item</text><rect fill="#F1F1F1" height="12" style="stroke:#181818;stroke-width:1.5;" width="12" x="599" y="485"/></g><g class="entity" data-entity="pattern_6_mean" data-source-line="79" data-uid="ent0033" id="entity_pattern_6_mean"><text fill="#000000" font-family="sans-serif" font-size="14" lengthAdjust="spacing" textLength="39.7031" x="651.1484" y="672.9951">mean</text><rect fill="#F1F1F1" height="12" style="stroke:#181818;stroke-width:1.5;" width="12" x="665" y="648"/></g><g class="entity" data-entity="pattern_6_step_item" data-source-line="86" data-uid="ent0035" id="entity_pattern_6_step_item"><text fill="#000000" font-family="sans-serif" font-size="14" lengthAdjust="spacing" textLength="31.6299" x="735.1851" y="553.6982">item</text><rect fill="#F1F1F1" height="12" style="stroke:#181818;stroke-width:1.5;" width="12" x="745" y="569"/></g><g class="entity" data-entity="pattern_6_step_aoi" data-source-line="89" data-uid="ent0037" id="entity_pattern_6_step_aoi"><text fill="#000000" font-family="sans-serif" font-size="14" lengthAdjust="spacing" textLength="21.0342" x="787.4829" y="553.6982">aoi</text><rect fill="#F1F1F1" height="12" style="stroke:#181818;stroke-width:1.5;" width="12" x="792" y="569"/></g><g class="entity" data-entity="pattern_6_step_epsg" data-source-line="92" data-uid="ent0039" id="entity_pattern_6_step_epsg"><text fill="#000000" font-family="sans-serif" font-size="14" lengthAdjust="spacing" textLength="33.6807" x="828.1597" y="553.6982">epsg</text><rect fill="#F1F1F1" height="12" style="stroke:#181818;stroke-width:1.5;" width="12" x="839" y="569"/></g><g class="entity" data-entity="pattern_6_step_mean" data-source-line="97" data-uid="ent0041" id="entity_pattern_6_step_mean"><text fill="#000000" font-family="sans-serif" font-size="14" lengthAdjust="spacing" textLength="39.7031" x="760.1484" y="748.4951">mean</text><rect fill="#F1F1F1" height="12" style="stroke:#181818;stroke-width:1.5;" width="12" x="774" y="723.5"/></g><g class="entity" data-entity="clt_item" data-source-line="106" data-uid="ent0044" id="entity_clt_item"><text fill="#000000" font-family="sans-serif" font-size="14" lengthAdjust="spacing" textLength="31.6299" x="929.1851" y="553.6982">item</text><rect fill="#F1F1F1" height="12" style="stroke:#181818;stroke-width:1.5;" width="12" x="939" y="569"/></g><g class="entity" data-entity="clt_aoi" data-source-line="108" data-uid="ent0045" id="entity_clt_aoi"><text fill="#000000" font-family="sans-serif" font-size="14" lengthAdjust="spacing" textLength="21.0342" x="981.4829" y="553.6982">aoi</text><rect fill="#F1F1F1" height="12" style="stroke:#181818;stroke-width:1.5;" width="12" x="986" y="569"/></g><g class="entity" data-entity="clt_epsg" data-source-line="110" data-uid="ent0046" id="entity_clt_epsg"><text fill="#000000" font-family="sans-serif" font-size="14" lengthAdjust="spacing" textLength="33.6807" x="1022.1597" y="553.6982">epsg</text><rect fill="#F1F1F1" height="12" style="stroke:#181818;stroke-width:1.5;" width="12" x="1033" y="569"/></g><g class="entity" data-entity="clt_mean" data-source-line="113" data-uid="ent0047" id="entity_clt_mean"><text fill="#000000" font-family="sans-serif" font-size="14" lengthAdjust="spacing" textLength="39.7031" x="959.1484" y="748.4951">mean</text><rect fill="#F1F1F1" height="12" style="stroke:#181818;stroke-width:1.5;" width="12" x="973" y="723.5"/></g><!--link main_item to main_directory_stage_in_0_reference--><g class="link" data-entity-1="main_item" data-entity-2="main_directory_stage_in_0_reference" data-source-line="24" data-uid="lnk11" id="link_main_item_main_directory_stage_in_0_reference"><path d="M45.33,78.2 C45.33,99.22 45.33,166.5 45.33,166.5 C45.33,166.5 305.79,166.5 309.95,166.5" fill="none" id="main_item-to-main_directory_stage_in_0_reference" style="stroke:#181818;stroke-width:1;stroke-dasharray:7.0,7.0;"/><polygon fill="#181818" points="315.95,166.5,306.95,162.5,310.95,166.5,306.95,170.5,315.95,166.5" style="stroke:#181818;stroke-width:1;"/></g><!--link main_another_input to main_directory_stage_in_0_another_input--><g class="link" data-entity-1="main_another_input" data-entity-2="main_directory_stage_in_0_another_input" data-source-line="27" data-uid="lnk13" id="link_main_another_input_main_directory_stage_in_0_another_input"><path d="M229.86,72.5 C261.76,72.5 413,72.5 413,72.5 C413,72.5 413,145.17 413,167.91" fill="none" id="main_another_input-to-main_directory_stage_in_0_another_input" style="stroke:#181818;stroke-width:1;stroke-dasharray:7.0,7.0;"/><polygon fill="#181818" points="413,173.91,417,164.91,413,168.91,409,164.91,413,173.91" style="stroke:#181818;stroke-width:1;"/></g><!--link main_aoi to main_app_aoi--><g class="link" data-entity-1="main_aoi" data-entity-2="main_app_aoi" data-source-line="38" data-uid="lnk17" id="link_main_aoi_main_app_aoi"><path d="M99.06,74.5 C106.17,74.5 117,74.5 117,74.5 C117,74.5 117,491.5 117,491.5 C117,491.5 119.62,491.5 125.81,491.5" fill="none" id="main_aoi-to-main_app_aoi" style="stroke:#181818;stroke-width:1;stroke-dasharray:7.0,7.0;"/><polygon fill="#181818" points="131.81,491.5,122.81,487.5,126.81,491.5,122.81,495.5,131.81,491.5" style="stroke:#181818;stroke-width:1;"/></g><!--link main_epsg to main_app_epsg--><g class="link" data-entity-1="main_epsg" data-entity-2="main_app_epsg" data-source-line="41" data-uid="lnk19" id="link_main_epsg_main_app_epsg"><path d="M146.02,70.5 C149.81,70.5 154,70.5 154,70.5 C154,70.5 154,489.5 154,489.5 C154,489.5 163.67,489.5 172.73,489.5" fill="none" id="main_epsg-to-main_app_epsg" style="stroke:#181818;stroke-width:1;stroke-dasharray:7.0,7.0;"/><polygon fill="#181818" points="178.73,489.5,169.73,485.5,173.73,489.5,169.73,493.5,178.73,489.5" style="stroke:#181818;stroke-width:1;"/></g><!--link main_directory_stage_in_0_staged to main_app_item--><g class="link" data-entity-1="main_directory_stage_in_0_staged" data-entity-2="main_app_item" data-source-line="44" data-uid="lnk21" id="link_main_directory_stage_in_0_staged_main_app_item"><path d="M345.88,355.5 C321.43,355.5 232,355.5 232,355.5 C232,355.5 232,452.32 232,478.83" fill="none" id="main_directory_stage_in_0_staged-to-main_app_item" style="stroke:#181818;stroke-width:1;stroke-dasharray:7.0,7.0;"/><polygon fill="#181818" points="232,484.83,236,475.83,232,479.83,228,475.83,232,484.83" style="stroke:#181818;stroke-width:1;"/></g><!--link pattern_6_item to pattern_6_step_item--><g class="link" data-entity-1="pattern_6_item" data-entity-2="pattern_6_step_item" data-source-line="87" data-uid="lnk36" id="link_pattern_6_item_pattern_6_step_item"><path d="M605,497.15 C605,511.99 605,548.5 605,548.5 C605,548.5 751,548.5 751,548.5 C751,548.5 751,555.03 751,562.85" fill="none" id="pattern_6_item-to-pattern_6_step_item" style="stroke:#181818;stroke-width:1;stroke-dasharray:7.0,7.0;"/><polygon fill="#181818" points="751,568.85,755,559.85,751,563.85,747,559.85,751,568.85" style="stroke:#181818;stroke-width:1;"/></g><!--link pattern_6_aoi to pattern_6_step_aoi--><g class="link" data-entity-1="pattern_6_aoi" data-entity-2="pattern_6_step_aoi" data-source-line="90" data-uid="lnk38" id="link_pattern_6_aoi_pattern_6_step_aoi"><path d="M652,497.42 C652,504.38 652,514.5 652,514.5 C652,514.5 798,514.5 798,514.5 C798,514.5 798,547.68 798,562.98" fill="none" id="pattern_6_aoi-to-pattern_6_step_aoi" style="stroke:#181818;stroke-width:1;stroke-dasharray:7.0,7.0;"/><polygon fill="#181818" points="798,568.98,802,559.98,798,563.98,794,559.98,798,568.98" style="stroke:#181818;stroke-width:1;"/></g><!--link pattern_6_epsg to pattern_6_step_epsg--><g class="link" data-entity-1="pattern_6_epsg" data-entity-2="pattern_6_step_epsg" data-source-line="93" data-uid="lnk40" id="link_pattern_6_epsg_pattern_6_step_epsg"><path d="M705.27,491.5 C733.22,491.5 845,491.5 845,491.5 C845,491.5 845,543.85 845,562.99" fill="none" id="pattern_6_epsg-to-pattern_6_step_epsg" style="stroke:#181818;stroke-width:1;stroke-dasharray:7.0,7.0;"/><polygon fill="#181818" points="845,568.99,849,559.99,845,563.99,841,559.99,845,568.99" style="stroke:#181818;stroke-width:1;"/></g><!--reverse link main_mean to main_app_mean--><g class="link" data-entity-1="main_mean" data-entity-2="main_app_mean" data-source-line="124" data-uid="lnk49" id="link_main_mean_main_app_mean"><path d="M92.18,267.5 C111.9,267.5 166,267.5 166,267.5 C166,267.5 166,598.76 166,647.93" fill="none" id="main_mean-backto-main_app_mean" style="stroke:#181818;stroke-width:1;stroke-dasharray:7.0,7.0;"/><polygon fill="#181818" points="86.18,267.5,95.18,271.5,91.18,267.5,95.18,263.5,86.18,267.5" style="stroke:#181818;stroke-width:1;"/></g><!--link main_directory_stage_in_0 to my_asthonishing_stage_in_directory--><g class="link" data-entity-1="main_directory_stage_in_0" data-entity-2="my_asthonishing_stage_in_directory" data-source-line="129" data-uid="lnk50" id="link_main_directory_stage_in_0_my_asthonishing_stage_in_directory"><path d="M503.1383,267.5 C503.2887,267.5 503.4391,267.5 503.5897,267.5 C503.8907,267.5 504.1921,267.5 504.4938,267.5 C505.7004,267.5 506.9115,267.5 508.127,267.5 C517.8509,267.5 527.8506,267.5 537.9888,267.5 C558.265,267.5 573.095,267.5 593.38,267.5" fill="none" id="main_directory_stage_in_0-to-my_asthonishing_stage_in_directory" style="stroke:#181818;stroke-width:1;stroke-dasharray:7.0,7.0;"/><polygon fill="#181818" points="599.38,267.5,590.38,263.5,594.38,267.5,590.38,271.5,599.38,267.5" style="stroke:#181818;stroke-width:1;"/></g><!--link main_app to pattern_6--><g class="link" data-entity-1="main_app" data-entity-2="pattern_6" data-source-line="131" data-uid="lnk51" id="link_main_app_pattern_6"><path d="M246.0342,578.5 C246.4071,578.5 246.7818,578.5 247.1583,578.5 C247.9113,578.5 248.6713,578.5 249.4384,578.5 C250.9726,578.5 252.5347,578.5 254.1238,578.5 C266.8369,578.5 281.2773,578.5 296.9314,578.5 C328.2397,578.5 364.4031,578.5 401.3137,578.5 C438.2244,578.5 475.8822,578.5 510.1792,578.5 C527.3277,578.5 543.6361,578.5 558.5907,578.5 C566.068,578.5 573.2069,578.5 579.9432,578.5 C581.6272,578.5 583.2861,578.5 584.9189,578.5 C585.3271,578.5 585.7336,578.5 586.1385,578.5 C586.341,578.5 580.543,578.5 580.7446,578.5" fill="none" id="main_app-to-pattern_6" style="stroke:#181818;stroke-width:1;stroke-dasharray:7.0,7.0;"/><polygon fill="#181818" points="586.7446,578.5,577.7446,574.5,581.7446,578.5,577.7446,582.5,586.7446,578.5" style="stroke:#181818;stroke-width:1;"/></g><!--reverse link pattern_6_mean to pattern_6_step_mean--><g class="link" data-entity-1="pattern_6_mean" data-entity-2="pattern_6_step_mean" data-source-line="142" data-uid="lnk53" id="link_pattern_6_mean_pattern_6_step_mean"><path d="M683.04,652.5 C705.61,652.5 777.67,652.5 777.67,652.5 C777.67,652.5 777.67,705.31 777.67,723.46" fill="none" id="pattern_6_mean-backto-pattern_6_step_mean" style="stroke:#181818;stroke-width:1;stroke-dasharray:7.0,7.0;"/><polygon fill="#181818" points="677.04,652.5,686.04,656.5,682.04,652.5,686.04,648.5,677.04,652.5" style="stroke:#181818;stroke-width:1;"/></g><!--link pattern_6_step to clt--><g class="link" data-entity-1="pattern_6_step" data-entity-2="clt" data-source-line="147" data-uid="lnk54" id="link_pattern_6_step_clt"><path d="M859.2108,657.5 C859.8836,657.5 860.5601,657.5 861.24,657.5 C862.5998,657.5 863.9732,657.5 865.3586,657.5 C876.4416,657.5 888.2869,657.5 899.9913,657.5 C905.8434,657.5 911.6604,657.5 917.3292,657.5 C920.1636,657.5 922.961,657.5 925.7072,657.5 C926.0505,657.5 926.3929,657.5 926.7346,657.5 C926.82,657.5 920.9054,657.5 920.9907,657.5" fill="none" id="pattern_6_step-to-clt" style="stroke:#181818;stroke-width:1;stroke-dasharray:7.0,7.0;"/><polygon fill="#181818" points="926.9907,657.5,917.9907,653.5,921.9907,657.5,917.9907,661.5,926.9907,657.5" style="stroke:#181818;stroke-width:1;"/></g><!--SRC=[dLOzRy8m4DtpAwmiJ46T6BjqxLYfOsGH0nR4jXmZX2h-Utq1xkB4ncuZGR3ztla-dnYEKXbkUSzEKWbtDO9fwmwwgYgbEy7gRssFkvE-i5NFfLhLxATY_jdgtcWbb6CrxDUC3mn-F8x7BtYCj-PtQwubObg_YAE46VO4WrN2cjBk86phVJ-xYTtfTfmfdUY902l21M1zXj04fz1QM17mvbCqoqGdhTWwRQ_juFXUU3_QDwB7JbFfic8dh51RyPhU8WujO5nitUcBMhyNiqkp73MrJ3qw4nmLU1MfOg8y8wdBU7O71NMRbOqRC-aXOyfws1ZiOmfLop30AIhJxG35ZaUBiBCqcPwCiBy1YpsEDb-aQNaLZKZHZ01bCIUtfvXywBxdgllqKlEbzSbhohNXWvSR9OU3LFjczAAHga4VeugJPTqTkhPJ64MBiCBnozhvnoJbRIRKxFKOvCr6ve4AH6flk7F2gcOJAm0UZfS-LkqcDpW8B9W9mXOqEu6B5PqeMLaVd30p3cobeeru1V1m44EFSUnIb8AKZeIf8WNPJjtmbqACX42YmYAbxg02bXTb9Fv1IBOd5sjKlpqQzkzikJoc8E60oYSDK67VleWQmCicX4_8h0A5PUkpUGerikcwYXZHFnvhA_S71mQoab45bnCJgnKhxdHlTXAfyYEOo53ERSrc49tnISovyGi0]--></g></svg>