<?xml version="1.0" standalone="no"?><!DOCTYPE svg PUBLIC "-//W3C//DTD SVG 1.1//EN" "http://www.w3.org/Graphics/SVG/1.1/DTD/svg11.dtd"><svg t="1751364019374" class="icon" viewBox="0 0 1039 1024" version="1.1" xmlns="http://www.w3.org/2000/svg" p-id="8033" xmlns:xlink="http://www.w3.org/1999/xlink" width="202.9296875" height="200"><path d="M997.18495 90.4l-42.9-15.6c-13.8-5.3-30.2-4.8-44.8 1.3-14.5 6.1-26 17.1-31.5 30.2l-23.1 51.2C701.88495 16.6 474.88495-15.1 286.58495 79 157.78495 142.4 63.58495 253.6 21.48495 392 1.58495 459.6-4.51505 529 3.28495 598.4c7.9 69.8 29.4 135.7 64.1 196.1C109.88495 867.4 163.58495 924.4 226.98495 964c33.6 21 74.1 32.6 113.9 32.6 67 0 125.6-28.9 165-81.5 40.1-50.2 60.7-137.8 52.6-223.4-5.5-51.4 5.1-89.1 30.5-109.1 22.2-17.1 54.4-20.9 91.1-11l-20.1 45.2-0.1 0.3c-9.4 23.6 2.4 51.4 25.8 60.8l137.3 51c5.4 2.6 12.2 2.6 16.7 2.6 7.1 0 13.7-2.2 20-4.3l0.8-0.3 0.7-0.4c11-6.6 18.4-15.8 21-26l25.4-85.4c8 1.7 14.8 2.5 20.4 2.5 28.1 0 53.8-11.3 72.3-31.9 38.3-42.6 45.1-116.6 17.2-188.3-6-16-21.4-41.1-29.4-53.3-0.5-1.7-1.4-3-2.4-3.9l51.6-179.7 0.1-0.5c7.1-32.1-9.5-60.7-40.2-69.6z m-13.3 55.8v0.1l-153 528.6-118.6-43.6L929.08495 128l0.2-0.6c0.4-1.1 3.5-2 6.1-1.2l43.6 15.9 0.6 0.1c2.9 0.6 4.1 1.5 4.4 1.9 0.2 0.3 0.2 1-0.1 2.1zM504.38495 697.3c3.7 33.2 1.6 70.1-5.8 103.9-7.3 33.2-19.3 62-34 81.3-32.1 42-73.1 55.5-101.8 59.5-37 5.1-75.7-2.9-106.1-22-55.8-36.5-104.5-89.3-140.9-152.5-62-108.4-77.5-239.4-42.6-359.5 36.1-121.8 119.9-221.3 235.7-280.2 171.4-85.7 386-51.3 523.8 83.4l-31.9 72.1c-11.2-5.5-24.7-8.7-37.7-8.7-47.4 0-86.1 38.6-86.1 86.1 0 36 22.3 67.7 56.3 81l-35.2 80.4C645.88495 504.8 592.58495 511 554.38495 539.2l-0.2 0.1c-17.7 13.9-31.2 32.3-39.9 54.5-11.1 28.6-14.5 63.4-9.9 103.5zM979.58495 495.2c-1.4 23.1-8.3 42.5-19.5 54.7-10.8 10.8-23.6 15.2-38.1 13.3l42.9-146.9c0.6 1 1.2 1.9 1.8 2.9 9.7 25.2 14.3 52.1 12.9 76zM835.88495 784.8z" p-id="8034"></path><path d="M835.88495 784.8c-5.9-23.6-21.7-43.1-39.3-49l-94.3-33.4c-21.6-7.9-45.2-3.9-64.8 9.8-45.2 33.4-64.8 92.3-49.1 147.3l29.5 104.1c3.9 13.7 15.7 25.5 29.5 31.4 5.9 2 9.8 2 15.7 2 7.9 0 17.7-2 25.5-7.9l90.3-60.9c47.1-31.4 70.7-88.4 57-143.4 1.9 0.1 0 0 0 0z m-181.1 167l-29.5-104.1c-11.8-37.3 2-80.4 33.3-104 0.1-0.1 0.2-0.1 0.2-0.2 5.9-3.9 11.7-7.8 19.5-7.8 2 0 3.9 0.3 7.8 2 0.1 0 0.2 0.1 0.2 0.1l96.1 33.4c5.9 2 12.9 9.1 15.7 17.7 9.8 39.3-5.9 84.4-41.2 108l-89.8 60.6c-0.3 0.2-0.7 0.4-1.1 0.5-9.5 2.5-11.2-6.2-11.2-6.2zM533.58495 278c0-41.5-34-75.5-75.5-75.5S382.58495 236.5 382.58495 278s34 75.5 75.5 75.5 75.5-34 75.5-75.5zM311.88495 686.8c-30.2 0-54.8 24.7-54.8 54.8s24.7 54.8 54.8 54.8c30.2 0 54.8-24.7 54.8-54.8s-24.6-54.8-54.8-54.8zM262.18495 541.6c39.5 3.8 72.8-29.5 69-69-2.9-29.8-26.8-53.7-56.6-56.6-39.5-3.8-72.8 29.5-69 69 2.9 29.9 26.8 53.8 56.6 56.6z" p-id="8035"></path></svg>