<?xml version="1.0" encoding="UTF-8" standalone="no"?>
<!DOCTYPE svg PUBLIC "-//W3C//DTD SVG 1.1//EN"
 "http://www.w3.org/Graphics/SVG/1.1/DTD/svg11.dtd">
<!-- Generated by graphviz version 2.43.0 (0)
 -->
<!-- Title: G Pages: 1 -->
<svg width="1792pt" height="395pt"
 viewBox="0.00 0.00 1792.00 395.00" xmlns="http://www.w3.org/2000/svg" xmlns:xlink="http://www.w3.org/1999/xlink">
<g id="graph0" class="graph" transform="scale(1 1) rotate(0) translate(4 391)">
<title>G</title>
<polygon fill="#eeeeee" stroke="transparent" points="-4,4 -4,-391 1788,-391 1788,4 -4,4"/>
<g id="clust1" class="cluster">
<title>cluster_inputs</title>
<polygon fill="#eeeeee" stroke="black" stroke-dasharray="5,2" points="8,-303 8,-379 1776,-379 1776,-303 8,-303"/>
<text text-anchor="middle" x="1709.5" y="-310.8" font-family="Times,serif" font-size="14.00">Workflow Inputs</text>
</g>
<g id="clust2" class="cluster">
<title>cluster_outputs</title>
<polygon fill="#eeeeee" stroke="black" stroke-dasharray="5,2" points="1159,-8 1159,-84 1327,-84 1327,-8 1159,-8"/>
<text text-anchor="middle" x="1254.5" y="-15.8" font-family="Times,serif" font-size="14.00">Workflow Outputs</text>
</g>
<!-- main/directory_stage_in_0 -->
<g id="node1" class="node">
<title>main/directory_stage_in_0</title>
<polygon fill="lightgoldenrodyellow" stroke="black" points="291.5,-258.5 291.5,-294.5 494.5,-294.5 494.5,-258.5 291.5,-258.5"/>
<text text-anchor="middle" x="393" y="-272.8" font-family="Times,serif" font-size="14.00">main/directory_stage_in_0</text>
</g>
<!-- main/app -->
<g id="node2" class="node">
<title>main/app</title>
<polygon fill="#f3cea1" stroke="black" points="52.5,-185.5 52.5,-221.5 603.5,-221.5 603.5,-185.5 52.5,-185.5"/>
<text text-anchor="middle" x="328" y="-199.8" font-family="Times,serif" font-size="14.00">Water bodies detection based on NDWI and the otsu threshold (with DEM)</text>
</g>
<!-- main/directory_stage_in_0&#45;&gt;main/app -->
<g id="edge1" class="edge">
<title>main/directory_stage_in_0&#45;&gt;main/app</title>
<path fill="none" stroke="black" d="M377.27,-258.31C369.2,-249.5 359.24,-238.63 350.39,-228.96"/>
<polygon fill="black" stroke="black" points="352.92,-226.54 343.59,-221.53 347.76,-231.27 352.92,-226.54"/>
</g>
<!-- main/stage_out_0 -->
<g id="node4" class="node">
<title>main/stage_out_0</title>
<polygon fill="lightgoldenrodyellow" stroke="black" points="1172.5,-112.5 1172.5,-148.5 1313.5,-148.5 1313.5,-112.5 1172.5,-112.5"/>
<text text-anchor="middle" x="1243" y="-126.8" font-family="Times,serif" font-size="14.00">main/stage_out_0</text>
</g>
<!-- main/app&#45;&gt;main/stage_out_0 -->
<g id="edge3" class="edge">
<title>main/app&#45;&gt;main/stage_out_0</title>
<path fill="none" stroke="black" d="M547.17,-185.49C745.03,-170.14 1025.42,-148.38 1161.97,-137.79"/>
<polygon fill="black" stroke="black" points="1162.64,-141.25 1172.34,-136.98 1162.1,-134.27 1162.64,-141.25"/>
</g>
<!-- main/file_stage_in_0 -->
<g id="node3" class="node">
<title>main/file_stage_in_0</title>
<polygon fill="lightgoldenrodyellow" stroke="black" points="513,-258.5 513,-294.5 673,-294.5 673,-258.5 513,-258.5"/>
<text text-anchor="middle" x="593" y="-272.8" font-family="Times,serif" font-size="14.00">main/file_stage_in_0</text>
</g>
<!-- main/file_stage_in_0&#45;&gt;main/app -->
<g id="edge2" class="edge">
<title>main/file_stage_in_0&#45;&gt;main/app</title>
<path fill="none" stroke="black" d="M529.53,-258.49C491.05,-248.18 441.8,-234.99 401.62,-224.22"/>
<polygon fill="black" stroke="black" points="402.44,-220.82 391.87,-221.61 400.63,-227.58 402.44,-220.82"/>
</g>
<!-- main/water_bodies -->
<g id="node17" class="node">
<title>main/water_bodies</title>
<polygon fill="#94ddf4" stroke="black" points="1167.5,-39.5 1167.5,-75.5 1318.5,-75.5 1318.5,-39.5 1167.5,-39.5"/>
<text text-anchor="middle" x="1243" y="-53.8" font-family="Times,serif" font-size="14.00">main/water_bodies</text>
</g>
<!-- main/stage_out_0&#45;&gt;main/water_bodies -->
<g id="edge17" class="edge">
<title>main/stage_out_0&#45;&gt;main/water_bodies</title>
<path fill="none" stroke="black" d="M1243,-112.31C1243,-104.29 1243,-94.55 1243,-85.57"/>
<polygon fill="black" stroke="black" points="1246.5,-85.53 1243,-75.53 1239.5,-85.53 1246.5,-85.53"/>
</g>
<!-- main/aoi -->
<g id="node5" class="node">
<title>main/aoi</title>
<polygon fill="#94ddf4" stroke="black" points="16.5,-334.5 16.5,-370.5 93.5,-370.5 93.5,-334.5 16.5,-334.5"/>
<text text-anchor="middle" x="55" y="-348.8" font-family="Times,serif" font-size="14.00">main/aoi</text>
</g>
<!-- main/aoi&#45;&gt;main/app -->
<g id="edge4" class="edge">
<title>main/aoi&#45;&gt;main/app</title>
<path fill="none" stroke="black" d="M69.21,-334.15C78.12,-324.09 90.3,-311.72 103,-303 153.32,-268.45 217.71,-241.75 264.71,-224.91"/>
<polygon fill="black" stroke="black" points="265.9,-228.2 274.16,-221.57 263.57,-221.6 265.9,-228.2"/>
</g>
<!-- main/bands -->
<g id="node6" class="node">
<title>main/bands</title>
<polygon fill="#94ddf4" stroke="black" points="111.5,-334.5 111.5,-370.5 210.5,-370.5 210.5,-334.5 111.5,-334.5"/>
<text text-anchor="middle" x="161" y="-348.8" font-family="Times,serif" font-size="14.00">main/bands</text>
</g>
<!-- main/bands&#45;&gt;main/app -->
<g id="edge5" class="edge">
<title>main/bands&#45;&gt;main/app</title>
<path fill="none" stroke="black" d="M180.48,-334.35C210.27,-308.13 267.24,-257.99 300.99,-228.27"/>
<polygon fill="black" stroke="black" points="303.45,-230.78 308.64,-221.54 298.82,-225.52 303.45,-230.78"/>
</g>
<!-- main/epsg -->
<g id="node7" class="node">
<title>main/epsg</title>
<polygon fill="#94ddf4" stroke="black" points="229,-334.5 229,-370.5 319,-370.5 319,-334.5 229,-334.5"/>
<text text-anchor="middle" x="274" y="-348.8" font-family="Times,serif" font-size="14.00">main/epsg</text>
</g>
<!-- main/epsg&#45;&gt;main/app -->
<g id="edge6" class="edge">
<title>main/epsg&#45;&gt;main/app</title>
<path fill="none" stroke="black" d="M272.67,-334.21C271.84,-314.86 272.52,-282.96 283,-258 287.35,-247.65 294.42,-237.8 301.69,-229.44"/>
<polygon fill="black" stroke="black" points="304.43,-231.63 308.63,-221.91 299.28,-226.89 304.43,-231.63"/>
</g>
<!-- main/another_input -->
<g id="node8" class="node">
<title>main/another_input</title>
<polygon fill="#94ddf4" stroke="black" points="445,-334.5 445,-370.5 601,-370.5 601,-334.5 445,-334.5"/>
<text text-anchor="middle" x="523" y="-348.8" font-family="Times,serif" font-size="14.00">main/another_input</text>
</g>
<!-- main/another_input&#45;&gt;main/directory_stage_in_0 -->
<g id="edge7" class="edge">
<title>main/another_input&#45;&gt;main/directory_stage_in_0</title>
<path fill="none" stroke="black" d="M492.85,-334.34C474.72,-324.02 451.45,-310.77 431.94,-299.67"/>
<polygon fill="black" stroke="black" points="433.41,-296.48 422.99,-294.57 429.95,-302.56 433.41,-296.48"/>
</g>
<!-- main/another_input&#45;&gt;main/file_stage_in_0 -->
<g id="edge8" class="edge">
<title>main/another_input&#45;&gt;main/file_stage_in_0</title>
<path fill="none" stroke="black" d="M539.24,-334.34C548.34,-324.72 559.84,-312.56 569.87,-301.96"/>
<polygon fill="black" stroke="black" points="572.52,-304.24 576.85,-294.57 567.44,-299.43 572.52,-304.24"/>
</g>
<!-- main/item -->
<g id="node9" class="node">
<title>main/item</title>
<polygon fill="#94ddf4" stroke="black" points="337.5,-334.5 337.5,-370.5 426.5,-370.5 426.5,-334.5 337.5,-334.5"/>
<text text-anchor="middle" x="382" y="-348.8" font-family="Times,serif" font-size="14.00">main/item</text>
</g>
<!-- main/item&#45;&gt;main/directory_stage_in_0 -->
<g id="edge9" class="edge">
<title>main/item&#45;&gt;main/directory_stage_in_0</title>
<path fill="none" stroke="black" d="M384.55,-334.34C385.86,-325.56 387.48,-314.66 388.95,-304.77"/>
<polygon fill="black" stroke="black" points="392.45,-304.98 390.46,-294.57 385.53,-303.95 392.45,-304.98"/>
</g>
<!-- main/dem -->
<g id="node10" class="node">
<title>main/dem</title>
<polygon fill="#94ddf4" stroke="black" points="619.5,-334.5 619.5,-370.5 706.5,-370.5 706.5,-334.5 619.5,-334.5"/>
<text text-anchor="middle" x="663" y="-348.8" font-family="Times,serif" font-size="14.00">main/dem</text>
</g>
<!-- main/dem&#45;&gt;main/file_stage_in_0 -->
<g id="edge10" class="edge">
<title>main/dem&#45;&gt;main/file_stage_in_0</title>
<path fill="none" stroke="black" d="M646.76,-334.34C637.66,-324.72 626.16,-312.56 616.13,-301.96"/>
<polygon fill="black" stroke="black" points="618.56,-299.43 609.15,-294.57 613.48,-304.24 618.56,-299.43"/>
</g>
<!-- main/aws_access_key_id -->
<g id="node11" class="node">
<title>main/aws_access_key_id</title>
<polygon fill="#94ddf4" stroke="black" points="724.5,-334.5 724.5,-370.5 913.5,-370.5 913.5,-334.5 724.5,-334.5"/>
<text text-anchor="middle" x="819" y="-348.8" font-family="Times,serif" font-size="14.00">main/aws_access_key_id</text>
</g>
<!-- main/aws_access_key_id&#45;&gt;main/stage_out_0 -->
<g id="edge11" class="edge">
<title>main/aws_access_key_id&#45;&gt;main/stage_out_0</title>
<path fill="none" stroke="black" d="M851.92,-334.42C928.15,-294.86 1116.73,-197.02 1201.07,-153.26"/>
<polygon fill="black" stroke="black" points="1202.84,-156.28 1210.1,-148.57 1199.61,-150.07 1202.84,-156.28"/>
</g>
<!-- main/aws_secret_access_key -->
<g id="node12" class="node">
<title>main/aws_secret_access_key</title>
<polygon fill="#94ddf4" stroke="black" points="932,-334.5 932,-370.5 1152,-370.5 1152,-334.5 932,-334.5"/>
<text text-anchor="middle" x="1042" y="-348.8" font-family="Times,serif" font-size="14.00">main/aws_secret_access_key</text>
</g>
<!-- main/aws_secret_access_key&#45;&gt;main/stage_out_0 -->
<g id="edge12" class="edge">
<title>main/aws_secret_access_key&#45;&gt;main/stage_out_0</title>
<path fill="none" stroke="black" d="M1057.77,-334.24C1093.22,-295.44 1179.28,-201.24 1220.4,-156.23"/>
<polygon fill="black" stroke="black" points="1223.14,-158.43 1227.3,-148.68 1217.97,-153.7 1223.14,-158.43"/>
</g>
<!-- main/endpoint_url -->
<g id="node13" class="node">
<title>main/endpoint_url</title>
<polygon fill="#94ddf4" stroke="black" points="1170,-334.5 1170,-370.5 1316,-370.5 1316,-334.5 1170,-334.5"/>
<text text-anchor="middle" x="1243" y="-348.8" font-family="Times,serif" font-size="14.00">main/endpoint_url</text>
</g>
<!-- main/endpoint_url&#45;&gt;main/stage_out_0 -->
<g id="edge13" class="edge">
<title>main/endpoint_url&#45;&gt;main/stage_out_0</title>
<path fill="none" stroke="black" d="M1243,-334.24C1243,-296.16 1243,-204.73 1243,-158.8"/>
<polygon fill="black" stroke="black" points="1246.5,-158.68 1243,-148.68 1239.5,-158.68 1246.5,-158.68"/>
</g>
<!-- main/region_name -->
<g id="node14" class="node">
<title>main/region_name</title>
<polygon fill="#94ddf4" stroke="black" points="1334,-334.5 1334,-370.5 1482,-370.5 1482,-334.5 1334,-334.5"/>
<text text-anchor="middle" x="1408" y="-348.8" font-family="Times,serif" font-size="14.00">main/region_name</text>
</g>
<!-- main/region_name&#45;&gt;main/stage_out_0 -->
<g id="edge14" class="edge">
<title>main/region_name&#45;&gt;main/stage_out_0</title>
<path fill="none" stroke="black" d="M1395.05,-334.24C1366.08,-295.6 1295.89,-202.02 1261.97,-156.8"/>
<polygon fill="black" stroke="black" points="1264.69,-154.58 1255.89,-148.68 1259.09,-158.78 1264.69,-154.58"/>
</g>
<!-- main/s3_bucket -->
<g id="node15" class="node">
<title>main/s3_bucket</title>
<polygon fill="#94ddf4" stroke="black" points="1500,-334.5 1500,-370.5 1628,-370.5 1628,-334.5 1500,-334.5"/>
<text text-anchor="middle" x="1564" y="-348.8" font-family="Times,serif" font-size="14.00">main/s3_bucket</text>
</g>
<!-- main/s3_bucket&#45;&gt;main/stage_out_0 -->
<g id="edge15" class="edge">
<title>main/s3_bucket&#45;&gt;main/stage_out_0</title>
<path fill="none" stroke="black" d="M1539.08,-334.42C1481.96,-295.27 1341.54,-199.03 1276.75,-154.63"/>
<polygon fill="black" stroke="black" points="1278.35,-151.49 1268.13,-148.72 1274.4,-157.26 1278.35,-151.49"/>
</g>
<!-- main/sub_path -->
<g id="node16" class="node">
<title>main/sub_path</title>
<polygon fill="#94ddf4" stroke="black" points="1646.5,-334.5 1646.5,-370.5 1767.5,-370.5 1767.5,-334.5 1646.5,-334.5"/>
<text text-anchor="middle" x="1707" y="-348.8" font-family="Times,serif" font-size="14.00">main/sub_path</text>
</g>
<!-- main/sub_path&#45;&gt;main/stage_out_0 -->
<g id="edge16" class="edge">
<title>main/sub_path&#45;&gt;main/stage_out_0</title>
<path fill="none" stroke="black" d="M1684.71,-334.39C1671.31,-324.52 1653.66,-312.28 1637,-303 1521.84,-238.85 1377.96,-181.56 1299.86,-152.21"/>
<polygon fill="black" stroke="black" points="1300.8,-148.83 1290.2,-148.6 1298.34,-155.38 1300.8,-148.83"/>
</g>
</g>
</svg>
