<svg class="rich-terminal" viewBox="0 0 994 635.5999999999999" xmlns="http://www.w3.org/2000/svg">
    <!-- Generated with Rich https://www.textualize.io -->
    <style>

    @font-face {
        font-family: "Fira Code";
        src: local("FiraCode-Regular"),
                url("https://cdnjs.cloudflare.com/ajax/libs/firacode/6.2.0/woff2/FiraCode-Regular.woff2") format("woff2"),
                url("https://cdnjs.cloudflare.com/ajax/libs/firacode/6.2.0/woff/FiraCode-Regular.woff") format("woff");
        font-style: normal;
        font-weight: 400;
    }
    @font-face {
        font-family: "Fira Code";
        src: local("FiraCode-Bold"),
                url("https://cdnjs.cloudflare.com/ajax/libs/firacode/6.2.0/woff2/FiraCode-Bold.woff2") format("woff2"),
                url("https://cdnjs.cloudflare.com/ajax/libs/firacode/6.2.0/woff/FiraCode-Bold.woff") format("woff");
        font-style: bold;
        font-weight: 700;
    }

    .terminal-228828675-matrix {
        font-family: Fira Code, monospace;
        font-size: 20px;
        line-height: 24.4px;
        font-variant-east-asian: full-width;
    }

    .terminal-228828675-title {
        font-size: 18px;
        font-weight: bold;
        font-family: arial;
    }

    .terminal-228828675-r1 { fill: #c5c8c6 }
.terminal-228828675-r2 { fill: #e3e3e3 }
.terminal-228828675-r3 { fill: #e1e1e1 }
.terminal-228828675-r4 { fill: #1e1e1e }
.terminal-228828675-r5 { fill: #0178d4 }
.terminal-228828675-r6 { fill: #ddedf9;font-weight: bold;font-style: italic; }
.terminal-228828675-r7 { fill: #e2e2e2 }
.terminal-228828675-r8 { fill: #ddedf9;font-weight: bold }
.terminal-228828675-r9 { fill: #14191f }
.terminal-228828675-r10 { fill: #e2e2e2;font-style: italic; }
.terminal-228828675-r11 { fill: #e2e2e2;font-weight: bold }
.terminal-228828675-r12 { fill: #ddedf9 }
    </style>

    <defs>
    <clipPath id="terminal-228828675-clip-terminal">
      <rect x="0" y="0" width="975.0" height="584.5999999999999" />
    </clipPath>
    <clipPath id="terminal-228828675-line-0">
    <rect x="0" y="1.5" width="976" height="24.65"/>
            </clipPath>
<clipPath id="terminal-228828675-line-1">
    <rect x="0" y="25.9" width="976" height="24.65"/>
            </clipPath>
<clipPath id="terminal-228828675-line-2">
    <rect x="0" y="50.3" width="976" height="24.65"/>
            </clipPath>
<clipPath id="terminal-228828675-line-3">
    <rect x="0" y="74.7" width="976" height="24.65"/>
            </clipPath>
<clipPath id="terminal-228828675-line-4">
    <rect x="0" y="99.1" width="976" height="24.65"/>
            </clipPath>
<clipPath id="terminal-228828675-line-5">
    <rect x="0" y="123.5" width="976" height="24.65"/>
            </clipPath>
<clipPath id="terminal-228828675-line-6">
    <rect x="0" y="147.9" width="976" height="24.65"/>
            </clipPath>
<clipPath id="terminal-228828675-line-7">
    <rect x="0" y="172.3" width="976" height="24.65"/>
            </clipPath>
<clipPath id="terminal-228828675-line-8">
    <rect x="0" y="196.7" width="976" height="24.65"/>
            </clipPath>
<clipPath id="terminal-228828675-line-9">
    <rect x="0" y="221.1" width="976" height="24.65"/>
            </clipPath>
<clipPath id="terminal-228828675-line-10">
    <rect x="0" y="245.5" width="976" height="24.65"/>
            </clipPath>
<clipPath id="terminal-228828675-line-11">
    <rect x="0" y="269.9" width="976" height="24.65"/>
            </clipPath>
<clipPath id="terminal-228828675-line-12">
    <rect x="0" y="294.3" width="976" height="24.65"/>
            </clipPath>
<clipPath id="terminal-228828675-line-13">
    <rect x="0" y="318.7" width="976" height="24.65"/>
            </clipPath>
<clipPath id="terminal-228828675-line-14">
    <rect x="0" y="343.1" width="976" height="24.65"/>
            </clipPath>
<clipPath id="terminal-228828675-line-15">
    <rect x="0" y="367.5" width="976" height="24.65"/>
            </clipPath>
<clipPath id="terminal-228828675-line-16">
    <rect x="0" y="391.9" width="976" height="24.65"/>
            </clipPath>
<clipPath id="terminal-228828675-line-17">
    <rect x="0" y="416.3" width="976" height="24.65"/>
            </clipPath>
<clipPath id="terminal-228828675-line-18">
    <rect x="0" y="440.7" width="976" height="24.65"/>
            </clipPath>
<clipPath id="terminal-228828675-line-19">
    <rect x="0" y="465.1" width="976" height="24.65"/>
            </clipPath>
<clipPath id="terminal-228828675-line-20">
    <rect x="0" y="489.5" width="976" height="24.65"/>
            </clipPath>
<clipPath id="terminal-228828675-line-21">
    <rect x="0" y="513.9" width="976" height="24.65"/>
            </clipPath>
<clipPath id="terminal-228828675-line-22">
    <rect x="0" y="538.3" width="976" height="24.65"/>
            </clipPath>
    </defs>

    <rect fill="#292929" stroke="rgba(255,255,255,0.35)" stroke-width="1" x="1" y="1" width="992" height="633.6" rx="8"/><text class="terminal-228828675-title" fill="#c5c8c6" text-anchor="middle" x="496" y="27">OptionListApp</text>
            <g transform="translate(26,22)">
            <circle cx="0" cy="0" r="7" fill="#ff5f57"/>
            <circle cx="22" cy="0" r="7" fill="#febc2e"/>
            <circle cx="44" cy="0" r="7" fill="#28c840"/>
            </g>
        
    <g transform="translate(9, 41)" clip-path="url(#terminal-228828675-clip-terminal)">
    <rect fill="#282828" x="0" y="1.5" width="12.2" height="24.65" shape-rendering="crispEdges"/><rect fill="#282828" x="12.2" y="1.5" width="12.2" height="24.65" shape-rendering="crispEdges"/><rect fill="#282828" x="24.4" y="1.5" width="61" height="24.65" shape-rendering="crispEdges"/><rect fill="#282828" x="85.4" y="1.5" width="12.2" height="24.65" shape-rendering="crispEdges"/><rect fill="#282828" x="97.6" y="1.5" width="292.8" height="24.65" shape-rendering="crispEdges"/><rect fill="#282828" x="390.4" y="1.5" width="158.6" height="24.65" shape-rendering="crispEdges"/><rect fill="#282828" x="549" y="1.5" width="305" height="24.65" shape-rendering="crispEdges"/><rect fill="#282828" x="854" y="1.5" width="12.2" height="24.65" shape-rendering="crispEdges"/><rect fill="#282828" x="866.2" y="1.5" width="0" height="24.65" shape-rendering="crispEdges"/><rect fill="#282828" x="866.2" y="1.5" width="97.6" height="24.65" shape-rendering="crispEdges"/><rect fill="#282828" x="963.8" y="1.5" width="12.2" height="24.65" shape-rendering="crispEdges"/><rect fill="#1e1e1e" x="0" y="25.9" width="976" height="24.65" shape-rendering="crispEdges"/><rect fill="#1e1e1e" x="0" y="50.3" width="976" height="24.65" shape-rendering="crispEdges"/><rect fill="#1e1e1e" x="0" y="74.7" width="134.2" height="24.65" shape-rendering="crispEdges"/><rect fill="#0178d4" x="134.2" y="74.7" width="12.2" height="24.65" shape-rendering="crispEdges"/><rect fill="#262626" x="146.4" y="74.7" width="671" height="24.65" shape-rendering="crispEdges"/><rect fill="#1e1e1e" x="817.4" y="74.7" width="12.2" height="24.65" shape-rendering="crispEdges"/><rect fill="#1e1e1e" x="829.6" y="74.7" width="146.4" height="24.65" shape-rendering="crispEdges"/><rect fill="#1e1e1e" x="0" y="99.1" width="134.2" height="24.65" shape-rendering="crispEdges"/><rect fill="#0178d4" x="134.2" y="99.1" width="12.2" height="24.65" shape-rendering="crispEdges"/><rect fill="#262626" x="146.4" y="99.1" width="12.2" height="24.65" shape-rendering="crispEdges"/><rect fill="#0178d4" x="158.6" y="99.1" width="622.2" height="24.65" shape-rendering="crispEdges"/><rect fill="#23568b" x="780.8" y="99.1" width="24.4" height="24.65" shape-rendering="crispEdges"/><rect fill="#262626" x="805.2" y="99.1" width="12.2" height="24.65" shape-rendering="crispEdges"/><rect fill="#1e1e1e" x="817.4" y="99.1" width="12.2" height="24.65" shape-rendering="crispEdges"/><rect fill="#1e1e1e" x="829.6" y="99.1" width="146.4" height="24.65" shape-rendering="crispEdges"/><rect fill="#1e1e1e" x="0" y="123.5" width="134.2" height="24.65" shape-rendering="crispEdges"/><rect fill="#0178d4" x="134.2" y="123.5" width="12.2" height="24.65" shape-rendering="crispEdges"/><rect fill="#262626" x="146.4" y="123.5" width="12.2" height="24.65" shape-rendering="crispEdges"/><rect fill="#0178d4" x="158.6" y="123.5" width="622.2" height="24.65" shape-rendering="crispEdges"/><rect fill="#23568b" x="780.8" y="123.5" width="24.4" height="24.65" shape-rendering="crispEdges"/><rect fill="#262626" x="805.2" y="123.5" width="12.2" height="24.65" shape-rendering="crispEdges"/><rect fill="#1e1e1e" x="817.4" y="123.5" width="12.2" height="24.65" shape-rendering="crispEdges"/><rect fill="#1e1e1e" x="829.6" y="123.5" width="146.4" height="24.65" shape-rendering="crispEdges"/><rect fill="#1e1e1e" x="0" y="147.9" width="134.2" height="24.65" shape-rendering="crispEdges"/><rect fill="#0178d4" x="134.2" y="147.9" width="12.2" height="24.65" shape-rendering="crispEdges"/><rect fill="#262626" x="146.4" y="147.9" width="12.2" height="24.65" shape-rendering="crispEdges"/><rect fill="#0178d4" x="158.6" y="147.9" width="12.2" height="24.65" shape-rendering="crispEdges"/><rect fill="#0178d4" x="170.8" y="147.9" width="12.2" height="24.65" shape-rendering="crispEdges"/><rect fill="#0178d4" x="183" y="147.9" width="158.6" height="24.65" shape-rendering="crispEdges"/><rect fill="#0178d4" x="341.6" y="147.9" width="12.2" height="24.65" shape-rendering="crispEdges"/><rect fill="#0178d4" x="353.8" y="147.9" width="12.2" height="24.65" shape-rendering="crispEdges"/><rect fill="#0178d4" x="366" y="147.9" width="12.2" height="24.65" shape-rendering="crispEdges"/><rect fill="#0178d4" x="378.2" y="147.9" width="170.8" height="24.65" shape-rendering="crispEdges"/><rect fill="#0178d4" x="549" y="147.9" width="12.2" height="24.65" shape-rendering="crispEdges"/><rect fill="#0178d4" x="561.2" y="147.9" width="12.2" height="24.65" shape-rendering="crispEdges"/><rect fill="#0178d4" x="573.4" y="147.9" width="12.2" height="24.65" shape-rendering="crispEdges"/><rect fill="#0178d4" x="585.6" y="147.9" width="170.8" height="24.65" shape-rendering="crispEdges"/><rect fill="#0178d4" x="756.4" y="147.9" width="12.2" height="24.65" shape-rendering="crispEdges"/><rect fill="#0178d4" x="768.6" y="147.9" width="12.2" height="24.65" shape-rendering="crispEdges"/><rect fill="#23568b" x="780.8" y="147.9" width="24.4" height="24.65" shape-rendering="crispEdges"/><rect fill="#262626" x="805.2" y="147.9" width="12.2" height="24.65" shape-rendering="crispEdges"/><rect fill="#1e1e1e" x="817.4" y="147.9" width="12.2" height="24.65" shape-rendering="crispEdges"/><rect fill="#1e1e1e" x="829.6" y="147.9" width="146.4" height="24.65" shape-rendering="crispEdges"/><rect fill="#1e1e1e" x="0" y="172.3" width="134.2" height="24.65" shape-rendering="crispEdges"/><rect fill="#0178d4" x="134.2" y="172.3" width="12.2" height="24.65" shape-rendering="crispEdges"/><rect fill="#262626" x="146.4" y="172.3" width="12.2" height="24.65" shape-rendering="crispEdges"/><rect fill="#0178d4" x="158.6" y="172.3" width="622.2" height="24.65" shape-rendering="crispEdges"/><rect fill="#23568b" x="780.8" y="172.3" width="24.4" height="24.65" shape-rendering="crispEdges"/><rect fill="#262626" x="805.2" y="172.3" width="12.2" height="24.65" shape-rendering="crispEdges"/><rect fill="#1e1e1e" x="817.4" y="172.3" width="12.2" height="24.65" shape-rendering="crispEdges"/><rect fill="#1e1e1e" x="829.6" y="172.3" width="146.4" height="24.65" shape-rendering="crispEdges"/><rect fill="#1e1e1e" x="0" y="196.7" width="134.2" height="24.65" shape-rendering="crispEdges"/><rect fill="#0178d4" x="134.2" y="196.7" width="12.2" height="24.65" shape-rendering="crispEdges"/><rect fill="#262626" x="146.4" y="196.7" width="12.2" height="24.65" shape-rendering="crispEdges"/><rect fill="#0178d4" x="158.6" y="196.7" width="12.2" height="24.65" shape-rendering="crispEdges"/><rect fill="#0178d4" x="170.8" y="196.7" width="12.2" height="24.65" shape-rendering="crispEdges"/><rect fill="#0178d4" x="183" y="196.7" width="158.6" height="24.65" shape-rendering="crispEdges"/><rect fill="#0178d4" x="341.6" y="196.7" width="12.2" height="24.65" shape-rendering="crispEdges"/><rect fill="#0178d4" x="353.8" y="196.7" width="12.2" height="24.65" shape-rendering="crispEdges"/><rect fill="#0178d4" x="366" y="196.7" width="12.2" height="24.65" shape-rendering="crispEdges"/><rect fill="#0178d4" x="378.2" y="196.7" width="170.8" height="24.65" shape-rendering="crispEdges"/><rect fill="#0178d4" x="549" y="196.7" width="12.2" height="24.65" shape-rendering="crispEdges"/><rect fill="#0178d4" x="561.2" y="196.7" width="12.2" height="24.65" shape-rendering="crispEdges"/><rect fill="#0178d4" x="573.4" y="196.7" width="12.2" height="24.65" shape-rendering="crispEdges"/><rect fill="#0178d4" x="585.6" y="196.7" width="170.8" height="24.65" shape-rendering="crispEdges"/><rect fill="#0178d4" x="756.4" y="196.7" width="12.2" height="24.65" shape-rendering="crispEdges"/><rect fill="#0178d4" x="768.6" y="196.7" width="12.2" height="24.65" shape-rendering="crispEdges"/><rect fill="#14191f" x="780.8" y="196.7" width="24.4" height="24.65" shape-rendering="crispEdges"/><rect fill="#262626" x="805.2" y="196.7" width="12.2" height="24.65" shape-rendering="crispEdges"/><rect fill="#1e1e1e" x="817.4" y="196.7" width="12.2" height="24.65" shape-rendering="crispEdges"/><rect fill="#1e1e1e" x="829.6" y="196.7" width="146.4" height="24.65" shape-rendering="crispEdges"/><rect fill="#1e1e1e" x="0" y="221.1" width="134.2" height="24.65" shape-rendering="crispEdges"/><rect fill="#0178d4" x="134.2" y="221.1" width="12.2" height="24.65" shape-rendering="crispEdges"/><rect fill="#262626" x="146.4" y="221.1" width="12.2" height="24.65" shape-rendering="crispEdges"/><rect fill="#0178d4" x="158.6" y="221.1" width="622.2" height="24.65" shape-rendering="crispEdges"/><rect fill="#14191f" x="780.8" y="221.1" width="24.4" height="24.65" shape-rendering="crispEdges"/><rect fill="#262626" x="805.2" y="221.1" width="12.2" height="24.65" shape-rendering="crispEdges"/><rect fill="#1e1e1e" x="817.4" y="221.1" width="12.2" height="24.65" shape-rendering="crispEdges"/><rect fill="#1e1e1e" x="829.6" y="221.1" width="146.4" height="24.65" shape-rendering="crispEdges"/><rect fill="#1e1e1e" x="0" y="245.5" width="134.2" height="24.65" shape-rendering="crispEdges"/><rect fill="#0178d4" x="134.2" y="245.5" width="12.2" height="24.65" shape-rendering="crispEdges"/><rect fill="#262626" x="146.4" y="245.5" width="12.2" height="24.65" shape-rendering="crispEdges"/><rect fill="#262626" x="158.6" y="245.5" width="622.2" height="24.65" shape-rendering="crispEdges"/><rect fill="#14191f" x="780.8" y="245.5" width="24.4" height="24.65" shape-rendering="crispEdges"/><rect fill="#262626" x="805.2" y="245.5" width="12.2" height="24.65" shape-rendering="crispEdges"/><rect fill="#1e1e1e" x="817.4" y="245.5" width="12.2" height="24.65" shape-rendering="crispEdges"/><rect fill="#1e1e1e" x="829.6" y="245.5" width="146.4" height="24.65" shape-rendering="crispEdges"/><rect fill="#1e1e1e" x="0" y="269.9" width="134.2" height="24.65" shape-rendering="crispEdges"/><rect fill="#0178d4" x="134.2" y="269.9" width="12.2" height="24.65" shape-rendering="crispEdges"/><rect fill="#262626" x="146.4" y="269.9" width="12.2" height="24.65" shape-rendering="crispEdges"/><rect fill="#262626" x="158.6" y="269.9" width="622.2" height="24.65" shape-rendering="crispEdges"/><rect fill="#14191f" x="780.8" y="269.9" width="24.4" height="24.65" shape-rendering="crispEdges"/><rect fill="#262626" x="805.2" y="269.9" width="12.2" height="24.65" shape-rendering="crispEdges"/><rect fill="#1e1e1e" x="817.4" y="269.9" width="12.2" height="24.65" shape-rendering="crispEdges"/><rect fill="#1e1e1e" x="829.6" y="269.9" width="146.4" height="24.65" shape-rendering="crispEdges"/><rect fill="#1e1e1e" x="0" y="294.3" width="134.2" height="24.65" shape-rendering="crispEdges"/><rect fill="#0178d4" x="134.2" y="294.3" width="12.2" height="24.65" shape-rendering="crispEdges"/><rect fill="#262626" x="146.4" y="294.3" width="12.2" height="24.65" shape-rendering="crispEdges"/><rect fill="#262626" x="158.6" y="294.3" width="12.2" height="24.65" shape-rendering="crispEdges"/><rect fill="#262626" x="170.8" y="294.3" width="12.2" height="24.65" shape-rendering="crispEdges"/><rect fill="#262626" x="183" y="294.3" width="158.6" height="24.65" shape-rendering="crispEdges"/><rect fill="#262626" x="341.6" y="294.3" width="12.2" height="24.65" shape-rendering="crispEdges"/><rect fill="#262626" x="353.8" y="294.3" width="12.2" height="24.65" shape-rendering="crispEdges"/><rect fill="#262626" x="366" y="294.3" width="12.2" height="24.65" shape-rendering="crispEdges"/><rect fill="#262626" x="378.2" y="294.3" width="158.6" height="24.65" shape-rendering="crispEdges"/><rect fill="#262626" x="536.8" y="294.3" width="12.2" height="24.65" shape-rendering="crispEdges"/><rect fill="#262626" x="549" y="294.3" width="12.2" height="24.65" shape-rendering="crispEdges"/><rect fill="#262626" x="561.2" y="294.3" width="12.2" height="24.65" shape-rendering="crispEdges"/><rect fill="#262626" x="573.4" y="294.3" width="183" height="24.65" shape-rendering="crispEdges"/><rect fill="#262626" x="756.4" y="294.3" width="12.2" height="24.65" shape-rendering="crispEdges"/><rect fill="#262626" x="768.6" y="294.3" width="12.2" height="24.65" shape-rendering="crispEdges"/><rect fill="#14191f" x="780.8" y="294.3" width="24.4" height="24.65" shape-rendering="crispEdges"/><rect fill="#262626" x="805.2" y="294.3" width="12.2" height="24.65" shape-rendering="crispEdges"/><rect fill="#1e1e1e" x="817.4" y="294.3" width="12.2" height="24.65" shape-rendering="crispEdges"/><rect fill="#1e1e1e" x="829.6" y="294.3" width="146.4" height="24.65" shape-rendering="crispEdges"/><rect fill="#1e1e1e" x="0" y="318.7" width="134.2" height="24.65" shape-rendering="crispEdges"/><rect fill="#0178d4" x="134.2" y="318.7" width="12.2" height="24.65" shape-rendering="crispEdges"/><rect fill="#262626" x="146.4" y="318.7" width="12.2" height="24.65" shape-rendering="crispEdges"/><rect fill="#262626" x="158.6" y="318.7" width="622.2" height="24.65" shape-rendering="crispEdges"/><rect fill="#14191f" x="780.8" y="318.7" width="24.4" height="24.65" shape-rendering="crispEdges"/><rect fill="#262626" x="805.2" y="318.7" width="12.2" height="24.65" shape-rendering="crispEdges"/><rect fill="#1e1e1e" x="817.4" y="318.7" width="12.2" height="24.65" shape-rendering="crispEdges"/><rect fill="#1e1e1e" x="829.6" y="318.7" width="146.4" height="24.65" shape-rendering="crispEdges"/><rect fill="#1e1e1e" x="0" y="343.1" width="134.2" height="24.65" shape-rendering="crispEdges"/><rect fill="#0178d4" x="134.2" y="343.1" width="12.2" height="24.65" shape-rendering="crispEdges"/><rect fill="#262626" x="146.4" y="343.1" width="12.2" height="24.65" shape-rendering="crispEdges"/><rect fill="#262626" x="158.6" y="343.1" width="12.2" height="24.65" shape-rendering="crispEdges"/><rect fill="#262626" x="170.8" y="343.1" width="12.2" height="24.65" shape-rendering="crispEdges"/><rect fill="#262626" x="183" y="343.1" width="158.6" height="24.65" shape-rendering="crispEdges"/><rect fill="#262626" x="341.6" y="343.1" width="12.2" height="24.65" shape-rendering="crispEdges"/><rect fill="#262626" x="353.8" y="343.1" width="12.2" height="24.65" shape-rendering="crispEdges"/><rect fill="#262626" x="366" y="343.1" width="12.2" height="24.65" shape-rendering="crispEdges"/><rect fill="#262626" x="378.2" y="343.1" width="158.6" height="24.65" shape-rendering="crispEdges"/><rect fill="#262626" x="536.8" y="343.1" width="12.2" height="24.65" shape-rendering="crispEdges"/><rect fill="#262626" x="549" y="343.1" width="12.2" height="24.65" shape-rendering="crispEdges"/><rect fill="#262626" x="561.2" y="343.1" width="12.2" height="24.65" shape-rendering="crispEdges"/><rect fill="#262626" x="573.4" y="343.1" width="183" height="24.65" shape-rendering="crispEdges"/><rect fill="#262626" x="756.4" y="343.1" width="12.2" height="24.65" shape-rendering="crispEdges"/><rect fill="#262626" x="768.6" y="343.1" width="12.2" height="24.65" shape-rendering="crispEdges"/><rect fill="#14191f" x="780.8" y="343.1" width="24.4" height="24.65" shape-rendering="crispEdges"/><rect fill="#262626" x="805.2" y="343.1" width="12.2" height="24.65" shape-rendering="crispEdges"/><rect fill="#1e1e1e" x="817.4" y="343.1" width="12.2" height="24.65" shape-rendering="crispEdges"/><rect fill="#1e1e1e" x="829.6" y="343.1" width="146.4" height="24.65" shape-rendering="crispEdges"/><rect fill="#1e1e1e" x="0" y="367.5" width="134.2" height="24.65" shape-rendering="crispEdges"/><rect fill="#0178d4" x="134.2" y="367.5" width="12.2" height="24.65" shape-rendering="crispEdges"/><rect fill="#262626" x="146.4" y="367.5" width="12.2" height="24.65" shape-rendering="crispEdges"/><rect fill="#262626" x="158.6" y="367.5" width="622.2" height="24.65" shape-rendering="crispEdges"/><rect fill="#14191f" x="780.8" y="367.5" width="24.4" height="24.65" shape-rendering="crispEdges"/><rect fill="#262626" x="805.2" y="367.5" width="12.2" height="24.65" shape-rendering="crispEdges"/><rect fill="#1e1e1e" x="817.4" y="367.5" width="12.2" height="24.65" shape-rendering="crispEdges"/><rect fill="#1e1e1e" x="829.6" y="367.5" width="146.4" height="24.65" shape-rendering="crispEdges"/><rect fill="#1e1e1e" x="0" y="391.9" width="134.2" height="24.65" shape-rendering="crispEdges"/><rect fill="#0178d4" x="134.2" y="391.9" width="12.2" height="24.65" shape-rendering="crispEdges"/><rect fill="#262626" x="146.4" y="391.9" width="12.2" height="24.65" shape-rendering="crispEdges"/><rect fill="#262626" x="158.6" y="391.9" width="622.2" height="24.65" shape-rendering="crispEdges"/><rect fill="#14191f" x="780.8" y="391.9" width="24.4" height="24.65" shape-rendering="crispEdges"/><rect fill="#262626" x="805.2" y="391.9" width="12.2" height="24.65" shape-rendering="crispEdges"/><rect fill="#1e1e1e" x="817.4" y="391.9" width="12.2" height="24.65" shape-rendering="crispEdges"/><rect fill="#1e1e1e" x="829.6" y="391.9" width="146.4" height="24.65" shape-rendering="crispEdges"/><rect fill="#1e1e1e" x="0" y="416.3" width="134.2" height="24.65" shape-rendering="crispEdges"/><rect fill="#0178d4" x="134.2" y="416.3" width="12.2" height="24.65" shape-rendering="crispEdges"/><rect fill="#262626" x="146.4" y="416.3" width="12.2" height="24.65" shape-rendering="crispEdges"/><rect fill="#262626" x="158.6" y="416.3" width="622.2" height="24.65" shape-rendering="crispEdges"/><rect fill="#14191f" x="780.8" y="416.3" width="24.4" height="24.65" shape-rendering="crispEdges"/><rect fill="#262626" x="805.2" y="416.3" width="12.2" height="24.65" shape-rendering="crispEdges"/><rect fill="#1e1e1e" x="817.4" y="416.3" width="12.2" height="24.65" shape-rendering="crispEdges"/><rect fill="#1e1e1e" x="829.6" y="416.3" width="146.4" height="24.65" shape-rendering="crispEdges"/><rect fill="#1e1e1e" x="0" y="440.7" width="134.2" height="24.65" shape-rendering="crispEdges"/><rect fill="#0178d4" x="134.2" y="440.7" width="12.2" height="24.65" shape-rendering="crispEdges"/><rect fill="#262626" x="146.4" y="440.7" width="12.2" height="24.65" shape-rendering="crispEdges"/><rect fill="#262626" x="158.6" y="440.7" width="12.2" height="24.65" shape-rendering="crispEdges"/><rect fill="#262626" x="170.8" y="440.7" width="12.2" height="24.65" shape-rendering="crispEdges"/><rect fill="#262626" x="183" y="440.7" width="158.6" height="24.65" shape-rendering="crispEdges"/><rect fill="#262626" x="341.6" y="440.7" width="12.2" height="24.65" shape-rendering="crispEdges"/><rect fill="#262626" x="353.8" y="440.7" width="12.2" height="24.65" shape-rendering="crispEdges"/><rect fill="#262626" x="366" y="440.7" width="12.2" height="24.65" shape-rendering="crispEdges"/><rect fill="#262626" x="378.2" y="440.7" width="170.8" height="24.65" shape-rendering="crispEdges"/><rect fill="#262626" x="549" y="440.7" width="12.2" height="24.65" shape-rendering="crispEdges"/><rect fill="#262626" x="561.2" y="440.7" width="12.2" height="24.65" shape-rendering="crispEdges"/><rect fill="#262626" x="573.4" y="440.7" width="12.2" height="24.65" shape-rendering="crispEdges"/><rect fill="#262626" x="585.6" y="440.7" width="170.8" height="24.65" shape-rendering="crispEdges"/><rect fill="#262626" x="756.4" y="440.7" width="12.2" height="24.65" shape-rendering="crispEdges"/><rect fill="#262626" x="768.6" y="440.7" width="12.2" height="24.65" shape-rendering="crispEdges"/><rect fill="#14191f" x="780.8" y="440.7" width="24.4" height="24.65" shape-rendering="crispEdges"/><rect fill="#262626" x="805.2" y="440.7" width="12.2" height="24.65" shape-rendering="crispEdges"/><rect fill="#1e1e1e" x="817.4" y="440.7" width="12.2" height="24.65" shape-rendering="crispEdges"/><rect fill="#1e1e1e" x="829.6" y="440.7" width="146.4" height="24.65" shape-rendering="crispEdges"/><rect fill="#1e1e1e" x="0" y="465.1" width="134.2" height="24.65" shape-rendering="crispEdges"/><rect fill="#0178d4" x="134.2" y="465.1" width="12.2" height="24.65" shape-rendering="crispEdges"/><rect fill="#262626" x="146.4" y="465.1" width="12.2" height="24.65" shape-rendering="crispEdges"/><rect fill="#262626" x="158.6" y="465.1" width="622.2" height="24.65" shape-rendering="crispEdges"/><rect fill="#14191f" x="780.8" y="465.1" width="24.4" height="24.65" shape-rendering="crispEdges"/><rect fill="#262626" x="805.2" y="465.1" width="12.2" height="24.65" shape-rendering="crispEdges"/><rect fill="#1e1e1e" x="817.4" y="465.1" width="12.2" height="24.65" shape-rendering="crispEdges"/><rect fill="#1e1e1e" x="829.6" y="465.1" width="146.4" height="24.65" shape-rendering="crispEdges"/><rect fill="#1e1e1e" x="0" y="489.5" width="134.2" height="24.65" shape-rendering="crispEdges"/><rect fill="#0178d4" x="134.2" y="489.5" width="12.2" height="24.65" shape-rendering="crispEdges"/><rect fill="#262626" x="146.4" y="489.5" width="671" height="24.65" shape-rendering="crispEdges"/><rect fill="#1e1e1e" x="817.4" y="489.5" width="12.2" height="24.65" shape-rendering="crispEdges"/><rect fill="#1e1e1e" x="829.6" y="489.5" width="146.4" height="24.65" shape-rendering="crispEdges"/><rect fill="#1e1e1e" x="0" y="513.9" width="976" height="24.65" shape-rendering="crispEdges"/><rect fill="#1e1e1e" x="0" y="538.3" width="976" height="24.65" shape-rendering="crispEdges"/><rect fill="#0178d4" x="0" y="562.7" width="976" height="24.65" shape-rendering="crispEdges"/>
    <g class="terminal-228828675-matrix">
    <text class="terminal-228828675-r2" x="12.2" y="20" textLength="12.2" clip-path="url(#terminal-228828675-line-0)">⭘</text><text class="terminal-228828675-r2" x="390.4" y="20" textLength="158.6" clip-path="url(#terminal-228828675-line-0)">OptionListApp</text><text class="terminal-228828675-r1" x="976" y="20" textLength="12.2" clip-path="url(#terminal-228828675-line-0)">
</text><text class="terminal-228828675-r1" x="976" y="44.4" textLength="12.2" clip-path="url(#terminal-228828675-line-1)">
</text><text class="terminal-228828675-r1" x="976" y="68.8" textLength="12.2" clip-path="url(#terminal-228828675-line-2)">
</text><text class="terminal-228828675-r4" x="134.2" y="93.2" textLength="12.2" clip-path="url(#terminal-228828675-line-3)">▊</text><text class="terminal-228828675-r5" x="146.4" y="93.2" textLength="671" clip-path="url(#terminal-228828675-line-3)">▔▔▔▔▔▔▔▔▔▔▔▔▔▔▔▔▔▔▔▔▔▔▔▔▔▔▔▔▔▔▔▔▔▔▔▔▔▔▔▔▔▔▔▔▔▔▔▔▔▔▔▔▔▔▔</text><text class="terminal-228828675-r5" x="817.4" y="93.2" textLength="12.2" clip-path="url(#terminal-228828675-line-3)">▎</text><text class="terminal-228828675-r1" x="976" y="93.2" textLength="12.2" clip-path="url(#terminal-228828675-line-3)">
</text><text class="terminal-228828675-r4" x="134.2" y="117.6" textLength="12.2" clip-path="url(#terminal-228828675-line-4)">▊</text><text class="terminal-228828675-r6" x="158.6" y="117.6" textLength="622.2" clip-path="url(#terminal-228828675-line-4)">&#160;&#160;&#160;&#160;&#160;&#160;&#160;&#160;&#160;&#160;&#160;&#160;&#160;&#160;&#160;&#160;&#160;Data&#160;for&#160;Aerilon&#160;&#160;&#160;&#160;&#160;&#160;&#160;&#160;&#160;&#160;&#160;&#160;&#160;&#160;&#160;&#160;&#160;&#160;</text><text class="terminal-228828675-r5" x="817.4" y="117.6" textLength="12.2" clip-path="url(#terminal-228828675-line-4)">▎</text><text class="terminal-228828675-r1" x="976" y="117.6" textLength="12.2" clip-path="url(#terminal-228828675-line-4)">
</text><text class="terminal-228828675-r4" x="134.2" y="142" textLength="12.2" clip-path="url(#terminal-228828675-line-5)">▊</text><text class="terminal-228828675-r8" x="158.6" y="142" textLength="622.2" clip-path="url(#terminal-228828675-line-5)">┏━━━━━━━━━━━━━━━┳━━━━━━━━━━━━━━━━┳━━━━━━━━━━━━━━━━┓</text><text class="terminal-228828675-r5" x="817.4" y="142" textLength="12.2" clip-path="url(#terminal-228828675-line-5)">▎</text><text class="terminal-228828675-r1" x="976" y="142" textLength="12.2" clip-path="url(#terminal-228828675-line-5)">
</text><text class="terminal-228828675-r4" x="134.2" y="166.4" textLength="12.2" clip-path="url(#terminal-228828675-line-6)">▊</text><text class="terminal-228828675-r8" x="158.6" y="166.4" textLength="12.2" clip-path="url(#terminal-228828675-line-6)">┃</text><text class="terminal-228828675-r8" x="183" y="166.4" textLength="158.6" clip-path="url(#terminal-228828675-line-6)">Patron&#160;God&#160;&#160;&#160;</text><text class="terminal-228828675-r8" x="353.8" y="166.4" textLength="12.2" clip-path="url(#terminal-228828675-line-6)">┃</text><text class="terminal-228828675-r8" x="378.2" y="166.4" textLength="170.8" clip-path="url(#terminal-228828675-line-6)">Population&#160;&#160;&#160;&#160;</text><text class="terminal-228828675-r8" x="561.2" y="166.4" textLength="12.2" clip-path="url(#terminal-228828675-line-6)">┃</text><text class="terminal-228828675-r8" x="585.6" y="166.4" textLength="170.8" clip-path="url(#terminal-228828675-line-6)">Capital&#160;City&#160;&#160;</text><text class="terminal-228828675-r8" x="768.6" y="166.4" textLength="12.2" clip-path="url(#terminal-228828675-line-6)">┃</text><text class="terminal-228828675-r5" x="817.4" y="166.4" textLength="12.2" clip-path="url(#terminal-228828675-line-6)">▎</text><text class="terminal-228828675-r1" x="976" y="166.4" textLength="12.2" clip-path="url(#terminal-228828675-line-6)">
</text><text class="terminal-228828675-r4" x="134.2" y="190.8" textLength="12.2" clip-path="url(#terminal-228828675-line-7)">▊</text><text class="terminal-228828675-r8" x="158.6" y="190.8" textLength="622.2" clip-path="url(#terminal-228828675-line-7)">┡━━━━━━━━━━━━━━━╇━━━━━━━━━━━━━━━━╇━━━━━━━━━━━━━━━━┩</text><text class="terminal-228828675-r9" x="780.8" y="190.8" textLength="24.4" clip-path="url(#terminal-228828675-line-7)">▃▃</text><text class="terminal-228828675-r5" x="817.4" y="190.8" textLength="12.2" clip-path="url(#terminal-228828675-line-7)">▎</text><text class="terminal-228828675-r1" x="976" y="190.8" textLength="12.2" clip-path="url(#terminal-228828675-line-7)">
</text><text class="terminal-228828675-r4" x="134.2" y="215.2" textLength="12.2" clip-path="url(#terminal-228828675-line-8)">▊</text><text class="terminal-228828675-r8" x="158.6" y="215.2" textLength="12.2" clip-path="url(#terminal-228828675-line-8)">│</text><text class="terminal-228828675-r8" x="183" y="215.2" textLength="158.6" clip-path="url(#terminal-228828675-line-8)">Demeter&#160;&#160;&#160;&#160;&#160;&#160;</text><text class="terminal-228828675-r8" x="353.8" y="215.2" textLength="12.2" clip-path="url(#terminal-228828675-line-8)">│</text><text class="terminal-228828675-r8" x="378.2" y="215.2" textLength="170.8" clip-path="url(#terminal-228828675-line-8)">1.2&#160;Billion&#160;&#160;&#160;</text><text class="terminal-228828675-r8" x="561.2" y="215.2" textLength="12.2" clip-path="url(#terminal-228828675-line-8)">│</text><text class="terminal-228828675-r8" x="585.6" y="215.2" textLength="170.8" clip-path="url(#terminal-228828675-line-8)">Gaoth&#160;&#160;&#160;&#160;&#160;&#160;&#160;&#160;&#160;</text><text class="terminal-228828675-r8" x="768.6" y="215.2" textLength="12.2" clip-path="url(#terminal-228828675-line-8)">│</text><text class="terminal-228828675-r5" x="817.4" y="215.2" textLength="12.2" clip-path="url(#terminal-228828675-line-8)">▎</text><text class="terminal-228828675-r1" x="976" y="215.2" textLength="12.2" clip-path="url(#terminal-228828675-line-8)">
</text><text class="terminal-228828675-r4" x="134.2" y="239.6" textLength="12.2" clip-path="url(#terminal-228828675-line-9)">▊</text><text class="terminal-228828675-r8" x="158.6" y="239.6" textLength="622.2" clip-path="url(#terminal-228828675-line-9)">└───────────────┴────────────────┴────────────────┘</text><text class="terminal-228828675-r5" x="817.4" y="239.6" textLength="12.2" clip-path="url(#terminal-228828675-line-9)">▎</text><text class="terminal-228828675-r1" x="976" y="239.6" textLength="12.2" clip-path="url(#terminal-228828675-line-9)">
</text><text class="terminal-228828675-r4" x="134.2" y="264" textLength="12.2" clip-path="url(#terminal-228828675-line-10)">▊</text><text class="terminal-228828675-r10" x="158.6" y="264" textLength="622.2" clip-path="url(#terminal-228828675-line-10)">&#160;&#160;&#160;&#160;&#160;&#160;&#160;&#160;&#160;&#160;&#160;&#160;&#160;&#160;&#160;&#160;&#160;Data&#160;for&#160;Aquaria&#160;&#160;&#160;&#160;&#160;&#160;&#160;&#160;&#160;&#160;&#160;&#160;&#160;&#160;&#160;&#160;&#160;&#160;</text><text class="terminal-228828675-r5" x="817.4" y="264" textLength="12.2" clip-path="url(#terminal-228828675-line-10)">▎</text><text class="terminal-228828675-r1" x="976" y="264" textLength="12.2" clip-path="url(#terminal-228828675-line-10)">
</text><text class="terminal-228828675-r4" x="134.2" y="288.4" textLength="12.2" clip-path="url(#terminal-228828675-line-11)">▊</text><text class="terminal-228828675-r7" x="158.6" y="288.4" textLength="622.2" clip-path="url(#terminal-228828675-line-11)">┏━━━━━━━━━━━━━━━┳━━━━━━━━━━━━━━━┳━━━━━━━━━━━━━━━━━┓</text><text class="terminal-228828675-r5" x="817.4" y="288.4" textLength="12.2" clip-path="url(#terminal-228828675-line-11)">▎</text><text class="terminal-228828675-r1" x="976" y="288.4" textLength="12.2" clip-path="url(#terminal-228828675-line-11)">
</text><text class="terminal-228828675-r4" x="134.2" y="312.8" textLength="12.2" clip-path="url(#terminal-228828675-line-12)">▊</text><text class="terminal-228828675-r7" x="158.6" y="312.8" textLength="12.2" clip-path="url(#terminal-228828675-line-12)">┃</text><text class="terminal-228828675-r11" x="183" y="312.8" textLength="158.6" clip-path="url(#terminal-228828675-line-12)">Patron&#160;God&#160;&#160;&#160;</text><text class="terminal-228828675-r7" x="353.8" y="312.8" textLength="12.2" clip-path="url(#terminal-228828675-line-12)">┃</text><text class="terminal-228828675-r11" x="378.2" y="312.8" textLength="158.6" clip-path="url(#terminal-228828675-line-12)">Population&#160;&#160;&#160;</text><text class="terminal-228828675-r7" x="549" y="312.8" textLength="12.2" clip-path="url(#terminal-228828675-line-12)">┃</text><text class="terminal-228828675-r11" x="573.4" y="312.8" textLength="183" clip-path="url(#terminal-228828675-line-12)">Capital&#160;City&#160;&#160;&#160;</text><text class="terminal-228828675-r7" x="768.6" y="312.8" textLength="12.2" clip-path="url(#terminal-228828675-line-12)">┃</text><text class="terminal-228828675-r5" x="817.4" y="312.8" textLength="12.2" clip-path="url(#terminal-228828675-line-12)">▎</text><text class="terminal-228828675-r1" x="976" y="312.8" textLength="12.2" clip-path="url(#terminal-228828675-line-12)">
</text><text class="terminal-228828675-r4" x="134.2" y="337.2" textLength="12.2" clip-path="url(#terminal-228828675-line-13)">▊</text><text class="terminal-228828675-r7" x="158.6" y="337.2" textLength="622.2" clip-path="url(#terminal-228828675-line-13)">┡━━━━━━━━━━━━━━━╇━━━━━━━━━━━━━━━╇━━━━━━━━━━━━━━━━━┩</text><text class="terminal-228828675-r5" x="817.4" y="337.2" textLength="12.2" clip-path="url(#terminal-228828675-line-13)">▎</text><text class="terminal-228828675-r1" x="976" y="337.2" textLength="12.2" clip-path="url(#terminal-228828675-line-13)">
</text><text class="terminal-228828675-r4" x="134.2" y="361.6" textLength="12.2" clip-path="url(#terminal-228828675-line-14)">▊</text><text class="terminal-228828675-r7" x="158.6" y="361.6" textLength="12.2" clip-path="url(#terminal-228828675-line-14)">│</text><text class="terminal-228828675-r7" x="183" y="361.6" textLength="158.6" clip-path="url(#terminal-228828675-line-14)">Hermes&#160;&#160;&#160;&#160;&#160;&#160;&#160;</text><text class="terminal-228828675-r7" x="353.8" y="361.6" textLength="12.2" clip-path="url(#terminal-228828675-line-14)">│</text><text class="terminal-228828675-r7" x="378.2" y="361.6" textLength="158.6" clip-path="url(#terminal-228828675-line-14)">75,000&#160;&#160;&#160;&#160;&#160;&#160;&#160;</text><text class="terminal-228828675-r7" x="549" y="361.6" textLength="12.2" clip-path="url(#terminal-228828675-line-14)">│</text><text class="terminal-228828675-r7" x="573.4" y="361.6" textLength="183" clip-path="url(#terminal-228828675-line-14)">None&#160;&#160;&#160;&#160;&#160;&#160;&#160;&#160;&#160;&#160;&#160;</text><text class="terminal-228828675-r7" x="768.6" y="361.6" textLength="12.2" clip-path="url(#terminal-228828675-line-14)">│</text><text class="terminal-228828675-r5" x="817.4" y="361.6" textLength="12.2" clip-path="url(#terminal-228828675-line-14)">▎</text><text class="terminal-228828675-r1" x="976" y="361.6" textLength="12.2" clip-path="url(#terminal-228828675-line-14)">
</text><text class="terminal-228828675-r4" x="134.2" y="386" textLength="12.2" clip-path="url(#terminal-228828675-line-15)">▊</text><text class="terminal-228828675-r7" x="158.6" y="386" textLength="622.2" clip-path="url(#terminal-228828675-line-15)">└───────────────┴───────────────┴─────────────────┘</text><text class="terminal-228828675-r5" x="817.4" y="386" textLength="12.2" clip-path="url(#terminal-228828675-line-15)">▎</text><text class="terminal-228828675-r1" x="976" y="386" textLength="12.2" clip-path="url(#terminal-228828675-line-15)">
</text><text class="terminal-228828675-r4" x="134.2" y="410.4" textLength="12.2" clip-path="url(#terminal-228828675-line-16)">▊</text><text class="terminal-228828675-r10" x="158.6" y="410.4" textLength="622.2" clip-path="url(#terminal-228828675-line-16)">&#160;&#160;&#160;&#160;&#160;&#160;&#160;&#160;&#160;&#160;&#160;&#160;&#160;&#160;&#160;&#160;&#160;Data&#160;for&#160;Canceron&#160;&#160;&#160;&#160;&#160;&#160;&#160;&#160;&#160;&#160;&#160;&#160;&#160;&#160;&#160;&#160;&#160;</text><text class="terminal-228828675-r5" x="817.4" y="410.4" textLength="12.2" clip-path="url(#terminal-228828675-line-16)">▎</text><text class="terminal-228828675-r1" x="976" y="410.4" textLength="12.2" clip-path="url(#terminal-228828675-line-16)">
</text><text class="terminal-228828675-r4" x="134.2" y="434.8" textLength="12.2" clip-path="url(#terminal-228828675-line-17)">▊</text><text class="terminal-228828675-r7" x="158.6" y="434.8" textLength="622.2" clip-path="url(#terminal-228828675-line-17)">┏━━━━━━━━━━━━━━━┳━━━━━━━━━━━━━━━━┳━━━━━━━━━━━━━━━━┓</text><text class="terminal-228828675-r5" x="817.4" y="434.8" textLength="12.2" clip-path="url(#terminal-228828675-line-17)">▎</text><text class="terminal-228828675-r1" x="976" y="434.8" textLength="12.2" clip-path="url(#terminal-228828675-line-17)">
</text><text class="terminal-228828675-r4" x="134.2" y="459.2" textLength="12.2" clip-path="url(#terminal-228828675-line-18)">▊</text><text class="terminal-228828675-r7" x="158.6" y="459.2" textLength="12.2" clip-path="url(#terminal-228828675-line-18)">┃</text><text class="terminal-228828675-r11" x="183" y="459.2" textLength="158.6" clip-path="url(#terminal-228828675-line-18)">Patron&#160;God&#160;&#160;&#160;</text><text class="terminal-228828675-r7" x="353.8" y="459.2" textLength="12.2" clip-path="url(#terminal-228828675-line-18)">┃</text><text class="terminal-228828675-r11" x="378.2" y="459.2" textLength="170.8" clip-path="url(#terminal-228828675-line-18)">Population&#160;&#160;&#160;&#160;</text><text class="terminal-228828675-r7" x="561.2" y="459.2" textLength="12.2" clip-path="url(#terminal-228828675-line-18)">┃</text><text class="terminal-228828675-r11" x="585.6" y="459.2" textLength="170.8" clip-path="url(#terminal-228828675-line-18)">Capital&#160;City&#160;&#160;</text><text class="terminal-228828675-r7" x="768.6" y="459.2" textLength="12.2" clip-path="url(#terminal-228828675-line-18)">┃</text><text class="terminal-228828675-r5" x="817.4" y="459.2" textLength="12.2" clip-path="url(#terminal-228828675-line-18)">▎</text><text class="terminal-228828675-r1" x="976" y="459.2" textLength="12.2" clip-path="url(#terminal-228828675-line-18)">
</text><text class="terminal-228828675-r4" x="134.2" y="483.6" textLength="12.2" clip-path="url(#terminal-228828675-line-19)">▊</text><text class="terminal-228828675-r7" x="158.6" y="483.6" textLength="622.2" clip-path="url(#terminal-228828675-line-19)">┡━━━━━━━━━━━━━━━╇━━━━━━━━━━━━━━━━╇━━━━━━━━━━━━━━━━┩</text><text class="terminal-228828675-r5" x="817.4" y="483.6" textLength="12.2" clip-path="url(#terminal-228828675-line-19)">▎</text><text class="terminal-228828675-r1" x="976" y="483.6" textLength="12.2" clip-path="url(#terminal-228828675-line-19)">
</text><text class="terminal-228828675-r4" x="134.2" y="508" textLength="12.2" clip-path="url(#terminal-228828675-line-20)">▊</text><text class="terminal-228828675-r5" x="146.4" y="508" textLength="671" clip-path="url(#terminal-228828675-line-20)">▁▁▁▁▁▁▁▁▁▁▁▁▁▁▁▁▁▁▁▁▁▁▁▁▁▁▁▁▁▁▁▁▁▁▁▁▁▁▁▁▁▁▁▁▁▁▁▁▁▁▁▁▁▁▁</text><text class="terminal-228828675-r5" x="817.4" y="508" textLength="12.2" clip-path="url(#terminal-228828675-line-20)">▎</text><text class="terminal-228828675-r1" x="976" y="508" textLength="12.2" clip-path="url(#terminal-228828675-line-20)">
</text><text class="terminal-228828675-r1" x="976" y="532.4" textLength="12.2" clip-path="url(#terminal-228828675-line-21)">
</text><text class="terminal-228828675-r1" x="976" y="556.8" textLength="12.2" clip-path="url(#terminal-228828675-line-22)">
</text>
    </g>
    </g>
</svg>
