<svg class="rich-terminal" viewBox="0 0 994 635.5999999999999" xmlns="http://www.w3.org/2000/svg">
    <!-- Generated with Rich https://www.textualize.io -->
    <style>

    @font-face {
        font-family: "Fira Code";
        src: local("FiraCode-Regular"),
                url("https://cdnjs.cloudflare.com/ajax/libs/firacode/6.2.0/woff2/FiraCode-Regular.woff2") format("woff2"),
                url("https://cdnjs.cloudflare.com/ajax/libs/firacode/6.2.0/woff/FiraCode-Regular.woff") format("woff");
        font-style: normal;
        font-weight: 400;
    }
    @font-face {
        font-family: "Fira Code";
        src: local("FiraCode-Bold"),
                url("https://cdnjs.cloudflare.com/ajax/libs/firacode/6.2.0/woff2/FiraCode-Bold.woff2") format("woff2"),
                url("https://cdnjs.cloudflare.com/ajax/libs/firacode/6.2.0/woff/FiraCode-Bold.woff") format("woff");
        font-style: bold;
        font-weight: 700;
    }

    .terminal-2978097149-matrix {
        font-family: Fira Code, monospace;
        font-size: 20px;
        line-height: 24.4px;
        font-variant-east-asian: full-width;
    }

    .terminal-2978097149-title {
        font-size: 18px;
        font-weight: bold;
        font-family: arial;
    }

    .terminal-2978097149-r1 { fill: #dde6ed;font-weight: bold }
.terminal-2978097149-r2 { fill: #dde6ed }
.terminal-2978097149-r3 { fill: #e1e1e1 }
.terminal-2978097149-r4 { fill: #c5c8c6 }
.terminal-2978097149-r5 { fill: #dfe4e7 }
.terminal-2978097149-r6 { fill: #e1e2e3 }
.terminal-2978097149-r7 { fill: #23568b }
.terminal-2978097149-r8 { fill: #1e1405 }
.terminal-2978097149-r9 { fill: #211505 }
    </style>

    <defs>
    <clipPath id="terminal-2978097149-clip-terminal">
      <rect x="0" y="0" width="975.0" height="584.5999999999999" />
    </clipPath>
    <clipPath id="terminal-2978097149-line-0">
    <rect x="0" y="1.5" width="976" height="24.65"/>
            </clipPath>
<clipPath id="terminal-2978097149-line-1">
    <rect x="0" y="25.9" width="976" height="24.65"/>
            </clipPath>
<clipPath id="terminal-2978097149-line-2">
    <rect x="0" y="50.3" width="976" height="24.65"/>
            </clipPath>
<clipPath id="terminal-2978097149-line-3">
    <rect x="0" y="74.7" width="976" height="24.65"/>
            </clipPath>
<clipPath id="terminal-2978097149-line-4">
    <rect x="0" y="99.1" width="976" height="24.65"/>
            </clipPath>
<clipPath id="terminal-2978097149-line-5">
    <rect x="0" y="123.5" width="976" height="24.65"/>
            </clipPath>
<clipPath id="terminal-2978097149-line-6">
    <rect x="0" y="147.9" width="976" height="24.65"/>
            </clipPath>
<clipPath id="terminal-2978097149-line-7">
    <rect x="0" y="172.3" width="976" height="24.65"/>
            </clipPath>
<clipPath id="terminal-2978097149-line-8">
    <rect x="0" y="196.7" width="976" height="24.65"/>
            </clipPath>
<clipPath id="terminal-2978097149-line-9">
    <rect x="0" y="221.1" width="976" height="24.65"/>
            </clipPath>
<clipPath id="terminal-2978097149-line-10">
    <rect x="0" y="245.5" width="976" height="24.65"/>
            </clipPath>
<clipPath id="terminal-2978097149-line-11">
    <rect x="0" y="269.9" width="976" height="24.65"/>
            </clipPath>
<clipPath id="terminal-2978097149-line-12">
    <rect x="0" y="294.3" width="976" height="24.65"/>
            </clipPath>
<clipPath id="terminal-2978097149-line-13">
    <rect x="0" y="318.7" width="976" height="24.65"/>
            </clipPath>
<clipPath id="terminal-2978097149-line-14">
    <rect x="0" y="343.1" width="976" height="24.65"/>
            </clipPath>
<clipPath id="terminal-2978097149-line-15">
    <rect x="0" y="367.5" width="976" height="24.65"/>
            </clipPath>
<clipPath id="terminal-2978097149-line-16">
    <rect x="0" y="391.9" width="976" height="24.65"/>
            </clipPath>
<clipPath id="terminal-2978097149-line-17">
    <rect x="0" y="416.3" width="976" height="24.65"/>
            </clipPath>
<clipPath id="terminal-2978097149-line-18">
    <rect x="0" y="440.7" width="976" height="24.65"/>
            </clipPath>
<clipPath id="terminal-2978097149-line-19">
    <rect x="0" y="465.1" width="976" height="24.65"/>
            </clipPath>
<clipPath id="terminal-2978097149-line-20">
    <rect x="0" y="489.5" width="976" height="24.65"/>
            </clipPath>
<clipPath id="terminal-2978097149-line-21">
    <rect x="0" y="513.9" width="976" height="24.65"/>
            </clipPath>
<clipPath id="terminal-2978097149-line-22">
    <rect x="0" y="538.3" width="976" height="24.65"/>
            </clipPath>
    </defs>

    <rect fill="#292929" stroke="rgba(255,255,255,0.35)" stroke-width="1" x="1" y="1" width="992" height="633.6" rx="8"/><text class="terminal-2978097149-title" fill="#c5c8c6" text-anchor="middle" x="496" y="27">TableApp</text>
            <g transform="translate(26,22)">
            <circle cx="0" cy="0" r="7" fill="#ff5f57"/>
            <circle cx="22" cy="0" r="7" fill="#febc2e"/>
            <circle cx="44" cy="0" r="7" fill="#28c840"/>
            </g>
        
    <g transform="translate(9, 41)" clip-path="url(#terminal-2978097149-clip-terminal)">
    <rect fill="#004578" x="0" y="1.5" width="48.8" height="24.65" shape-rendering="crispEdges"/><rect fill="#004578" x="48.8" y="1.5" width="61" height="24.65" shape-rendering="crispEdges"/><rect fill="#004578" x="109.8" y="1.5" width="61" height="24.65" shape-rendering="crispEdges"/><rect fill="#073b61" x="170.8" y="1.5" width="780.8" height="24.65" shape-rendering="crispEdges"/><rect fill="#14191f" x="951.6" y="1.5" width="24.4" height="24.65" shape-rendering="crispEdges"/><rect fill="#0f314b" x="0" y="25.9" width="48.8" height="24.65" shape-rendering="crispEdges"/><rect fill="#0f314b" x="48.8" y="25.9" width="61" height="24.65" shape-rendering="crispEdges"/><rect fill="#0f314b" x="109.8" y="25.9" width="61" height="24.65" shape-rendering="crispEdges"/><rect fill="#122c3f" x="170.8" y="25.9" width="780.8" height="24.65" shape-rendering="crispEdges"/><rect fill="#14191f" x="951.6" y="25.9" width="24.4" height="24.65" shape-rendering="crispEdges"/><rect fill="#0f314b" x="0" y="50.3" width="48.8" height="24.65" shape-rendering="crispEdges"/><rect fill="#0f314b" x="48.8" y="50.3" width="61" height="24.65" shape-rendering="crispEdges"/><rect fill="#0f314b" x="109.8" y="50.3" width="61" height="24.65" shape-rendering="crispEdges"/><rect fill="#122c3f" x="170.8" y="50.3" width="780.8" height="24.65" shape-rendering="crispEdges"/><rect fill="#14191f" x="951.6" y="50.3" width="24.4" height="24.65" shape-rendering="crispEdges"/><rect fill="#0f314b" x="0" y="74.7" width="48.8" height="24.65" shape-rendering="crispEdges"/><rect fill="#19232b" x="48.8" y="74.7" width="61" height="24.65" shape-rendering="crispEdges"/><rect fill="#19232b" x="109.8" y="74.7" width="61" height="24.65" shape-rendering="crispEdges"/><rect fill="#1a2127" x="170.8" y="74.7" width="780.8" height="24.65" shape-rendering="crispEdges"/><rect fill="#14191f" x="951.6" y="74.7" width="24.4" height="24.65" shape-rendering="crispEdges"/><rect fill="#0f314b" x="0" y="99.1" width="48.8" height="24.65" shape-rendering="crispEdges"/><rect fill="#1e1e1e" x="48.8" y="99.1" width="61" height="24.65" shape-rendering="crispEdges"/><rect fill="#1e1e1e" x="109.8" y="99.1" width="61" height="24.65" shape-rendering="crispEdges"/><rect fill="#1e1e1e" x="170.8" y="99.1" width="780.8" height="24.65" shape-rendering="crispEdges"/><rect fill="#14191f" x="951.6" y="99.1" width="24.4" height="24.65" shape-rendering="crispEdges"/><rect fill="#0f314b" x="0" y="123.5" width="48.8" height="24.65" shape-rendering="crispEdges"/><rect fill="#19232b" x="48.8" y="123.5" width="61" height="24.65" shape-rendering="crispEdges"/><rect fill="#19232b" x="109.8" y="123.5" width="61" height="24.65" shape-rendering="crispEdges"/><rect fill="#1a2127" x="170.8" y="123.5" width="780.8" height="24.65" shape-rendering="crispEdges"/><rect fill="#14191f" x="951.6" y="123.5" width="24.4" height="24.65" shape-rendering="crispEdges"/><rect fill="#0f314b" x="0" y="147.9" width="48.8" height="24.65" shape-rendering="crispEdges"/><rect fill="#1e1e1e" x="48.8" y="147.9" width="61" height="24.65" shape-rendering="crispEdges"/><rect fill="#1e1e1e" x="109.8" y="147.9" width="61" height="24.65" shape-rendering="crispEdges"/><rect fill="#1e1e1e" x="170.8" y="147.9" width="780.8" height="24.65" shape-rendering="crispEdges"/><rect fill="#14191f" x="951.6" y="147.9" width="24.4" height="24.65" shape-rendering="crispEdges"/><rect fill="#0f314b" x="0" y="172.3" width="48.8" height="24.65" shape-rendering="crispEdges"/><rect fill="#19232b" x="48.8" y="172.3" width="61" height="24.65" shape-rendering="crispEdges"/><rect fill="#19232b" x="109.8" y="172.3" width="61" height="24.65" shape-rendering="crispEdges"/><rect fill="#1a2127" x="170.8" y="172.3" width="780.8" height="24.65" shape-rendering="crispEdges"/><rect fill="#14191f" x="951.6" y="172.3" width="24.4" height="24.65" shape-rendering="crispEdges"/><rect fill="#0f314b" x="0" y="196.7" width="48.8" height="24.65" shape-rendering="crispEdges"/><rect fill="#1e1e1e" x="48.8" y="196.7" width="61" height="24.65" shape-rendering="crispEdges"/><rect fill="#1e1e1e" x="109.8" y="196.7" width="61" height="24.65" shape-rendering="crispEdges"/><rect fill="#1e1e1e" x="170.8" y="196.7" width="780.8" height="24.65" shape-rendering="crispEdges"/><rect fill="#14191f" x="951.6" y="196.7" width="24.4" height="24.65" shape-rendering="crispEdges"/><rect fill="#0f314b" x="0" y="221.1" width="48.8" height="24.65" shape-rendering="crispEdges"/><rect fill="#19232b" x="48.8" y="221.1" width="61" height="24.65" shape-rendering="crispEdges"/><rect fill="#19232b" x="109.8" y="221.1" width="61" height="24.65" shape-rendering="crispEdges"/><rect fill="#1a2127" x="170.8" y="221.1" width="780.8" height="24.65" shape-rendering="crispEdges"/><rect fill="#14191f" x="951.6" y="221.1" width="24.4" height="24.65" shape-rendering="crispEdges"/><rect fill="#0f314b" x="0" y="245.5" width="48.8" height="24.65" shape-rendering="crispEdges"/><rect fill="#1e1e1e" x="48.8" y="245.5" width="61" height="24.65" shape-rendering="crispEdges"/><rect fill="#1e1e1e" x="109.8" y="245.5" width="61" height="24.65" shape-rendering="crispEdges"/><rect fill="#1e1e1e" x="170.8" y="245.5" width="780.8" height="24.65" shape-rendering="crispEdges"/><rect fill="#14191f" x="951.6" y="245.5" width="24.4" height="24.65" shape-rendering="crispEdges"/><rect fill="#0f314b" x="0" y="269.9" width="48.8" height="24.65" shape-rendering="crispEdges"/><rect fill="#19232b" x="48.8" y="269.9" width="61" height="24.65" shape-rendering="crispEdges"/><rect fill="#19232b" x="109.8" y="269.9" width="61" height="24.65" shape-rendering="crispEdges"/><rect fill="#1a2127" x="170.8" y="269.9" width="780.8" height="24.65" shape-rendering="crispEdges"/><rect fill="#14191f" x="951.6" y="269.9" width="24.4" height="24.65" shape-rendering="crispEdges"/><rect fill="#0f314b" x="0" y="294.3" width="48.8" height="24.65" shape-rendering="crispEdges"/><rect fill="#1e1e1e" x="48.8" y="294.3" width="61" height="24.65" shape-rendering="crispEdges"/><rect fill="#1e1e1e" x="109.8" y="294.3" width="61" height="24.65" shape-rendering="crispEdges"/><rect fill="#1e1e1e" x="170.8" y="294.3" width="780.8" height="24.65" shape-rendering="crispEdges"/><rect fill="#14191f" x="951.6" y="294.3" width="24.4" height="24.65" shape-rendering="crispEdges"/><rect fill="#0f314b" x="0" y="318.7" width="48.8" height="24.65" shape-rendering="crispEdges"/><rect fill="#19232b" x="48.8" y="318.7" width="61" height="24.65" shape-rendering="crispEdges"/><rect fill="#19232b" x="109.8" y="318.7" width="61" height="24.65" shape-rendering="crispEdges"/><rect fill="#1a2127" x="170.8" y="318.7" width="780.8" height="24.65" shape-rendering="crispEdges"/><rect fill="#14191f" x="951.6" y="318.7" width="24.4" height="24.65" shape-rendering="crispEdges"/><rect fill="#0f314b" x="0" y="343.1" width="48.8" height="24.65" shape-rendering="crispEdges"/><rect fill="#1e1e1e" x="48.8" y="343.1" width="61" height="24.65" shape-rendering="crispEdges"/><rect fill="#1e1e1e" x="109.8" y="343.1" width="61" height="24.65" shape-rendering="crispEdges"/><rect fill="#1e1e1e" x="170.8" y="343.1" width="780.8" height="24.65" shape-rendering="crispEdges"/><rect fill="#14191f" x="951.6" y="343.1" width="24.4" height="24.65" shape-rendering="crispEdges"/><rect fill="#0f314b" x="0" y="367.5" width="48.8" height="24.65" shape-rendering="crispEdges"/><rect fill="#19232b" x="48.8" y="367.5" width="61" height="24.65" shape-rendering="crispEdges"/><rect fill="#19232b" x="109.8" y="367.5" width="61" height="24.65" shape-rendering="crispEdges"/><rect fill="#1a2127" x="170.8" y="367.5" width="780.8" height="24.65" shape-rendering="crispEdges"/><rect fill="#14191f" x="951.6" y="367.5" width="24.4" height="24.65" shape-rendering="crispEdges"/><rect fill="#0f314b" x="0" y="391.9" width="48.8" height="24.65" shape-rendering="crispEdges"/><rect fill="#1e1e1e" x="48.8" y="391.9" width="61" height="24.65" shape-rendering="crispEdges"/><rect fill="#1e1e1e" x="109.8" y="391.9" width="61" height="24.65" shape-rendering="crispEdges"/><rect fill="#1e1e1e" x="170.8" y="391.9" width="780.8" height="24.65" shape-rendering="crispEdges"/><rect fill="#14191f" x="951.6" y="391.9" width="24.4" height="24.65" shape-rendering="crispEdges"/><rect fill="#0f314b" x="0" y="416.3" width="48.8" height="24.65" shape-rendering="crispEdges"/><rect fill="#19232b" x="48.8" y="416.3" width="61" height="24.65" shape-rendering="crispEdges"/><rect fill="#19232b" x="109.8" y="416.3" width="61" height="24.65" shape-rendering="crispEdges"/><rect fill="#1a2127" x="170.8" y="416.3" width="780.8" height="24.65" shape-rendering="crispEdges"/><rect fill="#14191f" x="951.6" y="416.3" width="24.4" height="24.65" shape-rendering="crispEdges"/><rect fill="#0f314b" x="0" y="440.7" width="48.8" height="24.65" shape-rendering="crispEdges"/><rect fill="#1e1e1e" x="48.8" y="440.7" width="61" height="24.65" shape-rendering="crispEdges"/><rect fill="#1e1e1e" x="109.8" y="440.7" width="61" height="24.65" shape-rendering="crispEdges"/><rect fill="#1e1e1e" x="170.8" y="440.7" width="780.8" height="24.65" shape-rendering="crispEdges"/><rect fill="#14191f" x="951.6" y="440.7" width="24.4" height="24.65" shape-rendering="crispEdges"/><rect fill="#0f314b" x="0" y="465.1" width="48.8" height="24.65" shape-rendering="crispEdges"/><rect fill="#19232b" x="48.8" y="465.1" width="61" height="24.65" shape-rendering="crispEdges"/><rect fill="#19232b" x="109.8" y="465.1" width="61" height="24.65" shape-rendering="crispEdges"/><rect fill="#1a2127" x="170.8" y="465.1" width="780.8" height="24.65" shape-rendering="crispEdges"/><rect fill="#23568b" x="951.6" y="465.1" width="24.4" height="24.65" shape-rendering="crispEdges"/><rect fill="#0f314b" x="0" y="489.5" width="48.8" height="24.65" shape-rendering="crispEdges"/><rect fill="#1e1e1e" x="48.8" y="489.5" width="61" height="24.65" shape-rendering="crispEdges"/><rect fill="#1e1e1e" x="109.8" y="489.5" width="61" height="24.65" shape-rendering="crispEdges"/><rect fill="#1e1e1e" x="170.8" y="489.5" width="780.8" height="24.65" shape-rendering="crispEdges"/><rect fill="#23568b" x="951.6" y="489.5" width="24.4" height="24.65" shape-rendering="crispEdges"/><rect fill="#0f314b" x="0" y="513.9" width="48.8" height="24.65" shape-rendering="crispEdges"/><rect fill="#19232b" x="48.8" y="513.9" width="61" height="24.65" shape-rendering="crispEdges"/><rect fill="#19232b" x="109.8" y="513.9" width="61" height="24.65" shape-rendering="crispEdges"/><rect fill="#1a2127" x="170.8" y="513.9" width="780.8" height="24.65" shape-rendering="crispEdges"/><rect fill="#23568b" x="951.6" y="513.9" width="24.4" height="24.65" shape-rendering="crispEdges"/><rect fill="#0f314b" x="0" y="538.3" width="48.8" height="24.65" shape-rendering="crispEdges"/><rect fill="#1e1e1e" x="48.8" y="538.3" width="61" height="24.65" shape-rendering="crispEdges"/><rect fill="#1e1e1e" x="109.8" y="538.3" width="61" height="24.65" shape-rendering="crispEdges"/><rect fill="#1e1e1e" x="170.8" y="538.3" width="780.8" height="24.65" shape-rendering="crispEdges"/><rect fill="#23568b" x="951.6" y="538.3" width="24.4" height="24.65" shape-rendering="crispEdges"/><rect fill="#ec9b29" x="0" y="562.7" width="48.8" height="24.65" shape-rendering="crispEdges"/><rect fill="#fea62b" x="48.8" y="562.7" width="61" height="24.65" shape-rendering="crispEdges"/><rect fill="#fea62b" x="109.8" y="562.7" width="61" height="24.65" shape-rendering="crispEdges"/><rect fill="#1a2127" x="170.8" y="562.7" width="780.8" height="24.65" shape-rendering="crispEdges"/><rect fill="#23568b" x="951.6" y="562.7" width="24.4" height="24.65" shape-rendering="crispEdges"/>
    <g class="terminal-2978097149-matrix">
    <text class="terminal-2978097149-r1" x="0" y="20" textLength="48.8" clip-path="url(#terminal-2978097149-line-0)">&#160;A&#160;&#160;</text><text class="terminal-2978097149-r1" x="48.8" y="20" textLength="61" clip-path="url(#terminal-2978097149-line-0)">&#160;B&#160;&#160;&#160;</text><text class="terminal-2978097149-r1" x="109.8" y="20" textLength="61" clip-path="url(#terminal-2978097149-line-0)">&#160;C&#160;&#160;&#160;</text><text class="terminal-2978097149-r4" x="976" y="20" textLength="12.2" clip-path="url(#terminal-2978097149-line-0)">
</text><text class="terminal-2978097149-r5" x="0" y="44.4" textLength="48.8" clip-path="url(#terminal-2978097149-line-1)">&#160;1&#160;&#160;</text><text class="terminal-2978097149-r5" x="48.8" y="44.4" textLength="61" clip-path="url(#terminal-2978097149-line-1)">&#160;2&#160;&#160;&#160;</text><text class="terminal-2978097149-r5" x="109.8" y="44.4" textLength="61" clip-path="url(#terminal-2978097149-line-1)">&#160;3&#160;&#160;&#160;</text><text class="terminal-2978097149-r4" x="976" y="44.4" textLength="12.2" clip-path="url(#terminal-2978097149-line-1)">
</text><text class="terminal-2978097149-r5" x="0" y="68.8" textLength="48.8" clip-path="url(#terminal-2978097149-line-2)">&#160;2&#160;&#160;</text><text class="terminal-2978097149-r5" x="48.8" y="68.8" textLength="61" clip-path="url(#terminal-2978097149-line-2)">&#160;4&#160;&#160;&#160;</text><text class="terminal-2978097149-r5" x="109.8" y="68.8" textLength="61" clip-path="url(#terminal-2978097149-line-2)">&#160;6&#160;&#160;&#160;</text><text class="terminal-2978097149-r4" x="976" y="68.8" textLength="12.2" clip-path="url(#terminal-2978097149-line-2)">
</text><text class="terminal-2978097149-r5" x="0" y="93.2" textLength="48.8" clip-path="url(#terminal-2978097149-line-3)">&#160;79&#160;</text><text class="terminal-2978097149-r6" x="48.8" y="93.2" textLength="61" clip-path="url(#terminal-2978097149-line-3)">&#160;158&#160;</text><text class="terminal-2978097149-r6" x="109.8" y="93.2" textLength="61" clip-path="url(#terminal-2978097149-line-3)">&#160;237&#160;</text><text class="terminal-2978097149-r4" x="976" y="93.2" textLength="12.2" clip-path="url(#terminal-2978097149-line-3)">
</text><text class="terminal-2978097149-r5" x="0" y="117.6" textLength="48.8" clip-path="url(#terminal-2978097149-line-4)">&#160;80&#160;</text><text class="terminal-2978097149-r3" x="48.8" y="117.6" textLength="61" clip-path="url(#terminal-2978097149-line-4)">&#160;160&#160;</text><text class="terminal-2978097149-r3" x="109.8" y="117.6" textLength="61" clip-path="url(#terminal-2978097149-line-4)">&#160;240&#160;</text><text class="terminal-2978097149-r4" x="976" y="117.6" textLength="12.2" clip-path="url(#terminal-2978097149-line-4)">
</text><text class="terminal-2978097149-r5" x="0" y="142" textLength="48.8" clip-path="url(#terminal-2978097149-line-5)">&#160;81&#160;</text><text class="terminal-2978097149-r6" x="48.8" y="142" textLength="61" clip-path="url(#terminal-2978097149-line-5)">&#160;162&#160;</text><text class="terminal-2978097149-r6" x="109.8" y="142" textLength="61" clip-path="url(#terminal-2978097149-line-5)">&#160;243&#160;</text><text class="terminal-2978097149-r4" x="976" y="142" textLength="12.2" clip-path="url(#terminal-2978097149-line-5)">
</text><text class="terminal-2978097149-r5" x="0" y="166.4" textLength="48.8" clip-path="url(#terminal-2978097149-line-6)">&#160;82&#160;</text><text class="terminal-2978097149-r3" x="48.8" y="166.4" textLength="61" clip-path="url(#terminal-2978097149-line-6)">&#160;164&#160;</text><text class="terminal-2978097149-r3" x="109.8" y="166.4" textLength="61" clip-path="url(#terminal-2978097149-line-6)">&#160;246&#160;</text><text class="terminal-2978097149-r4" x="976" y="166.4" textLength="12.2" clip-path="url(#terminal-2978097149-line-6)">
</text><text class="terminal-2978097149-r5" x="0" y="190.8" textLength="48.8" clip-path="url(#terminal-2978097149-line-7)">&#160;83&#160;</text><text class="terminal-2978097149-r6" x="48.8" y="190.8" textLength="61" clip-path="url(#terminal-2978097149-line-7)">&#160;166&#160;</text><text class="terminal-2978097149-r6" x="109.8" y="190.8" textLength="61" clip-path="url(#terminal-2978097149-line-7)">&#160;249&#160;</text><text class="terminal-2978097149-r4" x="976" y="190.8" textLength="12.2" clip-path="url(#terminal-2978097149-line-7)">
</text><text class="terminal-2978097149-r5" x="0" y="215.2" textLength="48.8" clip-path="url(#terminal-2978097149-line-8)">&#160;84&#160;</text><text class="terminal-2978097149-r3" x="48.8" y="215.2" textLength="61" clip-path="url(#terminal-2978097149-line-8)">&#160;168&#160;</text><text class="terminal-2978097149-r3" x="109.8" y="215.2" textLength="61" clip-path="url(#terminal-2978097149-line-8)">&#160;252&#160;</text><text class="terminal-2978097149-r4" x="976" y="215.2" textLength="12.2" clip-path="url(#terminal-2978097149-line-8)">
</text><text class="terminal-2978097149-r5" x="0" y="239.6" textLength="48.8" clip-path="url(#terminal-2978097149-line-9)">&#160;85&#160;</text><text class="terminal-2978097149-r6" x="48.8" y="239.6" textLength="61" clip-path="url(#terminal-2978097149-line-9)">&#160;170&#160;</text><text class="terminal-2978097149-r6" x="109.8" y="239.6" textLength="61" clip-path="url(#terminal-2978097149-line-9)">&#160;255&#160;</text><text class="terminal-2978097149-r4" x="976" y="239.6" textLength="12.2" clip-path="url(#terminal-2978097149-line-9)">
</text><text class="terminal-2978097149-r5" x="0" y="264" textLength="48.8" clip-path="url(#terminal-2978097149-line-10)">&#160;86&#160;</text><text class="terminal-2978097149-r3" x="48.8" y="264" textLength="61" clip-path="url(#terminal-2978097149-line-10)">&#160;172&#160;</text><text class="terminal-2978097149-r3" x="109.8" y="264" textLength="61" clip-path="url(#terminal-2978097149-line-10)">&#160;258&#160;</text><text class="terminal-2978097149-r4" x="976" y="264" textLength="12.2" clip-path="url(#terminal-2978097149-line-10)">
</text><text class="terminal-2978097149-r5" x="0" y="288.4" textLength="48.8" clip-path="url(#terminal-2978097149-line-11)">&#160;87&#160;</text><text class="terminal-2978097149-r6" x="48.8" y="288.4" textLength="61" clip-path="url(#terminal-2978097149-line-11)">&#160;174&#160;</text><text class="terminal-2978097149-r6" x="109.8" y="288.4" textLength="61" clip-path="url(#terminal-2978097149-line-11)">&#160;261&#160;</text><text class="terminal-2978097149-r4" x="976" y="288.4" textLength="12.2" clip-path="url(#terminal-2978097149-line-11)">
</text><text class="terminal-2978097149-r5" x="0" y="312.8" textLength="48.8" clip-path="url(#terminal-2978097149-line-12)">&#160;88&#160;</text><text class="terminal-2978097149-r3" x="48.8" y="312.8" textLength="61" clip-path="url(#terminal-2978097149-line-12)">&#160;176&#160;</text><text class="terminal-2978097149-r3" x="109.8" y="312.8" textLength="61" clip-path="url(#terminal-2978097149-line-12)">&#160;264&#160;</text><text class="terminal-2978097149-r4" x="976" y="312.8" textLength="12.2" clip-path="url(#terminal-2978097149-line-12)">
</text><text class="terminal-2978097149-r5" x="0" y="337.2" textLength="48.8" clip-path="url(#terminal-2978097149-line-13)">&#160;89&#160;</text><text class="terminal-2978097149-r6" x="48.8" y="337.2" textLength="61" clip-path="url(#terminal-2978097149-line-13)">&#160;178&#160;</text><text class="terminal-2978097149-r6" x="109.8" y="337.2" textLength="61" clip-path="url(#terminal-2978097149-line-13)">&#160;267&#160;</text><text class="terminal-2978097149-r4" x="976" y="337.2" textLength="12.2" clip-path="url(#terminal-2978097149-line-13)">
</text><text class="terminal-2978097149-r5" x="0" y="361.6" textLength="48.8" clip-path="url(#terminal-2978097149-line-14)">&#160;90&#160;</text><text class="terminal-2978097149-r3" x="48.8" y="361.6" textLength="61" clip-path="url(#terminal-2978097149-line-14)">&#160;180&#160;</text><text class="terminal-2978097149-r3" x="109.8" y="361.6" textLength="61" clip-path="url(#terminal-2978097149-line-14)">&#160;270&#160;</text><text class="terminal-2978097149-r4" x="976" y="361.6" textLength="12.2" clip-path="url(#terminal-2978097149-line-14)">
</text><text class="terminal-2978097149-r5" x="0" y="386" textLength="48.8" clip-path="url(#terminal-2978097149-line-15)">&#160;91&#160;</text><text class="terminal-2978097149-r6" x="48.8" y="386" textLength="61" clip-path="url(#terminal-2978097149-line-15)">&#160;182&#160;</text><text class="terminal-2978097149-r6" x="109.8" y="386" textLength="61" clip-path="url(#terminal-2978097149-line-15)">&#160;273&#160;</text><text class="terminal-2978097149-r4" x="976" y="386" textLength="12.2" clip-path="url(#terminal-2978097149-line-15)">
</text><text class="terminal-2978097149-r5" x="0" y="410.4" textLength="48.8" clip-path="url(#terminal-2978097149-line-16)">&#160;92&#160;</text><text class="terminal-2978097149-r3" x="48.8" y="410.4" textLength="61" clip-path="url(#terminal-2978097149-line-16)">&#160;184&#160;</text><text class="terminal-2978097149-r3" x="109.8" y="410.4" textLength="61" clip-path="url(#terminal-2978097149-line-16)">&#160;276&#160;</text><text class="terminal-2978097149-r4" x="976" y="410.4" textLength="12.2" clip-path="url(#terminal-2978097149-line-16)">
</text><text class="terminal-2978097149-r5" x="0" y="434.8" textLength="48.8" clip-path="url(#terminal-2978097149-line-17)">&#160;93&#160;</text><text class="terminal-2978097149-r6" x="48.8" y="434.8" textLength="61" clip-path="url(#terminal-2978097149-line-17)">&#160;186&#160;</text><text class="terminal-2978097149-r6" x="109.8" y="434.8" textLength="61" clip-path="url(#terminal-2978097149-line-17)">&#160;279&#160;</text><text class="terminal-2978097149-r4" x="976" y="434.8" textLength="12.2" clip-path="url(#terminal-2978097149-line-17)">
</text><text class="terminal-2978097149-r5" x="0" y="459.2" textLength="48.8" clip-path="url(#terminal-2978097149-line-18)">&#160;94&#160;</text><text class="terminal-2978097149-r3" x="48.8" y="459.2" textLength="61" clip-path="url(#terminal-2978097149-line-18)">&#160;188&#160;</text><text class="terminal-2978097149-r3" x="109.8" y="459.2" textLength="61" clip-path="url(#terminal-2978097149-line-18)">&#160;282&#160;</text><text class="terminal-2978097149-r7" x="951.6" y="459.2" textLength="24.4" clip-path="url(#terminal-2978097149-line-18)">▇▇</text><text class="terminal-2978097149-r4" x="976" y="459.2" textLength="12.2" clip-path="url(#terminal-2978097149-line-18)">
</text><text class="terminal-2978097149-r5" x="0" y="483.6" textLength="48.8" clip-path="url(#terminal-2978097149-line-19)">&#160;95&#160;</text><text class="terminal-2978097149-r6" x="48.8" y="483.6" textLength="61" clip-path="url(#terminal-2978097149-line-19)">&#160;190&#160;</text><text class="terminal-2978097149-r6" x="109.8" y="483.6" textLength="61" clip-path="url(#terminal-2978097149-line-19)">&#160;285&#160;</text><text class="terminal-2978097149-r4" x="976" y="483.6" textLength="12.2" clip-path="url(#terminal-2978097149-line-19)">
</text><text class="terminal-2978097149-r5" x="0" y="508" textLength="48.8" clip-path="url(#terminal-2978097149-line-20)">&#160;96&#160;</text><text class="terminal-2978097149-r3" x="48.8" y="508" textLength="61" clip-path="url(#terminal-2978097149-line-20)">&#160;192&#160;</text><text class="terminal-2978097149-r3" x="109.8" y="508" textLength="61" clip-path="url(#terminal-2978097149-line-20)">&#160;288&#160;</text><text class="terminal-2978097149-r4" x="976" y="508" textLength="12.2" clip-path="url(#terminal-2978097149-line-20)">
</text><text class="terminal-2978097149-r5" x="0" y="532.4" textLength="48.8" clip-path="url(#terminal-2978097149-line-21)">&#160;97&#160;</text><text class="terminal-2978097149-r6" x="48.8" y="532.4" textLength="61" clip-path="url(#terminal-2978097149-line-21)">&#160;194&#160;</text><text class="terminal-2978097149-r6" x="109.8" y="532.4" textLength="61" clip-path="url(#terminal-2978097149-line-21)">&#160;291&#160;</text><text class="terminal-2978097149-r4" x="976" y="532.4" textLength="12.2" clip-path="url(#terminal-2978097149-line-21)">
</text><text class="terminal-2978097149-r5" x="0" y="556.8" textLength="48.8" clip-path="url(#terminal-2978097149-line-22)">&#160;98&#160;</text><text class="terminal-2978097149-r3" x="48.8" y="556.8" textLength="61" clip-path="url(#terminal-2978097149-line-22)">&#160;196&#160;</text><text class="terminal-2978097149-r3" x="109.8" y="556.8" textLength="61" clip-path="url(#terminal-2978097149-line-22)">&#160;294&#160;</text><text class="terminal-2978097149-r4" x="976" y="556.8" textLength="12.2" clip-path="url(#terminal-2978097149-line-22)">
</text><text class="terminal-2978097149-r8" x="0" y="581.2" textLength="48.8" clip-path="url(#terminal-2978097149-line-23)">&#160;99&#160;</text><text class="terminal-2978097149-r9" x="48.8" y="581.2" textLength="61" clip-path="url(#terminal-2978097149-line-23)">&#160;198&#160;</text><text class="terminal-2978097149-r9" x="109.8" y="581.2" textLength="61" clip-path="url(#terminal-2978097149-line-23)">&#160;297&#160;</text>
    </g>
    </g>
</svg>
