<svg class="rich-terminal" viewBox="0 0 1238 1148.0" xmlns="http://www.w3.org/2000/svg">
    <!-- Generated with Rich https://www.textualize.io -->
    <style>

    @font-face {
        font-family: "Fira Code";
        src: local("FiraCode-Regular"),
                url("https://cdnjs.cloudflare.com/ajax/libs/firacode/6.2.0/woff2/FiraCode-Regular.woff2") format("woff2"),
                url("https://cdnjs.cloudflare.com/ajax/libs/firacode/6.2.0/woff/FiraCode-Regular.woff") format("woff");
        font-style: normal;
        font-weight: 400;
    }
    @font-face {
        font-family: "Fira Code";
        src: local("FiraCode-Bold"),
                url("https://cdnjs.cloudflare.com/ajax/libs/firacode/6.2.0/woff2/FiraCode-Bold.woff2") format("woff2"),
                url("https://cdnjs.cloudflare.com/ajax/libs/firacode/6.2.0/woff/FiraCode-Bold.woff") format("woff");
        font-style: bold;
        font-weight: 700;
    }

    .terminal-3295552634-matrix {
        font-family: Fira Code, monospace;
        font-size: 20px;
        line-height: 24.4px;
        font-variant-east-asian: full-width;
    }

    .terminal-3295552634-title {
        font-size: 18px;
        font-weight: bold;
        font-family: arial;
    }

    .terminal-3295552634-r1 { fill: #c5c8c6 }
.terminal-3295552634-r2 { fill: #eae3e5 }
.terminal-3295552634-r3 { fill: #e8e0e7 }
.terminal-3295552634-r4 { fill: #efe9e4 }
.terminal-3295552634-r5 { fill: #ede6e6 }
.terminal-3295552634-r6 { fill: #efeedf }
.terminal-3295552634-r7 { fill: #e9eee5 }
.terminal-3295552634-r8 { fill: #e2edeb }
.terminal-3295552634-r9 { fill: #e4eee8;font-weight: bold }
.terminal-3295552634-r10 { fill: #dfebed;font-weight: bold }
.terminal-3295552634-r11 { fill: #dfe9ed }
.terminal-3295552634-r12 { fill: #e3e6eb;font-weight: bold }
.terminal-3295552634-r13 { fill: #e6e3e9 }
    </style>

    <defs>
    <clipPath id="terminal-3295552634-clip-terminal">
      <rect x="0" y="0" width="1219.0" height="1097.0" />
    </clipPath>
    <clipPath id="terminal-3295552634-line-0">
    <rect x="0" y="1.5" width="1220" height="24.65"/>
            </clipPath>
<clipPath id="terminal-3295552634-line-1">
    <rect x="0" y="25.9" width="1220" height="24.65"/>
            </clipPath>
<clipPath id="terminal-3295552634-line-2">
    <rect x="0" y="50.3" width="1220" height="24.65"/>
            </clipPath>
<clipPath id="terminal-3295552634-line-3">
    <rect x="0" y="74.7" width="1220" height="24.65"/>
            </clipPath>
<clipPath id="terminal-3295552634-line-4">
    <rect x="0" y="99.1" width="1220" height="24.65"/>
            </clipPath>
<clipPath id="terminal-3295552634-line-5">
    <rect x="0" y="123.5" width="1220" height="24.65"/>
            </clipPath>
<clipPath id="terminal-3295552634-line-6">
    <rect x="0" y="147.9" width="1220" height="24.65"/>
            </clipPath>
<clipPath id="terminal-3295552634-line-7">
    <rect x="0" y="172.3" width="1220" height="24.65"/>
            </clipPath>
<clipPath id="terminal-3295552634-line-8">
    <rect x="0" y="196.7" width="1220" height="24.65"/>
            </clipPath>
<clipPath id="terminal-3295552634-line-9">
    <rect x="0" y="221.1" width="1220" height="24.65"/>
            </clipPath>
<clipPath id="terminal-3295552634-line-10">
    <rect x="0" y="245.5" width="1220" height="24.65"/>
            </clipPath>
<clipPath id="terminal-3295552634-line-11">
    <rect x="0" y="269.9" width="1220" height="24.65"/>
            </clipPath>
<clipPath id="terminal-3295552634-line-12">
    <rect x="0" y="294.3" width="1220" height="24.65"/>
            </clipPath>
<clipPath id="terminal-3295552634-line-13">
    <rect x="0" y="318.7" width="1220" height="24.65"/>
            </clipPath>
<clipPath id="terminal-3295552634-line-14">
    <rect x="0" y="343.1" width="1220" height="24.65"/>
            </clipPath>
<clipPath id="terminal-3295552634-line-15">
    <rect x="0" y="367.5" width="1220" height="24.65"/>
            </clipPath>
<clipPath id="terminal-3295552634-line-16">
    <rect x="0" y="391.9" width="1220" height="24.65"/>
            </clipPath>
<clipPath id="terminal-3295552634-line-17">
    <rect x="0" y="416.3" width="1220" height="24.65"/>
            </clipPath>
<clipPath id="terminal-3295552634-line-18">
    <rect x="0" y="440.7" width="1220" height="24.65"/>
            </clipPath>
<clipPath id="terminal-3295552634-line-19">
    <rect x="0" y="465.1" width="1220" height="24.65"/>
            </clipPath>
<clipPath id="terminal-3295552634-line-20">
    <rect x="0" y="489.5" width="1220" height="24.65"/>
            </clipPath>
<clipPath id="terminal-3295552634-line-21">
    <rect x="0" y="513.9" width="1220" height="24.65"/>
            </clipPath>
<clipPath id="terminal-3295552634-line-22">
    <rect x="0" y="538.3" width="1220" height="24.65"/>
            </clipPath>
<clipPath id="terminal-3295552634-line-23">
    <rect x="0" y="562.7" width="1220" height="24.65"/>
            </clipPath>
<clipPath id="terminal-3295552634-line-24">
    <rect x="0" y="587.1" width="1220" height="24.65"/>
            </clipPath>
<clipPath id="terminal-3295552634-line-25">
    <rect x="0" y="611.5" width="1220" height="24.65"/>
            </clipPath>
<clipPath id="terminal-3295552634-line-26">
    <rect x="0" y="635.9" width="1220" height="24.65"/>
            </clipPath>
<clipPath id="terminal-3295552634-line-27">
    <rect x="0" y="660.3" width="1220" height="24.65"/>
            </clipPath>
<clipPath id="terminal-3295552634-line-28">
    <rect x="0" y="684.7" width="1220" height="24.65"/>
            </clipPath>
<clipPath id="terminal-3295552634-line-29">
    <rect x="0" y="709.1" width="1220" height="24.65"/>
            </clipPath>
<clipPath id="terminal-3295552634-line-30">
    <rect x="0" y="733.5" width="1220" height="24.65"/>
            </clipPath>
<clipPath id="terminal-3295552634-line-31">
    <rect x="0" y="757.9" width="1220" height="24.65"/>
            </clipPath>
<clipPath id="terminal-3295552634-line-32">
    <rect x="0" y="782.3" width="1220" height="24.65"/>
            </clipPath>
<clipPath id="terminal-3295552634-line-33">
    <rect x="0" y="806.7" width="1220" height="24.65"/>
            </clipPath>
<clipPath id="terminal-3295552634-line-34">
    <rect x="0" y="831.1" width="1220" height="24.65"/>
            </clipPath>
<clipPath id="terminal-3295552634-line-35">
    <rect x="0" y="855.5" width="1220" height="24.65"/>
            </clipPath>
<clipPath id="terminal-3295552634-line-36">
    <rect x="0" y="879.9" width="1220" height="24.65"/>
            </clipPath>
<clipPath id="terminal-3295552634-line-37">
    <rect x="0" y="904.3" width="1220" height="24.65"/>
            </clipPath>
<clipPath id="terminal-3295552634-line-38">
    <rect x="0" y="928.7" width="1220" height="24.65"/>
            </clipPath>
<clipPath id="terminal-3295552634-line-39">
    <rect x="0" y="953.1" width="1220" height="24.65"/>
            </clipPath>
<clipPath id="terminal-3295552634-line-40">
    <rect x="0" y="977.5" width="1220" height="24.65"/>
            </clipPath>
<clipPath id="terminal-3295552634-line-41">
    <rect x="0" y="1001.9" width="1220" height="24.65"/>
            </clipPath>
<clipPath id="terminal-3295552634-line-42">
    <rect x="0" y="1026.3" width="1220" height="24.65"/>
            </clipPath>
<clipPath id="terminal-3295552634-line-43">
    <rect x="0" y="1050.7" width="1220" height="24.65"/>
            </clipPath>
    </defs>

    <rect fill="#292929" stroke="rgba(255,255,255,0.35)" stroke-width="1" x="1" y="1" width="1236" height="1146" rx="8"/><text class="terminal-3295552634-title" fill="#c5c8c6" text-anchor="middle" x="618" y="27">PlaceholderApp</text>
            <g transform="translate(26,22)">
            <circle cx="0" cy="0" r="7" fill="#ff5f57"/>
            <circle cx="22" cy="0" r="7" fill="#febc2e"/>
            <circle cx="44" cy="0" r="7" fill="#28c840"/>
            </g>
        
    <g transform="translate(9, 41)" clip-path="url(#terminal-3295552634-clip-terminal)">
    <rect fill="#53174a" x="0" y="1.5" width="610" height="24.65" shape-rendering="crispEdges"/><rect fill="#642839" x="610" y="1.5" width="610" height="24.65" shape-rendering="crispEdges"/><rect fill="#53174a" x="0" y="25.9" width="610" height="24.65" shape-rendering="crispEdges"/><rect fill="#642839" x="610" y="25.9" width="610" height="24.65" shape-rendering="crispEdges"/><rect fill="#53174a" x="0" y="50.3" width="610" height="24.65" shape-rendering="crispEdges"/><rect fill="#642839" x="610" y="50.3" width="183" height="24.65" shape-rendering="crispEdges"/><rect fill="#642839" x="793" y="50.3" width="244" height="24.65" shape-rendering="crispEdges"/><rect fill="#642839" x="1037" y="50.3" width="183" height="24.65" shape-rendering="crispEdges"/><rect fill="#53174a" x="0" y="74.7" width="610" height="24.65" shape-rendering="crispEdges"/><rect fill="#642839" x="610" y="74.7" width="610" height="24.65" shape-rendering="crispEdges"/><rect fill="#53174a" x="0" y="99.1" width="610" height="24.65" shape-rendering="crispEdges"/><rect fill="#642839" x="610" y="99.1" width="610" height="24.65" shape-rendering="crispEdges"/><rect fill="#53174a" x="0" y="123.5" width="122" height="24.65" shape-rendering="crispEdges"/><rect fill="#53174a" x="122" y="123.5" width="366" height="24.65" shape-rendering="crispEdges"/><rect fill="#53174a" x="488" y="123.5" width="122" height="24.65" shape-rendering="crispEdges"/><rect fill="#754242" x="610" y="123.5" width="305" height="24.65" shape-rendering="crispEdges"/><rect fill="#865b31" x="915" y="123.5" width="305" height="24.65" shape-rendering="crispEdges"/><rect fill="#53174a" x="0" y="147.9" width="610" height="24.65" shape-rendering="crispEdges"/><rect fill="#754242" x="610" y="147.9" width="305" height="24.65" shape-rendering="crispEdges"/><rect fill="#865b31" x="915" y="147.9" width="134.2" height="24.65" shape-rendering="crispEdges"/><rect fill="#865b31" x="1049.2" y="147.9" width="36.6" height="24.65" shape-rendering="crispEdges"/><rect fill="#865b31" x="1085.8" y="147.9" width="134.2" height="24.65" shape-rendering="crispEdges"/><rect fill="#53174a" x="0" y="172.3" width="610" height="24.65" shape-rendering="crispEdges"/><rect fill="#754242" x="610" y="172.3" width="134.2" height="24.65" shape-rendering="crispEdges"/><rect fill="#754242" x="744.2" y="172.3" width="36.6" height="24.65" shape-rendering="crispEdges"/><rect fill="#754242" x="780.8" y="172.3" width="134.2" height="24.65" shape-rendering="crispEdges"/><rect fill="#865b31" x="915" y="172.3" width="305" height="24.65" shape-rendering="crispEdges"/><rect fill="#53174a" x="0" y="196.7" width="610" height="24.65" shape-rendering="crispEdges"/><rect fill="#754242" x="610" y="196.7" width="305" height="24.65" shape-rendering="crispEdges"/><rect fill="#867d0f" x="915" y="196.7" width="146.4" height="24.65" shape-rendering="crispEdges"/><rect fill="#5b7d39" x="1061.4" y="196.7" width="158.6" height="24.65" shape-rendering="crispEdges"/><rect fill="#53174a" x="0" y="221.1" width="610" height="24.65" shape-rendering="crispEdges"/><rect fill="#754242" x="610" y="221.1" width="305" height="24.65" shape-rendering="crispEdges"/><rect fill="#867d0f" x="915" y="221.1" width="48.8" height="24.65" shape-rendering="crispEdges"/><rect fill="#867d0f" x="963.8" y="221.1" width="36.6" height="24.65" shape-rendering="crispEdges"/><rect fill="#867d0f" x="1000.4" y="221.1" width="61" height="24.65" shape-rendering="crispEdges"/><rect fill="#5b7d39" x="1061.4" y="221.1" width="12.2" height="24.65" shape-rendering="crispEdges"/><rect fill="#5b7d39" x="1073.6" y="221.1" width="134.2" height="24.65" shape-rendering="crispEdges"/><rect fill="#5b7d39" x="1207.8" y="221.1" width="12.2" height="24.65" shape-rendering="crispEdges"/><rect fill="#53174a" x="0" y="245.5" width="610" height="24.65" shape-rendering="crispEdges"/><rect fill="#754242" x="610" y="245.5" width="305" height="24.65" shape-rendering="crispEdges"/><rect fill="#867d0f" x="915" y="245.5" width="146.4" height="24.65" shape-rendering="crispEdges"/><rect fill="#5b7d39" x="1061.4" y="245.5" width="158.6" height="24.65" shape-rendering="crispEdges"/><rect fill="#317d53" x="0" y="269.9" width="402.6" height="24.65" shape-rendering="crispEdges"/><rect fill="#20756c" x="402.6" y="269.9" width="402.6" height="24.65" shape-rendering="crispEdges"/><rect fill="#0f6c75" x="805.2" y="269.9" width="414.8" height="24.65" shape-rendering="crispEdges"/><rect fill="#317d53" x="0" y="294.3" width="402.6" height="24.65" shape-rendering="crispEdges"/><rect fill="#20756c" x="402.6" y="294.3" width="12.2" height="24.65" shape-rendering="crispEdges"/><rect fill="#20756c" x="414.8" y="294.3" width="0" height="24.65" shape-rendering="crispEdges"/><rect fill="#20756c" x="414.8" y="294.3" width="341.6" height="24.65" shape-rendering="crispEdges"/><rect fill="#20756c" x="756.4" y="294.3" width="36.6" height="24.65" shape-rendering="crispEdges"/><rect fill="#20756c" x="793" y="294.3" width="12.2" height="24.65" shape-rendering="crispEdges"/><rect fill="#0f6c75" x="805.2" y="294.3" width="414.8" height="24.65" shape-rendering="crispEdges"/><rect fill="#317d53" x="0" y="318.7" width="402.6" height="24.65" shape-rendering="crispEdges"/><rect fill="#20756c" x="402.6" y="318.7" width="12.2" height="24.65" shape-rendering="crispEdges"/><rect fill="#20756c" x="414.8" y="318.7" width="0" height="24.65" shape-rendering="crispEdges"/><rect fill="#20756c" x="414.8" y="318.7" width="353.8" height="24.65" shape-rendering="crispEdges"/><rect fill="#20756c" x="768.6" y="318.7" width="24.4" height="24.65" shape-rendering="crispEdges"/><rect fill="#20756c" x="793" y="318.7" width="12.2" height="24.65" shape-rendering="crispEdges"/><rect fill="#0f6c75" x="805.2" y="318.7" width="414.8" height="24.65" shape-rendering="crispEdges"/><rect fill="#317d53" x="0" y="343.1" width="402.6" height="24.65" shape-rendering="crispEdges"/><rect fill="#20756c" x="402.6" y="343.1" width="12.2" height="24.65" shape-rendering="crispEdges"/><rect fill="#20756c" x="414.8" y="343.1" width="0" height="24.65" shape-rendering="crispEdges"/><rect fill="#20756c" x="414.8" y="343.1" width="378.2" height="24.65" shape-rendering="crispEdges"/><rect fill="#20756c" x="793" y="343.1" width="12.2" height="24.65" shape-rendering="crispEdges"/><rect fill="#0f6c75" x="805.2" y="343.1" width="414.8" height="24.65" shape-rendering="crispEdges"/><rect fill="#317d53" x="0" y="367.5" width="402.6" height="24.65" shape-rendering="crispEdges"/><rect fill="#20756c" x="402.6" y="367.5" width="12.2" height="24.65" shape-rendering="crispEdges"/><rect fill="#20756c" x="414.8" y="367.5" width="0" height="24.65" shape-rendering="crispEdges"/><rect fill="#20756c" x="414.8" y="367.5" width="378.2" height="24.65" shape-rendering="crispEdges"/><rect fill="#20756c" x="793" y="367.5" width="12.2" height="24.65" shape-rendering="crispEdges"/><rect fill="#0f6c75" x="805.2" y="367.5" width="414.8" height="24.65" shape-rendering="crispEdges"/><rect fill="#317d53" x="0" y="391.9" width="158.6" height="24.65" shape-rendering="crispEdges"/><rect fill="#317d53" x="158.6" y="391.9" width="85.4" height="24.65" shape-rendering="crispEdges"/><rect fill="#317d53" x="244" y="391.9" width="158.6" height="24.65" shape-rendering="crispEdges"/><rect fill="#20756c" x="402.6" y="391.9" width="12.2" height="24.65" shape-rendering="crispEdges"/><rect fill="#20756c" x="414.8" y="391.9" width="0" height="24.65" shape-rendering="crispEdges"/><rect fill="#20756c" x="414.8" y="391.9" width="305" height="24.65" shape-rendering="crispEdges"/><rect fill="#20756c" x="719.8" y="391.9" width="73.2" height="24.65" shape-rendering="crispEdges"/><rect fill="#20756c" x="793" y="391.9" width="12.2" height="24.65" shape-rendering="crispEdges"/><rect fill="#0f6c75" x="805.2" y="391.9" width="158.6" height="24.65" shape-rendering="crispEdges"/><rect fill="#0f6c75" x="963.8" y="391.9" width="85.4" height="24.65" shape-rendering="crispEdges"/><rect fill="#0f6c75" x="1049.2" y="391.9" width="170.8" height="24.65" shape-rendering="crispEdges"/><rect fill="#317d53" x="0" y="416.3" width="402.6" height="24.65" shape-rendering="crispEdges"/><rect fill="#20756c" x="402.6" y="416.3" width="12.2" height="24.65" shape-rendering="crispEdges"/><rect fill="#20756c" x="414.8" y="416.3" width="0" height="24.65" shape-rendering="crispEdges"/><rect fill="#20756c" x="414.8" y="416.3" width="366" height="24.65" shape-rendering="crispEdges"/><rect fill="#20756c" x="780.8" y="416.3" width="12.2" height="24.65" shape-rendering="crispEdges"/><rect fill="#20756c" x="793" y="416.3" width="12.2" height="24.65" shape-rendering="crispEdges"/><rect fill="#0f6c75" x="805.2" y="416.3" width="414.8" height="24.65" shape-rendering="crispEdges"/><rect fill="#317d53" x="0" y="440.7" width="402.6" height="24.65" shape-rendering="crispEdges"/><rect fill="#20756c" x="402.6" y="440.7" width="12.2" height="24.65" shape-rendering="crispEdges"/><rect fill="#20756c" x="414.8" y="440.7" width="0" height="24.65" shape-rendering="crispEdges"/><rect fill="#20756c" x="414.8" y="440.7" width="353.8" height="24.65" shape-rendering="crispEdges"/><rect fill="#20756c" x="768.6" y="440.7" width="24.4" height="24.65" shape-rendering="crispEdges"/><rect fill="#20756c" x="793" y="440.7" width="12.2" height="24.65" shape-rendering="crispEdges"/><rect fill="#0f6c75" x="805.2" y="440.7" width="414.8" height="24.65" shape-rendering="crispEdges"/><rect fill="#317d53" x="0" y="465.1" width="402.6" height="24.65" shape-rendering="crispEdges"/><rect fill="#20756c" x="402.6" y="465.1" width="12.2" height="24.65" shape-rendering="crispEdges"/><rect fill="#20756c" x="414.8" y="465.1" width="0" height="24.65" shape-rendering="crispEdges"/><rect fill="#20756c" x="414.8" y="465.1" width="378.2" height="24.65" shape-rendering="crispEdges"/><rect fill="#20756c" x="793" y="465.1" width="12.2" height="24.65" shape-rendering="crispEdges"/><rect fill="#0f6c75" x="805.2" y="465.1" width="414.8" height="24.65" shape-rendering="crispEdges"/><rect fill="#317d53" x="0" y="489.5" width="402.6" height="24.65" shape-rendering="crispEdges"/><rect fill="#20756c" x="402.6" y="489.5" width="12.2" height="24.65" shape-rendering="crispEdges"/><rect fill="#20756c" x="414.8" y="489.5" width="0" height="24.65" shape-rendering="crispEdges"/><rect fill="#20756c" x="414.8" y="489.5" width="366" height="24.65" shape-rendering="crispEdges"/><rect fill="#20756c" x="780.8" y="489.5" width="12.2" height="24.65" shape-rendering="crispEdges"/><rect fill="#20756c" x="793" y="489.5" width="12.2" height="24.65" shape-rendering="crispEdges"/><rect fill="#0f6c75" x="805.2" y="489.5" width="414.8" height="24.65" shape-rendering="crispEdges"/><rect fill="#317d53" x="0" y="513.9" width="402.6" height="24.65" shape-rendering="crispEdges"/><rect fill="#20756c" x="402.6" y="513.9" width="402.6" height="24.65" shape-rendering="crispEdges"/><rect fill="#0f6c75" x="805.2" y="513.9" width="414.8" height="24.65" shape-rendering="crispEdges"/><rect fill="#0f5b75" x="0" y="538.3" width="610" height="24.65" shape-rendering="crispEdges"/><rect fill="#28426c" x="610" y="538.3" width="610" height="24.65" shape-rendering="crispEdges"/><rect fill="#0f5b75" x="0" y="562.7" width="12.2" height="24.65" shape-rendering="crispEdges"/><rect fill="#0f5b75" x="12.2" y="562.7" width="0" height="24.65" shape-rendering="crispEdges"/><rect fill="#0f5b75" x="12.2" y="562.7" width="488" height="24.65" shape-rendering="crispEdges"/><rect fill="#0f5b75" x="500.2" y="562.7" width="97.6" height="24.65" shape-rendering="crispEdges"/><rect fill="#0f5b75" x="597.8" y="562.7" width="12.2" height="24.65" shape-rendering="crispEdges"/><rect fill="#28426c" x="610" y="562.7" width="610" height="24.65" shape-rendering="crispEdges"/><rect fill="#0f5b75" x="0" y="587.1" width="12.2" height="24.65" shape-rendering="crispEdges"/><rect fill="#0f5b75" x="12.2" y="587.1" width="0" height="24.65" shape-rendering="crispEdges"/><rect fill="#0f5b75" x="12.2" y="587.1" width="585.6" height="24.65" shape-rendering="crispEdges"/><rect fill="#0f5b75" x="597.8" y="587.1" width="12.2" height="24.65" shape-rendering="crispEdges"/><rect fill="#28426c" x="610" y="587.1" width="610" height="24.65" shape-rendering="crispEdges"/><rect fill="#0f5b75" x="0" y="611.5" width="12.2" height="24.65" shape-rendering="crispEdges"/><rect fill="#0f5b75" x="12.2" y="611.5" width="0" height="24.65" shape-rendering="crispEdges"/><rect fill="#0f5b75" x="12.2" y="611.5" width="573.4" height="24.65" shape-rendering="crispEdges"/><rect fill="#0f5b75" x="585.6" y="611.5" width="12.2" height="24.65" shape-rendering="crispEdges"/><rect fill="#0f5b75" x="597.8" y="611.5" width="12.2" height="24.65" shape-rendering="crispEdges"/><rect fill="#28426c" x="610" y="611.5" width="610" height="24.65" shape-rendering="crispEdges"/><rect fill="#0f5b75" x="0" y="635.9" width="12.2" height="24.65" shape-rendering="crispEdges"/><rect fill="#0f5b75" x="12.2" y="635.9" width="0" height="24.65" shape-rendering="crispEdges"/><rect fill="#0f5b75" x="12.2" y="635.9" width="561.2" height="24.65" shape-rendering="crispEdges"/><rect fill="#0f5b75" x="573.4" y="635.9" width="24.4" height="24.65" shape-rendering="crispEdges"/><rect fill="#0f5b75" x="597.8" y="635.9" width="12.2" height="24.65" shape-rendering="crispEdges"/><rect fill="#28426c" x="610" y="635.9" width="610" height="24.65" shape-rendering="crispEdges"/><rect fill="#0f5b75" x="0" y="660.3" width="12.2" height="24.65" shape-rendering="crispEdges"/><rect fill="#0f5b75" x="12.2" y="660.3" width="0" height="24.65" shape-rendering="crispEdges"/><rect fill="#0f5b75" x="12.2" y="660.3" width="585.6" height="24.65" shape-rendering="crispEdges"/><rect fill="#0f5b75" x="597.8" y="660.3" width="12.2" height="24.65" shape-rendering="crispEdges"/><rect fill="#28426c" x="610" y="660.3" width="256.2" height="24.65" shape-rendering="crispEdges"/><rect fill="#28426c" x="866.2" y="660.3" width="85.4" height="24.65" shape-rendering="crispEdges"/><rect fill="#28426c" x="951.6" y="660.3" width="268.4" height="24.65" shape-rendering="crispEdges"/><rect fill="#0f5b75" x="0" y="684.7" width="12.2" height="24.65" shape-rendering="crispEdges"/><rect fill="#0f5b75" x="12.2" y="684.7" width="0" height="24.65" shape-rendering="crispEdges"/><rect fill="#0f5b75" x="12.2" y="684.7" width="585.6" height="24.65" shape-rendering="crispEdges"/><rect fill="#0f5b75" x="597.8" y="684.7" width="12.2" height="24.65" shape-rendering="crispEdges"/><rect fill="#28426c" x="610" y="684.7" width="610" height="24.65" shape-rendering="crispEdges"/><rect fill="#0f5b75" x="0" y="709.1" width="12.2" height="24.65" shape-rendering="crispEdges"/><rect fill="#0f5b75" x="12.2" y="709.1" width="0" height="24.65" shape-rendering="crispEdges"/><rect fill="#0f5b75" x="12.2" y="709.1" width="585.6" height="24.65" shape-rendering="crispEdges"/><rect fill="#0f5b75" x="597.8" y="709.1" width="12.2" height="24.65" shape-rendering="crispEdges"/><rect fill="#28426c" x="610" y="709.1" width="610" height="24.65" shape-rendering="crispEdges"/><rect fill="#0f5b75" x="0" y="733.5" width="12.2" height="24.65" shape-rendering="crispEdges"/><rect fill="#0f5b75" x="12.2" y="733.5" width="0" height="24.65" shape-rendering="crispEdges"/><rect fill="#0f5b75" x="12.2" y="733.5" width="573.4" height="24.65" shape-rendering="crispEdges"/><rect fill="#0f5b75" x="585.6" y="733.5" width="12.2" height="24.65" shape-rendering="crispEdges"/><rect fill="#0f5b75" x="597.8" y="733.5" width="12.2" height="24.65" shape-rendering="crispEdges"/><rect fill="#28426c" x="610" y="733.5" width="610" height="24.65" shape-rendering="crispEdges"/><rect fill="#0f5b75" x="0" y="757.9" width="12.2" height="24.65" shape-rendering="crispEdges"/><rect fill="#0f5b75" x="12.2" y="757.9" width="0" height="24.65" shape-rendering="crispEdges"/><rect fill="#0f5b75" x="12.2" y="757.9" width="585.6" height="24.65" shape-rendering="crispEdges"/><rect fill="#0f5b75" x="597.8" y="757.9" width="12.2" height="24.65" shape-rendering="crispEdges"/><rect fill="#28426c" x="610" y="757.9" width="610" height="24.65" shape-rendering="crispEdges"/><rect fill="#0f5b75" x="0" y="782.3" width="12.2" height="24.65" shape-rendering="crispEdges"/><rect fill="#0f5b75" x="12.2" y="782.3" width="0" height="24.65" shape-rendering="crispEdges"/><rect fill="#0f5b75" x="12.2" y="782.3" width="488" height="24.65" shape-rendering="crispEdges"/><rect fill="#0f5b75" x="500.2" y="782.3" width="97.6" height="24.65" shape-rendering="crispEdges"/><rect fill="#0f5b75" x="597.8" y="782.3" width="12.2" height="24.65" shape-rendering="crispEdges"/><rect fill="#28426c" x="610" y="782.3" width="610" height="24.65" shape-rendering="crispEdges"/><rect fill="#0f5b75" x="0" y="806.7" width="12.2" height="24.65" shape-rendering="crispEdges"/><rect fill="#0f5b75" x="12.2" y="806.7" width="0" height="24.65" shape-rendering="crispEdges"/><rect fill="#0f5b75" x="12.2" y="806.7" width="585.6" height="24.65" shape-rendering="crispEdges"/><rect fill="#0f5b75" x="597.8" y="806.7" width="12.2" height="24.65" shape-rendering="crispEdges"/><rect fill="#42285b" x="610" y="806.7" width="610" height="24.65" shape-rendering="crispEdges"/><rect fill="#0f5b75" x="0" y="831.1" width="12.2" height="24.65" shape-rendering="crispEdges"/><rect fill="#0f5b75" x="12.2" y="831.1" width="0" height="24.65" shape-rendering="crispEdges"/><rect fill="#0f5b75" x="12.2" y="831.1" width="488" height="24.65" shape-rendering="crispEdges"/><rect fill="#0f5b75" x="500.2" y="831.1" width="97.6" height="24.65" shape-rendering="crispEdges"/><rect fill="#0f5b75" x="597.8" y="831.1" width="12.2" height="24.65" shape-rendering="crispEdges"/><rect fill="#42285b" x="610" y="831.1" width="12.2" height="24.65" shape-rendering="crispEdges"/><rect fill="#42285b" x="622.2" y="831.1" width="0" height="24.65" shape-rendering="crispEdges"/><rect fill="#42285b" x="622.2" y="831.1" width="488" height="24.65" shape-rendering="crispEdges"/><rect fill="#42285b" x="1110.2" y="831.1" width="97.6" height="24.65" shape-rendering="crispEdges"/><rect fill="#42285b" x="1207.8" y="831.1" width="12.2" height="24.65" shape-rendering="crispEdges"/><rect fill="#0f5b75" x="0" y="855.5" width="12.2" height="24.65" shape-rendering="crispEdges"/><rect fill="#0f5b75" x="12.2" y="855.5" width="0" height="24.65" shape-rendering="crispEdges"/><rect fill="#0f5b75" x="12.2" y="855.5" width="585.6" height="24.65" shape-rendering="crispEdges"/><rect fill="#0f5b75" x="597.8" y="855.5" width="12.2" height="24.65" shape-rendering="crispEdges"/><rect fill="#42285b" x="610" y="855.5" width="12.2" height="24.65" shape-rendering="crispEdges"/><rect fill="#42285b" x="622.2" y="855.5" width="0" height="24.65" shape-rendering="crispEdges"/><rect fill="#42285b" x="622.2" y="855.5" width="585.6" height="24.65" shape-rendering="crispEdges"/><rect fill="#42285b" x="1207.8" y="855.5" width="12.2" height="24.65" shape-rendering="crispEdges"/><rect fill="#0f5b75" x="0" y="879.9" width="12.2" height="24.65" shape-rendering="crispEdges"/><rect fill="#0f5b75" x="12.2" y="879.9" width="0" height="24.65" shape-rendering="crispEdges"/><rect fill="#0f5b75" x="12.2" y="879.9" width="573.4" height="24.65" shape-rendering="crispEdges"/><rect fill="#0f5b75" x="585.6" y="879.9" width="12.2" height="24.65" shape-rendering="crispEdges"/><rect fill="#0f5b75" x="597.8" y="879.9" width="12.2" height="24.65" shape-rendering="crispEdges"/><rect fill="#42285b" x="610" y="879.9" width="12.2" height="24.65" shape-rendering="crispEdges"/><rect fill="#42285b" x="622.2" y="879.9" width="0" height="24.65" shape-rendering="crispEdges"/><rect fill="#42285b" x="622.2" y="879.9" width="573.4" height="24.65" shape-rendering="crispEdges"/><rect fill="#42285b" x="1195.6" y="879.9" width="12.2" height="24.65" shape-rendering="crispEdges"/><rect fill="#42285b" x="1207.8" y="879.9" width="12.2" height="24.65" shape-rendering="crispEdges"/><rect fill="#0f5b75" x="0" y="904.3" width="12.2" height="24.65" shape-rendering="crispEdges"/><rect fill="#0f5b75" x="12.2" y="904.3" width="0" height="24.65" shape-rendering="crispEdges"/><rect fill="#0f5b75" x="12.2" y="904.3" width="561.2" height="24.65" shape-rendering="crispEdges"/><rect fill="#0f5b75" x="573.4" y="904.3" width="24.4" height="24.65" shape-rendering="crispEdges"/><rect fill="#0f5b75" x="597.8" y="904.3" width="12.2" height="24.65" shape-rendering="crispEdges"/><rect fill="#42285b" x="610" y="904.3" width="12.2" height="24.65" shape-rendering="crispEdges"/><rect fill="#42285b" x="622.2" y="904.3" width="0" height="24.65" shape-rendering="crispEdges"/><rect fill="#42285b" x="622.2" y="904.3" width="561.2" height="24.65" shape-rendering="crispEdges"/><rect fill="#42285b" x="1183.4" y="904.3" width="24.4" height="24.65" shape-rendering="crispEdges"/><rect fill="#42285b" x="1207.8" y="904.3" width="12.2" height="24.65" shape-rendering="crispEdges"/><rect fill="#0f5b75" x="0" y="928.7" width="12.2" height="24.65" shape-rendering="crispEdges"/><rect fill="#0f5b75" x="12.2" y="928.7" width="0" height="24.65" shape-rendering="crispEdges"/><rect fill="#0f5b75" x="12.2" y="928.7" width="585.6" height="24.65" shape-rendering="crispEdges"/><rect fill="#0f5b75" x="597.8" y="928.7" width="12.2" height="24.65" shape-rendering="crispEdges"/><rect fill="#42285b" x="610" y="928.7" width="12.2" height="24.65" shape-rendering="crispEdges"/><rect fill="#42285b" x="622.2" y="928.7" width="0" height="24.65" shape-rendering="crispEdges"/><rect fill="#42285b" x="622.2" y="928.7" width="585.6" height="24.65" shape-rendering="crispEdges"/><rect fill="#42285b" x="1207.8" y="928.7" width="12.2" height="24.65" shape-rendering="crispEdges"/><rect fill="#0f5b75" x="0" y="953.1" width="12.2" height="24.65" shape-rendering="crispEdges"/><rect fill="#0f5b75" x="12.2" y="953.1" width="0" height="24.65" shape-rendering="crispEdges"/><rect fill="#0f5b75" x="12.2" y="953.1" width="585.6" height="24.65" shape-rendering="crispEdges"/><rect fill="#0f5b75" x="597.8" y="953.1" width="12.2" height="24.65" shape-rendering="crispEdges"/><rect fill="#42285b" x="610" y="953.1" width="12.2" height="24.65" shape-rendering="crispEdges"/><rect fill="#42285b" x="622.2" y="953.1" width="0" height="24.65" shape-rendering="crispEdges"/><rect fill="#42285b" x="622.2" y="953.1" width="585.6" height="24.65" shape-rendering="crispEdges"/><rect fill="#42285b" x="1207.8" y="953.1" width="12.2" height="24.65" shape-rendering="crispEdges"/><rect fill="#0f5b75" x="0" y="977.5" width="12.2" height="24.65" shape-rendering="crispEdges"/><rect fill="#0f5b75" x="12.2" y="977.5" width="0" height="24.65" shape-rendering="crispEdges"/><rect fill="#0f5b75" x="12.2" y="977.5" width="585.6" height="24.65" shape-rendering="crispEdges"/><rect fill="#0f5b75" x="597.8" y="977.5" width="12.2" height="24.65" shape-rendering="crispEdges"/><rect fill="#42285b" x="610" y="977.5" width="12.2" height="24.65" shape-rendering="crispEdges"/><rect fill="#42285b" x="622.2" y="977.5" width="0" height="24.65" shape-rendering="crispEdges"/><rect fill="#42285b" x="622.2" y="977.5" width="585.6" height="24.65" shape-rendering="crispEdges"/><rect fill="#42285b" x="1207.8" y="977.5" width="12.2" height="24.65" shape-rendering="crispEdges"/><rect fill="#0f5b75" x="0" y="1001.9" width="12.2" height="24.65" shape-rendering="crispEdges"/><rect fill="#0f5b75" x="12.2" y="1001.9" width="0" height="24.65" shape-rendering="crispEdges"/><rect fill="#0f5b75" x="12.2" y="1001.9" width="573.4" height="24.65" shape-rendering="crispEdges"/><rect fill="#0f5b75" x="585.6" y="1001.9" width="12.2" height="24.65" shape-rendering="crispEdges"/><rect fill="#0f5b75" x="597.8" y="1001.9" width="12.2" height="24.65" shape-rendering="crispEdges"/><rect fill="#42285b" x="610" y="1001.9" width="12.2" height="24.65" shape-rendering="crispEdges"/><rect fill="#42285b" x="622.2" y="1001.9" width="0" height="24.65" shape-rendering="crispEdges"/><rect fill="#42285b" x="622.2" y="1001.9" width="573.4" height="24.65" shape-rendering="crispEdges"/><rect fill="#42285b" x="1195.6" y="1001.9" width="12.2" height="24.65" shape-rendering="crispEdges"/><rect fill="#42285b" x="1207.8" y="1001.9" width="12.2" height="24.65" shape-rendering="crispEdges"/><rect fill="#0f5b75" x="0" y="1026.3" width="12.2" height="24.65" shape-rendering="crispEdges"/><rect fill="#0f5b75" x="12.2" y="1026.3" width="0" height="24.65" shape-rendering="crispEdges"/><rect fill="#0f5b75" x="12.2" y="1026.3" width="585.6" height="24.65" shape-rendering="crispEdges"/><rect fill="#0f5b75" x="597.8" y="1026.3" width="12.2" height="24.65" shape-rendering="crispEdges"/><rect fill="#42285b" x="610" y="1026.3" width="12.2" height="24.65" shape-rendering="crispEdges"/><rect fill="#42285b" x="622.2" y="1026.3" width="0" height="24.65" shape-rendering="crispEdges"/><rect fill="#42285b" x="622.2" y="1026.3" width="585.6" height="24.65" shape-rendering="crispEdges"/><rect fill="#42285b" x="1207.8" y="1026.3" width="12.2" height="24.65" shape-rendering="crispEdges"/><rect fill="#0f5b75" x="0" y="1050.7" width="12.2" height="24.65" shape-rendering="crispEdges"/><rect fill="#0f5b75" x="12.2" y="1050.7" width="0" height="24.65" shape-rendering="crispEdges"/><rect fill="#0f5b75" x="12.2" y="1050.7" width="488" height="24.65" shape-rendering="crispEdges"/><rect fill="#0f5b75" x="500.2" y="1050.7" width="97.6" height="24.65" shape-rendering="crispEdges"/><rect fill="#0f5b75" x="597.8" y="1050.7" width="12.2" height="24.65" shape-rendering="crispEdges"/><rect fill="#42285b" x="610" y="1050.7" width="12.2" height="24.65" shape-rendering="crispEdges"/><rect fill="#42285b" x="622.2" y="1050.7" width="0" height="24.65" shape-rendering="crispEdges"/><rect fill="#42285b" x="622.2" y="1050.7" width="488" height="24.65" shape-rendering="crispEdges"/><rect fill="#42285b" x="1110.2" y="1050.7" width="97.6" height="24.65" shape-rendering="crispEdges"/><rect fill="#42285b" x="1207.8" y="1050.7" width="12.2" height="24.65" shape-rendering="crispEdges"/><rect fill="#0f5b75" x="0" y="1075.1" width="610" height="24.65" shape-rendering="crispEdges"/><rect fill="#42285b" x="610" y="1075.1" width="610" height="24.65" shape-rendering="crispEdges"/>
    <g class="terminal-3295552634-matrix">
    <text class="terminal-3295552634-r1" x="1220" y="20" textLength="12.2" clip-path="url(#terminal-3295552634-line-0)">
</text><text class="terminal-3295552634-r1" x="1220" y="44.4" textLength="12.2" clip-path="url(#terminal-3295552634-line-1)">
</text><text class="terminal-3295552634-r2" x="793" y="68.8" textLength="244" clip-path="url(#terminal-3295552634-line-2)">Placeholder&#160;p2&#160;here!</text><text class="terminal-3295552634-r1" x="1220" y="68.8" textLength="12.2" clip-path="url(#terminal-3295552634-line-2)">
</text><text class="terminal-3295552634-r1" x="1220" y="93.2" textLength="12.2" clip-path="url(#terminal-3295552634-line-3)">
</text><text class="terminal-3295552634-r1" x="1220" y="117.6" textLength="12.2" clip-path="url(#terminal-3295552634-line-4)">
</text><text class="terminal-3295552634-r3" x="122" y="142" textLength="366" clip-path="url(#terminal-3295552634-line-5)">This&#160;is&#160;a&#160;custom&#160;label&#160;for&#160;p1.</text><text class="terminal-3295552634-r1" x="1220" y="142" textLength="12.2" clip-path="url(#terminal-3295552634-line-5)">
</text><text class="terminal-3295552634-r4" x="1049.2" y="166.4" textLength="36.6" clip-path="url(#terminal-3295552634-line-6)">#p4</text><text class="terminal-3295552634-r1" x="1220" y="166.4" textLength="12.2" clip-path="url(#terminal-3295552634-line-6)">
</text><text class="terminal-3295552634-r5" x="744.2" y="190.8" textLength="36.6" clip-path="url(#terminal-3295552634-line-7)">#p3</text><text class="terminal-3295552634-r1" x="1220" y="190.8" textLength="12.2" clip-path="url(#terminal-3295552634-line-7)">
</text><text class="terminal-3295552634-r1" x="1220" y="215.2" textLength="12.2" clip-path="url(#terminal-3295552634-line-8)">
</text><text class="terminal-3295552634-r6" x="963.8" y="239.6" textLength="36.6" clip-path="url(#terminal-3295552634-line-9)">#p5</text><text class="terminal-3295552634-r7" x="1073.6" y="239.6" textLength="134.2" clip-path="url(#terminal-3295552634-line-9)">Placeholder</text><text class="terminal-3295552634-r1" x="1220" y="239.6" textLength="12.2" clip-path="url(#terminal-3295552634-line-9)">
</text><text class="terminal-3295552634-r1" x="1220" y="264" textLength="12.2" clip-path="url(#terminal-3295552634-line-10)">
</text><text class="terminal-3295552634-r1" x="1220" y="288.4" textLength="12.2" clip-path="url(#terminal-3295552634-line-11)">
</text><text class="terminal-3295552634-r8" x="414.8" y="312.8" textLength="341.6" clip-path="url(#terminal-3295552634-line-12)">Lorem&#160;ipsum&#160;dolor&#160;sit&#160;amet,&#160;</text><text class="terminal-3295552634-r1" x="1220" y="312.8" textLength="12.2" clip-path="url(#terminal-3295552634-line-12)">
</text><text class="terminal-3295552634-r8" x="414.8" y="337.2" textLength="353.8" clip-path="url(#terminal-3295552634-line-13)">consectetur&#160;adipiscing&#160;elit.&#160;</text><text class="terminal-3295552634-r1" x="1220" y="337.2" textLength="12.2" clip-path="url(#terminal-3295552634-line-13)">
</text><text class="terminal-3295552634-r8" x="414.8" y="361.6" textLength="378.2" clip-path="url(#terminal-3295552634-line-14)">Etiam&#160;feugiat&#160;ac&#160;elit&#160;sit&#160;amet&#160;</text><text class="terminal-3295552634-r1" x="1220" y="361.6" textLength="12.2" clip-path="url(#terminal-3295552634-line-14)">
</text><text class="terminal-3295552634-r8" x="414.8" y="386" textLength="378.2" clip-path="url(#terminal-3295552634-line-15)">accumsan.&#160;Suspendisse&#160;bibendum&#160;</text><text class="terminal-3295552634-r1" x="1220" y="386" textLength="12.2" clip-path="url(#terminal-3295552634-line-15)">
</text><text class="terminal-3295552634-r9" x="158.6" y="410.4" textLength="85.4" clip-path="url(#terminal-3295552634-line-16)">33&#160;x&#160;11</text><text class="terminal-3295552634-r8" x="414.8" y="410.4" textLength="305" clip-path="url(#terminal-3295552634-line-16)">nec&#160;libero&#160;quis&#160;gravida.&#160;</text><text class="terminal-3295552634-r10" x="963.8" y="410.4" textLength="85.4" clip-path="url(#terminal-3295552634-line-16)">34&#160;x&#160;11</text><text class="terminal-3295552634-r1" x="1220" y="410.4" textLength="12.2" clip-path="url(#terminal-3295552634-line-16)">
</text><text class="terminal-3295552634-r8" x="414.8" y="434.8" textLength="366" clip-path="url(#terminal-3295552634-line-17)">Phasellus&#160;id&#160;eleifend&#160;ligula.&#160;</text><text class="terminal-3295552634-r1" x="1220" y="434.8" textLength="12.2" clip-path="url(#terminal-3295552634-line-17)">
</text><text class="terminal-3295552634-r8" x="414.8" y="459.2" textLength="353.8" clip-path="url(#terminal-3295552634-line-18)">Nullam&#160;imperdiet&#160;sem&#160;tellus,&#160;</text><text class="terminal-3295552634-r1" x="1220" y="459.2" textLength="12.2" clip-path="url(#terminal-3295552634-line-18)">
</text><text class="terminal-3295552634-r8" x="414.8" y="483.6" textLength="378.2" clip-path="url(#terminal-3295552634-line-19)">sed&#160;vehicula&#160;nisl&#160;faucibus&#160;sit&#160;</text><text class="terminal-3295552634-r1" x="1220" y="483.6" textLength="12.2" clip-path="url(#terminal-3295552634-line-19)">
</text><text class="terminal-3295552634-r8" x="414.8" y="508" textLength="366" clip-path="url(#terminal-3295552634-line-20)">amet.&#160;Praesent&#160;iaculis&#160;tempor&#160;</text><text class="terminal-3295552634-r1" x="1220" y="508" textLength="12.2" clip-path="url(#terminal-3295552634-line-20)">
</text><text class="terminal-3295552634-r1" x="1220" y="532.4" textLength="12.2" clip-path="url(#terminal-3295552634-line-21)">
</text><text class="terminal-3295552634-r1" x="1220" y="556.8" textLength="12.2" clip-path="url(#terminal-3295552634-line-22)">
</text><text class="terminal-3295552634-r11" x="12.2" y="581.2" textLength="488" clip-path="url(#terminal-3295552634-line-23)">Lorem&#160;ipsum&#160;dolor&#160;sit&#160;amet,&#160;consectetur&#160;</text><text class="terminal-3295552634-r1" x="1220" y="581.2" textLength="12.2" clip-path="url(#terminal-3295552634-line-23)">
</text><text class="terminal-3295552634-r11" x="12.2" y="605.6" textLength="585.6" clip-path="url(#terminal-3295552634-line-24)">adipiscing&#160;elit.&#160;Etiam&#160;feugiat&#160;ac&#160;elit&#160;sit&#160;amet&#160;</text><text class="terminal-3295552634-r1" x="1220" y="605.6" textLength="12.2" clip-path="url(#terminal-3295552634-line-24)">
</text><text class="terminal-3295552634-r11" x="12.2" y="630" textLength="573.4" clip-path="url(#terminal-3295552634-line-25)">accumsan.&#160;Suspendisse&#160;bibendum&#160;nec&#160;libero&#160;quis&#160;</text><text class="terminal-3295552634-r1" x="1220" y="630" textLength="12.2" clip-path="url(#terminal-3295552634-line-25)">
</text><text class="terminal-3295552634-r11" x="12.2" y="654.4" textLength="561.2" clip-path="url(#terminal-3295552634-line-26)">gravida.&#160;Phasellus&#160;id&#160;eleifend&#160;ligula.&#160;Nullam&#160;</text><text class="terminal-3295552634-r1" x="1220" y="654.4" textLength="12.2" clip-path="url(#terminal-3295552634-line-26)">
</text><text class="terminal-3295552634-r11" x="12.2" y="678.8" textLength="585.6" clip-path="url(#terminal-3295552634-line-27)">imperdiet&#160;sem&#160;tellus,&#160;sed&#160;vehicula&#160;nisl&#160;faucibus</text><text class="terminal-3295552634-r12" x="866.2" y="678.8" textLength="85.4" clip-path="url(#terminal-3295552634-line-27)">50&#160;x&#160;11</text><text class="terminal-3295552634-r1" x="1220" y="678.8" textLength="12.2" clip-path="url(#terminal-3295552634-line-27)">
</text><text class="terminal-3295552634-r11" x="12.2" y="703.2" textLength="585.6" clip-path="url(#terminal-3295552634-line-28)">sit&#160;amet.&#160;Praesent&#160;iaculis&#160;tempor&#160;ultricies.&#160;Sed</text><text class="terminal-3295552634-r1" x="1220" y="703.2" textLength="12.2" clip-path="url(#terminal-3295552634-line-28)">
</text><text class="terminal-3295552634-r11" x="12.2" y="727.6" textLength="585.6" clip-path="url(#terminal-3295552634-line-29)">lacinia,&#160;tellus&#160;id&#160;rutrum&#160;lacinia,&#160;sapien&#160;sapien</text><text class="terminal-3295552634-r1" x="1220" y="727.6" textLength="12.2" clip-path="url(#terminal-3295552634-line-29)">
</text><text class="terminal-3295552634-r11" x="12.2" y="752" textLength="573.4" clip-path="url(#terminal-3295552634-line-30)">congue&#160;mauris,&#160;sit&#160;amet&#160;pellentesque&#160;quam&#160;quam&#160;</text><text class="terminal-3295552634-r1" x="1220" y="752" textLength="12.2" clip-path="url(#terminal-3295552634-line-30)">
</text><text class="terminal-3295552634-r11" x="12.2" y="776.4" textLength="585.6" clip-path="url(#terminal-3295552634-line-31)">vel&#160;nisl.&#160;Curabitur&#160;vulputate&#160;erat&#160;pellentesque&#160;</text><text class="terminal-3295552634-r1" x="1220" y="776.4" textLength="12.2" clip-path="url(#terminal-3295552634-line-31)">
</text><text class="terminal-3295552634-r11" x="12.2" y="800.8" textLength="488" clip-path="url(#terminal-3295552634-line-32)">mauris&#160;posuere,&#160;non&#160;dictum&#160;risus&#160;mattis.</text><text class="terminal-3295552634-r1" x="1220" y="800.8" textLength="12.2" clip-path="url(#terminal-3295552634-line-32)">
</text><text class="terminal-3295552634-r1" x="1220" y="825.2" textLength="12.2" clip-path="url(#terminal-3295552634-line-33)">
</text><text class="terminal-3295552634-r11" x="12.2" y="849.6" textLength="488" clip-path="url(#terminal-3295552634-line-34)">Lorem&#160;ipsum&#160;dolor&#160;sit&#160;amet,&#160;consectetur&#160;</text><text class="terminal-3295552634-r13" x="622.2" y="849.6" textLength="488" clip-path="url(#terminal-3295552634-line-34)">Lorem&#160;ipsum&#160;dolor&#160;sit&#160;amet,&#160;consectetur&#160;</text><text class="terminal-3295552634-r1" x="1220" y="849.6" textLength="12.2" clip-path="url(#terminal-3295552634-line-34)">
</text><text class="terminal-3295552634-r11" x="12.2" y="874" textLength="585.6" clip-path="url(#terminal-3295552634-line-35)">adipiscing&#160;elit.&#160;Etiam&#160;feugiat&#160;ac&#160;elit&#160;sit&#160;amet&#160;</text><text class="terminal-3295552634-r13" x="622.2" y="874" textLength="585.6" clip-path="url(#terminal-3295552634-line-35)">adipiscing&#160;elit.&#160;Etiam&#160;feugiat&#160;ac&#160;elit&#160;sit&#160;amet&#160;</text><text class="terminal-3295552634-r1" x="1220" y="874" textLength="12.2" clip-path="url(#terminal-3295552634-line-35)">
</text><text class="terminal-3295552634-r11" x="12.2" y="898.4" textLength="573.4" clip-path="url(#terminal-3295552634-line-36)">accumsan.&#160;Suspendisse&#160;bibendum&#160;nec&#160;libero&#160;quis&#160;</text><text class="terminal-3295552634-r13" x="622.2" y="898.4" textLength="573.4" clip-path="url(#terminal-3295552634-line-36)">accumsan.&#160;Suspendisse&#160;bibendum&#160;nec&#160;libero&#160;quis&#160;</text><text class="terminal-3295552634-r1" x="1220" y="898.4" textLength="12.2" clip-path="url(#terminal-3295552634-line-36)">
</text><text class="terminal-3295552634-r11" x="12.2" y="922.8" textLength="561.2" clip-path="url(#terminal-3295552634-line-37)">gravida.&#160;Phasellus&#160;id&#160;eleifend&#160;ligula.&#160;Nullam&#160;</text><text class="terminal-3295552634-r13" x="622.2" y="922.8" textLength="561.2" clip-path="url(#terminal-3295552634-line-37)">gravida.&#160;Phasellus&#160;id&#160;eleifend&#160;ligula.&#160;Nullam&#160;</text><text class="terminal-3295552634-r1" x="1220" y="922.8" textLength="12.2" clip-path="url(#terminal-3295552634-line-37)">
</text><text class="terminal-3295552634-r11" x="12.2" y="947.2" textLength="585.6" clip-path="url(#terminal-3295552634-line-38)">imperdiet&#160;sem&#160;tellus,&#160;sed&#160;vehicula&#160;nisl&#160;faucibus</text><text class="terminal-3295552634-r13" x="622.2" y="947.2" textLength="585.6" clip-path="url(#terminal-3295552634-line-38)">imperdiet&#160;sem&#160;tellus,&#160;sed&#160;vehicula&#160;nisl&#160;faucibus</text><text class="terminal-3295552634-r1" x="1220" y="947.2" textLength="12.2" clip-path="url(#terminal-3295552634-line-38)">
</text><text class="terminal-3295552634-r11" x="12.2" y="971.6" textLength="585.6" clip-path="url(#terminal-3295552634-line-39)">sit&#160;amet.&#160;Praesent&#160;iaculis&#160;tempor&#160;ultricies.&#160;Sed</text><text class="terminal-3295552634-r13" x="622.2" y="971.6" textLength="585.6" clip-path="url(#terminal-3295552634-line-39)">sit&#160;amet.&#160;Praesent&#160;iaculis&#160;tempor&#160;ultricies.&#160;Sed</text><text class="terminal-3295552634-r1" x="1220" y="971.6" textLength="12.2" clip-path="url(#terminal-3295552634-line-39)">
</text><text class="terminal-3295552634-r11" x="12.2" y="996" textLength="585.6" clip-path="url(#terminal-3295552634-line-40)">lacinia,&#160;tellus&#160;id&#160;rutrum&#160;lacinia,&#160;sapien&#160;sapien</text><text class="terminal-3295552634-r13" x="622.2" y="996" textLength="585.6" clip-path="url(#terminal-3295552634-line-40)">lacinia,&#160;tellus&#160;id&#160;rutrum&#160;lacinia,&#160;sapien&#160;sapien</text><text class="terminal-3295552634-r1" x="1220" y="996" textLength="12.2" clip-path="url(#terminal-3295552634-line-40)">
</text><text class="terminal-3295552634-r11" x="12.2" y="1020.4" textLength="573.4" clip-path="url(#terminal-3295552634-line-41)">congue&#160;mauris,&#160;sit&#160;amet&#160;pellentesque&#160;quam&#160;quam&#160;</text><text class="terminal-3295552634-r13" x="622.2" y="1020.4" textLength="573.4" clip-path="url(#terminal-3295552634-line-41)">congue&#160;mauris,&#160;sit&#160;amet&#160;pellentesque&#160;quam&#160;quam&#160;</text><text class="terminal-3295552634-r1" x="1220" y="1020.4" textLength="12.2" clip-path="url(#terminal-3295552634-line-41)">
</text><text class="terminal-3295552634-r11" x="12.2" y="1044.8" textLength="585.6" clip-path="url(#terminal-3295552634-line-42)">vel&#160;nisl.&#160;Curabitur&#160;vulputate&#160;erat&#160;pellentesque&#160;</text><text class="terminal-3295552634-r13" x="622.2" y="1044.8" textLength="585.6" clip-path="url(#terminal-3295552634-line-42)">vel&#160;nisl.&#160;Curabitur&#160;vulputate&#160;erat&#160;pellentesque&#160;</text><text class="terminal-3295552634-r1" x="1220" y="1044.8" textLength="12.2" clip-path="url(#terminal-3295552634-line-42)">
</text><text class="terminal-3295552634-r11" x="12.2" y="1069.2" textLength="488" clip-path="url(#terminal-3295552634-line-43)">mauris&#160;posuere,&#160;non&#160;dictum&#160;risus&#160;mattis.</text><text class="terminal-3295552634-r13" x="622.2" y="1069.2" textLength="488" clip-path="url(#terminal-3295552634-line-43)">mauris&#160;posuere,&#160;non&#160;dictum&#160;risus&#160;mattis.</text><text class="terminal-3295552634-r1" x="1220" y="1069.2" textLength="12.2" clip-path="url(#terminal-3295552634-line-43)">
</text>
    </g>
    </g>
</svg>
