<svg class="rich-terminal" viewBox="0 0 994 635.5999999999999" xmlns="http://www.w3.org/2000/svg">
    <!-- Generated with Rich https://www.textualize.io -->
    <style>

    @font-face {
        font-family: "Fira Code";
        src: local("FiraCode-Regular"),
                url("https://cdnjs.cloudflare.com/ajax/libs/firacode/6.2.0/woff2/FiraCode-Regular.woff2") format("woff2"),
                url("https://cdnjs.cloudflare.com/ajax/libs/firacode/6.2.0/woff/FiraCode-Regular.woff") format("woff");
        font-style: normal;
        font-weight: 400;
    }
    @font-face {
        font-family: "Fira Code";
        src: local("FiraCode-Bold"),
                url("https://cdnjs.cloudflare.com/ajax/libs/firacode/6.2.0/woff2/FiraCode-Bold.woff2") format("woff2"),
                url("https://cdnjs.cloudflare.com/ajax/libs/firacode/6.2.0/woff/FiraCode-Bold.woff") format("woff");
        font-style: bold;
        font-weight: 700;
    }

    .terminal-2658934836-matrix {
        font-family: Fira Code, monospace;
        font-size: 20px;
        line-height: 24.4px;
        font-variant-east-asian: full-width;
    }

    .terminal-2658934836-title {
        font-size: 18px;
        font-weight: bold;
        font-family: arial;
    }

    .terminal-2658934836-r1 { fill: #e1e1e1 }
.terminal-2658934836-r2 { fill: #c5c8c6 }
.terminal-2658934836-r3 { fill: #1e1e1e }
.terminal-2658934836-r4 { fill: #b93c5b }
.terminal-2658934836-r5 { fill: #e2e2e2 }
.terminal-2658934836-r6 { fill: #e1e1e1;font-weight: bold }
.terminal-2658934836-r7 { fill: #98a84b }
    </style>

    <defs>
    <clipPath id="terminal-2658934836-clip-terminal">
      <rect x="0" y="0" width="975.0" height="584.5999999999999" />
    </clipPath>
    <clipPath id="terminal-2658934836-line-0">
    <rect x="0" y="1.5" width="976" height="24.65"/>
            </clipPath>
<clipPath id="terminal-2658934836-line-1">
    <rect x="0" y="25.9" width="976" height="24.65"/>
            </clipPath>
<clipPath id="terminal-2658934836-line-2">
    <rect x="0" y="50.3" width="976" height="24.65"/>
            </clipPath>
<clipPath id="terminal-2658934836-line-3">
    <rect x="0" y="74.7" width="976" height="24.65"/>
            </clipPath>
<clipPath id="terminal-2658934836-line-4">
    <rect x="0" y="99.1" width="976" height="24.65"/>
            </clipPath>
<clipPath id="terminal-2658934836-line-5">
    <rect x="0" y="123.5" width="976" height="24.65"/>
            </clipPath>
<clipPath id="terminal-2658934836-line-6">
    <rect x="0" y="147.9" width="976" height="24.65"/>
            </clipPath>
<clipPath id="terminal-2658934836-line-7">
    <rect x="0" y="172.3" width="976" height="24.65"/>
            </clipPath>
<clipPath id="terminal-2658934836-line-8">
    <rect x="0" y="196.7" width="976" height="24.65"/>
            </clipPath>
<clipPath id="terminal-2658934836-line-9">
    <rect x="0" y="221.1" width="976" height="24.65"/>
            </clipPath>
<clipPath id="terminal-2658934836-line-10">
    <rect x="0" y="245.5" width="976" height="24.65"/>
            </clipPath>
<clipPath id="terminal-2658934836-line-11">
    <rect x="0" y="269.9" width="976" height="24.65"/>
            </clipPath>
<clipPath id="terminal-2658934836-line-12">
    <rect x="0" y="294.3" width="976" height="24.65"/>
            </clipPath>
<clipPath id="terminal-2658934836-line-13">
    <rect x="0" y="318.7" width="976" height="24.65"/>
            </clipPath>
<clipPath id="terminal-2658934836-line-14">
    <rect x="0" y="343.1" width="976" height="24.65"/>
            </clipPath>
<clipPath id="terminal-2658934836-line-15">
    <rect x="0" y="367.5" width="976" height="24.65"/>
            </clipPath>
<clipPath id="terminal-2658934836-line-16">
    <rect x="0" y="391.9" width="976" height="24.65"/>
            </clipPath>
<clipPath id="terminal-2658934836-line-17">
    <rect x="0" y="416.3" width="976" height="24.65"/>
            </clipPath>
<clipPath id="terminal-2658934836-line-18">
    <rect x="0" y="440.7" width="976" height="24.65"/>
            </clipPath>
<clipPath id="terminal-2658934836-line-19">
    <rect x="0" y="465.1" width="976" height="24.65"/>
            </clipPath>
<clipPath id="terminal-2658934836-line-20">
    <rect x="0" y="489.5" width="976" height="24.65"/>
            </clipPath>
<clipPath id="terminal-2658934836-line-21">
    <rect x="0" y="513.9" width="976" height="24.65"/>
            </clipPath>
<clipPath id="terminal-2658934836-line-22">
    <rect x="0" y="538.3" width="976" height="24.65"/>
            </clipPath>
    </defs>

    <rect fill="#292929" stroke="rgba(255,255,255,0.35)" stroke-width="1" x="1" y="1" width="992" height="633.6" rx="8"/><text class="terminal-2658934836-title" fill="#c5c8c6" text-anchor="middle" x="496" y="27">InputApp</text>
            <g transform="translate(26,22)">
            <circle cx="0" cy="0" r="7" fill="#ff5f57"/>
            <circle cx="22" cy="0" r="7" fill="#febc2e"/>
            <circle cx="44" cy="0" r="7" fill="#28c840"/>
            </g>
        
    <g transform="translate(9, 41)" clip-path="url(#terminal-2658934836-clip-terminal)">
    <rect fill="#1e1e1e" x="0" y="1.5" width="976" height="24.65" shape-rendering="crispEdges"/><rect fill="#1e1e1e" x="0" y="25.9" width="24.4" height="24.65" shape-rendering="crispEdges"/><rect fill="#1e1e1e" x="24.4" y="25.9" width="793" height="24.65" shape-rendering="crispEdges"/><rect fill="#1e1e1e" x="817.4" y="25.9" width="158.6" height="24.65" shape-rendering="crispEdges"/><rect fill="#1e1e1e" x="0" y="50.3" width="976" height="24.65" shape-rendering="crispEdges"/><rect fill="#1e1e1e" x="0" y="74.7" width="12.2" height="24.65" shape-rendering="crispEdges"/><rect fill="#b93c5b" x="12.2" y="74.7" width="12.2" height="24.65" shape-rendering="crispEdges"/><rect fill="#262626" x="24.4" y="74.7" width="927.2" height="24.65" shape-rendering="crispEdges"/><rect fill="#1e1e1e" x="951.6" y="74.7" width="12.2" height="24.65" shape-rendering="crispEdges"/><rect fill="#1e1e1e" x="963.8" y="74.7" width="12.2" height="24.65" shape-rendering="crispEdges"/><rect fill="#1e1e1e" x="0" y="99.1" width="12.2" height="24.65" shape-rendering="crispEdges"/><rect fill="#b93c5b" x="12.2" y="99.1" width="12.2" height="24.65" shape-rendering="crispEdges"/><rect fill="#262626" x="24.4" y="99.1" width="24.4" height="24.65" shape-rendering="crispEdges"/><rect fill="#262626" x="48.8" y="99.1" width="36.6" height="24.65" shape-rendering="crispEdges"/><rect fill="#e1e1e1" x="85.4" y="99.1" width="12.2" height="24.65" shape-rendering="crispEdges"/><rect fill="#262626" x="97.6" y="99.1" width="829.6" height="24.65" shape-rendering="crispEdges"/><rect fill="#262626" x="927.2" y="99.1" width="24.4" height="24.65" shape-rendering="crispEdges"/><rect fill="#1e1e1e" x="951.6" y="99.1" width="12.2" height="24.65" shape-rendering="crispEdges"/><rect fill="#1e1e1e" x="963.8" y="99.1" width="12.2" height="24.65" shape-rendering="crispEdges"/><rect fill="#1e1e1e" x="0" y="123.5" width="12.2" height="24.65" shape-rendering="crispEdges"/><rect fill="#b93c5b" x="12.2" y="123.5" width="12.2" height="24.65" shape-rendering="crispEdges"/><rect fill="#262626" x="24.4" y="123.5" width="927.2" height="24.65" shape-rendering="crispEdges"/><rect fill="#1e1e1e" x="951.6" y="123.5" width="12.2" height="24.65" shape-rendering="crispEdges"/><rect fill="#1e1e1e" x="963.8" y="123.5" width="12.2" height="24.65" shape-rendering="crispEdges"/><rect fill="#1e1e1e" x="0" y="147.9" width="976" height="24.65" shape-rendering="crispEdges"/><rect fill="#1e1e1e" x="0" y="172.3" width="24.4" height="24.65" shape-rendering="crispEdges"/><rect fill="#1e1e1e" x="24.4" y="172.3" width="12.2" height="24.65" shape-rendering="crispEdges"/><rect fill="#1e1e1e" x="36.6" y="172.3" width="915" height="24.65" shape-rendering="crispEdges"/><rect fill="#1e1e1e" x="951.6" y="172.3" width="24.4" height="24.65" shape-rendering="crispEdges"/><rect fill="#1e1e1e" x="0" y="196.7" width="24.4" height="24.65" shape-rendering="crispEdges"/><rect fill="#1e1e1e" x="24.4" y="196.7" width="48.8" height="24.65" shape-rendering="crispEdges"/><rect fill="#1e1e1e" x="73.2" y="196.7" width="341.6" height="24.65" shape-rendering="crispEdges"/><rect fill="#1e1e1e" x="414.8" y="196.7" width="12.2" height="24.65" shape-rendering="crispEdges"/><rect fill="#1e1e1e" x="427" y="196.7" width="524.6" height="24.65" shape-rendering="crispEdges"/><rect fill="#1e1e1e" x="951.6" y="196.7" width="24.4" height="24.65" shape-rendering="crispEdges"/><rect fill="#1e1e1e" x="0" y="221.1" width="24.4" height="24.65" shape-rendering="crispEdges"/><rect fill="#1e1e1e" x="24.4" y="221.1" width="48.8" height="24.65" shape-rendering="crispEdges"/><rect fill="#1e1e1e" x="73.2" y="221.1" width="244" height="24.65" shape-rendering="crispEdges"/><rect fill="#1e1e1e" x="317.2" y="221.1" width="12.2" height="24.65" shape-rendering="crispEdges"/><rect fill="#1e1e1e" x="329.4" y="221.1" width="622.2" height="24.65" shape-rendering="crispEdges"/><rect fill="#1e1e1e" x="951.6" y="221.1" width="24.4" height="24.65" shape-rendering="crispEdges"/><rect fill="#1e1e1e" x="0" y="245.5" width="24.4" height="24.65" shape-rendering="crispEdges"/><rect fill="#1e1e1e" x="24.4" y="245.5" width="48.8" height="24.65" shape-rendering="crispEdges"/><rect fill="#1e1e1e" x="73.2" y="245.5" width="341.6" height="24.65" shape-rendering="crispEdges"/><rect fill="#1e1e1e" x="414.8" y="245.5" width="536.8" height="24.65" shape-rendering="crispEdges"/><rect fill="#1e1e1e" x="951.6" y="245.5" width="24.4" height="24.65" shape-rendering="crispEdges"/><rect fill="#1e1e1e" x="0" y="269.9" width="24.4" height="24.65" shape-rendering="crispEdges"/><rect fill="#1e1e1e" x="24.4" y="269.9" width="12.2" height="24.65" shape-rendering="crispEdges"/><rect fill="#1e1e1e" x="36.6" y="269.9" width="915" height="24.65" shape-rendering="crispEdges"/><rect fill="#1e1e1e" x="951.6" y="269.9" width="24.4" height="24.65" shape-rendering="crispEdges"/><rect fill="#1e1e1e" x="0" y="294.3" width="976" height="24.65" shape-rendering="crispEdges"/><rect fill="#1e1e1e" x="0" y="318.7" width="976" height="24.65" shape-rendering="crispEdges"/><rect fill="#1e1e1e" x="0" y="343.1" width="976" height="24.65" shape-rendering="crispEdges"/><rect fill="#1e1e1e" x="0" y="367.5" width="976" height="24.65" shape-rendering="crispEdges"/><rect fill="#1e1e1e" x="0" y="391.9" width="976" height="24.65" shape-rendering="crispEdges"/><rect fill="#1e1e1e" x="0" y="416.3" width="976" height="24.65" shape-rendering="crispEdges"/><rect fill="#1e1e1e" x="0" y="440.7" width="976" height="24.65" shape-rendering="crispEdges"/><rect fill="#1e1e1e" x="0" y="465.1" width="976" height="24.65" shape-rendering="crispEdges"/><rect fill="#1e1e1e" x="0" y="489.5" width="976" height="24.65" shape-rendering="crispEdges"/><rect fill="#1e1e1e" x="0" y="513.9" width="976" height="24.65" shape-rendering="crispEdges"/><rect fill="#1e1e1e" x="0" y="538.3" width="976" height="24.65" shape-rendering="crispEdges"/><rect fill="#1e1e1e" x="0" y="562.7" width="976" height="24.65" shape-rendering="crispEdges"/>
    <g class="terminal-2658934836-matrix">
    <text class="terminal-2658934836-r2" x="976" y="20" textLength="12.2" clip-path="url(#terminal-2658934836-line-0)">
</text><text class="terminal-2658934836-r1" x="24.4" y="44.4" textLength="793" clip-path="url(#terminal-2658934836-line-1)">Enter&#160;an&#160;even&#160;number&#160;between&#160;1&#160;and&#160;100&#160;that&#160;is&#160;also&#160;a&#160;palindrome.</text><text class="terminal-2658934836-r2" x="976" y="44.4" textLength="12.2" clip-path="url(#terminal-2658934836-line-1)">
</text><text class="terminal-2658934836-r2" x="976" y="68.8" textLength="12.2" clip-path="url(#terminal-2658934836-line-2)">
</text><text class="terminal-2658934836-r3" x="12.2" y="93.2" textLength="12.2" clip-path="url(#terminal-2658934836-line-3)">▊</text><text class="terminal-2658934836-r4" x="24.4" y="93.2" textLength="927.2" clip-path="url(#terminal-2658934836-line-3)">▔▔▔▔▔▔▔▔▔▔▔▔▔▔▔▔▔▔▔▔▔▔▔▔▔▔▔▔▔▔▔▔▔▔▔▔▔▔▔▔▔▔▔▔▔▔▔▔▔▔▔▔▔▔▔▔▔▔▔▔▔▔▔▔▔▔▔▔▔▔▔▔▔▔▔▔</text><text class="terminal-2658934836-r4" x="951.6" y="93.2" textLength="12.2" clip-path="url(#terminal-2658934836-line-3)">▎</text><text class="terminal-2658934836-r2" x="976" y="93.2" textLength="12.2" clip-path="url(#terminal-2658934836-line-3)">
</text><text class="terminal-2658934836-r3" x="12.2" y="117.6" textLength="12.2" clip-path="url(#terminal-2658934836-line-4)">▊</text><text class="terminal-2658934836-r5" x="48.8" y="117.6" textLength="36.6" clip-path="url(#terminal-2658934836-line-4)">-23</text><text class="terminal-2658934836-r4" x="951.6" y="117.6" textLength="12.2" clip-path="url(#terminal-2658934836-line-4)">▎</text><text class="terminal-2658934836-r2" x="976" y="117.6" textLength="12.2" clip-path="url(#terminal-2658934836-line-4)">
</text><text class="terminal-2658934836-r3" x="12.2" y="142" textLength="12.2" clip-path="url(#terminal-2658934836-line-5)">▊</text><text class="terminal-2658934836-r4" x="24.4" y="142" textLength="927.2" clip-path="url(#terminal-2658934836-line-5)">▁▁▁▁▁▁▁▁▁▁▁▁▁▁▁▁▁▁▁▁▁▁▁▁▁▁▁▁▁▁▁▁▁▁▁▁▁▁▁▁▁▁▁▁▁▁▁▁▁▁▁▁▁▁▁▁▁▁▁▁▁▁▁▁▁▁▁▁▁▁▁▁▁▁▁▁</text><text class="terminal-2658934836-r4" x="951.6" y="142" textLength="12.2" clip-path="url(#terminal-2658934836-line-5)">▎</text><text class="terminal-2658934836-r2" x="976" y="142" textLength="12.2" clip-path="url(#terminal-2658934836-line-5)">
</text><text class="terminal-2658934836-r2" x="976" y="166.4" textLength="12.2" clip-path="url(#terminal-2658934836-line-6)">
</text><text class="terminal-2658934836-r6" x="24.4" y="190.8" textLength="12.2" clip-path="url(#terminal-2658934836-line-7)">[</text><text class="terminal-2658934836-r2" x="976" y="190.8" textLength="12.2" clip-path="url(#terminal-2658934836-line-7)">
</text><text class="terminal-2658934836-r7" x="73.2" y="215.2" textLength="341.6" clip-path="url(#terminal-2658934836-line-8)">&#x27;Must&#160;be&#160;between&#160;1&#160;and&#160;100.&#x27;</text><text class="terminal-2658934836-r1" x="414.8" y="215.2" textLength="12.2" clip-path="url(#terminal-2658934836-line-8)">,</text><text class="terminal-2658934836-r2" x="976" y="215.2" textLength="12.2" clip-path="url(#terminal-2658934836-line-8)">
</text><text class="terminal-2658934836-r7" x="73.2" y="239.6" textLength="244" clip-path="url(#terminal-2658934836-line-9)">&#x27;Value&#160;is&#160;not&#160;even.&#x27;</text><text class="terminal-2658934836-r1" x="317.2" y="239.6" textLength="12.2" clip-path="url(#terminal-2658934836-line-9)">,</text><text class="terminal-2658934836-r2" x="976" y="239.6" textLength="12.2" clip-path="url(#terminal-2658934836-line-9)">
</text><text class="terminal-2658934836-r7" x="73.2" y="264" textLength="341.6" clip-path="url(#terminal-2658934836-line-10)">&quot;That&#x27;s&#160;not&#160;a&#160;palindrome&#160;:/&quot;</text><text class="terminal-2658934836-r2" x="976" y="264" textLength="12.2" clip-path="url(#terminal-2658934836-line-10)">
</text><text class="terminal-2658934836-r6" x="24.4" y="288.4" textLength="12.2" clip-path="url(#terminal-2658934836-line-11)">]</text><text class="terminal-2658934836-r2" x="976" y="288.4" textLength="12.2" clip-path="url(#terminal-2658934836-line-11)">
</text><text class="terminal-2658934836-r2" x="976" y="312.8" textLength="12.2" clip-path="url(#terminal-2658934836-line-12)">
</text><text class="terminal-2658934836-r2" x="976" y="337.2" textLength="12.2" clip-path="url(#terminal-2658934836-line-13)">
</text><text class="terminal-2658934836-r2" x="976" y="361.6" textLength="12.2" clip-path="url(#terminal-2658934836-line-14)">
</text><text class="terminal-2658934836-r2" x="976" y="386" textLength="12.2" clip-path="url(#terminal-2658934836-line-15)">
</text><text class="terminal-2658934836-r2" x="976" y="410.4" textLength="12.2" clip-path="url(#terminal-2658934836-line-16)">
</text><text class="terminal-2658934836-r2" x="976" y="434.8" textLength="12.2" clip-path="url(#terminal-2658934836-line-17)">
</text><text class="terminal-2658934836-r2" x="976" y="459.2" textLength="12.2" clip-path="url(#terminal-2658934836-line-18)">
</text><text class="terminal-2658934836-r2" x="976" y="483.6" textLength="12.2" clip-path="url(#terminal-2658934836-line-19)">
</text><text class="terminal-2658934836-r2" x="976" y="508" textLength="12.2" clip-path="url(#terminal-2658934836-line-20)">
</text><text class="terminal-2658934836-r2" x="976" y="532.4" textLength="12.2" clip-path="url(#terminal-2658934836-line-21)">
</text><text class="terminal-2658934836-r2" x="976" y="556.8" textLength="12.2" clip-path="url(#terminal-2658934836-line-22)">
</text>
    </g>
    </g>
</svg>
