**ABCDEFGHIJKLMNOPQRSTUVWXYZabcdefghijklmnopqrstuvwxyz**************************
**PARASOLID !"#$%&'()*+,-./:;<=>?@[\]^_`{|}~0123456789**************************
**PART1;
MC=unknown;
MC_MODEL=unknown;
MC_ID=unknown;
OS=unknown;
OS_RELEASE=unknown;
FRU=sdl_parasolid_customer_support;
APPL=Example Application;
SITE=unknown;
USER=unknown;
FORMAT=text;
GUISE=transmit;
KEY=e:\pyfemtet\brepmatching_pyfemtet\brepmatching_local\pyfemtet_scripts\data\dataset_to_predict\dataset\data\BrepsWithReference\modelV1.x_t;
FILE=e:\pyfemtet\brepmatching_pyfemtet\brepmatching_local\pyfemtet_scripts\data\dataset_to_predict\dataset\data\BrepsWithReference\modelV1.x_t;
DATE=unknown;
**PART2;
SCH=SCH_3001220_30100;
USFLD_SIZE=0;
**PART3;
**END_OF_HEADER*****************************************************************
T51 : TRANSMIT FILE created by modeller version 300122023 SCH_3001220_30100_1300
6214 0 12 34 CCCCCCI4 mesh1006 0 I8 polyline1008 0 CCCCCCCDI5 owner1040 0 CCCCCC
I13 boundary_mesh1006 0 I17 boundary_polyline1008 0 CCCA16 index_map_offset0 0 1
 dA9 index_map82 0 A17 node_id_index_map82 0 A20 schema_embedding_map82 0 A5 chi
ld12 0 A14 lowest_node_id0 0 1 dA16 mesh_offset_data206 0 Z1 888 2 3 0 0 0 0 0 0
 1e3 1e-8 0 4 0 1 0 1 1 5 6 7 8 0 0 9 10 11 0 0 0 0 0 0 0 81 255 2 2 772 12 1 13
 0 0 0 0 14 70 11 CI9 list_type0 0 1 uI10 notransmit0 0 1 lCCCDCCDI12 finger_ind
ex0 0 1 dI12 finger_block1012 0 CZ3 0 4 T1 0 0 9 20 1 15 15 13 255 5 99 0 1 0 16
 0 0 17 0 50 255 6 94 0 18 19 0 0 +.00139101041543277 .033 0 1 0 0 0 0 -1 30 255
 7 237 0 10 20 0 0 +.00139101041543277 .0205189427343231 -.0383687039590205 1 0
 0 29 255 8 158 0 11 21 0 .0482642038158134 .033 0 19 8 CCCCCCCA5 owner12 0 Z9 3
3 0 1 17 0 22 V0 16 255 10 235 23 ?24 0 25 7 0 0 1 18 255 11 156 26 27 0 28 8 ?1
 81 1 26 834 29 11 0 0 30 31 32 17 255 27 0 33 34 35 11 36 37 0 38 +18 28 150 39
 40 11 41 21 ?1 81 1 39 814 29 28 0 0 42 43 44 17 40 0 45 46 47 28 48 49 0 50 +1
8 41 144 51 52 28 53 54 ?1 29 21 152 0 28 54 8 .03167280885853785 .033 0 29 54 1
46 0 41 55 21 .0157114668743233 .033 0 29 55 75 0 56 57 54 .00139101041543277 0
 -.0383687039590205 18 56 66 58 59 60 61 55 ?1 29 57 76 0 61 62 55 .053553900994
1616 0 -.0383687039590205 18 61 67 63 64 56 65 57 ?1 29 62 77 0 65 66 57 .053553
9009941616 0 0 18 65 68 67 68 61 69 62 ?1 29 66 78 0 69 70 62 .00139101041543277
 0 0 18 69 69 71 72 65 73 66 ?1 29 70 32 0 53 74 66 .00139101041543277 .033 -.03
83687039590205 18 53 30 75 76 41 77 70 ?1 29 74 29 0 77 78 70 .0535539009941616
 .033 -.0383687039590205 18 77 27 79 80 53 81 74 ?1 29 78 26 0 81 82 74 .0535539
009941616 .033 0 18 81 24 83 84 77 60 78 ?1 29 82 23 0 60 85 78 .001391010415432
77 .033 0 18 60 21 86 87 81 56 82 ?1 29 85 615 0 73 88 82 .00641818552167216 .02
05189427343231 -.0383687039590205 18 73 332 89 90 69 91 85 ?1 29 88 616 0 91 92
 85 .00641818552167215 .033 -.0383687039590205 18 91 322 93 94 73 95 88 ?1 29 92
 617 0 95 96 88 .0157114668743233 .033 -.0383687039590205 18 95 329 97 98 91 99
 92 ?1 29 96 618 0 99 100 92 .0157114668743233 .0205189427343231 -.0383687039590
205 18 99 324 101 102 95 103 96 ?1 29 100 619 0 103 104 96 .0221695098481996 .02
05189427343231 -.0383687039590205 18 103 419 105 106 99 107 100 ?1 29 104 620 0
 107 108 100 .0221695098481996 .033 -.0383687039590205 18 107 409 109 110 103 11
1 104 ?1 29 108 621 0 111 112 104 .03167280885853785 .033 -.0383687039590205 18
 111 416 113 46 107 114 108 ?1 29 112 622 0 114 115 108 .03167280885853785 .0205
189427343231 -.0383687039590205 18 114 411 116 117 111 118 112 ?1 29 115 623 0 1
18 119 112 .03844587831894465 .0205189427343231 -.0383687039590205 18 118 506 12
0 121 114 122 115 ?1 29 119 624 0 122 123 115 .03844587831894465 .033 -.03836870
39590205 18 122 496 124 125 118 126 119 ?1 29 123 625 0 126 127 119 .04826420381
58134 .033 -.0383687039590205 18 126 503 128 34 122 129 123 ?1 29 127 626 0 129
 130 123 .0482642038158134 .0205189427343231 -.0383687039590205 18 129 498 131 1
32 126 133 127 ?1 29 130 627 0 134 135 127 .03844587831894465 .033 0 18 134 497
 136 137 138 139 130 ?1 29 135 629 0 139 140 130 .0482642038158134 .020518942734
3231 0 18 139 499 141 35 134 142 135 ?1 29 140 630 0 142 143 135 .03844587831894
465 .0205189427343231 0 18 142 500 144 145 139 0 140 ?1 29 143 635 0 146 147 140
 .0221695098481996 .033 0 18 146 410 148 149 150 151 143 ?1 29 147 637 0 151 152
 143 .03167280885853785 .0205189427343231 0 18 151 412 153 47 146 138 147 ?1 29
 152 638 0 138 154 147 .0221695098481996 .0205189427343231 0 18 138 413 155 156
 151 134 152 ?1 29 154 643 0 133 157 152 .00641818552167215 .033 0 18 133 323 15
8 159 129 160 154 ?1 29 157 645 0 160 161 154 .0157114668743233 .020518942734323
1 0 18 160 325 162 163 133 150 157 ?1 29 161 646 0 150 0 157 .00641818552167216
 .0205189427343231 0 18 150 326 164 165 160 146 161 ?1 81 1 164 826 29 150 0 0 1
66 162 167 17 165 0 168 169 90 150 170 171 0 172 +15 255 168 341 0 165 173 0 17
 169 0 168 174 165 160 175 176 0 177 +17 90 0 168 165 174 73 24 10 0 170 -17 170
 0 178 94 172 73 165 171 0 179 -16 171 291 180 ?165 181 182 183 0 0 1 17 172 0 1
78 170 159 150 184 185 0 175 +15 178 345 0 159 186 0 17 159 0 178 172 94 133 187
 188 0 184 -17 184 0 189 87 175 133 172 185 0 190 -16 185 310 191 ?172 176 192 1
93 0 0 1 17 175 0 189 184 177 150 169 176 0 0 -15 189 87 0 175 194 0 17 177 0 18
9 175 195 160 52 182 0 0 -16 176 313 166 ?169 182 185 196 0 0 1 81 1 166 825 29
 176 0 0 197 164 198 16 182 316 199 ?52 171 176 200 0 0 1 30 196 609 0 176 193 2
00 0 +.00641818552167216 .0205189427343231 0 1 0 0 30 193 610 0 185 0 196 0 +.00
641818552167215 .033 0 1389885038623546e-31 -1 0 30 200 608 0 182 196 201 0 +.01
57114668743233 .033 0 0 1 0 30 201 604 0 181 200 183 0 +.0157114668743233 .02051
89427343231 -.043 0 0 1 16 181 289 202 ?163 203 171 201 0 0 1 30 183 603 0 171 2
01 204 0 +.00641818552167216 .0205189427343231 -.043 0 0 1 30 204 598 0 205 183
 206 0 +.0221695098481996 .033 0 0 -1 0 16 205 397 207 ?208 209 210 204 0 0 1 30
 206 597 0 209 204 211 0 +.0221695098481996 .0205189427343231 0 1 0 0 16 209 400
 212 ?213 49 205 206 0 0 1 30 211 596 0 49 206 214 0 +.03167280885853785 .033 0
 0 1 0 16 49 403 215 ?40 216 209 211 0 0 1 30 214 592 0 192 211 217 0 +.03167280
885853785 .0205189427343231 -.043 0 0 1 16 192 376 218 ?47 185 216 214 0 0 1 30
 217 591 0 216 214 219 0 +.0221695098481996 .0205189427343231 -.043 0 0 1 16 216
 378 220 ?156 192 49 217 0 0 1 30 219 586 0 221 217 222 0 +.03844587831894465 .0
33 0 0 -1 0 16 221 484 223 ?224 225 0 219 0 0 1 30 222 585 0 225 219 226 0 +.038
44587831894465 .0205189427343231 0 1 0 0 16 225 487 227 ?228 37 221 222 0 0 1 30
 226 584 0 37 222 229 0 +.0482642038158134 .033 0 0 1 0 16 37 490 31 ?27 230 225
 226 0 0 1 30 229 580 0 210 226 231 0 +.0482642038158134 .0205189427343231 -.043
 0 0 1 16 210 463 232 ?35 205 230 229 0 0 1 30 231 579 0 230 229 233 0 +.0384458
7831894465 .0205189427343231 -.043 0 0 1 16 230 465 234 ?145 210 37 231 0 0 1 30
 233 578 0 203 231 235 0 +.0482642038158134 .033 -.0383687039590205 0 1 0 16 203
 466 236 ?237 238 181 233 0 0 1 30 235 577 0 238 233 239 0 +.03844587831894465 .
033 -.0383687039590205 0 -1 0 16 238 464 240 ?241 242 203 235 0 0 1 30 239 576 0
 242 235 243 0 +.03167280885853785 .033 -.0383687039590205 0 1 0 16 242 379 244
 ?245 246 238 239 0 0 1 30 243 575 0 246 239 247 0 +.0221695098481996 .033 -.038
3687039590205 0 -1 0 16 246 377 248 ?249 250 242 243 0 0 1 30 247 574 0 250 243
 251 0 +.0157114668743233 .033 -.0383687039590205 0 1 0 16 250 292 252 ?253 254
 246 247 0 0 1 30 251 573 0 254 247 255 0 +.00641818552167215 .033 -.03836870395
90205 1389885038623546e-31 -1 0 16 254 290 256 ?179 257 250 251 0 0 1 30 255 7 0
 258 251 259 0 +.00139101041543277 .033 0 0 0 1 16 258 5 260 ?261 262 263 255 0
 0 1 30 259 11 0 264 255 265 0 +.00139101041543277 .033 0 1 0 0 16 264 9 266 ?19
0 267 268 259 262 268 1 30 265 15 0 267 259 269 0 +.0535539009941616 .033 0 0 0
 -1 16 267 13 270 ?80 271 264 265 0 0 1 30 269 19 0 272 265 273 0 +.001391010415
43277 .033 -.0383687039590205 -1 0 0 16 272 17 274 ?275 276 277 269 271 277 1 30
 273 74 0 257 269 278 0 +.00139101041543277 0 0 0 0 1 16 257 62 279 ?280 281 254
 273 0 0 1 30 278 73 0 281 273 282 0 +.00139101041543277 0 0 1 0 0 16 281 58 283
 ?68 284 257 278 0 0 1 30 282 72 0 284 278 285 0 +.0535539009941616 0 0 0 0 -1 1
6 284 54 286 ?64 263 281 282 0 0 1 30 285 71 0 263 282 287 0 +.00139101041543277
 0 -.0383687039590205 -1 0 0 16 263 50 288 ?59 258 284 285 0 0 1 30 287 95 0 276
 285 289 0 +.00139101041543277 .033 -.0383687039590205 0 -1 0 16 276 79 290 ?291
 292 272 287 0 0 1 30 289 96 0 292 287 293 0 +.0535539009941616 .033 -.038368703
9590205 0 -1 0 16 292 80 294 ?295 296 276 289 0 0 1 30 293 97 0 296 289 297 0 +.
0535539009941616 .033 0 0 -1 0 16 296 81 298 ?299 300 292 293 0 0 1 30 297 98 0
 300 293 301 0 +.00139101041543277 .033 0 0 -1 0 16 300 82 302 ?303 304 296 297
 0 0 1 30 301 179 0 304 297 305 0 +.0482642038158134 .033 0 0 0 1 16 304 177 306
 ?38 307 300 301 0 0 1 30 305 184 0 307 301 308 0 +.03844587831894465 .033 0 0 0
 -1 16 307 182 309 ?310 311 304 305 0 0 1 30 308 189 0 311 305 312 0 +.031672808
85853785 .033 0 0 0 1 16 311 187 42 ?50 313 307 308 0 0 1 30 312 194 0 313 308 3
14 0 +.0221695098481996 .033 0 0 0 -1 16 313 192 315 ?316 317 311 312 0 0 1 30 3
14 199 0 317 312 318 0 +.0157114668743233 .033 0 0 0 1 16 317 197 319 ?320 188 3
13 314 0 0 1 30 318 204 0 188 314 321 0 +.00641818552167215 .033 0 0 0 -1 16 188
 202 322 ?187 323 317 318 0 0 1 30 321 213 0 323 318 20 0 +.00139101041543277 .0
205189427343231 -.0383687039590205 1 0 0 16 323 211 324 ?325 25 188 321 0 0 1 30
 20 225 0 25 321 7 0 +.00139101041543277 .0205189427343231 -.0383687039590205 1
 0 0 16 25 223 326 ?327 10 323 20 0 0 1 81 1 326 860 29 25 0 0 105 116 328 17 32
7 0 329 245 249 114 106 25 0 0 +15 329 232 0 330 331 0 17 245 0 329 332 327 111
 117 242 0 333 +17 249 0 329 327 334 103 110 246 0 0 +17 106 0 335 156 336 103 3
27 25 0 337 -15 335 428 0 156 338 0 17 156 0 335 213 106 138 337 216 0 208 +17 3
36 0 335 106 213 114 47 192 0 327 -17 337 0 339 110 208 103 156 216 0 249 -15 33
9 432 0 149 340 0 17 110 0 339 149 337 107 249 246 0 316 -17 208 0 339 337 149 1
38 341 205 0 342 +17 149 0 339 208 110 146 316 313 0 341 -17 341 0 189 195 342 1
46 208 205 0 343 -17 342 0 189 341 48 138 213 209 0 0 -17 48 0 189 342 344 151 4
0 49 0 0 -17 213 0 335 336 156 151 342 209 0 48 +17 344 0 189 48 345 28 346 347
 0 0 -17 345 0 189 344 348 134 224 221 0 346 -17 346 0 349 310 50 134 344 347 0
 0 +16 347 151 43 ?346 268 262 259 268 262 1 81 1 43 815 29 347 0 0 39 136 350 1
6 268 145 351 ?343 264 347 259 264 347 1 16 262 157 30 ?84 347 258 259 347 264 1
 81 1 30 833 29 262 0 0 83 26 352 17 84 0 353 80 38 81 354 262 0 355 +15 353 4 0
 275 356 0 17 80 0 353 275 84 77 357 267 0 358 +17 38 0 353 84 275 11 34 304 0 3
54 +17 354 0 189 36 355 11 84 262 0 0 -17 355 0 189 354 68 81 299 296 0 357 -17
 68 0 189 355 303 65 72 281 0 299 +17 299 0 359 64 357 65 355 296 0 360 +17 357
 0 359 299 358 81 80 267 0 0 -15 359 85 0 64 361 0 17 358 0 359 357 64 77 295 29
2 0 362 -17 64 0 359 358 299 61 360 284 0 295 +17 295 0 329 59 362 61 358 292 0
 363 +17 362 0 329 295 237 77 275 272 0 0 -17 237 0 329 362 325 126 132 203 0 27
5 +17 275 0 353 38 80 126 362 272 0 0 +17 325 0 329 237 241 129 121 323 0 0 +17
 132 0 33 35 34 129 237 203 0 364 -15 33 523 0 35 365 0 17 35 0 33 27 132 139 36
4 210 0 228 +17 34 0 33 132 27 126 38 304 0 237 -17 364 0 366 121 228 129 35 210
 0 325 -15 366 515 0 145 367 0 17 121 0 366 145 364 118 325 323 0 368 -17 228 0
 366 364 145 139 348 225 0 36 +17 145 0 366 228 121 142 368 230 0 224 +17 348 0
 189 345 36 142 228 225 0 0 -17 36 0 189 348 354 139 27 37 0 0 -17 368 0 369 125
 224 118 145 230 0 241 -17 224 0 369 368 137 142 345 221 0 348 +15 369 519 0 137
 370 0 17 137 0 369 224 125 134 310 307 0 345 -17 125 0 369 137 368 122 241 238
 0 310 -17 310 0 349 333 346 122 137 307 0 332 +15 349 178 0 333 371 0 17 333 0
 349 50 310 111 332 277 0 0 +17 332 0 329 241 245 122 333 277 0 0 -17 241 0 329
 325 332 118 125 238 0 0 +16 277 163 372 ?333 272 373 269 272 373 1 81 1 372 810
 29 277 0 0 374 124 375 16 373 169 376 ?377 277 271 269 277 271 1 81 1 376 801 2
9 373 0 0 378 109 379 17 377 0 380 320 316 95 334 373 0 0 +16 271 175 381 ?76 37
3 267 269 373 272 1 81 1 381 797 29 271 0 0 93 75 382 17 76 0 383 261 187 53 330
 271 0 384 +15 383 198 0 190 16 0 17 261 0 383 190 76 60 385 258 0 386 +17 187 0
 383 76 190 91 159 188 0 330 +17 330 0 329 179 384 91 76 271 0 0 -17 384 0 329 3
30 59 53 291 276 0 385 -17 59 0 329 384 295 56 363 263 0 291 +17 291 0 387 280 3
85 56 384 276 0 388 +17 385 0 387 291 386 53 261 258 0 0 -15 387 89 0 280 18 0 1
7 386 0 387 385 280 60 303 300 0 0 -17 280 0 387 386 291 69 388 257 0 0 +17 303
 0 189 68 87 69 386 300 0 280 +17 87 0 189 303 184 60 190 264 0 261 -17 190 0 38
3 187 261 133 87 264 0 0 +17 388 0 389 363 72 56 280 257 0 0 -15 389 49 0 388 39
0 0 17 363 0 389 360 388 61 59 263 0 0 -17 72 0 389 388 360 69 68 281 0 303 -17
 360 0 389 72 363 65 64 284 0 0 -14 255 390 48 391 ?367 356 389 5 392 +0 0 367 3
56 22 81 1 391 873 29 390 393 0 306 394 395 14 367 512 394 ?370 390 366 5 396 -0
 0 370 390 22 14 356 1 397 ?390 331 353 5 398 -16 371 390 331 22 50 392 70 0 390
 398 399 0 +0 0 0 0 -1 0 0 0 -1 13 22 34 0 0 0 0 0 0 9 16 14 16 200 400 ?401 0 3
83 5 398 -401 356 401 0 22 81 1 400 791 29 16 402 0 0 266 403 14 401 190 378 ?37
1 16 380 5 398 -371 16 371 16 22 50 398 3 0 356 404 392 0 +0 .033 0 0 -1 0 0 0 -
1 50 404 552 0 370 396 398 0 +.03844587831894465 .033 -.043 -1 0 0 0 0 1 14 370
 516 405 ?365 367 369 5 404 -0 0 365 367 22 50 396 553 0 367 406 404 0 +.0384458
7831894465 .0205189427343231 -.043 0 -1 0 0 0 -1 50 406 554 0 365 407 396 0 +.04
82642038158134 .033 -.043 1 0 0 0 0 -1 14 365 520 408 ?338 370 33 5 406 -0 0 338
 370 22 50 407 558 0 340 409 406 0 +.0221695098481996 .033 -.043 -1 0 0 0 0 1 14
 340 429 410 ?411 338 339 5 407 -0 0 411 338 22 50 409 559 0 338 412 407 0 +.022
1695098481996 .0205189427343231 -.043 0 -1 0 0 0 -1 14 338 425 413 ?340 365 335
 5 409 -0 0 340 365 22 50 412 560 0 411 414 409 0 +.03167280885853785 .033 -.043
 1 0 0 0 0 -1 14 411 433 415 ?173 340 45 5 412 -0 0 173 340 22 50 414 564 0 186
 416 412 0 +.00641818552167215 .033 -.043 -1 -1389885038623546e-31 0 13898850386
23546e-31 -1 0 14 186 342 417 ?418 173 178 5 414 -0 0 418 173 22 50 416 565 0 17
3 419 414 0 +.00641818552167216 .0205189427343231 -.043 0 -1 0 0 0 -1 14 173 338
 420 ?186 411 168 5 416 -0 0 186 411 22 50 419 566 0 418 0 416 0 +.0157114668743
233 .033 -.043 1 0 0 0 0 -1 14 418 346 421 ?0 186 422 5 419 -0 0 0 186 22 81 1 4
21 888 29 418 423 0 417 0 424 15 422 349 0 163 418 0 17 163 0 422 52 102 160 174
 181 0 169 +17 52 0 422 98 163 41 177 182 0 320 +17 102 0 422 163 98 99 253 250
 0 174 -17 174 0 168 90 169 99 163 181 0 24 -17 24 0 329 253 179 99 90 10 0 0 +1
7 253 0 329 334 24 95 102 250 0 377 +17 179 0 329 24 330 73 94 254 0 0 +17 94 0
 178 159 170 91 179 254 0 187 -17 334 0 329 249 253 107 377 373 0 0 -17 98 0 422
 102 52 95 320 317 0 253 -17 320 0 380 343 377 41 98 317 0 195 +15 380 188 0 377
 401 0 17 343 0 380 316 320 146 195 268 0 0 +17 195 0 189 177 341 41 343 268 0 0
 -17 316 0 380 377 343 107 149 313 0 334 +80 255 1 29 12 425 9000 1 1 1 1 1 1 1
 1 0 FFFFTFTTFFFFFF3 81 1 423 785 426 418 427 421 428 429 430 81 1 417 887 29 18
6 431 0 202 421 432 84 255 3 424 T9781 1 431 783 426 186 433 417 434 428 435 81
 1 202 886 29 181 0 0 180 417 436 84 3 432 T9681 1 180 885 29 171 0 0 420 202 43
7 84 3 436 T9581 1 420 884 29 173 428 0 415 180 438 84 3 437 T9481 1 428 784 426
 173 439 420 431 423 440 81 1 415 883 29 411 434 0 410 420 441 84 3 438 T9381 1
 434 782 426 411 442 415 443 431 444 81 1 410 882 29 340 445 0 218 415 446 84 3
 441 T9281 1 445 780 426 340 447 410 448 443 449 81 1 218 881 29 192 0 0 220 410
 450 84 3 446 T9181 1 220 880 29 216 0 0 413 218 451 84 3 450 T9081 1 413 879 29
 338 443 0 408 220 452 84 3 451 T8981 1 443 781 426 338 453 413 445 434 454 81 1
 408 878 29 365 448 0 405 413 455 84 3 452 T8881 1 448 779 426 365 456 408 457 4
45 458 81 1 405 877 29 370 457 0 232 408 459 84 3 455 T8781 1 457 778 426 370 46
0 405 461 448 462 81 1 232 876 29 210 0 0 234 405 463 84 3 459 T8681 1 234 875 2
9 230 0 0 394 232 464 84 3 463 T8581 1 394 874 29 367 465 0 391 234 466 84 3 464
 T8481 1 465 774 426 367 467 394 393 468 469 84 3 466 T8380 1 426 470 471 9000 1
 1 1 1 1 1 1 1 0 FFFFTFTFFFFFFF1 81 1 467 726 472 367 0 465 473 460 474 81 1 393
 773 426 390 473 391 0 465 475 81 1 468 775 426 356 476 397 465 402 477 82 255 1
 469 1897463929 81 1 476 724 472 356 0 468 478 473 479 81 1 397 871 29 356 468 0
 288 306 480 81 1 402 776 426 16 481 400 468 461 482 82 1 477 1125122169 81 1 48
1 717 472 16 0 402 0 483 484 81 1 461 777 426 401 483 378 402 457 485 82 1 482 1
885995129 81 1 483 718 472 401 0 461 481 486 487 81 1 378 800 29 401 461 0 260 3
76 488 82 1 485 1885077625 81 1 260 799 29 258 0 0 75 378 489 84 2 488 T981 1 75
 798 29 53 0 0 381 260 490 84 2 489 T884 2 490 T780 1 472 0 491 8001 0 0 0 0 3 5
 0 0 0 FFFFTFTFFFFFFF2 81 1 486 719 472 371 0 492 483 493 494 83 255 3 487 .7921
56862745098 .819607843137255 .929411764705882 14 371 180 374 ?18 401 349 5 398 -
356 401 18 401 22 81 1 492 788 426 371 486 374 495 496 497 81 1 493 720 472 18 0
 498 486 499 500 83 3 494 .792156862745098 .819607843137255 .929411764705882 14
 18 90 501 ?194 371 387 5 6 -0 0 194 371 22 81 1 498 790 426 18 493 501 496 0 50
2 81 1 499 721 472 194 0 495 493 503 504 83 3 500 .792156862745098 .819607843137
255 .929411764705882 14 194 88 197 ?361 18 189 5 19 -0 0 361 18 22 81 1 495 787
 426 194 499 197 429 492 505 81 1 503 722 472 361 0 496 499 478 506 83 3 504 .79
2156862745098 .819607843137255 .929411764705882 14 361 86 507 ?331 194 359 5 508
 -0 0 331 194 22 81 1 496 789 426 361 503 507 492 498 509 81 1 478 723 472 331 0
 429 503 476 510 83 3 506 .792156862745098 .819607843137255 .929411764705882 14
 331 84 511 ?356 361 329 5 399 -0 0 356 361 22 81 1 429 786 426 331 478 511 423
 495 512 83 3 510 .792156862745098 .819607843137255 .929411764705882 81 1 511 85
2 29 331 429 0 270 256 513 82 1 512 1131675769 81 1 270 851 29 267 0 0 79 511 51
4 81 1 256 853 29 254 0 0 511 89 515 84 3 513 T6181 1 89 854 29 73 0 0 256 23 51
6 84 3 515 T6281 1 23 855 29 10 0 0 89 101 517 84 3 516 T6381 1 101 856 29 99 0
 0 23 252 518 84 3 517 T6481 1 252 857 29 250 0 0 101 248 519 84 3 518 T6581 1 2
48 858 29 246 0 0 252 105 520 84 3 519 T6681 1 105 859 29 103 0 0 248 326 521 84
 3 520 T6784 3 521 T6881 1 79 850 29 77 0 0 294 270 522 84 3 514 T6081 1 294 849
 29 292 0 0 63 79 523 84 3 522 T5981 1 63 848 29 61 0 0 286 294 524 84 3 523 T58
81 1 286 847 29 284 0 0 507 63 525 84 3 524 T5781 1 507 846 29 361 496 0 199 286
 526 84 3 525 T5681 1 199 845 29 182 0 0 207 507 527 84 3 526 T5581 1 207 844 29
 205 0 0 155 199 528 84 3 527 T5481 1 155 843 29 138 0 0 212 207 529 84 3 528 T5
381 1 212 842 29 209 0 0 153 155 530 84 3 529 T5281 1 153 841 29 151 0 0 215 212
 531 84 3 530 T5181 1 215 840 29 49 0 0 223 153 532 84 3 531 T5081 1 223 839 29
 221 0 0 144 215 533 84 3 532 T4981 1 144 838 29 142 0 0 227 223 534 84 3 533 T4
881 1 227 837 29 225 0 0 141 144 535 84 3 534 T4781 1 141 836 29 139 0 0 31 227
 536 84 3 535 T4681 1 31 835 29 37 0 0 26 141 537 84 3 536 T4584 3 537 T4450 399
 91 0 331 392 508 0 +.00139101041543277 .033 -.0383687039590205 0 0 1 1 0 0 50 5
08 92 0 361 399 19 0 +.0535539009941616 .033 0 -1 0 0 0 0 1 50 19 93 0 194 508 6
 0 +.00139101041543277 .033 0 0 0 -1 -1 0 0 82 1 509 1131937898 81 1 197 824 29
 194 495 0 290 166 538 82 1 505 1132200057 81 1 290 823 29 276 0 0 302 197 539 8
4 3 538 T3381 1 302 822 29 300 0 0 71 290 540 84 3 539 T3281 1 71 821 29 69 0 0
 58 302 541 84 3 540 T3181 1 58 820 29 56 0 0 279 71 542 84 3 541 T3081 1 279 81
9 29 257 0 0 501 58 543 84 3 542 T2981 1 501 818 29 18 498 0 309 279 544 84 3 54
3 T2881 1 309 817 29 307 0 0 136 501 545 84 3 544 T2781 1 136 816 29 134 0 0 43
 309 546 84 3 545 T2684 3 546 T2582 1 502 1132462186 81 1 374 809 29 371 492 0 3
15 372 547 82 1 497 1884160121 81 1 315 808 29 313 0 0 148 374 548 84 3 547 T188
1 1 148 807 29 146 0 0 351 315 549 84 3 548 T1781 1 351 806 29 268 0 0 51 148 55
0 84 3 549 T1681 1 51 805 29 41 0 0 319 351 551 84 3 550 T1581 1 319 804 29 317
 0 0 97 51 552 84 3 551 T1481 1 97 803 29 95 0 0 109 319 553 84 3 552 T1381 1 10
9 802 29 107 0 0 376 97 554 84 3 553 T1284 3 554 T1179 255 15 491 SDL/TYSA_COLOU
R83 3 484 .792156862745098 .819607843137255 .929411764705882 81 1 288 870 29 263
 0 0 274 397 555 81 1 306 872 29 304 0 0 397 391 556 84 3 480 T8084 3 556 T8181
 1 274 869 29 272 0 0 128 288 557 84 3 555 T7981 1 128 868 29 126 0 0 236 274 55
8 84 3 557 T7881 1 236 867 29 203 0 0 131 128 559 84 3 558 T7781 1 131 866 29 12
9 0 0 324 236 560 84 3 559 T7681 1 324 865 29 323 0 0 120 131 561 84 3 560 T7581
 1 120 864 29 118 0 0 240 324 562 84 3 561 T7481 1 240 863 29 238 0 0 244 120 56
3 84 3 562 T7381 1 244 862 29 242 0 0 116 240 564 84 3 563 T7281 1 116 861 29 11
4 0 0 326 244 565 84 3 564 T7184 3 565 T7081 1 473 725 472 390 0 393 476 467 566
 83 3 479 .792156862745098 .819607843137255 .929411764705882 83 3 566 .792156862
745098 .819607843137255 .929411764705882 82 1 475 1130758250 81 1 460 727 472 37
0 0 457 467 456 567 83 3 474 .792156862745098 .819607843137255 .929411764705882
 81 1 456 728 472 365 0 448 460 453 568 83 3 567 .792156862745098 .8196078431372
55 .929411764705882 81 1 453 729 472 338 0 443 456 447 569 83 3 568 .79215686274
5098 .819607843137255 .929411764705882 81 1 447 730 472 340 0 445 453 442 570 83
 3 569 .792156862745098 .819607843137255 .929411764705882 81 1 442 731 472 411 0
 434 447 439 571 83 3 570 .792156862745098 .819607843137255 .929411764705882 81
 1 439 732 472 173 0 428 442 433 572 83 3 571 .792156862745098 .819607843137255
 .929411764705882 81 1 433 733 472 186 0 431 439 427 573 83 3 572 .7921568627450
98 .819607843137255 .929411764705882 81 1 427 734 472 418 0 423 433 0 574 83 3 5
73 .792156862745098 .819607843137255 .929411764705882 83 3 574 .792156862745098
 .819607843137255 .929411764705882 79 14 471 SWEntUnchanged82 1 462 1888747641 8
2 1 458 1887567993 82 1 454 1898446969 82 1 449 1891106937 82 1 444 1889927289 8
2 1 440 1899430009 82 1 435 1893466233 82 1 430 1892286585 79 12 425 BTI/ExportI
d15 45 436 0 47 411 0 17 47 0 45 40 117 151 336 192 0 213 +17 117 0 45 47 46 114
 245 242 0 336 -17 46 0 45 117 40 111 50 311 0 245 -17 50 0 349 346 333 28 46 31
1 0 344 +81 1 266 792 29 264 0 0 400 86 575 84 2 403 T081 1 86 793 29 60 0 0 266
 158 576 84 2 575 T181 1 158 794 29 133 0 0 86 322 577 84 2 576 T281 1 322 795 2
9 188 0 0 158 93 578 84 2 577 T381 1 93 796 29 91 0 0 322 381 579 84 2 578 T484
 2 579 T584 3 395 T8284 2 382 T684 3 379 T1081 1 124 811 29 122 0 0 372 113 580
 84 3 375 T1981 1 113 812 29 111 0 0 124 42 581 84 3 580 T2081 1 42 813 29 311 0
 0 113 39 582 84 3 581 T2184 3 582 T2281 1 83 832 29 81 0 0 298 30 583 84 3 352
 T4281 1 298 831 29 296 0 0 67 83 584 84 3 583 T4181 1 67 830 29 65 0 0 283 298
 585 84 3 584 T4081 1 283 829 29 281 0 0 191 67 586 84 3 585 T3981 1 191 828 29
 185 0 0 162 283 587 84 3 586 T3881 1 162 827 29 160 0 0 164 191 588 84 3 587 T3
784 3 588 T3684 3 350 T2484 3 328 T6984 3 198 T3484 3 167 T3584 3 44 T2384 3 32
 T4319 17 100 0 1 0 9 5 S0 74 4 CI16 index_map_offset0 0 1 dCCZ20 15 9 0 0 589 5
90 498 591 592 13 427 2 421 0 0 0 0 0 0 0 0 0 0 0 81 2 589 124 593 1 0 590 0 0 0
 594 81 2 590 128 470 1 589 591 0 0 0 595 81 2 591 136 596 1 590 592 0 0 0 0 81
 1 592 697 597 1 591 13 0 0 598 81 2 13 716 599 1 592 2 0 0 0 600 80 2 599 597 6
01 9000 0 0 0 0 3 5 0 0 0 FFTFFFFFFFFFFF9 1 82 1 600 1 79 24 601 BODY_IN_LIGHTWE
IGHT_PERM80 1 597 426 602 9000 1 1 1 1 1 1 1 1 0 FFTFFFFFFFFFFF1 82 1 598 17166
 79 10 602 BODY_MATCH80 2 596 599 603 9000 0 0 0 0 3 5 0 0 0 FFTFFFFFFFFFFF9 1 7
9 16 603 BODY_RECIPE_200180 2 470 593 604 9000 0 0 0 0 3 5 0 0 0 FFTFFFFFFFFFFF9
 1 82 1 595 41 79 30 604 LAST_BODY_MODIFYING_FEATURE_ID80 2 593 605 606 9000 0 0
 0 0 3 5 0 0 0 FFTFFFFFFFFFFF9 1 82 1 594 113 79 19 606 ENT_TIME_STAMP_200180 2
 12 596 607 9000 0 0 0 0 3 5 0 0 0 FFTFFFFFFFFFFF9 1 82 1 14 103 79 12 607 ATOM_
ID_20011 0 
