**ABCDEFGHIJKLMNOPQRSTUVWXYZabcdefghijklmnopqrstuvwxyz**************************
**PARASOLID !"#$%&'()*+,-./:;<=>?@[\]^_`{|}~0123456789**************************
**PART1;
MC=unknown;
MC_MODEL=unknown;
MC_ID=unknown;
OS=unknown;
OS_RELEASE=unknown;
FRU=sdl_parasolid_customer_support;
APPL=Example Application;
SITE=unknown;
USER=unknown;
FORMAT=text;
GUISE=transmit;
KEY=e:\pyfemtet\brepmatching_pyfemtet\brepmatching_local\pyfemtet_scripts\data\dataset_to_predict\dataset\data\BrepsWithReference\modelV0.x_t;
FILE=e:\pyfemtet\brepmatching_pyfemtet\brepmatching_local\pyfemtet_scripts\data\dataset_to_predict\dataset\data\BrepsWithReference\modelV0.x_t;
DATE=unknown;
**PART2;
SCH=SCH_3001220_30100;
USFLD_SIZE=0;
**PART3;
**END_OF_HEADER*****************************************************************
T51 : TRANSMIT FILE created by modeller version 300122023 SCH_3001220_30100_1300
6214 0 12 34 CCCCCCI4 mesh1006 0 I8 polyline1008 0 CCCCCCCDI5 owner1040 0 CCCCCC
I13 boundary_mesh1006 0 I17 boundary_polyline1008 0 CCCA16 index_map_offset0 0 1
 dA9 index_map82 0 A17 node_id_index_map82 0 A20 schema_embedding_map82 0 A5 chi
ld12 0 A14 lowest_node_id0 0 1 dA16 mesh_offset_data206 0 Z1 441 2 3 0 0 0 0 0 0
 1e3 1e-8 0 0 0 1 0 1 1 4 5 6 7 0 0 8 9 10 0 0 0 0 0 0 0 81 255 2 2 381 11 1 12
 0 0 0 0 13 70 11 CI9 list_type0 0 1 uI10 notransmit0 0 1 lCCCDCCDI12 finger_ind
ex0 0 1 dI12 finger_block1012 0 CZ3 0 4 T1 0 0 9 20 1 14 14 13 255 4 99 0 1 0 15
 0 0 16 0 50 255 5 94 0 17 18 0 0 +.00139101041543277 .033 0 1 0 0 0 0 -1 30 255
 6 165 0 9 19 0 0 +.00139101041543277 .0205189427343231 -.0383687039590205 1 0 0
 29 255 7 142 0 10 20 0 .03654368794924475 .033 0 19 8 CCCCCCCA5 owner12 0 Z8 33
 0 1 16 0 21 V0 16 255 9 163 22 ?23 0 24 6 0 0 1 18 255 10 140 25 26 0 27 7 ?1 8
1 1 25 417 28 10 0 0 29 30 31 17 255 26 0 32 33 34 10 35 36 0 37 +18 27 30 38 39
 10 40 41 ?1 81 1 38 399 28 27 0 0 42 43 44 17 39 0 45 46 47 27 48 49 0 50 +18 4
0 27 51 52 27 53 54 ?1 29 41 32 0 27 54 55 .00139101041543277 .033 -.03836870395
90205 29 54 29 0 40 56 41 .0535539009941616 .033 -.0383687039590205 29 55 78 0 5
7 41 58 .00139101041543277 0 0 18 57 69 59 60 61 62 55 ?1 29 58 77 0 61 55 63 .0
535539009941616 0 0 18 61 68 64 65 66 57 58 ?1 29 63 76 0 66 58 20 .053553900994
1616 0 -.0383687039590205 18 66 67 67 68 69 61 63 ?1 29 20 75 0 69 63 7 .0013910
1041543277 0 -.0383687039590205 18 69 66 70 71 72 66 20 ?1 81 1 70 403 28 69 0 0
 73 59 74 17 71 0 75 50 76 69 77 78 0 79 +18 72 21 80 81 53 69 82 ?1 81 1 80 394
 28 72 0 0 83 84 85 17 81 0 86 87 88 72 89 90 0 46 -18 53 24 91 92 40 72 56 ?1 2
9 82 23 0 72 93 56 .00139101041543277 .033 0 29 93 295 0 62 94 82 .0132251969824
35 .0205189427343231 -.0383687039590205 29 56 26 0 53 82 54 .0535539009941616 .0
33 0 18 62 232 95 96 57 97 93 ?1 29 94 296 0 97 98 93 .013225196982435 .033 -.03
83687039590205 18 97 222 99 100 62 101 94 ?1 29 98 297 0 101 102 94 .03654368794
924475 .033 -.0383687039590205 18 101 229 103 33 97 104 98 ?1 29 102 298 0 104 1
05 98 .03654368794924475 .0205189427343231 -.0383687039590205 18 104 224 106 107
 101 108 102 ?1 29 105 299 0 108 109 102 .013225196982435 .033 0 18 108 223 84 1
10 104 111 105 ?1 29 109 301 0 111 112 105 .03654368794924475 .0205189427343231
 0 18 111 225 113 34 108 114 109 ?1 29 112 302 0 114 0 109 .013225196982435 .020
5189427343231 0 18 114 226 115 116 111 0 112 ?1 81 1 115 409 28 114 0 0 117 113
 118 17 116 0 119 120 96 114 121 122 0 123 +15 255 119 241 0 116 124 0 17 120 0
 119 125 116 111 126 127 0 35 +17 96 0 119 116 125 62 23 9 0 121 -17 121 0 128 1
00 123 62 116 122 0 129 -16 122 191 130 ?116 131 36 132 0 0 1 17 123 0 128 121 1
10 114 88 133 0 126 +15 128 245 0 110 134 0 17 110 0 128 123 100 108 47 24 0 88
 -17 88 0 86 81 126 108 123 133 0 89 -16 133 210 135 ?123 127 0 136 0 0 1 17 126
 0 86 88 35 114 120 127 0 0 -15 86 87 0 126 137 0 17 35 0 86 126 138 111 26 36 0
 0 -16 127 213 117 ?120 36 133 139 0 0 1 81 1 117 408 28 127 0 0 140 115 141 16
 36 216 30 ?26 122 127 142 0 0 1 30 139 289 0 127 136 142 0 +.013225196982435 .0
205189427343231 0 1 0 0 30 136 290 0 133 0 139 0 +.013225196982435 .033 0 0 -1 0
 30 142 288 0 36 139 143 0 +.03654368794924475 .033 0 0 1 0 30 143 284 0 131 142
 132 0 +.03654368794924475 .0205189427343231 -.043 0 0 1 16 131 189 144 ?34 145
 122 143 0 0 1 30 132 283 0 122 143 146 0 +.013225196982435 .0205189427343231 -.
043 0 0 1 30 146 282 0 145 132 147 0 +.03654368794924475 .033 -.0383687039590205
 0 1 0 16 145 192 148 ?149 150 131 146 0 0 1 30 147 281 0 150 146 151 0 +.013225
196982435 .033 -.0383687039590205 0 -1 0 16 150 190 152 ?129 153 145 147 0 0 1 3
0 151 7 0 154 147 155 0 +.00139101041543277 .033 0 0 0 1 16 154 5 43 ?46 156 78
 151 0 0 1 30 155 11 0 90 151 157 0 +.00139101041543277 .033 0 1 0 0 16 90 9 83
 ?89 158 156 155 156 156 1 30 157 15 0 158 155 159 0 +.0535539009941616 .033 0 0
 0 -1 16 158 13 160 ?52 49 90 157 0 0 1 30 159 19 0 161 157 162 0 +.001391010415
43277 .033 -.0383687039590205 -1 0 0 16 161 17 163 ?164 165 49 159 49 49 1 30 16
2 74 0 153 159 166 0 +.00139101041543277 0 0 0 0 1 16 153 62 73 ?167 168 150 162
 0 0 1 30 166 73 0 168 162 169 0 +.00139101041543277 0 0 1 0 0 16 168 58 170 ?65
 171 153 166 0 0 1 30 169 72 0 171 166 172 0 +.0535539009941616 0 0 0 0 -1 16 17
1 54 173 ?68 78 168 169 0 0 1 30 172 71 0 78 169 174 0 +.00139101041543277 0 -.0
383687039590205 -1 0 0 16 78 50 175 ?71 154 171 172 0 0 1 30 174 95 0 165 172 17
6 0 +.00139101041543277 .033 -.0383687039590205 0 -1 0 16 165 79 177 ?79 178 161
 174 0 0 1 30 176 96 0 178 174 179 0 +.0535539009941616 .033 -.0383687039590205
 0 -1 0 16 178 80 180 ?76 181 165 176 0 0 1 30 179 97 0 181 176 182 0 +.05355390
09941616 .033 0 0 -1 0 16 181 81 183 ?184 185 178 179 0 0 1 30 182 98 0 185 179
 186 0 +.00139101041543277 .033 0 0 -1 0 16 185 82 187 ?87 188 181 182 0 0 1 30
 186 151 0 188 182 19 0 +.03654368794924475 .033 0 0 0 1 16 188 149 189 ?37 24 1
85 186 0 0 1 30 19 156 0 24 186 6 0 +.013225196982435 .033 0 0 0 -1 16 24 154 19
0 ?47 9 188 19 0 0 1 81 1 190 396 28 24 0 0 84 99 191 17 47 0 45 39 89 97 110 24
 0 48 +15 45 150 0 89 15 0 17 89 0 45 47 46 108 81 90 0 0 +17 48 0 75 129 50 97
 39 49 0 0 -15 75 160 0 48 192 0 17 129 0 75 23 48 62 100 150 0 0 +17 50 0 75 48
 71 27 79 165 0 193 -16 49 147 42 ?39 161 158 159 161 161 1 81 1 42 398 28 49 0
 0 99 38 194 80 255 1 28 11 195 9000 1 1 1 1 1 1 1 1 0 FFFFTFTTFFFFFF3 81 1 99 3
97 28 97 0 0 190 42 196 84 255 2 194 T684 2 196 T579 255 12 195 BTI/ExportId17 7
9 0 197 167 193 69 50 165 0 198 +17 193 0 197 79 199 27 46 154 0 0 -15 197 89 0
 167 17 0 17 199 0 197 193 167 72 87 185 0 0 -17 46 0 45 89 39 72 193 154 0 199
 +17 167 0 197 199 79 57 198 153 0 0 +17 87 0 86 65 81 57 199 185 0 167 +17 65 0
 86 200 87 61 60 168 0 184 +17 200 0 86 138 65 53 184 181 0 201 -17 60 0 202 198
 203 57 65 168 0 87 -17 184 0 204 68 201 61 200 181 0 203 +15 204 85 0 68 205 0
 17 68 0 204 206 184 66 203 171 0 76 +17 201 0 204 184 206 53 52 158 0 0 -17 203
 0 202 60 77 61 68 171 0 0 -15 202 49 0 198 207 0 17 77 0 202 203 198 66 71 78 0
 0 -17 198 0 202 77 60 69 167 153 0 0 -14 255 207 48 208 ?124 209 202 4 210 +0 0
 124 209 21 81 1 208 436 28 207 211 0 189 212 213 14 124 238 212 ?134 207 119 4
 214 -0 0 134 207 21 14 209 1 215 ?207 192 216 4 217 -15 15 207 192 21 50 210 70
 0 207 217 218 0 +0 0 0 0 -1 0 0 0 -1 13 21 34 0 0 0 0 0 0 8 15 14 15 152 219 ?1
7 0 45 4 217 -209 209 17 0 21 81 1 219 392 28 15 220 0 0 83 221 14 17 90 222 ?13
7 15 197 4 5 -0 0 137 15 21 50 217 3 0 209 223 210 0 +0 .033 0 0 -1 0 0 0 -1 50
 223 274 0 134 214 217 0 +.013225196982435 .033 -.043 -1 0 0 0 0 1 14 134 242 22
4 ?225 124 128 4 223 -0 0 225 124 21 50 214 275 0 124 226 223 0 +.01322519698243
5 .0205189427343231 -.043 0 -1 0 0 0 -1 50 226 276 0 225 0 214 0 +.0365436879492
4475 .033 -.043 1 0 0 0 0 -1 14 225 246 227 ?0 134 32 4 226 -0 0 0 134 21 81 1 2
27 441 28 225 228 0 224 0 229 15 32 249 0 34 225 0 17 34 0 32 26 107 111 125 131
 0 120 +17 107 0 32 34 33 104 149 145 0 125 -17 125 0 119 96 120 104 34 131 0 23
 -17 23 0 75 149 129 104 96 9 0 0 +17 149 0 75 230 23 101 107 145 0 164 +17 230
 0 75 76 149 40 164 161 0 0 -17 164 0 216 37 52 101 230 161 0 0 +15 216 4 0 164
 209 0 17 37 0 216 92 164 10 33 188 0 138 +17 52 0 216 164 92 40 201 158 0 206 +
17 92 0 216 52 37 53 138 156 0 200 +17 206 0 204 201 68 40 76 178 0 230 -17 76 0
 75 71 230 66 206 178 0 77 +17 138 0 86 35 200 10 92 156 0 0 -16 156 141 29 ?92
 90 154 155 90 90 1 81 1 29 416 28 156 0 0 91 25 231 81 1 91 415 28 53 0 0 183 2
9 232 84 3 231 T2481 1 183 414 28 181 0 0 64 91 233 84 3 232 T2381 1 64 413 28 6
1 0 0 170 183 234 84 3 233 T2281 1 170 412 28 168 0 0 135 64 235 84 3 234 T2181
 1 135 411 28 133 0 0 113 170 236 84 3 235 T2081 1 113 410 28 111 0 0 115 135 23
7 84 3 236 T1984 3 237 T1817 33 0 32 107 26 101 37 188 0 149 -81 1 228 388 238 2
25 239 227 240 241 242 81 1 224 440 28 134 240 0 144 227 243 84 3 229 T4981 1 24
0 387 238 134 244 224 245 228 246 81 1 144 439 28 131 0 0 130 224 247 84 3 243 T
4881 1 130 438 28 122 0 0 212 144 248 84 3 247 T4781 1 212 437 28 124 249 0 208
 130 250 84 3 248 T4681 1 249 383 238 124 251 212 211 252 253 84 3 250 T4580 1 2
38 254 255 9000 1 1 1 1 1 1 1 1 0 FFFFTFTFFFFFFF1 81 1 251 357 256 124 0 249 257
 244 258 81 1 211 382 238 207 257 208 0 249 259 81 1 252 384 238 209 260 215 249
 220 261 82 255 1 253 -2002583442 81 1 260 355 256 209 0 252 262 257 263 81 1 21
5 434 28 209 252 0 175 189 264 81 1 220 385 238 15 265 219 252 245 266 82 1 261
 1125122158 81 1 265 350 256 15 0 220 0 267 268 81 1 245 386 238 17 267 222 220
 240 269 82 1 266 -2006974354 81 1 267 351 256 17 0 245 265 270 271 81 1 222 401
 28 17 245 0 43 73 272 82 1 269 1132462186 81 1 43 400 28 154 0 0 38 222 273 81
 1 73 402 28 153 0 0 222 70 274 84 2 272 T984 3 274 T1084 2 273 T880 1 256 0 275
 8001 0 0 0 0 3 5 0 0 0 FFFFTFTFFFFFFF2 81 1 270 352 256 137 0 276 267 277 278 8
3 255 3 271 .792156862745098 .819607843137255 .929411764705882 14 137 88 140 ?20
5 17 86 4 18 -0 0 205 17 21 81 1 276 390 238 137 270 140 241 279 280 81 1 277 35
3 256 205 0 279 270 262 281 83 3 278 .792156862745098 .819607843137255 .92941176
4705882 14 205 86 282 ?192 137 204 4 283 -0 0 192 137 21 81 1 279 391 238 205 27
7 282 276 0 284 81 1 262 354 256 192 0 241 277 260 285 83 3 281 .792156862745098
 .819607843137255 .929411764705882 14 192 84 286 ?209 205 75 4 218 -0 0 209 205
 21 81 1 241 389 238 192 262 286 228 276 287 83 3 285 .792156862745098 .81960784
3137255 .929411764705882 81 1 286 425 28 192 241 0 160 152 288 82 1 287 11316757
58 81 1 160 424 28 158 0 0 51 286 289 81 1 152 426 28 150 0 0 286 95 290 84 3 28
8 T3381 1 95 427 28 62 0 0 152 22 291 84 3 290 T3481 1 22 428 28 9 0 0 95 106 29
2 84 3 291 T3581 1 106 429 28 104 0 0 22 148 293 84 3 292 T3681 1 148 430 28 145
 0 0 106 103 294 84 3 293 T3781 1 103 431 28 101 0 0 148 163 295 84 3 294 T3881
 1 163 432 28 161 0 0 103 175 296 84 3 295 T3981 1 175 433 28 78 0 0 163 215 297
 84 3 296 T4084 3 297 T4181 1 51 423 28 40 0 0 180 160 298 84 3 289 T3281 1 180
 422 28 178 0 0 67 51 299 84 3 298 T3181 1 67 421 28 66 0 0 173 180 300 84 3 299
 T3081 1 173 420 28 171 0 0 282 67 301 84 3 300 T2981 1 282 419 28 205 279 0 30
 173 302 84 3 301 T2881 1 30 418 28 36 0 0 25 282 303 84 3 302 T2784 3 303 T2650
 218 91 0 192 210 283 0 +.00139101041543277 .033 -.0383687039590205 0 0 1 1 0 0
 50 283 92 0 205 218 18 0 +.0535539009941616 .033 0 -1 0 0 0 0 1 50 18 93 0 137
 283 5 0 +.00139101041543277 .033 0 0 0 -1 -1 0 0 82 1 284 1131937898 81 1 140 4
07 28 137 276 0 177 117 304 82 1 280 1132200046 81 1 177 406 28 165 0 0 187 140
 305 84 3 304 T1581 1 187 405 28 185 0 0 59 177 306 84 3 305 T1481 1 59 404 28 5
7 0 0 70 187 307 84 3 306 T1384 3 307 T1279 15 275 SDL/TYSA_COLOUR83 3 268 .7921
56862745098 .819607843137255 .929411764705882 81 1 189 435 28 188 0 0 215 208 30
8 84 3 264 T4284 3 308 T4381 1 257 356 256 207 0 211 260 251 309 83 3 263 .79215
6862745098 .819607843137255 .929411764705882 83 3 309 .792156862745098 .81960784
3137255 .929411764705882 82 1 259 1130758250 81 1 244 358 256 134 0 240 251 239
 310 83 3 258 .792156862745098 .819607843137255 .929411764705882 81 1 239 359 25
6 225 0 228 244 0 311 83 3 310 .792156862745098 .819607843137255 .92941176470588
2 83 3 311 .792156862745098 .819607843137255 .929411764705882 79 14 255 SWEntUnc
hanged82 1 246 -2004221842 82 1 242 -2005401490 81 1 83 393 28 90 0 0 219 80 312
 84 2 221 T084 2 312 T184 3 213 T4417 100 0 128 110 121 97 129 150 0 47 -81 1 84
 395 28 108 0 0 80 190 313 84 2 191 T484 2 313 T384 3 141 T1684 3 118 T1784 2 85
 T284 3 74 T1184 2 44 T784 3 31 T2519 16 100 0 1 0 8 4 S0 74 4 CI16 index_map_of
fset0 0 1 dCCZ20 14 9 0 0 314 315 279 316 317 12 239 2 227 0 0 0 0 0 0 0 0 0 0 0
 81 2 314 124 318 1 0 315 0 0 0 319 81 2 315 128 254 1 314 316 0 0 0 320 81 1 31
6 324 321 1 315 317 0 0 322 81 2 317 335 323 1 316 12 0 0 0 324 81 2 12 348 325
 1 317 2 0 0 0 0 80 2 325 323 326 9000 0 0 0 0 3 5 0 0 0 FFTFFFFFFFFFFF9 1 79 16
 326 BODY_RECIPE_200180 2 323 321 327 9000 0 0 0 0 3 5 0 0 0 FFTFFFFFFFFFFF9 1 8
2 1 324 1 79 24 327 BODY_IN_LIGHTWEIGHT_PERM80 1 321 238 328 9000 1 1 1 1 1 1 1
 1 0 FFTFFFFFFFFFFF1 82 1 322 17166 79 10 328 BODY_MATCH80 2 254 318 329 9000 0
 0 0 0 3 5 0 0 0 FFTFFFFFFFFFFF9 1 82 1 320 41 79 30 329 LAST_BODY_MODIFYING_FEA
TURE_ID80 2 318 330 331 9000 0 0 0 0 3 5 0 0 0 FFTFFFFFFFFFFF9 1 82 1 319 106 79
 19 331 ENT_TIME_STAMP_200180 2 11 325 332 9000 0 0 0 0 3 5 0 0 0 FFTFFFFFFFFFFF
9 1 82 1 13 103 79 12 332 ATOM_ID_20011 0 
