**ABCDEFGHIJKLMNOPQRSTUVWXYZabcdefghijklmnopqrstuvwxyz**************************
**PARASOLID !"#$%&'()*+,-./:;<=>?@[\]^_`{|}~0123456789**************************
**PART1;
MC=AMD64;
MC_MODEL=Intel64 Family 6 Model 151 Stepping 2, GenuineIntel;
MC_ID=unknown;
OS=Windows_NT;
OS_RELEASE=unknown;
FRU=Parasolid Version 32.1, build 255,  1- 1-2021;
APPL=SOLIDWORKS 2021-2021301;
SITE=;
USER=unknown;
FORMAT=text;
GUISE=transmit;
KEY=modelV1;
FILE=modelV1.x_t;
DATE=Mon Oct  7 13:43:59 2024;
**PART2;
SCH=SCH_3201255_32001;
USFLD_SIZE=0;
**PART3;
**END_OF_HEADER*****************************************************************
T51 : TRANSMIT FILE created by modeller version 320125523 SCH_3201255_32001_1300
6229 0 12 34 CCCCCCI4 mesh1006 0 I8 polyline1008 0 CCCCCCCDI5 owner1040 0 CCCCCC
I13 boundary_mesh1006 0 I17 boundary_polyline1008 0 CCCA16 index_map_offset0 0 1
 dA9 index_map82 0 A17 node_id_index_map82 0 A20 schema_embedding_map82 0 A5 chi
ld12 0 A14 lowest_node_id0 0 1 dA16 mesh_offset_data206 0 Z1 790 2 3 0 0 0 0 0 0
 1e3 1e-8 0 4 0 1 0 1 1 5 6 7 8 0 0 9 10 11 0 0 0 0 0 0 0 81 255 2 2 772 12 1 13
 0 0 0 0 14 70 11 CI9 list_type0 0 1 uI10 notransmit0 0 1 lCCCDCCDI12 finger_ind
ex0 0 1 dI12 finger_block1012 0 CZ3 0 4 T1 0 0 8 20 1 15 15 13 255 5 99 0 1 0 16
 0 0 17 0 50 255 6 94 0 18 19 0 0 +.00139101041543277 .033 0 1 0 0 0 0 -1 30 255
 7 237 0 10 20 0 0 +.00139101041543277 .0205189427343231 -.0383687039590205 1 0
 0 29 255 8 158 0 11 21 0 .0482642038158134 .033 0 19 8 CCCCCCCA5 owner12 0 Z9 3
3 0 1 17 0 22 V0 16 255 10 235 0 ?23 0 24 7 0 0 1 18 255 11 156 0 25 0 26 8 ?1 1
7 255 25 0 27 28 29 11 30 31 0 32 +18 26 150 0 33 11 34 21 ?1 17 33 0 35 36 37 2
6 38 39 0 40 +18 34 144 0 41 26 42 43 ?1 29 21 152 0 26 43 8 .03167280885853785
 .033 0 29 43 146 0 34 44 21 .0157114668743233 .033 0 29 44 75 0 45 46 43 .00139
101041543277 0 -.0383687039590205 18 45 66 0 47 48 49 44 ?1 29 46 76 0 49 50 44
 .0535539009941616 0 -.0383687039590205 18 49 67 0 51 45 52 46 ?1 29 50 77 0 52
 53 46 .0535539009941616 0 0 18 52 68 0 54 49 55 50 ?1 29 53 78 0 55 56 50 .0013
9101041543277 0 0 18 55 69 0 57 52 58 53 ?1 29 56 32 0 42 59 53 .001391010415432
77 .033 -.0383687039590205 18 42 30 0 60 34 61 56 ?1 29 59 29 0 61 62 56 .053553
9009941616 .033 -.0383687039590205 18 61 27 0 63 42 64 59 ?1 29 62 26 0 64 65 59
 .0535539009941616 .033 0 18 64 24 0 66 61 48 62 ?1 29 65 23 0 48 67 62 .0013910
1041543277 .033 0 18 48 21 0 68 64 45 65 ?1 29 67 615 0 58 69 65 .00641818552167
216 .0205189427343231 -.0383687039590205 18 58 332 0 70 55 71 67 ?1 29 69 616 0
 71 72 67 .00641818552167215 .033 -.0383687039590205 18 71 322 0 73 58 74 69 ?1
 29 72 617 0 74 75 69 .0157114668743233 .033 -.0383687039590205 18 74 329 0 76 7
1 77 72 ?1 29 75 618 0 77 78 72 .0157114668743233 .0205189427343231 -.0383687039
590205 18 77 324 0 79 74 80 75 ?1 29 78 619 0 80 81 75 .0221695098481996 .020518
9427343231 -.0383687039590205 18 80 419 0 82 77 83 78 ?1 29 81 620 0 83 84 78 .0
221695098481996 .033 -.0383687039590205 18 83 409 0 85 80 86 81 ?1 29 84 621 0 8
6 87 81 .03167280885853785 .033 -.0383687039590205 18 86 416 0 36 83 88 84 ?1 29
 87 622 0 88 89 84 .03167280885853785 .0205189427343231 -.0383687039590205 18 88
 411 0 90 86 91 87 ?1 29 89 623 0 91 92 87 .03844587831894465 .0205189427343231
 -.0383687039590205 18 91 506 0 93 88 94 89 ?1 29 92 624 0 94 95 89 .03844587831
894465 .033 -.0383687039590205 18 94 496 0 96 91 97 92 ?1 29 95 625 0 97 98 92 .
0482642038158134 .033 -.0383687039590205 18 97 503 0 28 94 99 95 ?1 29 98 626 0
 99 100 95 .0482642038158134 .0205189427343231 -.0383687039590205 18 99 498 0 10
1 97 102 98 ?1 29 100 627 0 103 104 98 .03844587831894465 .033 0 18 103 497 0 10
5 106 107 100 ?1 29 104 629 0 107 108 100 .0482642038158134 .0205189427343231 0
 18 107 499 0 29 103 109 104 ?1 29 108 630 0 109 110 104 .03844587831894465 .020
5189427343231 0 18 109 500 0 111 107 0 108 ?1 29 110 635 0 112 113 108 .02216950
98481996 .033 0 18 112 410 0 114 115 116 110 ?1 29 113 637 0 116 117 110 .031672
80885853785 .0205189427343231 0 18 116 412 0 37 112 106 113 ?1 29 117 638 0 106
 118 113 .0221695098481996 .0205189427343231 0 18 106 413 0 119 116 103 117 ?1 2
9 118 643 0 102 120 117 .00641818552167215 .033 0 18 102 323 0 121 99 122 118 ?1
 29 120 645 0 122 123 118 .0157114668743233 .0205189427343231 0 18 122 325 0 124
 102 115 120 ?1 29 123 646 0 115 0 120 .00641818552167216 .0205189427343231 0 18
 115 326 0 125 122 112 123 ?1 17 125 0 126 127 70 115 128 129 0 130 +15 255 126
 341 0 125 131 0 17 127 0 126 132 125 122 133 134 0 135 +17 70 0 126 125 132 58
 23 10 0 128 -17 128 0 136 73 130 58 125 129 0 137 -16 129 291 0 ?125 138 139 14
0 0 0 1 17 130 0 136 128 121 115 141 142 0 133 +15 136 345 0 121 143 0 17 121 0
 136 130 73 102 144 145 0 141 -17 141 0 146 68 133 102 130 142 0 147 -16 142 310
 0 ?130 134 148 149 0 0 1 17 133 0 146 141 135 115 127 134 0 0 -15 146 87 0 133
 150 0 17 135 0 146 133 151 122 41 139 0 0 -16 134 313 0 ?127 139 142 152 0 0 1
 16 139 316 0 ?41 129 134 153 0 0 1 30 152 609 0 134 149 153 0 +.006418185521672
16 .0205189427343231 0 1 0 0 30 149 610 0 142 0 152 0 +.00641818552167215 .033 0
 1389885038623546e-31 -1 0 30 153 608 0 139 152 154 0 +.0157114668743233 .033 0
 0 1 0 30 154 604 0 138 153 140 0 +.0157114668743233 .0205189427343231 -.043 0 0
 1 16 138 289 0 ?124 155 129 154 0 0 1 30 140 603 0 129 154 156 0 +.006418185521
67216 .0205189427343231 -.043 0 0 1 30 156 598 0 157 140 158 0 +.022169509848199
6 .033 0 0 -1 0 16 157 397 0 ?159 160 161 156 0 0 1 30 158 597 0 160 156 162 0 +
.0221695098481996 .0205189427343231 0 1 0 0 16 160 400 0 ?163 39 157 158 0 0 1 3
0 162 596 0 39 158 164 0 +.03167280885853785 .033 0 0 1 0 16 39 403 0 ?33 165 16
0 162 0 0 1 30 164 592 0 148 162 166 0 +.03167280885853785 .0205189427343231 -.0
43 0 0 1 16 148 376 0 ?37 142 165 164 0 0 1 30 166 591 0 165 164 167 0 +.0221695
098481996 .0205189427343231 -.043 0 0 1 16 165 378 0 ?119 148 39 166 0 0 1 30 16
7 586 0 168 166 169 0 +.03844587831894465 .033 0 0 -1 0 16 168 484 0 ?170 171 0
 167 0 0 1 30 169 585 0 171 167 172 0 +.03844587831894465 .0205189427343231 0 1
 0 0 16 171 487 0 ?173 31 168 169 0 0 1 30 172 584 0 31 169 174 0 +.048264203815
8134 .033 0 0 1 0 16 31 490 0 ?25 175 171 172 0 0 1 30 174 580 0 161 172 176 0 +
.0482642038158134 .0205189427343231 -.043 0 0 1 16 161 463 0 ?29 157 175 174 0 0
 1 30 176 579 0 175 174 177 0 +.03844587831894465 .0205189427343231 -.043 0 0 1
 16 175 465 0 ?111 161 31 176 0 0 1 30 177 578 0 155 176 178 0 +.048264203815813
4 .033 -.0383687039590205 0 1 0 16 155 466 0 ?179 180 138 177 0 0 1 30 178 577 0
 180 177 181 0 +.03844587831894465 .033 -.0383687039590205 0 -1 0 16 180 464 0 ?
182 183 155 178 0 0 1 30 181 576 0 183 178 184 0 +.03167280885853785 .033 -.0383
687039590205 0 1 0 16 183 379 0 ?185 186 180 181 0 0 1 30 184 575 0 186 181 187
 0 +.0221695098481996 .033 -.0383687039590205 0 -1 0 16 186 377 0 ?188 189 183 1
84 0 0 1 30 187 574 0 189 184 190 0 +.0157114668743233 .033 -.0383687039590205 0
 1 0 16 189 292 0 ?191 192 186 187 0 0 1 30 190 573 0 192 187 193 0 +.0064181855
2167215 .033 -.0383687039590205 1389885038623546e-31 -1 0 16 192 290 0 ?137 194
 189 190 0 0 1 30 193 7 0 195 190 196 0 +.00139101041543277 .033 0 0 0 1 16 195
 5 0 ?197 198 199 193 0 0 1 30 196 11 0 200 193 201 0 +.00139101041543277 .033 0
 1 0 0 16 200 9 0 ?147 202 203 196 198 203 1 30 201 15 0 202 196 204 0 +.0535539
009941616 .033 0 0 0 -1 16 202 13 0 ?63 205 200 201 0 0 1 30 204 19 0 206 201 20
7 0 +.00139101041543277 .033 -.0383687039590205 -1 0 0 16 206 17 0 ?208 209 210
 204 205 210 1 30 207 74 0 194 204 211 0 +.00139101041543277 0 0 0 0 1 16 194 62
 0 ?212 213 192 207 0 0 1 30 211 73 0 213 207 214 0 +.00139101041543277 0 0 1 0
 0 16 213 58 0 ?54 215 194 211 0 0 1 30 214 72 0 215 211 216 0 +.053553900994161
6 0 0 0 0 -1 16 215 54 0 ?51 199 213 214 0 0 1 30 216 71 0 199 214 217 0 +.00139
101041543277 0 -.0383687039590205 -1 0 0 16 199 50 0 ?47 195 215 216 0 0 1 30 21
7 95 0 209 216 218 0 +.00139101041543277 .033 -.0383687039590205 0 -1 0 16 209 7
9 0 ?219 220 206 217 0 0 1 30 218 96 0 220 217 221 0 +.0535539009941616 .033 -.0
383687039590205 0 -1 0 16 220 80 0 ?222 223 209 218 0 0 1 30 221 97 0 223 218 22
4 0 +.0535539009941616 .033 0 0 -1 0 16 223 81 0 ?225 226 220 221 0 0 1 30 224 9
8 0 226 221 227 0 +.00139101041543277 .033 0 0 -1 0 16 226 82 0 ?228 229 223 224
 0 0 1 30 227 179 0 229 224 230 0 +.0482642038158134 .033 0 0 0 1 16 229 177 0 ?
32 231 226 227 0 0 1 30 230 184 0 231 227 232 0 +.03844587831894465 .033 0 0 0 -
1 16 231 182 0 ?233 234 229 230 0 0 1 30 232 189 0 234 230 235 0 +.0316728088585
3785 .033 0 0 0 1 16 234 187 0 ?40 236 231 232 0 0 1 30 235 194 0 236 232 237 0
 +.0221695098481996 .033 0 0 0 -1 16 236 192 0 ?238 239 234 235 0 0 1 30 237 199
 0 239 235 240 0 +.0157114668743233 .033 0 0 0 1 16 239 197 0 ?241 145 236 237 0
 0 1 30 240 204 0 145 237 242 0 +.00641818552167215 .033 0 0 0 -1 16 145 202 0 ?
144 243 239 240 0 0 1 30 242 213 0 243 240 20 0 +.00139101041543277 .02051894273
43231 -.0383687039590205 1 0 0 16 243 211 0 ?244 24 145 242 0 0 1 30 20 225 0 24
 242 7 0 +.00139101041543277 .0205189427343231 -.0383687039590205 1 0 0 16 24 22
3 0 ?245 10 243 20 0 0 1 17 245 0 246 185 188 88 82 24 0 0 +15 246 232 0 247 248
 0 17 185 0 246 249 245 86 90 183 0 250 +17 188 0 246 245 251 80 85 186 0 0 +17
 82 0 252 119 253 80 245 24 0 254 -15 252 428 0 119 255 0 17 119 0 252 163 82 10
6 254 165 0 159 +17 253 0 252 82 163 88 37 148 0 245 -17 254 0 256 85 159 80 119
 165 0 188 -15 256 432 0 114 257 0 17 85 0 256 114 254 83 188 186 0 238 -17 159
 0 256 254 114 106 258 157 0 259 +17 114 0 256 159 85 112 238 236 0 258 -17 258
 0 146 151 259 112 159 157 0 260 -17 259 0 146 258 38 106 163 160 0 0 -17 38 0 1
46 259 261 116 33 39 0 0 -17 163 0 252 253 119 116 259 160 0 38 +17 261 0 146 38
 262 26 263 264 0 0 -17 262 0 146 261 265 103 170 168 0 263 -17 263 0 266 233 40
 103 261 264 0 0 +16 264 151 0 ?263 203 198 196 203 198 1 16 203 145 0 ?260 200
 264 196 200 264 1 16 198 157 0 ?66 264 195 196 264 200 1 17 66 0 267 63 32 64 2
68 198 0 269 +15 267 4 0 208 270 0 17 63 0 267 208 66 61 271 202 0 272 +17 32 0
 267 66 208 11 28 229 0 268 +17 268 0 146 30 269 11 66 198 0 0 -17 269 0 146 268
 54 64 225 223 0 271 -17 54 0 146 269 228 52 57 213 0 225 +17 225 0 273 51 271 5
2 269 223 0 274 +17 271 0 273 225 272 64 63 202 0 0 -15 273 85 0 51 275 0 17 272
 0 273 271 51 61 222 220 0 276 -17 51 0 273 272 225 49 274 215 0 222 +17 222 0 2
46 47 276 49 272 220 0 277 +17 276 0 246 222 179 61 208 206 0 0 -17 179 0 246 27
6 244 97 101 155 0 208 +17 208 0 267 32 63 97 276 206 0 0 +17 244 0 246 179 182
 99 93 243 0 0 +17 101 0 27 29 28 99 179 155 0 278 -15 27 523 0 29 279 0 17 29 0
 27 25 101 107 278 161 0 173 +17 28 0 27 101 25 97 32 229 0 179 -17 278 0 280 93
 173 99 29 161 0 244 -15 280 515 0 111 281 0 17 93 0 280 111 278 91 244 243 0 28
2 -17 173 0 280 278 111 107 265 171 0 30 +17 111 0 280 173 93 109 282 175 0 170
 +17 265 0 146 262 30 109 173 171 0 0 -17 30 0 146 265 268 107 25 31 0 0 -17 282
 0 283 96 170 91 111 175 0 182 -17 170 0 283 282 105 109 262 168 0 265 +15 283 5
19 0 105 284 0 17 105 0 283 170 96 103 233 231 0 262 -17 96 0 283 105 282 94 182
 180 0 233 -17 233 0 266 250 263 94 105 231 0 249 +15 266 178 0 250 285 0 17 250
 0 266 40 233 86 249 210 0 0 +17 249 0 246 182 185 94 250 210 0 0 -17 182 0 246
 244 249 91 96 180 0 0 +16 210 163 0 ?250 206 286 204 206 286 1 16 286 169 0 ?28
7 210 205 204 210 205 1 17 287 0 288 241 238 74 251 286 0 0 +16 205 175 0 ?60 28
6 202 204 286 206 1 17 60 0 289 197 144 42 247 205 0 290 +15 289 198 0 147 16 0
 17 197 0 289 147 60 48 291 195 0 292 +17 144 0 289 60 147 71 121 145 0 247 +17
 247 0 246 137 290 71 60 205 0 0 -17 290 0 246 247 47 42 219 209 0 291 -17 47 0
 246 290 222 45 277 199 0 219 +17 219 0 293 212 291 45 290 209 0 294 +17 291 0 2
93 219 292 42 197 195 0 0 -15 293 89 0 212 18 0 17 292 0 293 291 212 48 228 226
 0 0 -17 212 0 293 292 219 55 294 194 0 0 +17 228 0 146 54 68 55 292 226 0 212 +
17 68 0 146 228 141 48 147 200 0 197 -17 147 0 289 144 197 102 68 200 0 0 +17 29
4 0 295 277 57 45 212 194 0 0 -15 295 49 0 294 296 0 17 277 0 295 274 294 49 47
 199 0 0 -17 57 0 295 294 274 55 54 213 0 228 -17 274 0 295 57 277 52 51 215 0 0
 -14 255 296 48 297 ?281 270 295 5 298 +0 0 281 270 22 81 1 297 773 299 296 300
 0 0 301 302 14 281 512 301 ?284 296 280 5 303 -0 0 284 296 22 14 270 1 304 ?296
 248 267 5 305 -16 285 296 248 22 50 298 70 0 296 305 306 0 +0 0 0 0 -1 0 0 0 -1
 13 22 34 0 0 0 0 0 0 9 16 14 16 200 307 ?308 0 289 5 305 -308 270 308 0 22 81 1
 307 776 299 16 309 0 304 310 311 14 308 190 310 ?285 16 288 5 305 -285 16 285 1
6 22 50 305 3 0 270 312 298 0 +0 .033 0 0 -1 0 0 0 -1 50 312 552 0 284 303 305 0
 +.03844587831894465 .033 -.043 -1 0 0 0 0 1 14 284 516 313 ?279 281 283 5 312 -
0 0 279 281 22 50 303 553 0 281 314 312 0 +.03844587831894465 .0205189427343231
 -.043 0 -1 0 0 0 -1 50 314 554 0 279 315 303 0 +.0482642038158134 .033 -.043 1
 0 0 0 0 -1 14 279 520 316 ?255 284 27 5 314 -0 0 255 284 22 50 315 558 0 257 31
7 314 0 +.0221695098481996 .033 -.043 -1 0 0 0 0 1 14 257 429 318 ?319 255 256 5
 315 -0 0 319 255 22 50 317 559 0 255 320 315 0 +.0221695098481996 .020518942734
3231 -.043 0 -1 0 0 0 -1 14 255 425 321 ?257 279 252 5 317 -0 0 257 279 22 50 32
0 560 0 319 322 317 0 +.03167280885853785 .033 -.043 1 0 0 0 0 -1 14 319 433 323
 ?131 257 35 5 320 -0 0 131 257 22 50 322 564 0 143 324 320 0 +.0064181855216721
5 .033 -.043 -1 -1389885038623546e-31 0 1389885038623546e-31 -1 0 14 143 342 325
 ?326 131 136 5 322 -0 0 326 131 22 50 324 565 0 131 327 322 0 +.006418185521672
16 .0205189427343231 -.043 0 -1 0 0 0 -1 14 131 338 328 ?143 319 126 5 324 -0 0
 143 319 22 50 327 566 0 326 0 324 0 +.0157114668743233 .033 -.043 1 0 0 0 0 -1
 14 326 346 329 ?0 143 330 5 327 -0 0 0 143 22 81 1 329 785 299 326 331 0 328 33
2 333 15 330 349 0 124 326 0 17 124 0 330 41 79 122 132 138 0 127 +17 41 0 330 7
6 124 34 135 139 0 241 +17 79 0 330 124 76 77 191 189 0 132 -17 132 0 126 70 127
 77 124 138 0 23 -17 23 0 246 191 137 77 70 10 0 0 +17 191 0 246 251 23 74 79 18
9 0 287 +17 137 0 246 23 247 58 73 192 0 0 +17 73 0 136 121 128 71 137 192 0 144
 -17 251 0 246 188 191 83 287 286 0 0 -17 76 0 330 79 41 74 241 239 0 191 -17 24
1 0 288 260 287 34 76 239 0 151 +15 288 188 0 287 308 0 17 260 0 288 238 241 112
 151 203 0 0 +17 151 0 146 135 258 34 260 203 0 0 -17 238 0 288 287 260 83 114 2
36 0 251 +80 255 1 299 334 335 9000 1 1 1 1 1 1 1 1 0 FFFFTFTFFFFFFF1 81 1 331 7
34 336 326 0 329 337 0 338 81 1 328 784 299 131 339 0 325 329 340 81 1 332 786 2
99 248 341 0 329 342 343 82 255 1 333 1892286585 14 248 84 332 ?270 275 246 5 30
6 -0 0 270 275 22 81 1 341 723 336 248 0 332 344 345 346 81 1 342 787 299 150 34
7 0 332 348 349 82 1 343 1131675769 14 150 88 342 ?275 18 146 5 19 -0 0 275 18 2
2 81 1 347 721 336 150 0 342 350 344 351 81 1 348 788 299 285 352 0 342 353 354
 82 1 349 1132200057 14 285 180 348 ?18 308 266 5 305 -270 308 18 308 22 81 1 35
2 719 336 285 0 348 355 350 356 81 1 353 789 299 275 344 0 348 357 358 82 1 354
 1884160121 14 275 86 353 ?248 150 273 5 359 -0 0 248 150 22 81 1 344 722 336 27
5 0 353 347 341 360 81 1 357 790 299 18 350 0 353 0 361 82 1 358 1131937898 14 1
8 90 357 ?150 285 293 5 6 -0 0 150 285 22 81 1 350 720 336 18 0 357 352 347 362
 82 1 361 1132462186 80 1 336 0 363 8001 0 0 0 0 3 5 0 0 0 FFFFTFTFFFFFFF2 83 25
5 3 362 .792156862745098 .819607843137255 .929411764705882 79 255 15 363 SDL/TYS
A_COLOUR83 3 360 .792156862745098 .819607843137255 .929411764705882 50 359 92 0
 275 306 19 0 +.0535539009941616 .033 0 -1 0 0 0 0 1 50 306 91 0 248 298 359 0 +
.00139101041543277 .033 -.0383687039590205 0 0 1 1 0 0 50 19 93 0 150 359 6 0 +.
00139101041543277 .033 0 0 0 -1 -1 0 0 81 1 355 718 336 308 0 310 309 352 364 83
 3 356 .792156862745098 .819607843137255 .929411764705882 81 1 310 777 299 308 3
55 0 307 313 365 81 1 309 717 336 16 0 307 0 355 366 83 3 364 .792156862745098 .
819607843137255 .929411764705882 83 3 366 .792156862745098 .819607843137255 .929
411764705882 81 1 313 778 299 284 367 0 310 316 368 82 1 365 1885077625 81 1 367
 727 336 284 0 313 369 370 371 81 1 316 779 299 279 370 0 313 318 372 82 1 368 1
888747641 81 1 370 728 336 279 0 316 367 373 374 81 1 318 780 299 257 375 0 316
 321 376 82 1 372 1887567993 81 1 375 730 336 257 0 318 373 377 378 81 1 321 781
 299 255 373 0 318 323 379 82 1 376 1891106937 81 1 373 729 336 255 0 321 370 37
5 380 81 1 323 782 299 319 377 0 321 325 381 82 1 379 1898446969 81 1 377 731 33
6 319 0 323 375 339 382 81 1 325 783 299 143 337 0 323 328 383 82 1 381 18899272
89 81 1 337 733 336 143 0 325 339 331 384 82 1 383 1893466233 81 1 339 732 336 1
31 0 328 377 337 385 83 3 384 .792156862745098 .819607843137255 .929411764705882
 83 3 385 .792156862745098 .819607843137255 .929411764705882 83 3 382 .792156862
745098 .819607843137255 .929411764705882 83 3 380 .792156862745098 .819607843137
255 .929411764705882 83 3 378 .792156862745098 .819607843137255 .929411764705882
 83 3 374 .792156862745098 .819607843137255 .929411764705882 81 1 369 726 336 28
1 0 301 300 367 386 83 3 371 .792156862745098 .819607843137255 .929411764705882
 81 1 301 774 299 281 369 0 297 304 387 81 1 300 725 336 296 0 297 345 369 388 8
3 3 386 .792156862745098 .819607843137255 .929411764705882 81 1 345 724 336 270
 0 304 341 300 389 83 3 388 .792156862745098 .819607843137255 .929411764705882 8
1 1 304 775 299 270 345 0 301 307 390 83 3 389 .792156862745098 .819607843137255
 .929411764705882 82 1 390 1125122169 82 1 387 1897463929 83 3 351 .792156862745
098 .819607843137255 .929411764705882 83 3 346 .792156862745098 .819607843137255
 .929411764705882 82 1 340 1899430009 83 3 338 .792156862745098 .819607843137255
 .929411764705882 79 14 335 SWEntUnchanged15 35 436 0 37 319 0 17 37 0 35 33 90
 116 253 148 0 163 +17 90 0 35 37 36 88 185 183 0 253 -17 36 0 35 90 33 86 40 23
4 0 185 -17 40 0 266 263 250 26 36 234 0 261 +82 1 311 1885995129 82 1 302 11307
58250 19 17 100 0 1 0 9 5 S0 74 4 CI16 index_map_offset0 0 1 dCCZ20 15 8 0 0 391
 392 357 393 394 13 331 2 0 0 0 0 0 0 0 0 0 0 0 0 81 2 391 124 395 1 0 392 0 0 0
 396 81 2 392 128 397 1 391 393 0 0 0 398 81 2 393 136 399 1 392 394 0 0 0 0 81
 1 394 697 400 1 393 13 0 0 401 81 2 13 716 402 1 394 2 0 0 0 403 80 2 402 404 4
05 9000 0 0 0 0 3 5 0 0 0 FFTFFFFFFFFFFF9 1 82 1 403 1 79 24 405 BODY_IN_LIGHTWE
IGHT_PERM80 1 400 406 407 9000 1 1 1 1 1 1 1 1 0 FFTFFFFFFFFFFF1 82 1 401 17166
 79 10 407 BODY_MATCH80 2 399 408 409 9000 0 0 0 0 3 5 0 0 0 FFTFFFFFFFFFFF9 1 7
9 16 409 BODY_RECIPE_200180 2 397 410 411 9000 0 0 0 0 3 5 0 0 0 FFTFFFFFFFFFFF9
 1 82 1 398 41 79 30 411 LAST_BODY_MODIFYING_FEATURE_ID80 2 395 412 413 9000 0 0
 0 0 3 5 0 0 0 FFTFFFFFFFFFFF9 1 82 1 396 113 79 19 413 ENT_TIME_STAMP_200180 2
 12 414 415 9000 0 0 0 0 3 5 0 0 0 FFTFFFFFFFFFFF9 1 82 1 14 103 79 12 415 ATOM_
ID_20011 0 
