**ABCDEFGHIJKLMNOPQRSTUVWXYZabcdefghijklmnopqrstuvwxyz**************************
**PARASOLID !"#$%&'()*+,-./:;<=>?@[\]^_`{|}~0123456789**************************
**PART1;
MC=AMD64;
MC_MODEL=Intel64 Family 6 Model 151 Stepping 2, GenuineIntel;
MC_ID=unknown;
OS=Windows_NT;
OS_RELEASE=unknown;
FRU=Parasolid Version 32.1, build 255,  1- 1-2021;
APPL=SOLIDWORKS 2021-2021301;
SITE=;
USER=unknown;
FORMAT=text;
GUISE=transmit;
KEY=modelV0;
FILE=modelV0.x_t;
DATE=Mon Oct  7 12:44:53 2024;
**PART2;
SCH=SCH_3201255_32001;
USFLD_SIZE=0;
**PART3;
**END_OF_HEADER*****************************************************************
T51 : TRANSMIT FILE created by modeller version 320125523 SCH_3201255_32001_1300
6229 0 12 34 CCCCCCI4 mesh1006 0 I8 polyline1008 0 CCCCCCCDI5 owner1040 0 CCCCCC
I13 boundary_mesh1006 0 I17 boundary_polyline1008 0 CCCA16 index_map_offset0 0 1
 dA9 index_map82 0 A17 node_id_index_map82 0 A20 schema_embedding_map82 0 A5 chi
ld12 0 A14 lowest_node_id0 0 1 dA16 mesh_offset_data206 0 Z1 391 2 3 0 0 0 0 0 0
 1e3 1e-8 0 4 0 1 0 1 1 5 6 7 8 0 0 9 10 11 0 0 0 0 0 0 0 81 255 2 2 381 12 1 13
 0 0 0 0 14 70 11 CI9 list_type0 0 1 uI10 notransmit0 0 1 lCCCDCCDI12 finger_ind
ex0 0 1 dI12 finger_block1012 0 CZ3 0 4 T1 0 0 8 20 1 15 15 13 255 5 99 0 1 0 16
 0 0 17 0 50 255 6 94 0 18 19 0 0 +.00139101041543277 .033 0 1 0 0 0 0 -1 30 255
 7 165 0 10 20 0 0 +.00139101041543277 .0205189427343231 -.0383687039590205 1 0
 0 29 255 8 142 0 11 21 0 .03654368794924475 .033 0 19 8 CCCCCCCA5 owner12 0 Z9
 33 0 1 17 0 22 V0 16 255 10 163 0 ?23 0 24 7 0 0 1 18 255 11 140 0 25 0 26 8 ?1
 17 255 25 0 27 28 29 11 30 31 0 32 +18 26 30 0 33 11 34 35 ?1 17 33 0 36 37 38
 26 39 40 0 41 +18 34 27 0 42 26 43 44 ?1 29 35 32 0 26 44 45 .00139101041543277
 .033 -.0383687039590205 29 44 29 0 34 46 35 .0535539009941616 .033 -.0383687039
590205 29 45 78 0 47 35 48 .00139101041543277 0 0 18 47 69 0 49 50 51 45 ?1 29 4
8 77 0 50 45 52 .0535539009941616 0 0 18 50 68 0 53 54 47 48 ?1 29 52 76 0 54 48
 21 .0535539009941616 0 -.0383687039590205 18 54 67 0 55 56 50 52 ?1 29 21 75 0
 56 52 8 .00139101041543277 0 -.0383687039590205 18 56 66 0 57 58 54 21 ?1 17 57
 0 59 41 60 56 61 62 0 63 +18 58 21 0 64 43 56 65 ?1 17 64 0 66 67 68 58 69 70 0
 37 -18 43 24 0 71 34 58 46 ?1 29 65 23 0 58 72 46 .00139101041543277 .033 0 29
 72 295 0 51 73 65 .013225196982435 .0205189427343231 -.0383687039590205 29 46 2
6 0 43 65 44 .0535539009941616 .033 0 18 51 232 0 74 47 75 72 ?1 29 73 296 0 75
 76 72 .013225196982435 .033 -.0383687039590205 18 75 222 0 77 51 78 73 ?1 29 76
 297 0 78 79 73 .03654368794924475 .033 -.0383687039590205 18 78 229 0 28 75 80
 76 ?1 29 79 298 0 80 81 76 .03654368794924475 .0205189427343231 -.0383687039590
205 18 80 224 0 82 78 83 79 ?1 29 81 299 0 83 84 79 .013225196982435 .033 0 18 8
3 223 0 85 80 86 81 ?1 29 84 301 0 86 87 81 .03654368794924475 .0205189427343231
 0 18 86 225 0 29 83 88 84 ?1 29 87 302 0 88 0 84 .013225196982435 .020518942734
3231 0 18 88 226 0 89 86 0 87 ?1 17 89 0 90 91 74 88 92 93 0 94 +15 255 90 241 0
 89 95 0 17 91 0 90 96 89 86 97 98 0 30 +17 74 0 90 89 96 51 23 10 0 92 -17 92 0
 99 77 94 51 89 93 0 100 -16 93 191 0 ?89 101 31 102 0 0 1 17 94 0 99 92 85 88 6
8 103 0 97 +15 99 245 0 85 104 0 17 85 0 99 94 77 83 38 24 0 68 -17 68 0 66 64 9
7 83 94 103 0 69 -16 103 210 0 ?94 98 0 105 0 0 1 17 97 0 66 68 30 88 91 98 0 0
 -15 66 87 0 97 106 0 17 30 0 66 97 107 86 25 31 0 0 -16 98 213 0 ?91 31 103 108
 0 0 1 16 31 216 0 ?25 93 98 109 0 0 1 30 108 289 0 98 105 109 0 +.0132251969824
35 .0205189427343231 0 1 0 0 30 105 290 0 103 0 108 0 +.013225196982435 .033 0 0
 -1 0 30 109 288 0 31 108 110 0 +.03654368794924475 .033 0 0 1 0 30 110 284 0 10
1 109 102 0 +.03654368794924475 .0205189427343231 -.043 0 0 1 16 101 189 0 ?29 1
11 93 110 0 0 1 30 102 283 0 93 110 112 0 +.013225196982435 .0205189427343231 -.
043 0 0 1 30 112 282 0 111 102 113 0 +.03654368794924475 .033 -.0383687039590205
 0 1 0 16 111 192 0 ?114 115 101 112 0 0 1 30 113 281 0 115 112 116 0 +.01322519
6982435 .033 -.0383687039590205 0 -1 0 16 115 190 0 ?100 117 111 113 0 0 1 30 11
6 7 0 118 113 119 0 +.00139101041543277 .033 0 0 0 1 16 118 5 0 ?37 120 62 116 0
 0 1 30 119 11 0 70 116 121 0 +.00139101041543277 .033 0 1 0 0 16 70 9 0 ?69 122
 120 119 120 120 1 30 121 15 0 122 119 123 0 +.0535539009941616 .033 0 0 0 -1 16
 122 13 0 ?42 40 70 121 0 0 1 30 123 19 0 124 121 125 0 +.00139101041543277 .033
 -.0383687039590205 -1 0 0 16 124 17 0 ?126 127 40 123 40 40 1 30 125 74 0 117 1
23 128 0 +.00139101041543277 0 0 0 0 1 16 117 62 0 ?129 130 115 125 0 0 1 30 128
 73 0 130 125 131 0 +.00139101041543277 0 0 1 0 0 16 130 58 0 ?53 132 117 128 0
 0 1 30 131 72 0 132 128 133 0 +.0535539009941616 0 0 0 0 -1 16 132 54 0 ?55 62
 130 131 0 0 1 30 133 71 0 62 131 134 0 +.00139101041543277 0 -.0383687039590205
 -1 0 0 16 62 50 0 ?57 118 132 133 0 0 1 30 134 95 0 127 133 135 0 +.00139101041
543277 .033 -.0383687039590205 0 -1 0 16 127 79 0 ?63 136 124 134 0 0 1 30 135 9
6 0 136 134 137 0 +.0535539009941616 .033 -.0383687039590205 0 -1 0 16 136 80 0
 ?60 138 127 135 0 0 1 30 137 97 0 138 135 139 0 +.0535539009941616 .033 0 0 -1
 0 16 138 81 0 ?140 141 136 137 0 0 1 30 139 98 0 141 137 142 0 +.00139101041543
277 .033 0 0 -1 0 16 141 82 0 ?67 143 138 139 0 0 1 30 142 151 0 143 139 20 0 +.
03654368794924475 .033 0 0 0 1 16 143 149 0 ?32 24 141 142 0 0 1 30 20 156 0 24
 142 7 0 +.013225196982435 .033 0 0 0 -1 16 24 154 0 ?38 10 143 20 0 0 1 17 38 0
 36 33 69 75 85 24 0 39 +15 36 150 0 69 16 0 17 69 0 36 38 37 83 64 70 0 0 +17 3
9 0 59 100 41 75 33 40 0 0 -15 59 160 0 39 144 0 17 100 0 59 23 39 51 77 115 0 0
 +17 41 0 59 39 57 26 63 127 0 145 -16 40 147 0 ?33 124 122 123 124 124 1 17 63
 0 146 129 145 56 41 127 0 147 +17 145 0 146 63 148 26 37 118 0 0 -15 146 89 0 1
29 18 0 17 148 0 146 145 129 58 67 141 0 0 -17 37 0 36 69 33 58 145 118 0 148 +1
7 129 0 146 148 63 47 147 117 0 0 +17 67 0 66 53 64 47 148 141 0 129 +17 53 0 66
 149 67 50 49 130 0 140 +17 149 0 66 107 53 43 140 138 0 150 -17 49 0 151 147 15
2 47 53 130 0 67 -17 140 0 153 55 150 50 149 138 0 152 +15 153 85 0 55 154 0 17
 55 0 153 155 140 54 152 132 0 60 +17 150 0 153 140 155 43 42 122 0 0 -17 152 0
 151 49 61 50 55 132 0 0 -15 151 49 0 147 156 0 17 61 0 151 152 147 54 57 62 0 0
 -17 147 0 151 61 49 56 129 117 0 0 -14 255 156 48 157 ?95 158 151 5 159 +0 0 95
 158 22 81 1 157 382 160 156 161 0 0 162 163 14 95 238 162 ?104 156 90 5 164 -0
 0 104 156 22 14 158 1 165 ?156 144 166 5 167 -16 16 156 144 22 50 159 70 0 156
 167 168 0 +0 0 0 0 -1 0 0 0 -1 13 22 34 0 0 0 0 0 0 9 16 14 16 152 169 ?18 0 36
 5 167 -158 158 18 0 22 81 1 169 385 160 16 170 0 165 171 172 14 18 90 171 ?106
 16 146 5 6 -0 0 106 16 22 50 167 3 0 158 173 159 0 +0 .033 0 0 -1 0 0 0 -1 50 1
73 274 0 104 164 167 0 +.013225196982435 .033 -.043 -1 0 0 0 0 1 14 104 242 174
 ?175 95 99 5 173 -0 0 175 95 22 50 164 275 0 95 176 173 0 +.013225196982435 .02
05189427343231 -.043 0 -1 0 0 0 -1 50 176 276 0 175 0 164 0 +.03654368794924475
 .033 -.043 1 0 0 0 0 -1 14 175 246 177 ?0 104 27 5 176 -0 0 0 104 22 81 1 177 3
88 160 175 178 0 174 179 180 15 27 249 0 29 175 0 17 29 0 27 25 82 86 96 101 0 9
1 +17 82 0 27 29 28 80 114 111 0 96 -17 96 0 90 74 91 80 29 101 0 23 -17 23 0 59
 114 100 80 74 10 0 0 +17 114 0 59 181 23 78 82 111 0 126 +17 181 0 59 60 114 34
 126 124 0 0 -17 126 0 166 32 42 78 181 124 0 0 +15 166 4 0 126 158 0 17 32 0 16
6 71 126 11 28 143 0 107 +17 42 0 166 126 71 34 150 122 0 155 +17 71 0 166 42 32
 43 107 120 0 149 +17 155 0 153 150 55 34 60 136 0 181 -17 60 0 59 57 181 54 155
 136 0 61 +17 107 0 66 30 149 11 71 120 0 0 -16 120 141 0 ?71 70 118 119 70 70 1
 17 28 0 27 82 25 78 32 143 0 114 -80 255 1 160 182 183 9000 1 1 1 1 1 1 1 1 0 F
FFFTFTFFFFFFF1 81 1 178 359 184 175 0 177 185 0 186 81 1 174 387 160 104 185 0 1
71 177 187 81 1 179 389 160 144 188 0 177 189 190 82 255 1 180 -2005401490 14 14
4 84 179 ?158 154 59 5 168 -0 0 158 154 22 81 1 188 354 184 144 0 179 191 192 19
3 81 1 189 390 160 106 194 0 179 195 196 82 1 190 1131675758 14 106 88 189 ?154
 18 66 5 19 -0 0 154 18 22 81 1 194 352 184 106 0 189 197 191 198 81 1 195 391 1
60 154 191 0 189 0 199 82 1 196 1132200046 14 154 86 195 ?144 106 153 5 200 -0 0
 144 106 22 81 1 191 353 184 154 0 195 194 188 201 82 1 199 1131937898 80 1 184
 0 202 8001 0 0 0 0 3 5 0 0 0 FFFFTFTFFFFFFF2 83 255 3 201 .792156862745098 .819
607843137255 .929411764705882 79 255 15 202 SDL/TYSA_COLOUR50 200 92 0 154 168 1
9 0 +.0535539009941616 .033 0 -1 0 0 0 0 1 50 168 91 0 144 159 200 0 +.001391010
41543277 .033 -.0383687039590205 0 0 1 1 0 0 50 19 93 0 106 200 6 0 +.0013910104
1543277 .033 0 0 0 -1 -1 0 0 81 1 197 351 184 18 0 171 170 194 203 83 3 198 .792
156862745098 .819607843137255 .929411764705882 81 1 171 386 160 18 197 0 169 174
 204 81 1 170 350 184 16 0 169 0 197 205 83 3 203 .792156862745098 .819607843137
255 .929411764705882 83 3 205 .792156862745098 .819607843137255 .929411764705882
 82 1 204 1132462186 81 1 192 355 184 158 0 165 188 161 206 83 3 193 .7921568627
45098 .819607843137255 .929411764705882 81 1 165 384 160 158 192 0 162 169 207 8
1 1 161 356 184 156 0 157 192 208 209 83 3 206 .792156862745098 .819607843137255
 .929411764705882 81 1 208 357 184 95 0 162 161 185 210 83 3 209 .79215686274509
8 .819607843137255 .929411764705882 81 1 162 383 160 95 208 0 157 165 211 81 1 1
85 358 184 104 0 174 208 178 212 83 3 210 .792156862745098 .819607843137255 .929
411764705882 83 3 212 .792156862745098 .819607843137255 .929411764705882 82 1 21
1 -2002583442 82 1 207 1125122158 82 1 187 -2004221842 83 3 186 .792156862745098
 .819607843137255 .929411764705882 79 14 183 SWEntUnchanged82 1 172 -2006974354
 82 1 163 1130758250 17 77 0 99 85 92 75 100 115 0 38 -19 17 100 0 1 0 9 5 S0 74
 4 CI16 index_map_offset0 0 1 dCCZ20 15 8 0 0 213 214 195 215 216 13 178 2 0 0 0
 0 0 0 0 0 0 0 0 0 81 2 213 124 217 1 0 214 0 0 0 218 81 2 214 128 219 1 213 215
 0 0 0 220 81 1 215 324 221 1 214 216 0 0 222 81 2 216 335 223 1 215 13 0 0 0 22
4 81 2 13 348 225 1 216 2 0 0 0 0 80 2 225 226 227 9000 0 0 0 0 3 5 0 0 0 FFTFFF
FFFFFFFF9 1 79 16 227 BODY_RECIPE_200180 2 223 228 229 9000 0 0 0 0 3 5 0 0 0 FF
TFFFFFFFFFFF9 1 82 1 224 1 79 24 229 BODY_IN_LIGHTWEIGHT_PERM80 1 221 230 231 90
00 1 1 1 1 1 1 1 1 0 FFTFFFFFFFFFFF1 82 1 222 17166 79 10 231 BODY_MATCH80 2 219
 232 233 9000 0 0 0 0 3 5 0 0 0 FFTFFFFFFFFFFF9 1 82 1 220 41 79 30 233 LAST_BOD
Y_MODIFYING_FEATURE_ID80 2 217 234 235 9000 0 0 0 0 3 5 0 0 0 FFTFFFFFFFFFFF9 1
 82 1 218 106 79 19 235 ENT_TIME_STAMP_200180 2 12 236 237 9000 0 0 0 0 3 5 0 0
 0 FFTFFFFFFFFFFF9 1 82 1 14 103 79 12 237 ATOM_ID_20011 0 
