<svg xmlns="http://www.w3.org/2000/svg" xmlns:xlink="http://www.w3.org/1999/xlink" contentStyleType="text/css" data-diagram-type="ACTIVITY" height="2393px" preserveAspectRatio="none" style="width:1116px;height:2393px;background:#FFFFFF;" version="1.1" viewBox="0 0 1116 2393" width="1116px" zoomAndPan="magnify"><title>Get Paper with Citations and References - Activity Diagram</title><defs/><g><g class="title" data-source-line="3"><text fill="#000000" font-family="Verdana" font-size="22" font-weight="bold" lengthAdjust="spacing" textLength="736.3877" x="188.6758" y="35.4209">Get Paper with Citations and References - Activity Diagram</text></g><ellipse cx="558.3696" cy="61.6094" fill="#FFFFFF" rx="10" ry="10" style="stroke:#000000;stroke-width:1;"/><path d="M669.188,88.4609 L669.188,104.5938 L649.188,108.5938 L669.188,112.5938 L669.188,128.7266 A0,0 0 0 0 669.188,128.7266 L867.8589,128.7266 A0,0 0 0 0 867.8589,128.7266 L867.8589,98.4609 L857.8589,88.4609 L669.188,88.4609 A0,0 0 0 0 669.188,88.4609" fill="#FFFFFF" style="stroke:#000000;stroke-width:1;"/><path d="M857.8589,88.4609 L857.8589,98.4609 L867.8589,98.4609 L857.8589,88.4609" fill="#FFFFFF" style="stroke:#000000;stroke-width:1;"/><text fill="#000000" font-family="Verdana" font-size="13" lengthAdjust="spacing" textLength="177.6709" x="675.188" y="105.5278">paper_id, include_citations,</text><text fill="#000000" font-family="Verdana" font-size="13" lengthAdjust="spacing" textLength="123.0176" x="675.188" y="120.6606">include_references</text><rect fill="#FFFFFF" height="33.9688" rx="12.5" ry="12.5" style="stroke:#000000;stroke-width:1;" width="181.6367" x="467.5513" y="91.6094"/><text fill="#000000" font-family="Verdana" font-size="12" lengthAdjust="spacing" textLength="161.6367" x="477.5513" y="112.748">Receive get_paper request</text><path d="M658.5972,145.5781 L658.5972,161.7109 L638.5972,165.7109 L658.5972,169.7109 L658.5972,185.8438 A0,0 0 0 0 658.5972,185.8438 L832.6899,185.8438 A0,0 0 0 0 832.6899,185.8438 L832.6899,155.5781 L822.6899,145.5781 L658.5972,145.5781 A0,0 0 0 0 658.5972,145.5781" fill="#FFFFFF" style="stroke:#000000;stroke-width:1;"/><path d="M822.6899,145.5781 L822.6899,155.5781 L832.6899,155.5781 L822.6899,145.5781" fill="#FFFFFF" style="stroke:#000000;stroke-width:1;"/><text fill="#000000" font-family="Verdana" font-size="13" lengthAdjust="spacing" textLength="153.0928" x="664.5972" y="162.645">Generate correlation ID</text><text fill="#000000" font-family="Verdana" font-size="13" lengthAdjust="spacing" textLength="129.0288" x="664.5972" y="177.7778">for request tracking</text><rect fill="#FFFFFF" height="33.9688" rx="12.5" ry="12.5" style="stroke:#000000;stroke-width:1;" width="160.4551" x="478.1421" y="148.7266"/><text fill="#000000" font-family="Verdana" font-size="12" lengthAdjust="spacing" textLength="140.4551" x="488.1421" y="169.8652">Create RequestContext</text><rect fill="#FFFFFF" height="33.9688" rx="12.5" ry="12.5" style="stroke:#000000;stroke-width:1;" width="124.959" x="495.8901" y="205.8438"/><text fill="#000000" font-family="Verdana" font-size="12" lengthAdjust="spacing" textLength="104.959" x="505.8901" y="226.9824">Validate paper_id</text><rect fill="#FFFFFF" height="33.9688" rx="12.5" ry="12.5" style="stroke:#000000;stroke-width:1;" width="156.8047" x="479.9673" y="308.2148"/><text fill="#000000" font-family="Verdana" font-size="12" lengthAdjust="spacing" textLength="136.8047" x="489.9673" y="329.3535">Return validation error</text><ellipse cx="558.3696" cy="381.6992" fill="none" rx="11" ry="11" style="stroke:#000000;stroke-width:1;"/><ellipse cx="558.3696" cy="381.6992" fill="#FFFFFF" rx="6" ry="6" style="stroke:#000000;stroke-width:1;"/><polygon fill="#FFFFFF" points="506.1492,259.8125,610.5901,259.8125,622.5901,271.8125,610.5901,283.8125,506.1492,283.8125,494.1492,271.8125,506.1492,259.8125" style="stroke:#000000;stroke-width:1;"/><text fill="#000000" font-family="Verdana" font-size="11" lengthAdjust="spacing" textLength="19.0083" x="562.3696" y="294.0229">yes</text><text fill="#000000" font-family="Verdana" font-size="11" lengthAdjust="spacing" textLength="104.4409" x="506.1492" y="275.6206">paper_id is empty?</text><text fill="#000000" font-family="Verdana" font-size="11" lengthAdjust="spacing" textLength="13.7017" x="622.5901" y="269.2183">no</text><rect fill="#FFFFFF" height="333.9336" style="stroke:#000000;stroke-width:1;" width="535.5308" x="307.2146" y="424.6992"/><path d="M408.2693,424.6992 L408.2693,433.9961 L398.2693,443.9961 L307.2146,443.9961" fill="none" style="stroke:#000000;stroke-width:1;"/><text fill="#000000" font-family="Verdana" font-size="14" lengthAdjust="spacing" textLength="91.0547" x="310.2146" y="438.6943">Check Cache</text><polygon fill="#FFFFFF" points="463.8276,460.9961,652.9116,460.9961,664.9116,472.9961,652.9116,484.9961,463.8276,484.9961,451.8276,472.9961,463.8276,460.9961" style="stroke:#000000;stroke-width:1;"/><text fill="#000000" font-family="Verdana" font-size="11" lengthAdjust="spacing" textLength="189.084" x="463.8276" y="476.8042">citations or references requested?</text><text fill="#000000" font-family="Verdana" font-size="11" lengthAdjust="spacing" textLength="19.0083" x="432.8193" y="470.4019">yes</text><text fill="#000000" font-family="Verdana" font-size="11" lengthAdjust="spacing" textLength="13.7017" x="664.9116" y="470.4019">no</text><path d="M471.031,494.9961 L471.031,511.1289 L451.031,515.1289 L471.031,519.1289 L471.031,535.2617 A0,0 0 0 0 471.031,535.2617 L621.4915,535.2617 A0,0 0 0 0 621.4915,535.2617 L621.4915,504.9961 L611.4915,494.9961 L471.031,494.9961 A0,0 0 0 0 471.031,494.9961" fill="#FFFFFF" style="stroke:#000000;stroke-width:1;"/><path d="M611.4915,494.9961 L611.4915,504.9961 L621.4915,504.9961 L611.4915,494.9961" fill="#FFFFFF" style="stroke:#000000;stroke-width:1;"/><text fill="#000000" font-family="Verdana" font-size="13" lengthAdjust="spacing" textLength="129.4604" x="477.031" y="512.063">Cache only used for</text><text fill="#000000" font-family="Verdana" font-size="13" lengthAdjust="spacing" textLength="109.1099" x="477.031" y="527.1958">basic paper data</text><rect fill="#FFFFFF" height="33.9688" rx="12.5" ry="12.5" style="stroke:#000000;stroke-width:1;" width="123.8164" x="327.2146" y="498.1445"/><text fill="#000000" font-family="Verdana" font-size="12" lengthAdjust="spacing" textLength="103.8164" x="337.2146" y="519.2832">Skip cache check</text><rect fill="#FFFFFF" height="33.9688" rx="12.5" ry="12.5" style="stroke:#000000;stroke-width:1;" width="172.25" x="641.4915" y="494.9961"/><text fill="#000000" font-family="Verdana" font-size="12" lengthAdjust="spacing" textLength="152.25" x="651.4915" y="516.1348">Check cache for paper_id</text><rect fill="#FFFFFF" height="33.9688" rx="12.5" ry="12.5" style="stroke:#000000;stroke-width:1;" width="146.2578" x="654.4875" y="603.6641"/><text fill="#000000" font-family="Verdana" font-size="12" lengthAdjust="spacing" textLength="126.2578" x="664.4875" y="624.8027">Return cached paper</text><ellipse cx="727.6165" cy="683.6328" fill="none" rx="11" ry="11" style="stroke:#000000;stroke-width:1;"/><ellipse cx="727.6165" cy="683.6328" fill="#FFFFFF" rx="6" ry="6" style="stroke:#000000;stroke-width:1;"/><polygon fill="#FFFFFF" points="699.4907,555.2617,755.7422,555.2617,767.7422,567.2617,755.7422,579.2617,699.4907,579.2617,687.4907,567.2617,699.4907,555.2617" style="stroke:#000000;stroke-width:1;"/><text fill="#000000" font-family="Verdana" font-size="11" lengthAdjust="spacing" textLength="19.0083" x="731.6165" y="589.4722">yes</text><text fill="#000000" font-family="Verdana" font-size="11" lengthAdjust="spacing" textLength="56.2515" x="699.4907" y="571.0698">cache hit?</text><text fill="#000000" font-family="Verdana" font-size="11" lengthAdjust="spacing" textLength="13.7017" x="767.7422" y="564.6675">no</text><polygon fill="#FFFFFF" points="558.3696,722.6328,570.3696,734.6328,558.3696,746.6328,546.3696,734.6328,558.3696,722.6328" style="stroke:#000000;stroke-width:1;"/><rect fill="#FFFFFF" height="882.2339" style="stroke:#000000;stroke-width:1;" width="1104.7393" x="6" y="768.6328"/><path d="M209.7988,768.6328 L209.7988,777.9297 L199.7988,787.9297 L6,787.9297" fill="none" style="stroke:#000000;stroke-width:1;"/><text fill="#000000" font-family="Verdana" font-size="14" lengthAdjust="spacing" textLength="193.7988" x="9" y="782.6279">API Request with Resilience</text><rect fill="#FFFFFF" height="33.9688" rx="12.5" ry="12.5" style="stroke:#000000;stroke-width:1;" width="161.8789" x="477.4302" y="804.9297"/><text fill="#000000" font-family="Verdana" font-size="12" lengthAdjust="spacing" textLength="141.8789" x="487.4302" y="826.0684">Acquire rate limit token</text><rect fill="#FFFFFF" height="33.9688" rx="12.5" ry="12.5" style="stroke:#000000;stroke-width:1;" width="182.416" x="467.1616" y="914.6089"/><text fill="#000000" font-family="Verdana" font-size="12" lengthAdjust="spacing" textLength="162.416" x="477.1616" y="935.7476">Check circuit breaker state</text><polygon fill="#FFFFFF" points="499.677,968.5776,617.0623,968.5776,629.0623,980.5776,617.0623,992.5776,499.677,992.5776,487.677,980.5776,499.677,968.5776" style="stroke:#000000;stroke-width:1;"/><text fill="#000000" font-family="Verdana" font-size="11" lengthAdjust="spacing" textLength="117.3853" x="499.677" y="984.3857">circuit breaker state?</text><rect fill="#FFFFFF" height="33.9688" rx="12.5" ry="12.5" style="stroke:#000000;stroke-width:1;" width="205.4668" x="34" y="1028.187"/><text fill="#000000" font-family="Verdana" font-size="12" lengthAdjust="spacing" textLength="185.4668" x="44" y="1049.3257">Throw ServiceUnavailableError</text><rect fill="#FFFFFF" height="33.9688" rx="12.5" ry="12.5" style="stroke:#000000;stroke-width:1;" width="145.5195" x="63.9736" y="1082.1558"/><text fill="#000000" font-family="Verdana" font-size="12" lengthAdjust="spacing" textLength="125.5195" x="73.9736" y="1103.2944">Calculate retry delay</text><rect fill="#FFFFFF" height="33.9688" rx="12.5" ry="12.5" style="stroke:#000000;stroke-width:1;" width="199.2324" x="37.1172" y="1151.1245"/><text fill="#000000" font-family="Verdana" font-size="12" lengthAdjust="spacing" textLength="179.2324" x="47.1172" y="1172.2632">Wait with exponential backoff</text><rect fill="#FFFFFF" height="33.9688" rx="12.5" ry="12.5" style="stroke:#000000;stroke-width:1;" width="175.127" x="583.5396" y="1028.187"/><text fill="#000000" font-family="Verdana" font-size="12" lengthAdjust="spacing" textLength="155.127" x="593.5396" y="1049.3257">Make HTTP request to API</text><polygon fill="#FFFFFF" points="624.4336,1082.1558,717.7725,1082.1558,729.7725,1094.1558,717.7725,1106.1558,624.4336,1106.1558,612.4336,1094.1558,624.4336,1082.1558" style="stroke:#000000;stroke-width:1;"/><text fill="#000000" font-family="Verdana" font-size="11" lengthAdjust="spacing" textLength="93.3389" x="624.4336" y="1097.9639">response status?</text><rect fill="#FFFFFF" height="33.9688" rx="12.5" ry="12.5" style="stroke:#000000;stroke-width:1;" width="111.7402" x="306.3477" y="1141.7651"/><text fill="#000000" font-family="Verdana" font-size="12" lengthAdjust="spacing" textLength="91.7402" x="316.3477" y="1162.9038">Parse response</text><rect fill="#FFFFFF" height="33.9688" rx="12.5" ry="12.5" style="stroke:#000000;stroke-width:1;" width="139.2676" x="292.584" y="1205.0933"/><text fill="#000000" font-family="Verdana" font-size="12" lengthAdjust="spacing" textLength="119.2676" x="302.584" y="1226.2319">Create Paper object</text><rect fill="#FFFFFF" height="33.9688" rx="12.5" ry="12.5" style="stroke:#000000;stroke-width:1;" width="205.502" x="259.4668" y="1266.0425"/><text fill="#000000" font-family="Verdana" font-size="12" lengthAdjust="spacing" textLength="185.502" x="269.4668" y="1287.1812">Update circuit breaker success</text><rect fill="#FFFFFF" height="33.9688" rx="12.5" ry="12.5" style="stroke:#000000;stroke-width:1;" width="148.6602" x="484.9688" y="1141.7651"/><text fill="#000000" font-family="Verdana" font-size="12" lengthAdjust="spacing" textLength="128.6602" x="494.9688" y="1162.9038">Throw NotFoundError</text><ellipse cx="559.2988" cy="1216.0933" fill="none" rx="11" ry="11" style="stroke:#000000;stroke-width:1;"/><ellipse cx="559.2988" cy="1216.0933" fill="#FFFFFF" rx="6" ry="6" style="stroke:#000000;stroke-width:1;"/><rect fill="#FFFFFF" height="33.9688" rx="12.5" ry="12.5" style="stroke:#000000;stroke-width:1;" width="179.1289" x="669.3428" y="1141.7651"/><text fill="#000000" font-family="Verdana" font-size="12" lengthAdjust="spacing" textLength="159.1289" x="679.3428" y="1162.9038">Extract Retry-After header</text><rect fill="#FFFFFF" height="33.9688" rx="12.5" ry="12.5" style="stroke:#000000;stroke-width:1;" width="148.0918" x="684.8613" y="1205.0933"/><text fill="#000000" font-family="Verdana" font-size="12" lengthAdjust="spacing" textLength="128.0918" x="694.8613" y="1226.2319">Throw RateLimitError</text><rect fill="#FFFFFF" height="33.9688" rx="12.5" ry="12.5" style="stroke:#000000;stroke-width:1;" width="196.7305" x="660.542" y="1266.0425"/><text fill="#000000" font-family="Verdana" font-size="12" lengthAdjust="spacing" textLength="176.7305" x="670.542" y="1287.1812">Update circuit breaker failure</text><rect fill="#FFFFFF" height="33.9688" rx="12.5" ry="12.5" style="stroke:#000000;stroke-width:1;" width="205.4668" x="877.2725" y="1141.7651"/><text fill="#000000" font-family="Verdana" font-size="12" lengthAdjust="spacing" textLength="185.4668" x="887.2725" y="1162.9038">Throw ServiceUnavailableError</text><rect fill="#FFFFFF" height="33.9688" rx="12.5" ry="12.5" style="stroke:#000000;stroke-width:1;" width="196.7305" x="881.6406" y="1205.0933"/><text fill="#000000" font-family="Verdana" font-size="12" lengthAdjust="spacing" textLength="176.7305" x="891.6406" y="1226.2319">Update circuit breaker failure</text><polygon fill="#FFFFFF" points="671.103,1330.0112,671.103,1330.0112,683.103,1342.0112,671.103,1354.0112,671.103,1354.0112,659.103,1342.0112,671.103,1330.0112" style="stroke:#000000;stroke-width:1;"/><polygon fill="#FFFFFF" points="558.3696,1364.0112,558.3696,1364.0112,570.3696,1376.0112,558.3696,1388.0112,558.3696,1388.0112,546.3696,1376.0112,558.3696,1364.0112" style="stroke:#000000;stroke-width:1;"/><rect fill="#FFFFFF" height="33.9688" rx="12.5" ry="12.5" style="stroke:#000000;stroke-width:1;" width="154.168" x="481.2856" y="1408.0112"/><text fill="#000000" font-family="Verdana" font-size="12" lengthAdjust="spacing" textLength="134.168" x="491.2856" y="1429.1499">Increment retry_count</text><polygon fill="#FFFFFF" points="483.1877,858.8984,633.5515,858.8984,645.5515,870.8984,633.5515,882.8984,483.1877,882.8984,471.1877,870.8984,483.1877,858.8984" style="stroke:#000000;stroke-width:1;"/><text fill="#000000" font-family="Verdana" font-size="11" lengthAdjust="spacing" textLength="19.0083" x="562.3696" y="893.1089">yes</text><text fill="#000000" font-family="Verdana" font-size="11" lengthAdjust="spacing" textLength="150.3638" x="483.1877" y="874.7065">retry_count &lt; max_retries?</text><text fill="#000000" font-family="Verdana" font-size="11" lengthAdjust="spacing" textLength="13.7017" x="457.4861" y="868.3042">no</text><rect fill="#FFFFFF" height="33.9688" rx="12.5" ry="12.5" style="stroke:#000000;stroke-width:1;" width="152.4922" x="482.1235" y="1532.3823"/><text fill="#000000" font-family="Verdana" font-size="12" lengthAdjust="spacing" textLength="132.4922" x="492.1235" y="1553.521">Return error response</text><ellipse cx="558.3696" cy="1605.8667" fill="none" rx="11" ry="11" style="stroke:#000000;stroke-width:1;"/><ellipse cx="558.3696" cy="1605.8667" fill="#FFFFFF" rx="6" ry="6" style="stroke:#000000;stroke-width:1;"/><polygon fill="#FFFFFF" points="498.8096,1483.98,617.9297,1483.98,629.9297,1495.98,617.9297,1507.98,498.8096,1507.98,486.8096,1495.98,498.8096,1483.98" style="stroke:#000000;stroke-width:1;"/><text fill="#000000" font-family="Verdana" font-size="11" lengthAdjust="spacing" textLength="19.0083" x="562.3696" y="1518.1904">yes</text><text fill="#000000" font-family="Verdana" font-size="11" lengthAdjust="spacing" textLength="119.1201" x="498.8096" y="1499.7881">all retries exhausted?</text><text fill="#000000" font-family="Verdana" font-size="11" lengthAdjust="spacing" textLength="13.7017" x="629.9297" y="1493.3857">no</text><rect fill="#FFFFFF" height="398.6055" style="stroke:#000000;stroke-width:1;" width="689.3555" x="146.0405" y="1660.8667"/><path d="M307.6206,1660.8667 L307.6206,1670.1636 L297.6206,1680.1636 L146.0405,1680.1636" fill="none" style="stroke:#000000;stroke-width:1;"/><text fill="#000000" font-family="Verdana" font-size="14" lengthAdjust="spacing" textLength="151.5801" x="149.0405" y="1674.8618">Fetch Additional Data</text><polygon fill="#FFFFFF" points="448.1252,1697.1636,668.614,1697.1636,680.614,1709.1636,668.614,1721.1636,448.1252,1721.1636,436.1252,1709.1636,448.1252,1697.1636" style="stroke:#000000;stroke-width:1;"/><text fill="#000000" font-family="Verdana" font-size="11" lengthAdjust="spacing" textLength="220.4888" x="448.1252" y="1712.9717">include_citations or include_references?</text><text fill="#000000" font-family="Verdana" font-size="11" lengthAdjust="spacing" textLength="19.0083" x="417.1169" y="1706.5693">yes</text><text fill="#000000" font-family="Verdana" font-size="11" lengthAdjust="spacing" textLength="13.7017" x="680.614" y="1706.5693">no</text><rect fill="#000000" height="6" rx="2.5" ry="2.5" style="stroke:#000000;stroke-width:1;" width="449.9805" x="166.0405" y="1731.1636"/><rect fill="#FFFFFF" height="33.9688" rx="12.5" ry="12.5" style="stroke:#000000;stroke-width:1;" width="108.2363" x="214.7993" y="1805.5659"/><text fill="#000000" font-family="Verdana" font-size="12" lengthAdjust="spacing" textLength="88.2363" x="224.7993" y="1826.7046">Fetch citations</text><rect fill="#FFFFFF" height="33.9688" rx="12.5" ry="12.5" style="stroke:#000000;stroke-width:1;" width="157.7539" x="190.0405" y="1859.5347"/><text fill="#000000" font-family="Verdana" font-size="12" lengthAdjust="spacing" textLength="137.7539" x="200.0405" y="1880.6733">Create Citation objects</text><rect fill="#FFFFFF" height="33.9688" rx="12.5" ry="12.5" style="stroke:#000000;stroke-width:1;" width="152.6855" x="192.5747" y="1913.5034"/><text fill="#000000" font-family="Verdana" font-size="12" lengthAdjust="spacing" textLength="132.6855" x="202.5747" y="1934.6421">Add to Paper.citations</text><polygon fill="#FFFFFF" points="219.8418,1757.1636,317.9932,1757.1636,329.9932,1769.1636,317.9932,1781.1636,219.8418,1781.1636,207.8418,1769.1636,219.8418,1757.1636" style="stroke:#000000;stroke-width:1;"/><text fill="#000000" font-family="Verdana" font-size="11" lengthAdjust="spacing" textLength="19.0083" x="272.9175" y="1791.374">yes</text><text fill="#000000" font-family="Verdana" font-size="11" lengthAdjust="spacing" textLength="98.1514" x="219.8418" y="1772.9717">include_citations?</text><polygon fill="#FFFFFF" points="268.9175,1967.4722,280.9175,1979.4722,268.9175,1991.4722,256.9175,1979.4722,268.9175,1967.4722" style="stroke:#000000;stroke-width:1;"/><rect fill="#FFFFFF" height="33.9688" rx="12.5" ry="12.5" style="stroke:#000000;stroke-width:1;" width="121.0859" x="433.3647" y="1805.5659"/><text fill="#000000" font-family="Verdana" font-size="12" lengthAdjust="spacing" textLength="101.0859" x="443.3647" y="1826.7046">Fetch references</text><rect fill="#FFFFFF" height="33.9688" rx="12.5" ry="12.5" style="stroke:#000000;stroke-width:1;" width="172.2266" x="407.7944" y="1859.5347"/><text fill="#000000" font-family="Verdana" font-size="12" lengthAdjust="spacing" textLength="152.2266" x="417.7944" y="1880.6733">Create Reference objects</text><rect fill="#FFFFFF" height="33.9688" rx="12.5" ry="12.5" style="stroke:#000000;stroke-width:1;" width="165.5352" x="411.1401" y="1913.5034"/><text fill="#000000" font-family="Verdana" font-size="12" lengthAdjust="spacing" textLength="145.5352" x="421.1401" y="1934.6421">Add to Paper.references</text><polygon fill="#FFFFFF" points="438.9426,1757.1636,548.8728,1757.1636,560.8728,1769.1636,548.8728,1781.1636,438.9426,1781.1636,426.9426,1769.1636,438.9426,1757.1636" style="stroke:#000000;stroke-width:1;"/><text fill="#000000" font-family="Verdana" font-size="11" lengthAdjust="spacing" textLength="19.0083" x="497.9077" y="1791.374">yes</text><text fill="#000000" font-family="Verdana" font-size="11" lengthAdjust="spacing" textLength="109.9302" x="438.9426" y="1772.9717">include_references?</text><polygon fill="#FFFFFF" points="493.9077,1967.4722,505.9077,1979.4722,493.9077,1991.4722,481.9077,1979.4722,493.9077,1967.4722" style="stroke:#000000;stroke-width:1;"/><rect fill="#000000" height="6" rx="2.5" ry="2.5" style="stroke:#000000;stroke-width:1;" width="449.9805" x="166.0405" y="2011.4722"/><rect fill="#FFFFFF" height="33.9688" rx="12.5" ry="12.5" style="stroke:#000000;stroke-width:1;" width="179.375" x="636.021" y="1731.1636"/><text fill="#000000" font-family="Verdana" font-size="12" lengthAdjust="spacing" textLength="159.375" x="646.021" y="1752.3022">No additional data needed</text><polygon fill="#FFFFFF" points="558.3696,2023.4722,570.3696,2035.4722,558.3696,2047.4722,546.3696,2035.4722,558.3696,2023.4722" style="stroke:#000000;stroke-width:1;"/><rect fill="#FFFFFF" height="275.6328" style="stroke:#000000;stroke-width:1;" width="648.915" x="317.261" y="2069.4722"/><path d="M453.3704,2069.4722 L453.3704,2078.769 L443.3704,2088.769 L317.261,2088.769" fill="none" style="stroke:#000000;stroke-width:1;"/><text fill="#000000" font-family="Verdana" font-size="14" lengthAdjust="spacing" textLength="126.1094" x="320.261" y="2083.4673">Cache and Return</text><polygon fill="#FFFFFF" points="439.5208,2105.769,677.2185,2105.769,689.2185,2117.769,677.2185,2129.769,439.5208,2129.769,427.5208,2117.769,439.5208,2105.769" style="stroke:#000000;stroke-width:1;"/><text fill="#000000" font-family="Verdana" font-size="11" lengthAdjust="spacing" textLength="237.6978" x="439.5208" y="2121.5771">basic request without citations/references?</text><text fill="#000000" font-family="Verdana" font-size="11" lengthAdjust="spacing" textLength="19.0083" x="408.5125" y="2115.1748">yes</text><text fill="#000000" font-family="Verdana" font-size="11" lengthAdjust="spacing" textLength="13.7017" x="689.2185" y="2115.1748">no</text><rect fill="#FFFFFF" height="33.9688" rx="12.5" ry="12.5" style="stroke:#000000;stroke-width:1;" width="160.5195" x="337.261" y="2139.769"/><text fill="#000000" font-family="Verdana" font-size="12" lengthAdjust="spacing" textLength="140.5195" x="347.261" y="2160.9077">Store in cache with TTL</text><path d="M767.24,2139.769 L767.24,2163.4683 L747.24,2167.4683 L767.24,2171.4683 L767.24,2195.1675 A0,0 0 0 0 767.24,2195.1675 L946.176,2195.1675 A0,0 0 0 0 946.176,2195.1675 L946.176,2149.769 L936.176,2139.769 L767.24,2139.769 A0,0 0 0 0 767.24,2139.769" fill="#FFFFFF" style="stroke:#000000;stroke-width:1;"/><path d="M936.176,2139.769 L936.176,2149.769 L946.176,2149.769 L936.176,2139.769" fill="#FFFFFF" style="stroke:#000000;stroke-width:1;"/><text fill="#000000" font-family="Verdana" font-size="13" lengthAdjust="spacing" textLength="157.936" x="773.24" y="2156.8359">Don't cache papers with</text><text fill="#000000" font-family="Verdana" font-size="13" lengthAdjust="spacing" textLength="154.7686" x="773.24" y="2171.9688">additional data to avoid</text><text fill="#000000" font-family="Verdana" font-size="13" lengthAdjust="spacing" textLength="91.3301" x="773.24" y="2187.1016">memory bloat</text><rect fill="#FFFFFF" height="33.9688" rx="12.5" ry="12.5" style="stroke:#000000;stroke-width:1;" width="96.043" x="651.197" y="2150.4839"/><text fill="#000000" font-family="Verdana" font-size="12" lengthAdjust="spacing" textLength="76.043" x="661.197" y="2171.6226">Skip caching</text><polygon fill="#FFFFFF" points="558.3696,2201.1675,570.3696,2213.1675,558.3696,2225.1675,546.3696,2213.1675,558.3696,2201.1675" style="stroke:#000000;stroke-width:1;"/><rect fill="#FFFFFF" height="33.9688" rx="12.5" ry="12.5" style="stroke:#000000;stroke-width:1;" width="178.3262" x="469.2065" y="2245.1675"/><text fill="#000000" font-family="Verdana" font-size="12" lengthAdjust="spacing" textLength="158.3262" x="479.2065" y="2266.3062">Log successful completion</text><rect fill="#FFFFFF" height="33.9688" rx="12.5" ry="12.5" style="stroke:#000000;stroke-width:1;" width="183.1895" x="466.7749" y="2299.1362"/><text fill="#000000" font-family="Verdana" font-size="12" lengthAdjust="spacing" textLength="163.1895" x="476.7749" y="2320.2749">Return Paper object as dict</text><ellipse cx="558.3696" cy="2376.105" fill="none" rx="11" ry="11" style="stroke:#000000;stroke-width:1;"/><ellipse cx="558.3696" cy="2376.105" fill="#FFFFFF" rx="6" ry="6" style="stroke:#000000;stroke-width:1;"/><line style="stroke:#000000;stroke-width:1;" x1="558.3696" x2="558.3696" y1="71.6094" y2="91.6094"/><polygon fill="#000000" points="554.3696,81.6094,558.3696,91.6094,562.3696,81.6094,558.3696,85.6094" style="stroke:#000000;stroke-width:1;"/><line style="stroke:#000000;stroke-width:1;" x1="558.3696" x2="558.3696" y1="125.5781" y2="148.7266"/><polygon fill="#000000" points="554.3696,138.7266,558.3696,148.7266,562.3696,138.7266,558.3696,142.7266" style="stroke:#000000;stroke-width:1;"/><line style="stroke:#000000;stroke-width:1;" x1="558.3696" x2="558.3696" y1="182.6953" y2="205.8438"/><polygon fill="#000000" points="554.3696,195.8438,558.3696,205.8438,562.3696,195.8438,558.3696,199.8438" style="stroke:#000000;stroke-width:1;"/><line style="stroke:#000000;stroke-width:1;" x1="558.3696" x2="558.3696" y1="342.1836" y2="370.6992"/><polygon fill="#000000" points="554.3696,360.6992,558.3696,370.6992,562.3696,360.6992,558.3696,364.6992" style="stroke:#000000;stroke-width:1;"/><line style="stroke:#000000;stroke-width:1;" x1="558.3696" x2="558.3696" y1="283.8125" y2="308.2148"/><polygon fill="#000000" points="554.3696,298.2148,558.3696,308.2148,562.3696,298.2148,558.3696,302.2148" style="stroke:#000000;stroke-width:1;"/><line style="stroke:#000000;stroke-width:1;" x1="622.5901" x2="646.772" y1="271.8125" y2="271.8125"/><polygon fill="#000000" points="642.772,340.6992,646.772,350.6992,650.772,340.6992,646.772,344.6992" style="stroke:#000000;stroke-width:1;"/><line style="stroke:#000000;stroke-width:1;" x1="646.772" x2="646.772" y1="271.8125" y2="414.6992"/><line style="stroke:#000000;stroke-width:1;" x1="646.772" x2="558.3696" y1="414.6992" y2="414.6992"/><line style="stroke:#000000;stroke-width:1;" x1="558.3696" x2="558.3696" y1="414.6992" y2="460.9961"/><polygon fill="#000000" points="554.3696,450.9961,558.3696,460.9961,562.3696,450.9961,558.3696,454.9961" style="stroke:#000000;stroke-width:1;"/><line style="stroke:#000000;stroke-width:1;" x1="558.3696" x2="558.3696" y1="239.8125" y2="259.8125"/><polygon fill="#000000" points="554.3696,249.8125,558.3696,259.8125,562.3696,249.8125,558.3696,253.8125" style="stroke:#000000;stroke-width:1;"/><line style="stroke:#000000;stroke-width:1;" x1="727.6165" x2="727.6165" y1="637.6328" y2="672.6328"/><polygon fill="#000000" points="723.6165,662.6328,727.6165,672.6328,731.6165,662.6328,727.6165,666.6328" style="stroke:#000000;stroke-width:1;"/><line style="stroke:#000000;stroke-width:1;" x1="727.6165" x2="727.6165" y1="579.2617" y2="603.6641"/><polygon fill="#000000" points="723.6165,593.6641,727.6165,603.6641,731.6165,593.6641,727.6165,597.6641" style="stroke:#000000;stroke-width:1;"/><line style="stroke:#000000;stroke-width:1;" x1="767.7422" x2="810.7454" y1="567.2617" y2="567.2617"/><polygon fill="#000000" points="806.7454,645.1484,810.7454,655.1484,814.7454,645.1484,810.7454,649.1484" style="stroke:#000000;stroke-width:1;"/><line style="stroke:#000000;stroke-width:1;" x1="810.7454" x2="810.7454" y1="567.2617" y2="734.6328"/><line style="stroke:#000000;stroke-width:1;" x1="810.7454" x2="570.3696" y1="734.6328" y2="734.6328"/><polygon fill="#000000" points="580.3696,730.6328,570.3696,734.6328,580.3696,738.6328,576.3696,734.6328" style="stroke:#000000;stroke-width:1;"/><line style="stroke:#000000;stroke-width:1;" x1="727.6165" x2="727.6165" y1="528.9648" y2="555.2617"/><polygon fill="#000000" points="723.6165,545.2617,727.6165,555.2617,731.6165,545.2617,727.6165,549.2617" style="stroke:#000000;stroke-width:1;"/><line style="stroke:#000000;stroke-width:1;" x1="451.8276" x2="389.1228" y1="472.9961" y2="472.9961"/><line style="stroke:#000000;stroke-width:1;" x1="389.1228" x2="389.1228" y1="472.9961" y2="498.1445"/><polygon fill="#000000" points="385.1228,488.1445,389.1228,498.1445,393.1228,488.1445,389.1228,492.1445" style="stroke:#000000;stroke-width:1;"/><line style="stroke:#000000;stroke-width:1;" x1="664.9116" x2="727.6165" y1="472.9961" y2="472.9961"/><line style="stroke:#000000;stroke-width:1;" x1="727.6165" x2="727.6165" y1="472.9961" y2="494.9961"/><polygon fill="#000000" points="723.6165,484.9961,727.6165,494.9961,731.6165,484.9961,727.6165,488.9961" style="stroke:#000000;stroke-width:1;"/><line style="stroke:#000000;stroke-width:1;" x1="389.1228" x2="389.1228" y1="532.1133" y2="734.6328"/><line style="stroke:#000000;stroke-width:1;" x1="389.1228" x2="546.3696" y1="734.6328" y2="734.6328"/><polygon fill="#000000" points="536.3696,730.6328,546.3696,734.6328,536.3696,738.6328,540.3696,734.6328" style="stroke:#000000;stroke-width:1;"/><line style="stroke:#000000;stroke-width:1;" x1="136.7334" x2="136.7334" y1="1062.1558" y2="1082.1558"/><polygon fill="#000000" points="132.7334,1072.1558,136.7334,1082.1558,140.7334,1072.1558,136.7334,1076.1558" style="stroke:#000000;stroke-width:1;"/><line style="stroke:#000000;stroke-width:1;" x1="136.7334" x2="136.7334" y1="1116.1245" y2="1151.1245"/><polygon fill="#000000" points="132.7334,1141.1245,136.7334,1151.1245,140.7334,1141.1245,136.7334,1145.1245" style="stroke:#000000;stroke-width:1;"/><line style="stroke:#000000;stroke-width:1;" x1="362.2178" x2="362.2178" y1="1175.7339" y2="1205.0933"/><polygon fill="#000000" points="358.2178,1195.0933,362.2178,1205.0933,366.2178,1195.0933,362.2178,1199.0933" style="stroke:#000000;stroke-width:1;"/><line style="stroke:#000000;stroke-width:1;" x1="362.2178" x2="362.2178" y1="1239.062" y2="1266.0425"/><polygon fill="#000000" points="358.2178,1256.0425,362.2178,1266.0425,366.2178,1256.0425,362.2178,1260.0425" style="stroke:#000000;stroke-width:1;"/><line style="stroke:#000000;stroke-width:1;" x1="362.2178" x2="362.2178" y1="1300.0112" y2="1320.0112"/><polygon fill="#000000" points="358.2178,1310.0112,362.2178,1320.0112,366.2178,1310.0112,362.2178,1314.0112" style="stroke:#000000;stroke-width:1;"/><line style="stroke:#000000;stroke-width:1;" x1="559.2988" x2="559.2988" y1="1175.7339" y2="1205.0933"/><polygon fill="#000000" points="555.2988,1195.0933,559.2988,1205.0933,563.2988,1195.0933,559.2988,1199.0933" style="stroke:#000000;stroke-width:1;"/><line style="stroke:#000000;stroke-width:1;" x1="758.9072" x2="758.9072" y1="1175.7339" y2="1205.0933"/><polygon fill="#000000" points="754.9072,1195.0933,758.9072,1205.0933,762.9072,1195.0933,758.9072,1199.0933" style="stroke:#000000;stroke-width:1;"/><line style="stroke:#000000;stroke-width:1;" x1="758.9072" x2="758.9072" y1="1239.062" y2="1266.0425"/><polygon fill="#000000" points="754.9072,1256.0425,758.9072,1266.0425,762.9072,1256.0425,758.9072,1260.0425" style="stroke:#000000;stroke-width:1;"/><line style="stroke:#000000;stroke-width:1;" x1="980.0059" x2="980.0059" y1="1175.7339" y2="1205.0933"/><polygon fill="#000000" points="976.0059,1195.0933,980.0059,1205.0933,984.0059,1195.0933,980.0059,1199.0933" style="stroke:#000000;stroke-width:1;"/><line style="stroke:#000000;stroke-width:1;" x1="612.4336" x2="362.2178" y1="1094.1558" y2="1094.1558"/><line style="stroke:#000000;stroke-width:1;" x1="362.2178" x2="362.2178" y1="1094.1558" y2="1141.7651"/><polygon fill="#000000" points="358.2178,1131.7651,362.2178,1141.7651,366.2178,1131.7651,362.2178,1135.7651" style="stroke:#000000;stroke-width:1;"/><text fill="#000000" font-family="Verdana" font-size="11" lengthAdjust="spacing" textLength="40.3638" x="362.2178" y="1121.7686">200 OK</text><line style="stroke:#000000;stroke-width:1;" x1="729.7725" x2="980.0059" y1="1094.1558" y2="1094.1558"/><line style="stroke:#000000;stroke-width:1;" x1="980.0059" x2="980.0059" y1="1094.1558" y2="1141.7651"/><polygon fill="#000000" points="976.0059,1131.7651,980.0059,1141.7651,984.0059,1131.7651,980.0059,1135.7651" style="stroke:#000000;stroke-width:1;"/><text fill="#000000" font-family="Verdana" font-size="11" lengthAdjust="spacing" textLength="90.3311" x="980.0059" y="1121.7686">5xx Server Error</text><line style="stroke:#000000;stroke-width:1;" x1="559.2988" x2="559.2988" y1="1094.1558" y2="1141.7651"/><polygon fill="#000000" points="555.2988,1131.7651,559.2988,1141.7651,563.2988,1131.7651,559.2988,1135.7651" style="stroke:#000000;stroke-width:1;"/><text fill="#000000" font-family="Verdana" font-size="11" lengthAdjust="spacing" textLength="81.2432" x="559.2988" y="1116.7686">404 Not Found</text><line style="stroke:#000000;stroke-width:1;" x1="758.9072" x2="758.9072" y1="1094.1558" y2="1141.7651"/><polygon fill="#000000" points="754.9072,1131.7651,758.9072,1141.7651,762.9072,1131.7651,758.9072,1135.7651" style="stroke:#000000;stroke-width:1;"/><text fill="#000000" font-family="Verdana" font-size="11" lengthAdjust="spacing" textLength="94.4722" x="758.9072" y="1116.7686">429 Rate Limited</text><line style="stroke:#000000;stroke-width:1;" x1="758.9072" x2="758.9072" y1="1300.0112" y2="1342.0112"/><line style="stroke:#000000;stroke-width:1;" x1="758.9072" x2="683.103" y1="1342.0112" y2="1342.0112"/><polygon fill="#000000" points="693.103,1338.0112,683.103,1342.0112,693.103,1346.0112,689.103,1342.0112" style="stroke:#000000;stroke-width:1;"/><line style="stroke:#000000;stroke-width:1;" x1="980.0059" x2="980.0059" y1="1239.062" y2="1342.0112"/><line style="stroke:#000000;stroke-width:1;" x1="980.0059" x2="683.103" y1="1342.0112" y2="1342.0112"/><polygon fill="#000000" points="693.103,1338.0112,683.103,1342.0112,693.103,1346.0112,689.103,1342.0112" style="stroke:#000000;stroke-width:1;"/><line style="stroke:#000000;stroke-width:1;" x1="671.103" x2="671.103" y1="1062.1558" y2="1082.1558"/><polygon fill="#000000" points="667.103,1072.1558,671.103,1082.1558,675.103,1072.1558,671.103,1076.1558" style="stroke:#000000;stroke-width:1;"/><line style="stroke:#000000;stroke-width:1;" x1="487.677" x2="136.7334" y1="980.5776" y2="980.5776"/><line style="stroke:#000000;stroke-width:1;" x1="136.7334" x2="136.7334" y1="980.5776" y2="1028.187"/><polygon fill="#000000" points="132.7334,1018.187,136.7334,1028.187,140.7334,1018.187,136.7334,1022.187" style="stroke:#000000;stroke-width:1;"/><text fill="#000000" font-family="Verdana" font-size="11" lengthAdjust="spacing" textLength="30.4702" x="136.7334" y="1008.1904">OPEN</text><line style="stroke:#000000;stroke-width:1;" x1="629.0623" x2="671.103" y1="980.5776" y2="980.5776"/><line style="stroke:#000000;stroke-width:1;" x1="671.103" x2="671.103" y1="980.5776" y2="1028.187"/><polygon fill="#000000" points="667.103,1018.187,671.103,1028.187,675.103,1018.187,671.103,1022.187" style="stroke:#000000;stroke-width:1;"/><text fill="#000000" font-family="Verdana" font-size="11" lengthAdjust="spacing" textLength="127.3379" x="671.103" y="1008.1904">CLOSED or HALF_OPEN</text><line style="stroke:#000000;stroke-width:1;" x1="136.7334" x2="136.7334" y1="1185.0933" y2="1376.0112"/><line style="stroke:#000000;stroke-width:1;" x1="136.7334" x2="546.3696" y1="1376.0112" y2="1376.0112"/><polygon fill="#000000" points="536.3696,1372.0112,546.3696,1376.0112,536.3696,1380.0112,540.3696,1376.0112" style="stroke:#000000;stroke-width:1;"/><line style="stroke:#000000;stroke-width:1;" x1="671.103" x2="671.103" y1="1354.0112" y2="1376.0112"/><line style="stroke:#000000;stroke-width:1;" x1="671.103" x2="570.3696" y1="1376.0112" y2="1376.0112"/><polygon fill="#000000" points="580.3696,1372.0112,570.3696,1376.0112,580.3696,1380.0112,576.3696,1376.0112" style="stroke:#000000;stroke-width:1;"/><line style="stroke:#000000;stroke-width:1;" x1="558.3696" x2="558.3696" y1="948.5776" y2="968.5776"/><polygon fill="#000000" points="554.3696,958.5776,558.3696,968.5776,562.3696,958.5776,558.3696,962.5776" style="stroke:#000000;stroke-width:1;"/><line style="stroke:#000000;stroke-width:1;" x1="558.3696" x2="558.3696" y1="1388.0112" y2="1408.0112"/><polygon fill="#000000" points="554.3696,1398.0112,558.3696,1408.0112,562.3696,1398.0112,558.3696,1402.0112" style="stroke:#000000;stroke-width:1;"/><line style="stroke:#000000;stroke-width:1;" x1="558.3696" x2="558.3696" y1="882.8984" y2="914.6089"/><polygon fill="#000000" points="554.3696,904.6089,558.3696,914.6089,562.3696,904.6089,558.3696,908.6089" style="stroke:#000000;stroke-width:1;"/><line style="stroke:#000000;stroke-width:1;" x1="558.3696" x2="558.3696" y1="1441.98" y2="1451.98"/><line style="stroke:#000000;stroke-width:1;" x1="558.3696" x2="1094.7393" y1="1451.98" y2="1451.98"/><polygon fill="#000000" points="1090.7393,1263.062,1094.7393,1253.062,1098.7393,1263.062,1094.7393,1259.062" style="stroke:#000000;stroke-width:1;"/><line style="stroke:#000000;stroke-width:1;" x1="1094.7393" x2="1094.7393" y1="870.8984" y2="1451.98"/><line style="stroke:#000000;stroke-width:1;" x1="1094.7393" x2="645.5515" y1="870.8984" y2="870.8984"/><polygon fill="#000000" points="655.5515,866.8984,645.5515,870.8984,655.5515,874.8984,651.5515,870.8984" style="stroke:#000000;stroke-width:1;"/><line style="stroke:#000000;stroke-width:1;" x1="471.1877" x2="22" y1="870.8984" y2="870.8984"/><polygon fill="#000000" points="18,1249.062,22,1259.062,26,1249.062,22,1253.062" style="stroke:#000000;stroke-width:1;"/><line style="stroke:#000000;stroke-width:1;" x1="22" x2="22" y1="870.8984" y2="1463.98"/><line style="stroke:#000000;stroke-width:1;" x1="22" x2="558.3696" y1="1463.98" y2="1463.98"/><line style="stroke:#000000;stroke-width:1;" x1="558.3696" x2="558.3696" y1="1463.98" y2="1483.98"/><polygon fill="#000000" points="554.3696,1473.98,558.3696,1483.98,562.3696,1473.98,558.3696,1477.98" style="stroke:#000000;stroke-width:1;"/><line style="stroke:#000000;stroke-width:1;" x1="558.3696" x2="558.3696" y1="838.8984" y2="858.8984"/><polygon fill="#000000" points="554.3696,848.8984,558.3696,858.8984,562.3696,848.8984,558.3696,852.8984" style="stroke:#000000;stroke-width:1;"/><line style="stroke:#000000;stroke-width:1;" x1="558.3696" x2="558.3696" y1="1566.3511" y2="1594.8667"/><polygon fill="#000000" points="554.3696,1584.8667,558.3696,1594.8667,562.3696,1584.8667,558.3696,1588.8667" style="stroke:#000000;stroke-width:1;"/><line style="stroke:#000000;stroke-width:1;" x1="558.3696" x2="558.3696" y1="1507.98" y2="1532.3823"/><polygon fill="#000000" points="554.3696,1522.3823,558.3696,1532.3823,562.3696,1522.3823,558.3696,1526.3823" style="stroke:#000000;stroke-width:1;"/><line style="stroke:#000000;stroke-width:1;" x1="629.9297" x2="644.6157" y1="1495.98" y2="1495.98"/><polygon fill="#000000" points="640.6157,1564.8667,644.6157,1574.8667,648.6157,1564.8667,644.6157,1568.8667" style="stroke:#000000;stroke-width:1;"/><line style="stroke:#000000;stroke-width:1;" x1="644.6157" x2="644.6157" y1="1495.98" y2="1638.8667"/><line style="stroke:#000000;stroke-width:1;" x1="644.6157" x2="558.3696" y1="1638.8667" y2="1638.8667"/><line style="stroke:#000000;stroke-width:1;" x1="558.3696" x2="558.3696" y1="1638.8667" y2="1697.1636"/><polygon fill="#000000" points="554.3696,1687.1636,558.3696,1697.1636,562.3696,1687.1636,558.3696,1691.1636" style="stroke:#000000;stroke-width:1;"/><line style="stroke:#000000;stroke-width:1;" x1="558.3696" x2="558.3696" y1="746.6328" y2="804.9297"/><polygon fill="#000000" points="554.3696,794.9297,558.3696,804.9297,562.3696,794.9297,558.3696,798.9297" style="stroke:#000000;stroke-width:1;"/><line style="stroke:#000000;stroke-width:1;" x1="268.9175" x2="268.9175" y1="1839.5347" y2="1859.5347"/><polygon fill="#000000" points="264.9175,1849.5347,268.9175,1859.5347,272.9175,1849.5347,268.9175,1853.5347" style="stroke:#000000;stroke-width:1;"/><line style="stroke:#000000;stroke-width:1;" x1="268.9175" x2="268.9175" y1="1893.5034" y2="1913.5034"/><polygon fill="#000000" points="264.9175,1903.5034,268.9175,1913.5034,272.9175,1903.5034,268.9175,1907.5034" style="stroke:#000000;stroke-width:1;"/><line style="stroke:#000000;stroke-width:1;" x1="268.9175" x2="268.9175" y1="1781.1636" y2="1805.5659"/><polygon fill="#000000" points="264.9175,1795.5659,268.9175,1805.5659,272.9175,1795.5659,268.9175,1799.5659" style="stroke:#000000;stroke-width:1;"/><line style="stroke:#000000;stroke-width:1;" x1="329.9932" x2="357.7944" y1="1769.1636" y2="1769.1636"/><polygon fill="#000000" points="353.7944,1866.519,357.7944,1876.519,361.7944,1866.519,357.7944,1870.519" style="stroke:#000000;stroke-width:1;"/><line style="stroke:#000000;stroke-width:1;" x1="357.7944" x2="357.7944" y1="1769.1636" y2="1979.4722"/><line style="stroke:#000000;stroke-width:1;" x1="357.7944" x2="280.9175" y1="1979.4722" y2="1979.4722"/><polygon fill="#000000" points="290.9175,1975.4722,280.9175,1979.4722,290.9175,1983.4722,286.9175,1979.4722" style="stroke:#000000;stroke-width:1;"/><line style="stroke:#000000;stroke-width:1;" x1="268.9175" x2="268.9175" y1="1947.4722" y2="1967.4722"/><polygon fill="#000000" points="264.9175,1957.4722,268.9175,1967.4722,272.9175,1957.4722,268.9175,1961.4722" style="stroke:#000000;stroke-width:1;"/><line style="stroke:#000000;stroke-width:1;" x1="493.9077" x2="493.9077" y1="1839.5347" y2="1859.5347"/><polygon fill="#000000" points="489.9077,1849.5347,493.9077,1859.5347,497.9077,1849.5347,493.9077,1853.5347" style="stroke:#000000;stroke-width:1;"/><line style="stroke:#000000;stroke-width:1;" x1="493.9077" x2="493.9077" y1="1893.5034" y2="1913.5034"/><polygon fill="#000000" points="489.9077,1903.5034,493.9077,1913.5034,497.9077,1903.5034,493.9077,1907.5034" style="stroke:#000000;stroke-width:1;"/><line style="stroke:#000000;stroke-width:1;" x1="493.9077" x2="493.9077" y1="1781.1636" y2="1805.5659"/><polygon fill="#000000" points="489.9077,1795.5659,493.9077,1805.5659,497.9077,1795.5659,493.9077,1799.5659" style="stroke:#000000;stroke-width:1;"/><line style="stroke:#000000;stroke-width:1;" x1="560.8728" x2="590.021" y1="1769.1636" y2="1769.1636"/><polygon fill="#000000" points="586.021,1866.519,590.021,1876.519,594.021,1866.519,590.021,1870.519" style="stroke:#000000;stroke-width:1;"/><line style="stroke:#000000;stroke-width:1;" x1="590.021" x2="590.021" y1="1769.1636" y2="1979.4722"/><line style="stroke:#000000;stroke-width:1;" x1="590.021" x2="505.9077" y1="1979.4722" y2="1979.4722"/><polygon fill="#000000" points="515.9077,1975.4722,505.9077,1979.4722,515.9077,1983.4722,511.9077,1979.4722" style="stroke:#000000;stroke-width:1;"/><line style="stroke:#000000;stroke-width:1;" x1="493.9077" x2="493.9077" y1="1947.4722" y2="1967.4722"/><polygon fill="#000000" points="489.9077,1957.4722,493.9077,1967.4722,497.9077,1957.4722,493.9077,1961.4722" style="stroke:#000000;stroke-width:1;"/><line style="stroke:#000000;stroke-width:1;" x1="268.9175" x2="268.9175" y1="1737.1636" y2="1757.1636"/><polygon fill="#000000" points="264.9175,1747.1636,268.9175,1757.1636,272.9175,1747.1636,268.9175,1751.1636" style="stroke:#000000;stroke-width:1;"/><line style="stroke:#000000;stroke-width:1;" x1="493.9077" x2="493.9077" y1="1737.1636" y2="1757.1636"/><polygon fill="#000000" points="489.9077,1747.1636,493.9077,1757.1636,497.9077,1747.1636,493.9077,1751.1636" style="stroke:#000000;stroke-width:1;"/><line style="stroke:#000000;stroke-width:1;" x1="268.9175" x2="268.9175" y1="1991.4722" y2="2011.4722"/><polygon fill="#000000" points="264.9175,2001.4722,268.9175,2011.4722,272.9175,2001.4722,268.9175,2005.4722" style="stroke:#000000;stroke-width:1;"/><line style="stroke:#000000;stroke-width:1;" x1="493.9077" x2="493.9077" y1="1991.4722" y2="2011.4722"/><polygon fill="#000000" points="489.9077,2001.4722,493.9077,2011.4722,497.9077,2001.4722,493.9077,2005.4722" style="stroke:#000000;stroke-width:1;"/><line style="stroke:#000000;stroke-width:1;" x1="436.1252" x2="391.0308" y1="1709.1636" y2="1709.1636"/><line style="stroke:#000000;stroke-width:1;" x1="391.0308" x2="391.0308" y1="1709.1636" y2="1731.1636"/><polygon fill="#000000" points="387.0308,1721.1636,391.0308,1731.1636,395.0308,1721.1636,391.0308,1725.1636" style="stroke:#000000;stroke-width:1;"/><line style="stroke:#000000;stroke-width:1;" x1="680.614" x2="725.7085" y1="1709.1636" y2="1709.1636"/><line style="stroke:#000000;stroke-width:1;" x1="725.7085" x2="725.7085" y1="1709.1636" y2="1731.1636"/><polygon fill="#000000" points="721.7085,1721.1636,725.7085,1731.1636,729.7085,1721.1636,725.7085,1725.1636" style="stroke:#000000;stroke-width:1;"/><line style="stroke:#000000;stroke-width:1;" x1="391.0308" x2="391.0308" y1="2017.4722" y2="2035.4722"/><line style="stroke:#000000;stroke-width:1;" x1="391.0308" x2="546.3696" y1="2035.4722" y2="2035.4722"/><polygon fill="#000000" points="536.3696,2031.4722,546.3696,2035.4722,536.3696,2039.4722,540.3696,2035.4722" style="stroke:#000000;stroke-width:1;"/><line style="stroke:#000000;stroke-width:1;" x1="725.7085" x2="725.7085" y1="1765.1323" y2="2035.4722"/><line style="stroke:#000000;stroke-width:1;" x1="725.7085" x2="570.3696" y1="2035.4722" y2="2035.4722"/><polygon fill="#000000" points="580.3696,2031.4722,570.3696,2035.4722,580.3696,2039.4722,576.3696,2035.4722" style="stroke:#000000;stroke-width:1;"/><line style="stroke:#000000;stroke-width:1;" x1="427.5208" x2="417.5208" y1="2117.769" y2="2117.769"/><line style="stroke:#000000;stroke-width:1;" x1="417.5208" x2="417.5208" y1="2117.769" y2="2139.769"/><polygon fill="#000000" points="413.5208,2129.769,417.5208,2139.769,421.5208,2129.769,417.5208,2133.769" style="stroke:#000000;stroke-width:1;"/><line style="stroke:#000000;stroke-width:1;" x1="689.2185" x2="699.2185" y1="2117.769" y2="2117.769"/><line style="stroke:#000000;stroke-width:1;" x1="699.2185" x2="699.2185" y1="2117.769" y2="2150.4839"/><polygon fill="#000000" points="695.2185,2140.4839,699.2185,2150.4839,703.2185,2140.4839,699.2185,2144.4839" style="stroke:#000000;stroke-width:1;"/><line style="stroke:#000000;stroke-width:1;" x1="417.5208" x2="417.5208" y1="2173.7378" y2="2213.1675"/><line style="stroke:#000000;stroke-width:1;" x1="417.5208" x2="546.3696" y1="2213.1675" y2="2213.1675"/><polygon fill="#000000" points="536.3696,2209.1675,546.3696,2213.1675,536.3696,2217.1675,540.3696,2213.1675" style="stroke:#000000;stroke-width:1;"/><line style="stroke:#000000;stroke-width:1;" x1="699.2185" x2="699.2185" y1="2184.4526" y2="2213.1675"/><line style="stroke:#000000;stroke-width:1;" x1="699.2185" x2="570.3696" y1="2213.1675" y2="2213.1675"/><polygon fill="#000000" points="580.3696,2209.1675,570.3696,2213.1675,580.3696,2217.1675,576.3696,2213.1675" style="stroke:#000000;stroke-width:1;"/><line style="stroke:#000000;stroke-width:1;" x1="558.3696" x2="558.3696" y1="2225.1675" y2="2245.1675"/><polygon fill="#000000" points="554.3696,2235.1675,558.3696,2245.1675,562.3696,2235.1675,558.3696,2239.1675" style="stroke:#000000;stroke-width:1;"/><line style="stroke:#000000;stroke-width:1;" x1="558.3696" x2="558.3696" y1="2279.1362" y2="2299.1362"/><polygon fill="#000000" points="554.3696,2289.1362,558.3696,2299.1362,562.3696,2289.1362,558.3696,2293.1362" style="stroke:#000000;stroke-width:1;"/><line style="stroke:#000000;stroke-width:1;" x1="558.3696" x2="558.3696" y1="2047.4722" y2="2105.769"/><polygon fill="#000000" points="554.3696,2095.769,558.3696,2105.769,562.3696,2095.769,558.3696,2099.769" style="stroke:#000000;stroke-width:1;"/><line style="stroke:#000000;stroke-width:1;" x1="558.3696" x2="558.3696" y1="2333.105" y2="2365.105"/><polygon fill="#000000" points="554.3696,2355.105,558.3696,2365.105,562.3696,2355.105,558.3696,2359.105" style="stroke:#000000;stroke-width:1;"/><!--SRC=[ZLPTRzis57tNhxZhonAWtOAYUsWq833if0tc9ORZRYy639gwiZZJf4fIZesX_tsNfBvi9Uq0mxPqgNFFFVTBFxa2TmYbP48bYHDE8dn21pDMee5duGeO2yUSqCe2KndCCKU3YgE5Tp3YJko5Ey94i8rXkoInZXcN9DTpv2Zs21jqgp9W6VnQeNLfehH3C69Jk6i8ffN8te9GN5OPhdZZxUrIDVTCwvEGnmOP0SmZt5WhXuSpr4-eqFX3N1k3Ck31_MIfSjto06SOtmgr8SY_c1IPFz_GIPD4v73HN8AmWBlI7MykWVHIS754Uva0K9YkCWhs4S2xGMEqISbcdIuJb1RXGkdB15KcyYGfIHuH3huP5yYtC6Qym3VmBptXNRRXGw3QQbspnkoS0f5useeIkCS1xZ7JSBilI702MiaZL1Op81sMQisiu35a8FACdkhe1k38C29xwJfvl3dG3RP2k26jJfrmA8jFfxKjgEF_dBgCAZM_tqxq6itkcwp7mfoZ5L9uVQ9-roF-jHA6elQvb68dACjwYyexfSzp8QYwBmmwSrnnNIa7lyEE7LR-Za1BCL2YUyBMyGl3Au9QK-5jIIigSOSnZl1bYGmlVEfUE7SJeJZpKJxERXzQSHQ5qS_mX6OlE7vHRC-4P6k9jqq1HGfCyahwU09joAYSZwtrRoPgBV1GQeNA2IPXJOMjyppjUHvF7vzk9xwcFe-cTwiJ8dyIM_YyMCowrj10OZTUcepLOHgqv8f0VNoLlMbmegFtLrVm-4TpZz1dp5XFFZwKTeQwZ-EWqUj_aBkUzKiP6dAWQSMf6sntC1XE67ou-W0Fsi4T9JZh4ObwaoKOJbJkbMEByluZp3s3gIyZx0FT7lpeS5H-b91tezmHhm9PXZsysfj7201dxbuBBwSQg4ohKgJos-4GoeJi0MOGqmzgw7-xewQBIKw6Lx4XxXKtj2weSNfDbCP-hRihTd8zpPYKK3SNLMZ1gbScM3qemkmygvKwC_qnyT9mk4DVdACi2zVK11EQQDrO7MmNtmh3zJAaHcElAQyNSLwQUnHGfDEU6fPzirJhok-Ve21y1uR6-6K0qKp8I0tOnY_k8S7lnTHZs1qRKcmt_Oyu3a4walIlqV1ikJneO5sw_082XPXXbhwIuhZ4uZk8BvSkkt6JcTvkq9NhrF_rUs9SFpbDAqFKQofEqyLYcWuPjtkMtXg6EtQYrS-k1WchpWQifJgFadHZUosofThXJjDCNqlDNDAfvbVPL6-QOPTNabvaTgL4ZvBsNZlwinEOXKpu6VhDluLHq_m7]--></g></svg>