<svg xmlns="http://www.w3.org/2000/svg" xmlns:xlink="http://www.w3.org/1999/xlink" contentStyleType="text/css" data-diagram-type="DESCRIPTION" height="976px" preserveAspectRatio="none" style="width:1545px;height:976px;background:#FFFFFF;" version="1.1" viewBox="0 0 1545 976" width="1545px" zoomAndPan="magnify"><title>Semantic Scholar MCP Server - Component Architecture</title><defs/><g><g class="title" data-source-line="4"><text fill="#000000" font-family="Verdana" font-size="22" font-weight="bold" lengthAdjust="spacing" textLength="695.5244" x="420.3524" y="35.4209">Semantic Scholar MCP Server - Component Architecture</text></g><!--cluster External Systems--><g class="cluster" data-entity="External Systems" data-source-line="7" data-uid="ent0002" id="cluster_External Systems"><path d="M1200.1266,497.1032 C1207.2757,487.3116 1216.4393,484.4075 1224.0822,496.5643 C1229.9243,484.9018 1237.8214,485.2943 1245.2423,495.0011 C1252.6124,484.7713 1260.2356,482.097 1269.1081,493.3304 C1274.879,483.5089 1283.492,483.733 1290.4123,491.9746 C1297.7532,480.4347 1309.0636,480.0742 1316.1779,492.2211 C1323.0414,483.0297 1330.8744,480.1044 1338.2783,491.6451 C1344.3158,481.0454 1351.3526,481.9512 1359.1458,489.6421 C1366.1611,480.8318 1375.8323,481.7167 1381.567,491.2108 C1388.164,480.4803 1400.5474,481.3435 1406.3718,492.1026 C1412.6963,482.0087 1421.2306,481.959 1426.8077,492.8311 C1435.1321,481.4605 1445.502,483.7331 1451.1399,495.6395 C1455.3428,486.3985 1464.4355,483.2784 1470.7946,493.4572 C1478.4392,483.5971 1490.04,482.3506 1496.2651,495.0591 C1503.0708,485.1424 1511.6119,487.6258 1516.2006,497.3135 C1533.1349,503.9794 1537.7114,520.1829 1522.4313,532.5458 C1538.2292,547.029 1532.2488,561.2383 1515.1531,569.1878 C1508.01,581.4386 1500.954,579.634 1492.5093,570.5707 C1486.8183,580.2396 1479.0732,584.2719 1470.6765,573.4541 C1463.3013,584.6099 1455.3753,583.4673 1448.6482,572.7999 C1441.6383,582.4333 1433.587,584.6981 1425.8543,573.5943 C1421.5629,586.0111 1412.1967,589.1352 1402.855,578.6707 C1395.8477,586.2913 1389.2019,588.7182 1383.0985,577.7119 C1376.753,588.1063 1368.0489,589.2149 1360.7649,578.7151 C1353.2973,588.8285 1344.2551,588.5191 1338.0586,577.3584 C1330.8803,591.2915 1319.9481,589.6809 1312.7117,577.4146 C1304.4572,585.7672 1297.3869,585.5939 1290.6573,575.5832 C1284.2637,585.3008 1274.8501,583.2925 1269.9079,573.999 C1261.6565,584.6644 1250.2404,584.5915 1245.4094,570.6004 C1239.3151,580.5619 1230.7806,578.4544 1225.3953,569.8366 C1218.584,579.5096 1207.3851,580.6165 1202.1135,568.2128 C1184.687,563.3521 1178.0118,547.4025 1193.0075,533.93 C1177.7822,518.3422 1181.9462,506.2332 1200.1266,497.1032" fill="#FFFFFF" style="stroke:#000000;stroke-width:1;"/><text fill="#000000" font-family="Verdana" font-size="14" font-weight="bold" lengthAdjust="spacing" textLength="137.4229" x="1288.7886" y="513.1045">External Systems</text></g><!--cluster Semantic Scholar MCP Server--><g class="cluster" data-entity="Semantic Scholar MCP Server" data-source-line="13" data-uid="ent0005" id="cluster_Semantic Scholar MCP Server"><path d="M13.5,57.6094 L248.084,57.6094 A3.75,3.75 0 0 1 250.584,60.1094 L257.584,79.9063 L1165.5,79.9063 A2.5,2.5 0 0 1 1168,82.4063 L1168,966.6094 A2.5,2.5 0 0 1 1165.5,969.1094 L13.5,969.1094 A2.5,2.5 0 0 1 11,966.6094 L11,60.1094 A2.5,2.5 0 0 1 13.5,57.6094" fill="#FFFFFF" style="stroke:#000000;stroke-width:1;"/><line style="stroke:#000000;stroke-width:1;" x1="11" x2="257.584" y1="79.9063" y2="79.9063"/><text fill="#000000" font-family="Verdana" font-size="14" font-weight="bold" lengthAdjust="spacing" textLength="233.584" x="15" y="72.6045">Semantic Scholar MCP Server</text></g><!--cluster MCP Layer--><g class="cluster" data-entity="MCP Layer" data-source-line="16" data-uid="ent0006" id="cluster_MCP Layer"><path d="M588.5,100.6094 L672.7344,100.6094 A3.75,3.75 0 0 1 675.2344,103.1094 L682.2344,122.9063 L1141.5,122.9063 A2.5,2.5 0 0 1 1144,125.4063 L1144,299.6094 A2.5,2.5 0 0 1 1141.5,302.1094 L588.5,302.1094 A2.5,2.5 0 0 1 586,299.6094 L586,103.1094 A2.5,2.5 0 0 1 588.5,100.6094" fill="#FFFFFF" style="stroke:#000000;stroke-width:1;"/><line style="stroke:#000000;stroke-width:1;" x1="586" x2="682.2344" y1="122.9063" y2="122.9063"/><text fill="#000000" font-family="Verdana" font-size="14" font-weight="bold" lengthAdjust="spacing" textLength="83.2344" x="590" y="115.6045">MCP Layer</text></g><!--cluster Business Logic Layer--><g class="cluster" data-entity="Business Logic Layer" data-source-line="28" data-uid="ent0014" id="cluster_Business Logic Layer"><path d="M782.5,351.1094 L948.6973,351.1094 A3.75,3.75 0 0 1 951.1973,353.6094 L958.1973,373.4063 L1141.5,373.4063 A2.5,2.5 0 0 1 1144,375.9063 L1144,571.6094 A2.5,2.5 0 0 1 1141.5,574.1094 L782.5,574.1094 A2.5,2.5 0 0 1 780,571.6094 L780,353.6094 A2.5,2.5 0 0 1 782.5,351.1094" fill="#FFFFFF" style="stroke:#000000;stroke-width:1;"/><line style="stroke:#000000;stroke-width:1;" x1="780" x2="958.1973" y1="373.4063" y2="373.4063"/><text fill="#000000" font-family="Verdana" font-size="14" font-weight="bold" lengthAdjust="spacing" textLength="165.1973" x="784" y="366.1045">Business Logic Layer</text></g><!--cluster Resilience Patterns--><g class="cluster" data-entity="Resilience Patterns" data-source-line="38" data-uid="ent0020" id="cluster_Resilience Patterns"><path d="M121.5,487.1094 L275.4268,487.1094 A3.75,3.75 0 0 1 277.9268,489.6094 L284.9268,509.4063 L737.5,509.4063 A2.5,2.5 0 0 1 740,511.9063 L740,571.6094 A2.5,2.5 0 0 1 737.5,574.1094 L121.5,574.1094 A2.5,2.5 0 0 1 119,571.6094 L119,489.6094 A2.5,2.5 0 0 1 121.5,487.1094" fill="#FFFFFF" style="stroke:#000000;stroke-width:1;"/><line style="stroke:#000000;stroke-width:1;" x1="119" x2="284.9268" y1="509.4063" y2="509.4063"/><text fill="#000000" font-family="Verdana" font-size="14" font-weight="bold" lengthAdjust="spacing" textLength="152.9268" x="123" y="502.1045">Resilience Patterns</text></g><!--cluster Infrastructure--><g class="cluster" data-entity="Infrastructure" data-source-line="51" data-uid="ent0029" id="cluster_Infrastructure"><path d="M37.5,623.1094 L149.3721,623.1094 A3.75,3.75 0 0 1 151.8721,625.6094 L158.8721,645.4063 L586.5,645.4063 A2.5,2.5 0 0 1 589,647.9063 L589,841.6094 A2.5,2.5 0 0 1 586.5,844.1094 L37.5,844.1094 A2.5,2.5 0 0 1 35,841.6094 L35,625.6094 A2.5,2.5 0 0 1 37.5,623.1094" fill="#FFFFFF" style="stroke:#000000;stroke-width:1;"/><line style="stroke:#000000;stroke-width:1;" x1="35" x2="158.8721" y1="645.4063" y2="645.4063"/><text fill="#000000" font-family="Verdana" font-size="14" font-weight="bold" lengthAdjust="spacing" textLength="110.8721" x="39" y="638.1045">Infrastructure</text></g><!--cluster Core--><g class="cluster" data-entity="Core" data-source-line="63" data-uid="ent0037" id="cluster_Core"><path d="M615.5,757.1094 L652.792,757.1094 A3.75,3.75 0 0 1 655.292,759.6094 L662.292,779.4063 L1141.5,779.4063 A2.5,2.5 0 0 1 1144,781.9063 L1144,942.6094 A2.5,2.5 0 0 1 1141.5,945.1094 L615.5,945.1094 A2.5,2.5 0 0 1 613,942.6094 L613,759.6094 A2.5,2.5 0 0 1 615.5,757.1094" fill="#FFFFFF" style="stroke:#000000;stroke-width:1;"/><line style="stroke:#000000;stroke-width:1;" x1="613" x2="662.292" y1="779.4063" y2="779.4063"/><text fill="#000000" font-family="Verdana" font-size="14" font-weight="bold" lengthAdjust="spacing" textLength="36.292" x="617" y="772.1045">Core</text></g><!--entity SSAPI--><g class="entity" data-entity="SSAPI" data-source-line="8" data-uid="ent0003" id="entity_SSAPI"><rect fill="#FFFFFF" height="36.2969" rx="2.5" ry="2.5" style="stroke:#000000;stroke-width:1;" width="168.9619" x="1207.5" y="522.1094"/><text fill="#000000" font-family="Verdana" font-size="14" lengthAdjust="spacing" textLength="148.9619" x="1217.5" y="545.1045">Semantic Scholar API</text></g><!--entity MCPClient--><g class="entity" data-entity="MCPClient" data-source-line="9" data-uid="ent0004" id="entity_MCPClient"><rect fill="#FFFFFF" height="36.2969" rx="2.5" ry="2.5" style="stroke:#000000;stroke-width:1;" width="95.2773" x="1411.5" y="522.1094"/><text fill="#000000" font-family="Verdana" font-size="14" lengthAdjust="spacing" textLength="75.2773" x="1421.5" y="545.1045">MCP Client</text></g><!--entity MCPServer--><g class="entity" data-entity="MCPServer" data-source-line="17" data-uid="ent0007" id="entity_MCPServer"><rect fill="#FFFFFF" height="36.2969" rx="2.5" ry="2.5" style="stroke:#000000;stroke-width:1;" width="130.0723" x="987" y="135.6094"/><text fill="#000000" font-family="Verdana" font-size="14" lengthAdjust="spacing" textLength="110.0723" x="997" y="158.6045">FastMCP Server</text></g><!--entity Tools--><g class="entity" data-entity="Tools" data-source-line="18" data-uid="ent0008" id="entity_Tools"><rect fill="#FFFFFF" height="36.2969" rx="2.5" ry="2.5" style="stroke:#000000;stroke-width:1;" width="138.7061" x="602.5" y="250.1094"/><text fill="#000000" font-family="Verdana" font-size="14" lengthAdjust="spacing" textLength="118.7061" x="612.5" y="273.1045">22 Tool Handlers</text></g><!--entity Resources--><g class="entity" data-entity="Resources" data-source-line="19" data-uid="ent0009" id="entity_Resources"><rect fill="#FFFFFF" height="36.2969" rx="2.5" ry="2.5" style="stroke:#000000;stroke-width:1;" width="165.3662" x="776.5" y="250.1094"/><text fill="#000000" font-family="Verdana" font-size="14" lengthAdjust="spacing" textLength="145.3662" x="786.5" y="273.1045">2 Resource Handlers</text></g><!--entity Prompts--><g class="entity" data-entity="Prompts" data-source-line="20" data-uid="ent0010" id="entity_Prompts"><rect fill="#FFFFFF" height="36.2969" rx="2.5" ry="2.5" style="stroke:#000000;stroke-width:1;" width="151.0039" x="976.5" y="250.1094"/><text fill="#000000" font-family="Verdana" font-size="14" lengthAdjust="spacing" textLength="131.0039" x="986.5" y="273.1045">3 Prompt Handlers</text></g><!--entity Client--><g class="entity" data-entity="Client" data-source-line="29" data-uid="ent0015" id="entity_Client"><rect fill="#FFFFFF" height="36.2969" rx="2.5" ry="2.5" style="stroke:#000000;stroke-width:1;" width="178.4434" x="796" y="386.1094"/><text fill="#000000" font-family="Verdana" font-size="14" lengthAdjust="spacing" textLength="158.4434" x="806" y="409.1045">SemanticScholarClient</text></g><!--entity Models--><g class="entity" data-entity="Models" data-source-line="30" data-uid="ent0016" id="entity_Models"><rect fill="#FFFFFF" height="36.2969" rx="2.5" ry="2.5" style="stroke:#000000;stroke-width:1;" width="128.1035" x="796" y="522.1094"/><text fill="#000000" font-family="Verdana" font-size="14" lengthAdjust="spacing" textLength="108.1035" x="806" y="545.1045">Domain Models</text></g><!--entity QueryBuilder--><g class="entity" data-entity="QueryBuilder" data-source-line="31" data-uid="ent0017" id="entity_QueryBuilder"><rect fill="#FFFFFF" height="36.2969" rx="2.5" ry="2.5" style="stroke:#000000;stroke-width:1;" width="169.3652" x="959.5" y="522.1094"/><text fill="#000000" font-family="Verdana" font-size="14" lengthAdjust="spacing" textLength="149.3652" x="969.5" y="545.1045">Search Query Builder</text></g><!--entity CB--><g class="entity" data-entity="CB" data-source-line="39" data-uid="ent0021" id="entity_CB"><rect fill="#FFFFFF" height="36.2969" rx="2.5" ry="2.5" style="stroke:#000000;stroke-width:1;" width="124.8496" x="276.5" y="522.1094"/><text fill="#000000" font-family="Verdana" font-size="14" lengthAdjust="spacing" textLength="104.8496" x="286.5" y="545.1045">Circuit Breaker</text></g><!--entity RL--><g class="entity" data-entity="RL" data-source-line="40" data-uid="ent0022" id="entity_RL"><rect fill="#FFFFFF" height="36.2969" rx="2.5" ry="2.5" style="stroke:#000000;stroke-width:1;" width="105.9346" x="135" y="522.1094"/><text fill="#000000" font-family="Verdana" font-size="14" lengthAdjust="spacing" textLength="85.9346" x="145" y="545.1045">Rate Limiter</text></g><!--entity Retry--><g class="entity" data-entity="Retry" data-source-line="41" data-uid="ent0023" id="entity_Retry"><rect fill="#FFFFFF" height="36.2969" rx="2.5" ry="2.5" style="stroke:#000000;stroke-width:1;" width="122.3066" x="437" y="522.1094"/><text fill="#000000" font-family="Verdana" font-size="14" lengthAdjust="spacing" textLength="102.3066" x="447" y="545.1045">Retry Strategy</text></g><!--entity Cache--><g class="entity" data-entity="Cache" data-source-line="42" data-uid="ent0024" id="entity_Cache"><rect fill="#FFFFFF" height="36.2969" rx="2.5" ry="2.5" style="stroke:#000000;stroke-width:1;" width="129.3545" x="594.5" y="522.1094"/><text fill="#000000" font-family="Verdana" font-size="14" lengthAdjust="spacing" textLength="109.3545" x="604.5" y="545.1045">Cache Manager</text></g><!--entity Config--><g class="entity" data-entity="Config" data-source-line="52" data-uid="ent0030" id="entity_Config"><rect fill="#FFFFFF" height="36.2969" rx="2.5" ry="2.5" style="stroke:#000000;stroke-width:1;" width="180.7607" x="51.5" y="658.1094"/><text fill="#000000" font-family="Verdana" font-size="14" lengthAdjust="spacing" textLength="160.7607" x="61.5" y="681.1045">Configuration Manager</text></g><!--entity Logging--><g class="entity" data-entity="Logging" data-source-line="53" data-uid="ent0031" id="entity_Logging"><rect fill="#FFFFFF" height="36.2969" rx="2.5" ry="2.5" style="stroke:#000000;stroke-width:1;" width="132.4443" x="441" y="658.1094"/><text fill="#000000" font-family="Verdana" font-size="14" lengthAdjust="spacing" textLength="112.4443" x="451" y="681.1045">Logging System</text></g><!--entity Metrics--><g class="entity" data-entity="Metrics" data-source-line="54" data-uid="ent0032" id="entity_Metrics"><rect fill="#FFFFFF" height="36.2969" rx="2.5" ry="2.5" style="stroke:#000000;stroke-width:1;" width="137.5098" x="268" y="658.1094"/><text fill="#000000" font-family="Verdana" font-size="14" lengthAdjust="spacing" textLength="117.5098" x="278" y="681.1045">Metrics Collector</text></g><!--entity DIContainer--><g class="entity" data-entity="DIContainer" data-source-line="55" data-uid="ent0033" id="entity_DIContainer"><rect fill="#FFFFFF" height="36.2969" rx="2.5" ry="2.5" style="stroke:#000000;stroke-width:1;" width="107.7734" x="283" y="792.1094"/><text fill="#000000" font-family="Verdana" font-size="14" lengthAdjust="spacing" textLength="87.7734" x="293" y="815.1045">DI Container</text></g><!--entity Protocols--><g class="entity" data-entity="Protocols" data-source-line="64" data-uid="ent0038" id="entity_Protocols"><rect fill="#FFFFFF" height="36.2969" rx="2.5" ry="2.5" style="stroke:#000000;stroke-width:1;" width="158.9541" x="628.5" y="792.1094"/><text fill="#000000" font-family="Verdana" font-size="14" lengthAdjust="spacing" textLength="138.9541" x="638.5" y="815.1045">Protocols/Interfaces</text></g><!--entity Exceptions--><g class="entity" data-entity="Exceptions" data-source-line="65" data-uid="ent0039" id="entity_Exceptions"><rect fill="#FFFFFF" height="36.2969" rx="2.5" ry="2.5" style="stroke:#000000;stroke-width:1;" width="161.5723" x="823" y="792.1094"/><text fill="#000000" font-family="Verdana" font-size="14" lengthAdjust="spacing" textLength="141.5723" x="833" y="815.1045">Exception Hierarchy</text></g><!--entity Types--><g class="entity" data-entity="Types" data-source-line="66" data-uid="ent0040" id="entity_Types"><rect fill="#FFFFFF" height="36.2969" rx="2.5" ry="2.5" style="stroke:#000000;stroke-width:1;" width="133.873" x="821" y="893.1094"/><text fill="#000000" font-family="Verdana" font-size="14" lengthAdjust="spacing" textLength="113.873" x="831" y="916.1045">Type Definitions</text></g><!--entity BaseModels--><g class="entity" data-entity="BaseModels" data-source-line="67" data-uid="ent0041" id="entity_BaseModels"><rect fill="#FFFFFF" height="36.2969" rx="2.5" ry="2.5" style="stroke:#000000;stroke-width:1;" width="107.8691" x="1020" y="792.1094"/><text fill="#000000" font-family="Verdana" font-size="14" lengthAdjust="spacing" textLength="87.8691" x="1030" y="815.1045">Base Models</text></g><g class="entity" data-entity="GMN56" data-source-line="93" data-uid="ent0057" id="entity_GMN56"><path d="M1184.5,118.1094 L1184.5,149.6094 L1117.25,153.6094 L1184.5,157.6094 L1184.5,188.6406 A0,0 0 0 0 1184.5,188.6406 L1383.1074,188.6406 A0,0 0 0 0 1383.1074,188.6406 L1383.1074,128.1094 L1373.1074,118.1094 L1184.5,118.1094 A0,0 0 0 0 1184.5,118.1094" fill="#FFFFFF" style="stroke:#000000;stroke-width:1;"/><path d="M1373.1074,118.1094 L1373.1074,128.1094 L1383.1074,128.1094 L1373.1074,118.1094" fill="#FFFFFF" style="stroke:#000000;stroke-width:1;"/><text fill="#000000" font-family="Verdana" font-size="13" lengthAdjust="spacing" textLength="144.6631" x="1190.5" y="135.1763">FastMCP-based server</text><text fill="#000000" font-family="Verdana" font-size="13" lengthAdjust="spacing" textLength="149.4873" x="1190.5" y="150.3091">&#8226; 22 Tools (API access)</text><text fill="#000000" font-family="Verdana" font-size="13" lengthAdjust="spacing" textLength="176.6045" x="1190.5" y="165.4419">&#8226; 2 Resources (direct data)</text><text fill="#000000" font-family="Verdana" font-size="13" lengthAdjust="spacing" textLength="177.6074" x="1190.5" y="180.5747">&#8226; 3 Prompts (AI assistance)</text></g><g class="entity" data-entity="GMN59" data-source-line="100" data-uid="ent0060" id="entity_GMN59"><path d="M1184,384.1094 L1184,424.375 L1357.9468,424.375 L1357.9468,394.1094 L1347.9468,384.1094 L1184,384.1094" fill="#FFFFFF" style="stroke:#000000;stroke-width:1;"/><path d="M1347.9468,384.1094 L1347.9468,394.1094 L1357.9468,394.1094 L1347.9468,384.1094" fill="#FFFFFF" style="stroke:#000000;stroke-width:1;"/><text fill="#000000" font-family="Verdana" font-size="13" lengthAdjust="spacing" textLength="125.874" x="1190" y="401.1763">Core business logic</text><text fill="#000000" font-family="Verdana" font-size="13" lengthAdjust="spacing" textLength="152.9468" x="1190" y="416.3091">with resilience patterns</text></g><g class="entity" data-entity="GMN62" data-source-line="105" data-uid="ent0063" id="entity_GMN62"><path d="M1184.5,891.1094 L1184.5,931.375 L1383.4819,931.375 L1383.4819,901.1094 L1373.4819,891.1094 L1184.5,891.1094" fill="#FFFFFF" style="stroke:#000000;stroke-width:1;"/><path d="M1373.4819,891.1094 L1373.4819,901.1094 L1383.4819,901.1094 L1373.4819,891.1094" fill="#FFFFFF" style="stroke:#000000;stroke-width:1;"/><text fill="#000000" font-family="Verdana" font-size="13" lengthAdjust="spacing" textLength="124.6362" x="1190.5" y="908.1763">Clean architecture:</text><text fill="#000000" font-family="Verdana" font-size="13" lengthAdjust="spacing" textLength="177.9819" x="1190.5" y="923.3091">Dependencies point inward</text></g><!--link MCPServer to Tools--><g class="link" data-entity-1="MCPServer" data-entity-2="Tools" data-source-line="22" data-uid="lnk11" id="link_MCPServer_Tools"><path d="M994.29,171.6994 C922.66,192.8994 806.9831,227.1459 735.3831,248.3459" fill="none" id="MCPServer-to-Tools" style="stroke:#000000;stroke-width:1;"/><polygon fill="#000000" points="729.63,250.0494,739.3953,251.3296,734.4243,248.6298,737.124,243.6588,729.63,250.0494" style="stroke:#000000;stroke-width:1;"/></g><!--link MCPServer to Resources--><g class="link" data-entity-1="MCPServer" data-entity-2="Resources" data-source-line="23" data-uid="lnk12" id="link_MCPServer_Resources"><path d="M1022.69,171.6994 C986.31,192.8994 929.8133,225.8272 893.4533,247.0272" fill="none" id="MCPServer-to-Resources" style="stroke:#000000;stroke-width:1;"/><polygon fill="#000000" points="888.27,250.0494,898.0597,248.9717,892.5894,247.5309,894.0302,242.0606,888.27,250.0494" style="stroke:#000000;stroke-width:1;"/></g><!--link MCPServer to Prompts--><g class="link" data-entity-1="MCPServer" data-entity-2="Prompts" data-source-line="24" data-uid="lnk13" id="link_MCPServer_Prompts"><path d="M1052,171.6994 C1052,192.8394 1052,222.6394 1052,243.8594" fill="none" id="MCPServer-to-Prompts" style="stroke:#000000;stroke-width:1;"/><polygon fill="#000000" points="1052,249.8594,1056,240.8594,1052,244.8594,1048,240.8594,1052,249.8594" style="stroke:#000000;stroke-width:1;"/></g><!--link Client to Models--><g class="link" data-entity-1="Client" data-entity-2="Models" data-source-line="33" data-uid="lnk18" id="link_Client_Models"><path d="M881.78,422.3494 C876.98,448.0794 869.102,490.3414 864.302,516.0314" fill="none" id="Client-to-Models" style="stroke:#000000;stroke-width:1;"/><polygon fill="#000000" points="863.2,521.9294,868.7849,513.8171,864.1183,517.0144,860.921,512.3478,863.2,521.9294" style="stroke:#000000;stroke-width:1;"/></g><!--link Client to QueryBuilder--><g class="link" data-entity-1="Client" data-entity-2="QueryBuilder" data-source-line="34" data-uid="lnk19" id="link_Client_QueryBuilder"><path d="M905.46,422.3494 C935.99,448.0794 988.5416,492.3733 1019.0316,518.0633" fill="none" id="Client-to-QueryBuilder" style="stroke:#000000;stroke-width:1;"/><polygon fill="#000000" points="1023.62,521.9294,1019.3148,513.0713,1019.7963,518.7077,1014.16,519.1892,1023.62,521.9294" style="stroke:#000000;stroke-width:1;"/></g><!--link Client to CB--><g class="link" data-entity-1="Client" data-entity-2="CB" data-source-line="44" data-uid="lnk25" id="link_Client_CB"><path d="M795.89,406.7994 C699.67,411.4194 543.6,427.1894 420,479.1094 C395.8,489.2794 376.6135,504.1197 361.1735,517.9897" fill="none" id="Client-to-CB" style="stroke:#000000;stroke-width:1;"/><polygon fill="#000000" points="356.71,521.9994,366.0783,518.9606,360.4296,518.658,360.7322,513.0093,356.71,521.9994" style="stroke:#000000;stroke-width:1;"/></g><!--link Client to RL--><g class="link" data-entity-1="Client" data-entity-2="RL" data-source-line="45" data-uid="lnk26" id="link_Client_RL"><path d="M795.83,409.0894 C646.48,416.8494 352.87,437.0394 259,479.1094 C236.91,489.0094 220.4621,503.559 207.2121,517.509" fill="none" id="Client-to-RL" style="stroke:#000000;stroke-width:1;"/><polygon fill="#000000" points="203.08,521.8594,212.1784,518.0885,206.5234,518.2341,206.3779,512.5791,203.08,521.8594" style="stroke:#000000;stroke-width:1;"/></g><!--link Client to Retry--><g class="link" data-entity-1="Client" data-entity-2="Retry" data-source-line="46" data-uid="lnk27" id="link_Client_Retry"><path d="M795.78,416.5494 C732.47,427.0194 646.69,446.0694 577,479.1094 C553.97,490.0294 535.6338,504.3813 520.4938,517.9113" fill="none" id="Client-to-Retry" style="stroke:#000000;stroke-width:1;"/><polygon fill="#000000" points="516.02,521.9094,525.3962,518.8948,519.7482,518.5776,520.0654,512.9297,516.02,521.9094" style="stroke:#000000;stroke-width:1;"/></g><!--link Client to Cache--><g class="link" data-entity-1="Client" data-entity-2="Cache" data-source-line="47" data-uid="lnk28" id="link_Client_Cache"><path d="M822.63,422.2194 C799.22,430.0794 772.99,440.6794 751,454.1094 C720.19,472.9194 694.6596,498.6159 677.6996,517.4959" fill="none" id="Client-to-Cache" style="stroke:#000000;stroke-width:1;"/><polygon fill="#000000" points="673.69,521.9594,682.6801,517.9372,677.0313,518.2398,676.7287,512.591,673.69,521.9594" style="stroke:#000000;stroke-width:1;"/></g><!--link Config to DIContainer--><g class="link" data-entity-1="Config" data-entity-2="DIContainer" data-source-line="57" data-uid="lnk34" id="link_Config_DIContainer"><path d="M167.49,694.3694 C204.97,719.7294 269.5414,763.4459 306.8414,788.6959" fill="none" id="Config-to-DIContainer" style="stroke:#000000;stroke-width:1;"/><polygon fill="#000000" points="311.81,792.0594,306.5994,783.7018,307.6695,789.2565,302.1148,790.3266,311.81,792.0594" style="stroke:#000000;stroke-width:1;"/></g><!--link Logging to DIContainer--><g class="link" data-entity-1="Logging" data-entity-2="DIContainer" data-source-line="58" data-uid="lnk35" id="link_Logging_DIContainer"><path d="M484.78,694.3694 C452.11,719.7294 396.2192,763.1297 363.6992,788.3797" fill="none" id="Logging-to-DIContainer" style="stroke:#000000;stroke-width:1;"/><polygon fill="#000000" points="358.96,792.0594,368.5219,789.6993,362.9093,788.993,363.6156,783.3804,358.96,792.0594" style="stroke:#000000;stroke-width:1;"/></g><!--link Metrics to DIContainer--><g class="link" data-entity-1="Metrics" data-entity-2="DIContainer" data-source-line="59" data-uid="lnk36" id="link_Metrics_DIContainer"><path d="M337,694.3694 C337,719.6594 337,760.5494 337,785.8494" fill="none" id="Metrics-to-DIContainer" style="stroke:#000000;stroke-width:1;"/><polygon fill="#000000" points="337,791.8494,341,782.8494,337,786.8494,333,782.8494,337,791.8494" style="stroke:#000000;stroke-width:1;"/></g><!--link Protocols to Types--><g class="link" data-entity-1="Protocols" data-entity-2="Types" data-source-line="69" data-uid="lnk42" id="link_Protocols_Types"><path d="M738.94,828.1294 C771.91,846.2594 818.5522,871.9188 851.6022,890.0888" fill="none" id="Protocols-to-Types" style="stroke:#000000;stroke-width:1;"/><polygon fill="#000000" points="856.86,892.9794,850.9004,885.1383,852.4785,890.5705,847.0462,892.1487,856.86,892.9794" style="stroke:#000000;stroke-width:1;"/></g><!--link BaseModels to Types--><g class="link" data-entity-1="BaseModels" data-entity-2="Types" data-source-line="70" data-uid="lnk43" id="link_BaseModels_Types"><path d="M1045.19,828.2394 C1032.37,835.7394 1017.03,844.5294 1003,852.1094 C976.44,866.4594 951.2924,879.1581 928.3724,890.4481" fill="none" id="BaseModels-to-Types" style="stroke:#000000;stroke-width:1;"/><polygon fill="#000000" points="922.99,893.0994,932.8312,892.7107,927.4754,890.89,929.2961,885.5341,922.99,893.0994" style="stroke:#000000;stroke-width:1;"/></g><!--link Tools to Client--><g class="link" data-entity-1="Tools" data-entity-2="Client" data-source-line="75" data-uid="lnk44" id="link_Tools_Client"><path d="M699.41,286.3494 C740.31,312.0794 811.7813,357.0446 852.6213,382.7346" fill="none" id="Tools-to-Client" style="stroke:#000000;stroke-width:1;"/><polygon fill="#000000" points="857.7,385.9294,852.2117,377.7514,853.4677,383.2671,847.9521,384.5231,857.7,385.9294" style="stroke:#000000;stroke-width:1;"/><text fill="#000000" font-family="Verdana" font-size="13" lengthAdjust="spacing" textLength="29.7832" x="773" y="331.1763">uses</text></g><!--link Resources to Client--><g class="link" data-entity-1="Resources" data-entity-2="Client" data-source-line="76" data-uid="lnk45" id="link_Resources_Client"><path d="M862.35,286.3494 C867.34,312.0794 875.5359,354.3495 880.5259,380.0395" fill="none" id="Resources-to-Client" style="stroke:#000000;stroke-width:1;"/><polygon fill="#000000" points="881.67,385.9294,883.8805,376.3318,880.7166,381.0211,876.0273,377.8572,881.67,385.9294" style="stroke:#000000;stroke-width:1;"/><text fill="#000000" font-family="Verdana" font-size="13" lengthAdjust="spacing" textLength="29.7832" x="872" y="331.1763">uses</text></g><!--link Prompts to QueryBuilder--><g class="link" data-entity-1="Prompts" data-entity-2="QueryBuilder" data-source-line="77" data-uid="lnk46" id="link_Prompts_QueryBuilder"><path d="M1051.49,286.4094 C1050.04,335.1794 1046.1277,467.362 1044.6877,515.952" fill="none" id="Prompts-to-QueryBuilder" style="stroke:#000000;stroke-width:1;"/><polygon fill="#000000" points="1044.51,521.9494,1048.7748,513.0718,1044.6581,516.9516,1040.7784,512.8348,1044.51,521.9494" style="stroke:#000000;stroke-width:1;"/><text fill="#000000" font-family="Verdana" font-size="13" lengthAdjust="spacing" textLength="29.7832" x="1050" y="408.6763">uses</text></g><!--link Client to SSAPI--><g class="link" data-entity-1="Client" data-entity-2="SSAPI" data-source-line="79" data-uid="lnk47" id="link_Client_SSAPI"><path d="M951.88,422.1094 C1004.54,435.9994 1079.56,456.9094 1144,479.1094 C1181.62,492.0694 1218.0554,506.9852 1247.6554,519.6752" fill="none" id="Client-to-SSAPI" style="stroke:#000000;stroke-width:1;"/><polygon fill="#000000" points="1253.17,522.0394,1246.4743,514.8167,1248.5745,520.0692,1243.322,522.1695,1253.17,522.0394" style="stroke:#000000;stroke-width:1;"/><text fill="#000000" font-family="Verdana" font-size="13" lengthAdjust="spacing" textLength="71.3159" x="1117" y="467.1763">HTTP/REST</text></g><!--link MCPClient to MCPServer--><g class="link" data-entity-1="MCPClient" data-entity-2="MCPServer" data-source-line="80" data-uid="lnk48" id="link_MCPClient_MCPServer"><path d="M1455.6,521.9394 C1447.57,485.2294 1424.37,398.0094 1376,343.1094 C1298.89,255.5794 1176.5185,200.3411 1106.7185,173.8111" fill="none" id="MCPClient-to-MCPServer" style="stroke:#000000;stroke-width:1;"/><polygon fill="#000000" points="1101.11,171.6794,1108.1017,178.616,1105.7838,173.4558,1110.944,171.1379,1101.11,171.6794" style="stroke:#000000;stroke-width:1;"/><text fill="#000000" font-family="Verdana" font-size="13" lengthAdjust="spacing" textLength="60.7852" x="1369" y="331.1763">stdio/SSE</text></g><!--link CB to Logging--><g class="link" data-entity-1="CB" data-entity-2="Logging" data-source-line="82" data-uid="lnk49" id="link_CB_Logging"><path d="M367.1,558.3094 C381.22,567.2994 398.39,578.7694 413,590.1094 C441.16,611.9594 467.0098,636.0254 485.3698,653.8054" fill="none" id="CB-to-Logging" style="stroke:#000000;stroke-width:1;"/><polygon fill="#000000" points="489.68,657.9794,485.9974,648.8449,486.0882,654.501,480.4321,654.5918,489.68,657.9794" style="stroke:#000000;stroke-width:1;"/><text fill="#000000" font-family="Verdana" font-size="13" lengthAdjust="spacing" textLength="26.5903" x="432" y="603.1763">logs</text></g><!--link RL to Metrics--><g class="link" data-entity-1="RL" data-entity-2="Metrics" data-source-line="83" data-uid="lnk50" id="link_RL_Metrics"><path d="M207.17,558.3494 C235.78,584.0794 284.8684,628.2276 313.4384,653.9176" fill="none" id="RL-to-Metrics" style="stroke:#000000;stroke-width:1;"/><polygon fill="#000000" points="317.9,657.9294,313.8822,648.9373,314.182,654.5862,308.5331,654.886,317.9,657.9294" style="stroke:#000000;stroke-width:1;"/><text fill="#000000" font-family="Verdana" font-size="13" lengthAdjust="spacing" textLength="46.7632" x="259" y="603.1763">reports</text></g><!--link Cache to Metrics--><g class="link" data-entity-1="Cache" data-entity-2="Metrics" data-source-line="84" data-uid="lnk51" id="link_Cache_Metrics"><path d="M632.07,558.2494 C616.6,567.1394 596.43,577.1494 577,582.1094 C553.3,588.1594 375.9,574.5794 357,590.1094 C337.21,606.3794 334.6267,632.2128 335.2967,651.9728" fill="none" id="Cache-to-Metrics" style="stroke:#000000;stroke-width:1;"/><polygon fill="#000000" points="335.5,657.9694,339.1927,648.839,335.3306,652.9722,331.1973,649.1101,335.5,657.9694" style="stroke:#000000;stroke-width:1;"/><text fill="#000000" font-family="Verdana" font-size="13" lengthAdjust="spacing" textLength="46.7632" x="358" y="603.1763">reports</text></g><!--link Models to BaseModels--><g class="link" data-entity-1="Models" data-entity-2="BaseModels" data-source-line="86" data-uid="lnk52" id="link_Models_BaseModels"><path d="M873.71,558.2794 C912.36,606.6894 1018.1462,739.1607 1056.6562,787.3907" fill="none" id="Models-to-BaseModels" style="stroke:#000000;stroke-width:1;"/><polygon fill="#000000" points="1060.4,792.0794,1057.9101,782.5504,1057.2802,788.1721,1051.6585,787.5421,1060.4,792.0794" style="stroke:#000000;stroke-width:1;"/><text fill="#000000" font-family="Verdana" font-size="13" lengthAdjust="spacing" textLength="52.0508" x="982" y="680.6763">extends</text></g><!--link Client to Protocols--><g class="link" data-entity-1="Client" data-entity-2="Protocols" data-source-line="87" data-uid="lnk53" id="link_Client_Protocols"><path d="M845.67,422.1694 C822.27,434.4794 794.25,453.4494 779,479.1094 C729.88,561.7594 778.75,600.9394 755,694.1094 C745.78,730.2694 730.212,764.6873 719.362,786.7073" fill="none" id="Client-to-Protocols" style="stroke:#000000;stroke-width:1;"/><polygon fill="#000000" points="716.71,792.0894,724.276,785.7842,718.92,787.6043,717.0998,782.2482,716.71,792.0894" style="stroke:#000000;stroke-width:1;"/><text fill="#000000" font-family="Verdana" font-size="13" lengthAdjust="spacing" textLength="76.9082" x="761" y="603.1763">implements</text></g><!--link Cache to Protocols--><g class="link" data-entity-1="Cache" data-entity-2="Protocols" data-source-line="88" data-uid="lnk54" id="link_Cache_Protocols"><path d="M659.43,558.2494 C660.4,586.7194 663.47,645.4194 673,694.1094 C679.94,729.5394 691.4373,763.9578 699.4973,786.2178" fill="none" id="Cache-to-Protocols" style="stroke:#000000;stroke-width:1;"/><polygon fill="#000000" points="701.54,791.8594,702.237,782.0352,699.8377,787.1581,694.7149,784.7588,701.54,791.8594" style="stroke:#000000;stroke-width:1;"/><text fill="#000000" font-family="Verdana" font-size="13" lengthAdjust="spacing" textLength="76.9082" x="674" y="680.6763">implements</text></g><!--link Logging to Protocols--><g class="link" data-entity-1="Logging" data-entity-2="Protocols" data-source-line="89" data-uid="lnk55" id="link_Logging_Protocols"><path d="M516.73,694.3594 C525.83,708.9394 540.73,729.2794 559,741.1094 C570.58,748.6094 576.1,744.1994 589,749.1094 C620.57,761.1294 649.5925,776.05 673.2025,789.14" fill="none" id="Logging-to-Protocols" style="stroke:#000000;stroke-width:1;"/><polygon fill="#000000" points="678.45,792.0494,672.5184,784.1871,674.0771,789.6249,668.6393,791.1837,678.45,792.0494" style="stroke:#000000;stroke-width:1;"/><text fill="#000000" font-family="Verdana" font-size="13" lengthAdjust="spacing" textLength="76.9082" x="560" y="737.1763">implements</text></g><!--link Client to GMN59--><g class="link" data-entity-1="Client" data-entity-2="GMN59" data-source-line="100" data-uid="lnk61" id="link_Client_GMN59"><path d="M908.19,386.0394 C934.29,366.9594 978.77,338.0894 1022.5,326.6094 C1067.21,314.8794 1081.67,315.3494 1126.5,326.6094 C1170.54,337.6694 1215.79,365.0394 1243.65,384.0894" fill="none" id="Client-GMN59" style="stroke:#000000;stroke-width:1;stroke-dasharray:7,7;"/></g><!--link Protocols to GMN62--><g class="link" data-entity-1="Protocols" data-entity-2="GMN62" data-source-line="105" data-uid="lnk64" id="link_Protocols_GMN62"><path d="M742.1,828.1694 C760.57,836.6894 784.05,846.3794 806,852.1094 C952.31,890.3394 993.96,872.2694 1144,891.1094 C1157.02,892.7394 1170.71,894.5294 1184.23,896.3194" fill="none" id="Protocols-GMN62" style="stroke:#000000;stroke-width:1;stroke-dasharray:7,7;"/></g><!--SRC=[VLRDQXin4BxlKqnpINe8WVJcGo5sKcAmYvlrhVGWxuxN8bffaRHDJ0dqMVfeVPAEVbRMsauXEDRtpRzcHlvWTzWYT89nMPXdBZkcMGkLQZibKThIxWM2nieosGWi2iij0IMsJ5fUGLdjb60QbhCLWVedQhY6sQ0DTxhQSKlQlIRTItXujQWb4r3kZSNM59LGVGqNn_W5_2e0lf-ukLlDVm0pK9RqpKaulpF1oPV7wHXEnPjpjwIiuAxh1A-OvKh2YbNFhC6Y2__XuZ-9X1ZexzA32xP7JQUaci0WIC5yOSOUz8U0mYb8tDx2MYa1ZqpM0hNnCWunaOSdDAhN5Ov51ZIAVOALfXhRiL30WeZ_ICxX-lfpvcQCZssFkOF9jw4MqzvmYSR0GZLKjvEodEDJXOPonsfdDnUlpKlTgzPTt5BLA49guUjWWr5NmRSUzPwYuQAEjVP810v528PzDfcL33rIIubINRYJehiuIJBZLiowtZKfnndNLSyjJ3MovnZQR1gu9sR96czf9WBnj8W4Migcj9e4cdsySuAYILRjaBfPalDeq25dauokCYJwo95aEbUC9bC1vdAhgQDrxyVtj0XZ_f2_ablUz3fCt2XepmGfwew6ooOElASZ5FWbXSWhfoC4xGyLnocWiKtcpgAbLedsx-Vfd9N6E_KP7lD33EUumVyfb-epK-Uguj1K2veVgogQkvkvf2lVCXgpOLO34UGUNYliVBqUEMhNtw474XxbrliEuHwtN7AFXlr1OEIdp60-D-wSTRt_IAx3LaZA1zaHyHPMwJrsA6lgU8u6DcXV42K8bxmf_6O9FHJQQGAz8UMqMSvmSRESJE305rbd-crFnEDwlRfvUYZNHThpOQxJpfg0iJLNDsNvG1QcdXrkUG92DHJK8kZ4-vtGuzOfJJik3DbvhiWAazLf0aWFbwnD7ksXlXFWRIVeVPKZy-y8vDtuZWZTmrTbgJgIFa7pPcT1RKUFJ7o3hZSKPGrcWF_-_WFnyJ5mvSh9AheOyt7W3iy0NDNSFVXGCyi6VdXnd3Bf6iCD_IAey6D1wOCBfpWAAYrqFoQRuLKGxbKWz8NR7PKthT4khj5ZUnjbhMgTmNnaPWAP19RzkfWGEkhHJd6w42vVcAuFHly1]--></g></svg>