<svg xmlns="http://www.w3.org/2000/svg" xmlns:xlink="http://www.w3.org/1999/xlink" contentStyleType="text/css" data-diagram-type="DESCRIPTION" height="920px" preserveAspectRatio="none" style="width:2421px;height:920px;background:#FFFFFF;" version="1.1" viewBox="0 0 2421 920" width="2421px" zoomAndPan="magnify"><title>Semantic Scholar MCP Server - Deployment Architecture</title><defs/><g><g class="title" data-source-line="3"><text fill="#000000" font-family="Verdana" font-size="22" font-weight="bold" lengthAdjust="spacing" textLength="703.667" x="854.4661" y="35.4209">Semantic Scholar MCP Server - Deployment Architecture</text></g><!--cluster Client Environment--><g class="cluster" data-entity="Client Environment" data-source-line="5" data-uid="ent0002" id="cluster_Client Environment"><polygon fill="#FFFFFF" points="203,67.6094,213,57.6094,865,57.6094,865,216.6094,855,226.6094,203,226.6094,203,67.6094" style="stroke:#000000;stroke-width:1;"/><line style="stroke:#000000;stroke-width:1;" x1="855" x2="865" y1="67.6094" y2="57.6094"/><line style="stroke:#000000;stroke-width:1;" x1="203" x2="855" y1="67.6094" y2="67.6094"/><line style="stroke:#000000;stroke-width:1;" x1="855" x2="855" y1="67.6094" y2="226.6094"/><text fill="#000000" font-family="Verdana" font-size="14" font-weight="bold" lengthAdjust="spacing" textLength="151.5869" x="454.2065" y="83.6045">Client Environment</text></g><!--cluster Claude--><g class="cluster" data-entity="Claude" data-source-line="6" data-uid="ent0003" id="cluster_Claude"><rect fill="#FFFFFF" height="97" rx="2.5" ry="2.5" style="stroke:#000000;stroke-width:1;" width="212" x="227" y="105.6094"/><rect fill="#FFFFFF" height="10" style="stroke:#000000;stroke-width:1;" width="15" x="419" y="110.6094"/><rect fill="#FFFFFF" height="2" style="stroke:#000000;stroke-width:1;" width="4" x="417" y="112.6094"/><rect fill="#FFFFFF" height="2" style="stroke:#000000;stroke-width:1;" width="4" x="417" y="116.6094"/><text fill="#000000" font-family="Verdana" font-size="14" font-weight="bold" lengthAdjust="spacing" textLength="159.7217" x="253.1392" y="131.6045">Claude Desktop App</text></g><!--cluster VSCode--><g class="cluster" data-entity="VSCode" data-source-line="10" data-uid="ent0005" id="cluster_VSCode"><rect fill="#FFFFFF" height="97" rx="2.5" ry="2.5" style="stroke:#000000;stroke-width:1;" width="208" x="463" y="105.6094"/><rect fill="#FFFFFF" height="10" style="stroke:#000000;stroke-width:1;" width="15" x="651" y="110.6094"/><rect fill="#FFFFFF" height="2" style="stroke:#000000;stroke-width:1;" width="4" x="649" y="112.6094"/><rect fill="#FFFFFF" height="2" style="stroke:#000000;stroke-width:1;" width="4" x="649" y="116.6094"/><text fill="#000000" font-family="Verdana" font-size="14" font-weight="bold" lengthAdjust="spacing" textLength="65.2012" x="534.3994" y="131.6045">VS Code</text></g><!--cluster Terminal--><g class="cluster" data-entity="Terminal" data-source-line="14" data-uid="ent0007" id="cluster_Terminal"><rect fill="#FFFFFF" height="97" rx="2.5" ry="2.5" style="stroke:#000000;stroke-width:1;" width="146" x="695" y="105.6094"/><rect fill="#FFFFFF" height="10" style="stroke:#000000;stroke-width:1;" width="15" x="821" y="110.6094"/><rect fill="#FFFFFF" height="2" style="stroke:#000000;stroke-width:1;" width="4" x="819" y="112.6094"/><rect fill="#FFFFFF" height="2" style="stroke:#000000;stroke-width:1;" width="4" x="819" y="116.6094"/><text fill="#000000" font-family="Verdana" font-size="14" font-weight="bold" lengthAdjust="spacing" textLength="69.5488" x="733.2256" y="131.6045">Terminal</text></g><!--cluster MCP Server Host--><g class="cluster" data-entity="MCP Server Host" data-source-line="19" data-uid="ent0009" id="cluster_MCP Server Host"><polygon fill="#FFFFFF" points="62,285.6094,72,275.6094,1063,275.6094,1063,864.6094,1053,874.6094,62,874.6094,62,285.6094" style="stroke:#000000;stroke-width:1;"/><line style="stroke:#000000;stroke-width:1;" x1="1053" x2="1063" y1="285.6094" y2="275.6094"/><line style="stroke:#000000;stroke-width:1;" x1="62" x2="1053" y1="285.6094" y2="285.6094"/><line style="stroke:#000000;stroke-width:1;" x1="1053" x2="1053" y1="285.6094" y2="874.6094"/><text fill="#000000" font-family="Verdana" font-size="14" font-weight="bold" lengthAdjust="spacing" textLength="132.583" x="492.2085" y="301.6045">MCP Server Host</text></g><!--cluster Python--><g class="cluster" data-entity="Python" data-source-line="20" data-uid="ent0010" id="cluster_Python"><rect fill="#FFFFFF" height="113" rx="2.5" ry="2.5" style="stroke:#000000;stroke-width:1;" width="748" x="283" y="331.6094"/><rect fill="#FFFFFF" height="10" style="stroke:#000000;stroke-width:1;" width="15" x="1011" y="336.6094"/><rect fill="#FFFFFF" height="2" style="stroke:#000000;stroke-width:1;" width="4" x="1009" y="338.6094"/><rect fill="#FFFFFF" height="2" style="stroke:#000000;stroke-width:1;" width="4" x="1009" y="342.6094"/><text fill="#000000" font-family="Verdana" font-size="14" font-weight="bold" lengthAdjust="spacing" textLength="126.793" x="593.6035" y="357.6045">Python Runtime</text></g><!--cluster Cache--><g class="cluster" data-entity="Cache" data-source-line="26" data-uid="ent0014" id="cluster_Cache"><path d="M94,519.6094 C94,509.6094 277,509.6094 277,509.6094 C277,509.6094 460,509.6094 460,519.6094 L460,832.6094 C460,842.6094 277,842.6094 277,842.6094 C277,842.6094 94,842.6094 94,832.6094 L94,519.6094" fill="#FFFFFF" style="stroke:#000000;stroke-width:1;"/><path d="M94,519.6094 C94,529.6094 277,529.6094 277,529.6094 C277,529.6094 460,529.6094 460,519.6094" fill="none" style="stroke:#000000;stroke-width:1;"/><text fill="#000000" font-family="Verdana" font-size="14" font-weight="bold" lengthAdjust="spacing" textLength="137.0059" x="208.4971" y="544.6045">In-Memory Cache</text></g><!--cluster Monitor--><g class="cluster" data-entity="Monitor" data-source-line="32" data-uid="ent0018" id="cluster_Monitor"><rect fill="#FFFFFF" height="97" rx="2.5" ry="2.5" style="stroke:#000000;stroke-width:1;" width="547" x="492" y="532.6094"/><rect fill="#FFFFFF" height="10" style="stroke:#000000;stroke-width:1;" width="15" x="1019" y="537.6094"/><rect fill="#FFFFFF" height="2" style="stroke:#000000;stroke-width:1;" width="4" x="1017" y="539.6094"/><rect fill="#FFFFFF" height="2" style="stroke:#000000;stroke-width:1;" width="4" x="1017" y="543.6094"/><text fill="#000000" font-family="Verdana" font-size="14" font-weight="bold" lengthAdjust="spacing" textLength="86.3174" x="722.3413" y="558.6045">Monitoring</text></g><!--cluster External Services--><g class="cluster" data-entity="External Services" data-source-line="39" data-uid="ent0022" id="cluster_External Services"><path d="M1223.3437,691.2932 C1241.9216,651.427 1278.1699,659.2883 1297.0705,690.9607 C1318.9599,650.0142 1350.2482,650.5188 1376.1771,686.8244 C1400.9118,654.3339 1426.3622,651.1959 1446.8276,690.9968 C1467.6285,653.1295 1492.3791,660.0583 1515.069,689.0693 C1535.1567,658.2169 1561.9725,656.4451 1581.5207,689.6292 C1598.5784,653.4418 1635.8209,649.5424 1657.7328,684.4237 C1681.4122,650.7725 1701.5477,649.4497 1724.1032,685.494 C1744.404,652.345 1774.9921,653.4689 1790.2508,690.2626 C1813.6263,652.4527 1842.2974,652.4452 1870.4134,684.8505 C1898.7372,660.1104 1921.6485,654.3081 1940.673,694.8577 C1959.9748,656.3027 1988.6426,654.8963 2012.1323,690.8407 C2032.155,659.0301 2064.177,660.0579 2081.2792,693.9159 C2099.2073,659.5675 2130.245,660.7675 2151.797,689.8896 C2173.2297,660.7496 2204.8169,660.5457 2223,693.6094 C2227.7182,691.0967 2230.0457,693.0781 2230.284,697.9991 C2270.9352,720.0624 2276.4638,764.6501 2233.1588,789.3554 C2267.7894,822.6486 2253.9875,849.4453 2216,866.6094 C2219.0556,863.7862 2222.2289,865.327 2222.734,869.1815 C2200.5515,901.5291 2175.7623,909.8176 2150.8119,872.0195 C2128.8766,909.3157 2092.6879,904.8486 2074.2413,868.3973 C2057.28,907.78 2035.4021,911.211 2007.0245,879.136 C1984.6742,910.379 1955.6004,904.949 1936.866,874.9909 C1917.9048,908.6747 1888.6944,911.1304 1869.7785,874.9474 C1848.9194,911.4036 1822.713,903.8491 1802.4372,874.3518 C1782.9387,911.6022 1747.3719,910.7098 1726.0073,876.3432 C1705.957,905.8491 1672.4164,913.8069 1653.8485,874.7822 C1634.5111,911.1773 1603.2645,911.4573 1580.9527,877.8809 C1559.6114,912.6478 1529.1353,905.306 1514.1008,871.7132 C1499.7201,909.8956 1465.7747,911.2628 1445.2509,877.6002 C1421.4667,906.5199 1388.7693,909.3218 1369.9046,872.004 C1349.4848,906.5884 1318.3447,913.8309 1293.8492,876.3025 C1262.3427,905.3039 1232.329,897.5753 1215,859.6094 C1217.3123,856.7803 1219.8252,857.506 1220.9234,860.7865 C1181.8529,837.2367 1182.6146,805.7728 1218.4808,779.9585 C1175.4763,747.5193 1176.6842,715.7189 1222,686.6094 C1224.9619,687.3901 1224.9504,689.2018 1223.3437,691.2932" fill="#FFFFFF" style="stroke:#000000;stroke-width:1;"/><text fill="#000000" font-family="Verdana" font-size="14" font-weight="bold" lengthAdjust="spacing" textLength="137.3066" x="1650.3467" y="704.6045">External Services</text></g><!--cluster SSAPI--><g class="cluster" data-entity="SSAPI" data-source-line="40" data-uid="ent0023" id="cluster_SSAPI"><rect fill="#FFFFFF" height="113" rx="2.5" ry="2.5" style="stroke:#000000;stroke-width:1;" width="534" x="1665" y="729.6094"/><rect fill="#FFFFFF" height="10" style="stroke:#000000;stroke-width:1;" width="15" x="2179" y="734.6094"/><rect fill="#FFFFFF" height="2" style="stroke:#000000;stroke-width:1;" width="4" x="2177" y="736.6094"/><rect fill="#FFFFFF" height="2" style="stroke:#000000;stroke-width:1;" width="4" x="2177" y="740.6094"/><text fill="#000000" font-family="Verdana" font-size="14" font-weight="bold" lengthAdjust="spacing" textLength="168.54" x="1847.73" y="755.6045">Semantic Scholar API</text></g><!--cluster ExtMonitor--><g class="cluster" data-entity="ExtMonitor" data-source-line="46" data-uid="ent0027" id="cluster_ExtMonitor"><rect fill="#FFFFFF" height="97" rx="2.5" ry="2.5" style="stroke:#000000;stroke-width:1;" width="402" x="1231" y="737.6094"/><rect fill="#FFFFFF" height="10" style="stroke:#000000;stroke-width:1;" width="15" x="1613" y="742.6094"/><rect fill="#FFFFFF" height="2" style="stroke:#000000;stroke-width:1;" width="4" x="1611" y="744.6094"/><rect fill="#FFFFFF" height="2" style="stroke:#000000;stroke-width:1;" width="4" x="1611" y="748.6094"/><text fill="#000000" font-family="Verdana" font-size="14" font-weight="bold" lengthAdjust="spacing" textLength="157.7256" x="1353.1372" y="763.6045">Monitoring Services</text></g><!--entity MCP Client Runtime--><g class="entity" data-entity="MCP Client Runtime" data-source-line="7" data-uid="ent0004" id="entity_MCP Client Runtime"><rect fill="#FFFFFF" height="46.2969" rx="2.5" ry="2.5" style="stroke:#000000;stroke-width:1;" width="178.8311" x="243.5" y="140.6094"/><rect fill="#FFFFFF" height="10" style="stroke:#000000;stroke-width:1;" width="15" x="402.3311" y="145.6094"/><rect fill="#FFFFFF" height="2" style="stroke:#000000;stroke-width:1;" width="4" x="400.3311" y="147.6094"/><rect fill="#FFFFFF" height="2" style="stroke:#000000;stroke-width:1;" width="4" x="400.3311" y="151.6094"/><text fill="#000000" font-family="Verdana" font-size="14" lengthAdjust="spacing" textLength="138.8311" x="258.5" y="173.6045">MCP Client Runtime</text></g><!--entity Continue Extension--><g class="entity" data-entity="Continue Extension" data-source-line="11" data-uid="ent0006" id="entity_Continue Extension"><rect fill="#FFFFFF" height="46.2969" rx="2.5" ry="2.5" style="stroke:#000000;stroke-width:1;" width="176.1309" x="479" y="140.6094"/><rect fill="#FFFFFF" height="10" style="stroke:#000000;stroke-width:1;" width="15" x="635.1309" y="145.6094"/><rect fill="#FFFFFF" height="2" style="stroke:#000000;stroke-width:1;" width="4" x="633.1309" y="147.6094"/><rect fill="#FFFFFF" height="2" style="stroke:#000000;stroke-width:1;" width="4" x="633.1309" y="151.6094"/><text fill="#000000" font-family="Verdana" font-size="14" lengthAdjust="spacing" textLength="136.1309" x="494" y="173.6045">Continue Extension</text></g><!--entity claude CLI--><g class="entity" data-entity="claude CLI" data-source-line="15" data-uid="ent0008" id="entity_claude CLI"><rect fill="#FFFFFF" height="46.2969" rx="2.5" ry="2.5" style="stroke:#000000;stroke-width:1;" width="112.6934" x="711.5" y="140.6094"/><rect fill="#FFFFFF" height="10" style="stroke:#000000;stroke-width:1;" width="15" x="804.1934" y="145.6094"/><rect fill="#FFFFFF" height="2" style="stroke:#000000;stroke-width:1;" width="4" x="802.1934" y="147.6094"/><rect fill="#FFFFFF" height="2" style="stroke:#000000;stroke-width:1;" width="4" x="802.1934" y="151.6094"/><text fill="#000000" font-family="Verdana" font-size="14" lengthAdjust="spacing" textLength="72.6934" x="726.5" y="173.6045">claude CLI</text></g><!--entity uvicorn ASGI Server--><g class="entity" data-entity="uvicorn ASGI Server" data-source-line="21" data-uid="ent0011" id="entity_uvicorn ASGI Server"><rect fill="#FFFFFF" height="46.2969" rx="2.5" ry="2.5" style="stroke:#000000;stroke-width:1;" width="180.1914" x="827" y="374.6094"/><rect fill="#FFFFFF" height="10" style="stroke:#000000;stroke-width:1;" width="15" x="987.1914" y="379.6094"/><rect fill="#FFFFFF" height="2" style="stroke:#000000;stroke-width:1;" width="4" x="985.1914" y="381.6094"/><rect fill="#FFFFFF" height="2" style="stroke:#000000;stroke-width:1;" width="4" x="985.1914" y="385.6094"/><text fill="#000000" font-family="Verdana" font-size="14" lengthAdjust="spacing" textLength="140.1914" x="842" y="407.6045">uvicorn ASGI Server</text></g><!--entity FastMCP Framework--><g class="entity" data-entity="FastMCP Framework" data-source-line="22" data-uid="ent0012" id="entity_FastMCP Framework"><rect fill="#FFFFFF" height="46.2969" rx="2.5" ry="2.5" style="stroke:#000000;stroke-width:1;" width="182.6797" x="608.5" y="374.6094"/><rect fill="#FFFFFF" height="10" style="stroke:#000000;stroke-width:1;" width="15" x="771.1797" y="379.6094"/><rect fill="#FFFFFF" height="2" style="stroke:#000000;stroke-width:1;" width="4" x="769.1797" y="381.6094"/><rect fill="#FFFFFF" height="2" style="stroke:#000000;stroke-width:1;" width="4" x="769.1797" y="385.6094"/><text fill="#000000" font-family="Verdana" font-size="14" lengthAdjust="spacing" textLength="142.6797" x="623.5" y="407.6045">FastMCP Framework</text></g><!--entity Semantic Scholar MCP Server--><g class="entity" data-entity="Semantic Scholar MCP Server" data-source-line="23" data-uid="ent0013" id="entity_Semantic Scholar MCP Server"><rect fill="#FFFFFF" height="46.2969" rx="2.5" ry="2.5" style="stroke:#000000;stroke-width:1;" width="247.4707" x="326.5" y="374.6094"/><rect fill="#FFFFFF" height="10" style="stroke:#000000;stroke-width:1;" width="15" x="553.9707" y="379.6094"/><rect fill="#FFFFFF" height="2" style="stroke:#000000;stroke-width:1;" width="4" x="551.9707" y="381.6094"/><rect fill="#FFFFFF" height="2" style="stroke:#000000;stroke-width:1;" width="4" x="551.9707" y="385.6094"/><text fill="#000000" font-family="Verdana" font-size="14" lengthAdjust="spacing" textLength="207.4707" x="341.5" y="407.6045">Semantic Scholar MCP Server</text></g><!--entity Paper Cache--><g class="entity" data-entity="Paper Cache" data-source-line="27" data-uid="ent0015" id="entity_Paper Cache"><rect fill="#FFFFFF" height="46.2969" rx="2.5" ry="2.5" style="stroke:#000000;stroke-width:1;" width="128.2656" x="118" y="567.6094"/><rect fill="#FFFFFF" height="10" style="stroke:#000000;stroke-width:1;" width="15" x="226.2656" y="572.6094"/><rect fill="#FFFFFF" height="2" style="stroke:#000000;stroke-width:1;" width="4" x="224.2656" y="574.6094"/><rect fill="#FFFFFF" height="2" style="stroke:#000000;stroke-width:1;" width="4" x="224.2656" y="578.6094"/><text fill="#000000" font-family="Verdana" font-size="14" lengthAdjust="spacing" textLength="88.2656" x="133" y="600.6045">Paper Cache</text></g><!--entity Author Cache--><g class="entity" data-entity="Author Cache" data-source-line="28" data-uid="ent0016" id="entity_Author Cache"><rect fill="#FFFFFF" height="46.2969" rx="2.5" ry="2.5" style="stroke:#000000;stroke-width:1;" width="135.1221" x="281.5" y="567.6094"/><rect fill="#FFFFFF" height="10" style="stroke:#000000;stroke-width:1;" width="15" x="396.6221" y="572.6094"/><rect fill="#FFFFFF" height="2" style="stroke:#000000;stroke-width:1;" width="4" x="394.6221" y="574.6094"/><rect fill="#FFFFFF" height="2" style="stroke:#000000;stroke-width:1;" width="4" x="394.6221" y="578.6094"/><text fill="#000000" font-family="Verdana" font-size="14" lengthAdjust="spacing" textLength="95.1221" x="296.5" y="600.6045">Author Cache</text></g><!--entity Search Results Cache--><g class="entity" data-entity="Search Results Cache" data-source-line="29" data-uid="ent0017" id="entity_Search Results Cache"><rect fill="#FFFFFF" height="46.2969" rx="2.5" ry="2.5" style="stroke:#000000;stroke-width:1;" width="192.0244" x="118" y="772.6094"/><rect fill="#FFFFFF" height="10" style="stroke:#000000;stroke-width:1;" width="15" x="290.0244" y="777.6094"/><rect fill="#FFFFFF" height="2" style="stroke:#000000;stroke-width:1;" width="4" x="288.0244" y="779.6094"/><rect fill="#FFFFFF" height="2" style="stroke:#000000;stroke-width:1;" width="4" x="288.0244" y="783.6094"/><text fill="#000000" font-family="Verdana" font-size="14" lengthAdjust="spacing" textLength="152.0244" x="133" y="805.6045">Search Results Cache</text></g><!--entity Prometheus Metrics--><g class="entity" data-entity="Prometheus Metrics" data-source-line="33" data-uid="ent0019" id="entity_Prometheus Metrics"><rect fill="#FFFFFF" height="46.2969" rx="2.5" ry="2.5" style="stroke:#000000;stroke-width:1;" width="179.4258" x="696.5" y="567.6094"/><rect fill="#FFFFFF" height="10" style="stroke:#000000;stroke-width:1;" width="15" x="855.9258" y="572.6094"/><rect fill="#FFFFFF" height="2" style="stroke:#000000;stroke-width:1;" width="4" x="853.9258" y="574.6094"/><rect fill="#FFFFFF" height="2" style="stroke:#000000;stroke-width:1;" width="4" x="853.9258" y="578.6094"/><text fill="#000000" font-family="Verdana" font-size="14" lengthAdjust="spacing" textLength="139.4258" x="711.5" y="600.6045">Prometheus Metrics</text></g><!--entity JSON Logs--><g class="entity" data-entity="JSON Logs" data-source-line="34" data-uid="ent0020" id="entity_JSON Logs"><rect fill="#FFFFFF" height="46.2969" rx="2.5" ry="2.5" style="stroke:#000000;stroke-width:1;" width="111.5039" x="911" y="567.6094"/><rect fill="#FFFFFF" height="10" style="stroke:#000000;stroke-width:1;" width="15" x="1002.5039" y="572.6094"/><rect fill="#FFFFFF" height="2" style="stroke:#000000;stroke-width:1;" width="4" x="1000.5039" y="574.6094"/><rect fill="#FFFFFF" height="2" style="stroke:#000000;stroke-width:1;" width="4" x="1000.5039" y="578.6094"/><text fill="#000000" font-family="Verdana" font-size="14" lengthAdjust="spacing" textLength="71.5039" x="926" y="600.6045">JSON Logs</text></g><!--entity Health Endpoint--><g class="entity" data-entity="Health Endpoint" data-source-line="35" data-uid="ent0021" id="entity_Health Endpoint"><rect fill="#FFFFFF" height="46.2969" rx="2.5" ry="2.5" style="stroke:#000000;stroke-width:1;" width="152.7314" x="508.5" y="567.6094"/><rect fill="#FFFFFF" height="10" style="stroke:#000000;stroke-width:1;" width="15" x="641.2314" y="572.6094"/><rect fill="#FFFFFF" height="2" style="stroke:#000000;stroke-width:1;" width="4" x="639.2314" y="574.6094"/><rect fill="#FFFFFF" height="2" style="stroke:#000000;stroke-width:1;" width="4" x="639.2314" y="578.6094"/><text fill="#000000" font-family="Verdana" font-size="14" lengthAdjust="spacing" textLength="112.7314" x="523.5" y="600.6045">Health Endpoint</text></g><!--entity RESTful API--><g class="entity" data-entity="RESTful API" data-source-line="41" data-uid="ent0024" id="entity_RESTful API"><rect fill="#FFFFFF" height="46.2969" rx="2.5" ry="2.5" style="stroke:#000000;stroke-width:1;" width="120.3018" x="2055" y="772.6094"/><rect fill="#FFFFFF" height="10" style="stroke:#000000;stroke-width:1;" width="15" x="2155.3018" y="777.6094"/><rect fill="#FFFFFF" height="2" style="stroke:#000000;stroke-width:1;" width="4" x="2153.3018" y="779.6094"/><rect fill="#FFFFFF" height="2" style="stroke:#000000;stroke-width:1;" width="4" x="2153.3018" y="783.6094"/><text fill="#000000" font-family="Verdana" font-size="14" lengthAdjust="spacing" textLength="80.3018" x="2070" y="805.6045">RESTful API</text></g><!--entity Rate Limiting--><g class="entity" data-entity="Rate Limiting" data-source-line="42" data-uid="ent0025" id="entity_Rate Limiting"><rect fill="#FFFFFF" height="46.2969" rx="2.5" ry="2.5" style="stroke:#000000;stroke-width:1;" width="133.2148" x="1886.5" y="772.6094"/><rect fill="#FFFFFF" height="10" style="stroke:#000000;stroke-width:1;" width="15" x="1999.7148" y="777.6094"/><rect fill="#FFFFFF" height="2" style="stroke:#000000;stroke-width:1;" width="4" x="1997.7148" y="779.6094"/><rect fill="#FFFFFF" height="2" style="stroke:#000000;stroke-width:1;" width="4" x="1997.7148" y="783.6094"/><text fill="#000000" font-family="Verdana" font-size="14" lengthAdjust="spacing" textLength="93.2148" x="1901.5" y="805.6045">Rate Limiting</text></g><!--entity Authentication--><g class="entity" data-entity="Authentication" data-source-line="43" data-uid="ent0026" id="entity_Authentication"><rect fill="#FFFFFF" height="46.2969" rx="2.5" ry="2.5" style="stroke:#000000;stroke-width:1;" width="142.7715" x="1708.5" y="772.6094"/><rect fill="#FFFFFF" height="10" style="stroke:#000000;stroke-width:1;" width="15" x="1831.2715" y="777.6094"/><rect fill="#FFFFFF" height="2" style="stroke:#000000;stroke-width:1;" width="4" x="1829.2715" y="779.6094"/><rect fill="#FFFFFF" height="2" style="stroke:#000000;stroke-width:1;" width="4" x="1829.2715" y="783.6094"/><text fill="#000000" font-family="Verdana" font-size="14" lengthAdjust="spacing" textLength="102.7715" x="1723.5" y="805.6045">Authentication</text></g><!--entity Grafana--><g class="entity" data-entity="Grafana" data-source-line="47" data-uid="ent0028" id="entity_Grafana"><rect fill="#FFFFFF" height="46.2969" rx="2.5" ry="2.5" style="stroke:#000000;stroke-width:1;" width="96.1436" x="1418" y="772.6094"/><rect fill="#FFFFFF" height="10" style="stroke:#000000;stroke-width:1;" width="15" x="1494.1436" y="777.6094"/><rect fill="#FFFFFF" height="2" style="stroke:#000000;stroke-width:1;" width="4" x="1492.1436" y="779.6094"/><rect fill="#FFFFFF" height="2" style="stroke:#000000;stroke-width:1;" width="4" x="1492.1436" y="783.6094"/><text fill="#000000" font-family="Verdana" font-size="14" lengthAdjust="spacing" textLength="56.1436" x="1433" y="805.6045">Grafana</text></g><!--entity Loki--><g class="entity" data-entity="Loki" data-source-line="48" data-uid="ent0029" id="entity_Loki"><rect fill="#FFFFFF" height="46.2969" rx="2.5" ry="2.5" style="stroke:#000000;stroke-width:1;" width="68.3623" x="1549" y="772.6094"/><rect fill="#FFFFFF" height="10" style="stroke:#000000;stroke-width:1;" width="15" x="1597.3623" y="777.6094"/><rect fill="#FFFFFF" height="2" style="stroke:#000000;stroke-width:1;" width="4" x="1595.3623" y="779.6094"/><rect fill="#FFFFFF" height="2" style="stroke:#000000;stroke-width:1;" width="4" x="1595.3623" y="783.6094"/><text fill="#000000" font-family="Verdana" font-size="14" lengthAdjust="spacing" textLength="28.3623" x="1564" y="805.6045">Loki</text></g><!--entity Alertmanager--><g class="entity" data-entity="Alertmanager" data-source-line="49" data-uid="ent0030" id="entity_Alertmanager"><rect fill="#FFFFFF" height="46.2969" rx="2.5" ry="2.5" style="stroke:#000000;stroke-width:1;" width="136.25" x="1247" y="772.6094"/><rect fill="#FFFFFF" height="10" style="stroke:#000000;stroke-width:1;" width="15" x="1363.25" y="777.6094"/><rect fill="#FFFFFF" height="2" style="stroke:#000000;stroke-width:1;" width="4" x="1361.25" y="779.6094"/><rect fill="#FFFFFF" height="2" style="stroke:#000000;stroke-width:1;" width="4" x="1361.25" y="783.6094"/><text fill="#000000" font-family="Verdana" font-size="14" lengthAdjust="spacing" textLength="96.25" x="1262" y="805.6045">Alertmanager</text></g><g class="entity" data-entity="GMN40" data-source-line="68" data-uid="ent0041" id="entity_GMN40"><path d="M11,128.1094 L11,198.6406 L187.4668,198.6406 L187.4668,138.1094 L177.4668,128.1094 L11,128.1094" fill="#FFFFFF" style="stroke:#000000;stroke-width:1;"/><path d="M177.4668,128.1094 L177.4668,138.1094 L187.4668,138.1094 L177.4668,128.1094" fill="#FFFFFF" style="stroke:#000000;stroke-width:1;"/><text fill="#000000" font-family="Verdana" font-size="13" lengthAdjust="spacing" textLength="95.6274" x="17" y="145.1763">Requirements:</text><text fill="#000000" font-family="Verdana" font-size="13" lengthAdjust="spacing" textLength="112.8804" x="17" y="160.3091">- Python &gt;= 3.10</text><text fill="#000000" font-family="Verdana" font-size="13" lengthAdjust="spacing" textLength="146.561" x="17" y="175.4419">- uv package manager</text><text fill="#000000" font-family="Verdana" font-size="13" lengthAdjust="spacing" textLength="155.4668" x="17" y="190.5747">- Environment variables</text></g><g class="entity" data-entity="GMN43" data-source-line="75" data-uid="ent0044" id="entity_GMN43"><path d="M2247,768.1094 L2247,823.5078 L2414.5991,823.5078 L2414.5991,778.1094 L2404.5991,768.1094 L2247,768.1094" fill="#FFFFFF" style="stroke:#000000;stroke-width:1;"/><path d="M2404.5991,768.1094 L2404.5991,778.1094 L2414.5991,778.1094 L2404.5991,768.1094" fill="#FFFFFF" style="stroke:#000000;stroke-width:1;"/><text fill="#000000" font-family="Verdana" font-size="13" lengthAdjust="spacing" textLength="77.6064" x="2253" y="785.1763">Rate Limits:</text><text fill="#000000" font-family="Verdana" font-size="13" lengthAdjust="spacing" textLength="126.9404" x="2253" y="800.3091">- 1 req/sec (no key)</text><text fill="#000000" font-family="Verdana" font-size="13" lengthAdjust="spacing" textLength="146.5991" x="2253" y="815.4419">- 10 req/sec (with key)</text></g><g class="entity" data-entity="GMN46" data-source-line="81" data-uid="ent0047" id="entity_GMN46"><path d="M1079,760.1094 L1079,830.6406 L1190.8477,830.6406 L1190.8477,770.1094 L1180.8477,760.1094 L1079,760.1094" fill="#FFFFFF" style="stroke:#000000;stroke-width:1;"/><path d="M1180.8477,760.1094 L1180.8477,770.1094 L1190.8477,770.1094 L1180.8477,760.1094" fill="#FFFFFF" style="stroke:#000000;stroke-width:1;"/><text fill="#000000" font-family="Verdana" font-size="13" lengthAdjust="spacing" textLength="87.5024" x="1085" y="777.1763">Configurable:</text><text fill="#000000" font-family="Verdana" font-size="13" lengthAdjust="spacing" textLength="65.0381" x="1085" y="792.3091">- Max size</text><text fill="#000000" font-family="Verdana" font-size="13" lengthAdjust="spacing" textLength="90.8477" x="1085" y="807.4419">- TTL per type</text><text fill="#000000" font-family="Verdana" font-size="13" lengthAdjust="spacing" textLength="90.0986" x="1085" y="822.5747">- LRU eviction</text></g><!--link MCP Client Runtime to Semantic Scholar MCP Server--><g class="link" data-entity-1="MCP Client Runtime" data-entity-2="Semantic Scholar MCP Server" data-source-line="54" data-uid="lnk31" id="link_MCP Client Runtime_Semantic Scholar MCP Server"><path d="M344.22,186.8594 C366.58,231.1994 413.7779,324.7823 436.1179,369.0723" fill="none" id="MCP Client Runtime-to-Semantic Scholar MCP Server" style="stroke:#000000;stroke-width:1;stroke-dasharray:7,7;"/><polygon fill="#000000" points="438.82,374.4294,438.3382,364.5923,436.5682,369.9651,431.1954,368.1952,438.82,374.4294" style="stroke:#000000;stroke-width:1;"/><text fill="#000000" font-family="Verdana" font-size="13" lengthAdjust="spacing" textLength="98.7505" x="378" y="255.6763">stdio/JSON-RPC</text></g><!--link Continue Extension to Semantic Scholar MCP Server--><g class="link" data-entity-1="Continue Extension" data-entity-2="Semantic Scholar MCP Server" data-source-line="55" data-uid="lnk32" id="link_Continue Extension_Semantic Scholar MCP Server"><path d="M555.78,186.8594 C533.42,231.1994 486.2221,324.7823 463.8821,369.0723" fill="none" id="Continue Extension-to-Semantic Scholar MCP Server" style="stroke:#000000;stroke-width:1;stroke-dasharray:7,7;"/><polygon fill="#000000" points="461.18,374.4294,468.8046,368.1952,463.4318,369.9651,461.6618,364.5923,461.18,374.4294" style="stroke:#000000;stroke-width:1;"/><text fill="#000000" font-family="Verdana" font-size="13" lengthAdjust="spacing" textLength="98.7505" x="526" y="255.6763">stdio/JSON-RPC</text></g><!--link claude CLI to Semantic Scholar MCP Server--><g class="link" data-entity-1="claude CLI" data-entity-2="Semantic Scholar MCP Server" data-source-line="56" data-uid="lnk33" id="link_claude CLI_Semantic Scholar MCP Server"><path d="M738.09,186.6994 C719.03,200.6494 693.74,218.9294 671,234.6094 C654.36,246.0794 651.74,252.0194 633,259.6094 C615.39,266.7494 607.99,259.0994 591,267.6094 C538.8,293.7694 495.5528,340.3149 471.2328,369.7349" fill="none" id="claude CLI-to-Semantic Scholar MCP Server" style="stroke:#000000;stroke-width:1;stroke-dasharray:7,7;"/><polygon fill="#000000" points="467.41,374.3594,476.2272,369.9712,470.5957,370.5056,470.0613,364.8741,467.41,374.3594" style="stroke:#000000;stroke-width:1;"/><text fill="#000000" font-family="Verdana" font-size="13" lengthAdjust="spacing" textLength="98.7505" x="660" y="255.6763">stdio/JSON-RPC</text></g><!--link Semantic Scholar MCP Server to Cache--><g class="link" data-entity-1="Semantic Scholar MCP Server" data-entity-2="Cache" data-source-line="58" data-uid="lnk34" id="link_Semantic Scholar MCP Server_Cache"><path d="M450.23,420.8894 C450.36,433.2894 450.5331,449.8044 450.7203,467.658 C450.8139,476.5848 450.911,485.8462 451.008,495.0953 C451.0565,499.7198 451.042,498.3415 451.09,502.9165" fill="none" id="Semantic Scholar MCP Server-to-Cache" style="stroke:#000000;stroke-width:1;"/><polygon fill="#000000" points="451.153,508.9161,455.0583,499.8747,451.1005,503.9164,447.0588,499.9586,451.153,508.9161" style="stroke:#000000;stroke-width:1;"/><text fill="#000000" font-family="Verdana" font-size="13" lengthAdjust="spacing" textLength="72.5347" x="451" y="481.6763">Read/Write</text></g><!--link Semantic Scholar MCP Server to Prometheus Metrics--><g class="link" data-entity-1="Semantic Scholar MCP Server" data-entity-2="Prometheus Metrics" data-source-line="59" data-uid="lnk35" id="link_Semantic Scholar MCP Server_Prometheus Metrics"><path d="M498.33,420.6594 C525.42,432.8094 559.92,447.9594 591,460.6094 C629.69,476.3594 643.28,471.9494 679,493.6094 C712.93,514.1794 741.8675,541.8699 762.0475,563.2099" fill="none" id="Semantic Scholar MCP Server-to-Prometheus Metrics" style="stroke:#000000;stroke-width:1;"/><polygon fill="#000000" points="766.17,567.5694,762.8926,558.2818,762.7346,563.9365,757.0799,563.7785,766.17,567.5694" style="stroke:#000000;stroke-width:1;"/><text fill="#000000" font-family="Verdana" font-size="13" lengthAdjust="spacing" textLength="42.5547" x="664" y="481.6763">Export</text></g><!--link Semantic Scholar MCP Server to JSON Logs--><g class="link" data-entity-1="Semantic Scholar MCP Server" data-entity-2="JSON Logs" data-source-line="60" data-uid="lnk36" id="link_Semantic Scholar MCP Server_JSON Logs"><path d="M490.01,420.7194 C517.53,434.7794 555.41,451.9194 591,460.6094 C644.65,473.6994 660.06,462.9894 715,468.6094 C794.47,476.7394 823.94,453.4394 893,493.6094 C922.47,510.7494 941.447,539.345 953.487,561.925" fill="none" id="Semantic Scholar MCP Server-to-JSON Logs" style="stroke:#000000;stroke-width:1;"/><polygon fill="#000000" points="956.31,567.2194,955.605,557.3958,953.9575,562.8074,948.5459,561.1598,956.31,567.2194" style="stroke:#000000;stroke-width:1;"/><text fill="#000000" font-family="Verdana" font-size="13" lengthAdjust="spacing" textLength="34.9058" x="878" y="481.6763">Write</text></g><!--link Semantic Scholar MCP Server to RESTful API--><g class="link" data-entity-1="Semantic Scholar MCP Server" data-entity-2="RESTful API" data-source-line="62" data-uid="lnk37" id="link_Semantic Scholar MCP Server_RESTful API"><path d="M489,420.7094 C516.55,435.0694 554.85,452.5494 591,460.6094 C662.6,476.5594 848.02,461.1694 921,468.6094 C1422.46,519.7594 1619.33,388.4194 2037,670.6094 C2073.67,695.3794 2094.3768,738.1652 2105.2568,766.6152" fill="none" id="Semantic Scholar MCP Server-to-RESTful API" style="stroke:#000000;stroke-width:1;stroke-dasharray:7,7;"/><polygon fill="#000000" points="2107.4,772.2194,2107.9213,762.3843,2105.614,767.5492,2100.4491,765.2419,2107.4,772.2194" style="stroke:#000000;stroke-width:1;"/><text fill="#000000" font-family="Verdana" font-size="13" lengthAdjust="spacing" textLength="79.5679" x="1983" y="595.1763">HTTPS/REST</text></g><!--link Prometheus Metrics to Grafana--><g class="link" data-entity-1="Prometheus Metrics" data-entity-2="Grafana" data-source-line="63" data-uid="lnk38" id="link_Prometheus Metrics_Grafana"><path d="M827.62,613.6394 C847.2,622.8694 871.21,632.5994 894,637.6094 C1004.27,661.8394 1307.55,607.2394 1401,670.6094 C1436.2,694.4794 1452.1307,737.8549 1459.6507,766.5849" fill="none" id="Prometheus Metrics-to-Grafana" style="stroke:#000000;stroke-width:1;stroke-dasharray:7,7;"/><polygon fill="#000000" points="1461.17,772.3894,1462.7607,762.6698,1459.9039,767.5523,1455.0214,764.6956,1461.17,772.3894" style="stroke:#000000;stroke-width:1;"/><text fill="#000000" font-family="Verdana" font-size="13" lengthAdjust="spacing" textLength="23.3022" x="1383" y="658.6763">Pull</text></g><!--link JSON Logs to Loki--><g class="link" data-entity-1="JSON Logs" data-entity-2="Loki" data-source-line="64" data-uid="lnk39" id="link_JSON Logs_Loki"><path d="M1023.17,592.4994 C1149.99,595.5694 1453.57,609.3194 1532,670.6094 C1563.91,695.5494 1575.0771,737.9423 1579.5471,766.3423" fill="none" id="JSON Logs-to-Loki" style="stroke:#000000;stroke-width:1;stroke-dasharray:7,7;"/><polygon fill="#000000" points="1580.48,772.2694,1583.032,762.7569,1579.7026,767.3302,1575.1293,764.0007,1580.48,772.2694" style="stroke:#000000;stroke-width:1;"/><text fill="#000000" font-family="Verdana" font-size="13" lengthAdjust="spacing" textLength="28.355" x="1519" y="658.6763">Ship</text></g><!--link GMN40 to Python--><g class="link" data-entity-1="GMN40" data-entity-2="Python" data-source-line="68" data-uid="lnk42" id="link_GMN40_Python"><path d="M127.74,199.3394 C154.105,231.1944 194.0675,279.4794 227.855,320.3044 C244.7487,340.7169 260.0988,359.2644 271.4334,372.9606 C274.2671,376.3847 276.8498,379.5055 279.143,382.2765 C280.2895,383.662 281.3637,384.9601 282.3607,386.1648 C282.4853,386.3154 282.6087,386.4645 282.7309,386.6122" fill="none" id="GMN40-Python" style="stroke:#000000;stroke-width:1;stroke-dasharray:7,7;"/></g><!--link SSAPI to GMN43--><g class="link" data-entity-1="SSAPI" data-entity-2="GMN43" data-source-line="75" data-uid="lnk45" id="link_SSAPI_GMN43"><path d="M1668.8888,729.2806 C1671.0975,698.2069 1680.735,665.5344 1709.5,654.1094 C1757.42,635.0794 2125.36,635.6594 2173.5,654.1094 C2233.05,676.9294 2284.23,733.8094 2311.03,768.1094" fill="none" id="SSAPI-GMN43" style="stroke:#000000;stroke-width:1;stroke-dasharray:7,7;"/></g><!--link Cache to GMN46--><g class="link" data-entity-1="Cache" data-entity-2="GMN46" data-source-line="81" data-uid="lnk48" id="link_Cache_GMN46"><path d="M460.039,604.6604 C460.1316,604.7964 460.2248,604.933 460.3188,605.0703 C460.6947,605.6193 461.082,606.1781 461.4802,606.7455 C462.2768,607.8802 463.1175,609.0489 464,610.2406 C471.06,619.7744 480.795,630.7794 492,637.6094 C685.07,755.2594 961.17,784.7994 1078.64,792.1794" fill="none" id="Cache-GMN46" style="stroke:#000000;stroke-width:1;stroke-dasharray:7,7;"/></g><!--SRC=[dLHDRzim3BtxLt2vR3ka7zYjm0e4QTfcIBeWphh3q8FgCB4GMtJraJOR-jz7oNBZDbbNz6308iNtIEgH7soE9K9L2AcIn4fR8AHO2cLb1ccMKo4qZFiJDkerQkZ26LO5RKfK5dewowN5p3gDIQ9eZj3f5zAx1cejDIb_hGD_4e2CoegKT_4LuVZg6PgLfGfwLTK1OI2Q_MM0NvupOaqTPrFY3JiU-NiETfr2dua3mdNgVnk4Fd6OSWY31ulAI5Bx4MQeIwb44I2QGmEIrKdrHyCw-B6fizMJIpAxHKusDYVLv1wmeoaYkxNCI2lefHV3Y7HJUyw5iHx-N8iIxqclelsLTsbLDXTMt0h3AGvLTumbwGtqHPRNEOI_9eM9g3ZzO8eKFSSfFZUbAFYPOOh65TPiNRkD79EIbhHKoq0LZqzacafajJdseDKoCv7WM_hz2aQqRCwNA0gRiuBc5Kbbd_gU5UJcqF6lgVqB-SfbXcQdzJjzwas68QCqvRycd-aWdIrSuPsHU2eimaYMacMpR3K4FPYm_nJGjkvMJap7cRxemOKM2w54n1xHIZOq1MhBMOjbyvPSy4TMTbaw5ScXqcGfey8a-wO33WvENzS8d82nSqc7lkFTwQIVx9kHT-6qnkGzySdhzxlTqoZS4zQXc1_-rBnstX2qJtICCNYeIDktn6-roM4rwt_2GlLjRN7WvMmsIG-zCTcRKOXfjC7t9wueaZPtk13amjuqbvKNnnLPDBoDMBH-ZT8YBXYMpnJldDJejwyvuNEtsJsdN-7BmV5HCBarL29RiUGWAY-OMviRra9BSLim3QevUAga9jHocLjF6KRACpxDJYGy1ertXmOp-AG8LhZvN9kFjlPxoMCUF2_GRybQAZryU7KEP9qkvD9fdqoDFnOFOEHl38VPR0H-bTbDLHj6qn-0F8b-RhReVm40]--></g></svg>