<svg xmlns="http://www.w3.org/2000/svg" xmlns:xlink="http://www.w3.org/1999/xlink" contentStyleType="text/css" data-diagram-type="SEQUENCE" height="1811px" preserveAspectRatio="none" style="width:2257px;height:1811px;background:#FFFFFF;" version="1.1" viewBox="0 0 2257 1811" width="2257px" zoomAndPan="magnify"><title>Search Papers Sequence Diagram</title><defs/><g><text fill="#000000" font-family="Verdana" font-size="22" font-weight="bold" lengthAdjust="spacing" textLength="419.4609" x="925.689" y="35.4209">Search Papers Sequence Diagram</text><g><title>MCP Client</title><rect fill="#FFFFFF" height="1552.1172" style="stroke:#000000;stroke-width:1;" width="10" x="269.4946" y="160.0391"/></g><g><title>FastMCP Server</title><rect fill="#FFFFFF" height="1478.7188" style="stroke:#000000;stroke-width:1;" width="10" x="406.1694" y="204.3047"/></g><g><title>.mcp.tool search_papers</title><rect fill="#FFFFFF" height="1405.3203" style="stroke:#000000;stroke-width:1;" width="10" x="777.8032" y="248.5703"/></g><g><title>mcp_error_handler</title><rect fill="#FFFFFF" height="1432.8867" style="stroke:#000000;stroke-width:1;" width="10" x="1000.4258" y="288.2695"/></g><g><title>SemanticScholarClient</title><rect fill="#FFFFFF" height="1053.1953" style="stroke:#000000;stroke-width:1;" width="10" x="1189.7168" y="386.2344"/></g><g><title>CircuitBreaker</title><rect fill="#FFFFFF" height="894.3984" style="stroke:#000000;stroke-width:1;" width="10" x="1416.2222" y="523.8984"/></g><g><title>InMemoryCache</title><rect fill="#FFFFFF" height="29.1328" style="stroke:#000000;stroke-width:1;" width="10" x="1567.1602" y="415.3672"/></g><g><title>InMemoryCache</title><rect fill="#FFFFFF" height="29.1328" style="stroke:#000000;stroke-width:1;" width="10" x="1567.1602" y="906.8906"/></g><g><title>MetricsCollector</title><rect fill="#FFFFFF" height="1364.0547" style="stroke:#000000;stroke-width:1;" width="10" x="1724.4282" y="357.1016"/></g><g><title>Semantic Scholar API</title><rect fill="#FFFFFF" height="68.3984" style="stroke:#000000;stroke-width:1;" width="10" x="1899.439" y="694.8281"/></g><g><title>StructuredLogger</title><rect fill="#FFFFFF" height="1393.1875" style="stroke:#000000;stroke-width:1;" width="10" x="2079.334" y="327.9688"/></g><g><title>StructuredLogger</title><rect fill="#FFFFFF" height="29.1328" style="stroke:#000000;stroke-width:1;" width="10" x="2084.334" y="606.2969"/></g><g><title>StructuredLogger</title><rect fill="#FFFFFF" height="29.1328" style="stroke:#000000;stroke-width:1;" width="10" x="2084.334" y="965.1563"/></g><rect fill="#FFFFFF" height="872.3984" style="stroke:#000000;stroke-width:1;" width="1104.2529" x="1078.4951" y="538.8984"/><rect fill="#FFFFFF" height="629.3984" style="stroke:#000000;stroke-width:1;" width="1084.2529" x="1088.4951" y="709.8281"/><rect fill="#FFFFFF" height="200.6016" style="stroke:none;stroke-width:1;" width="1084.2529" x="1088.4951" y="1002.2891"/><rect fill="#FFFFFF" height="136.3359" style="stroke:none;stroke-width:1;" width="1084.2529" x="1088.4951" y="1202.8906"/><rect fill="#FFFFFF" height="65.0703" style="stroke:none;stroke-width:1;" width="1104.2529" x="1078.4951" y="1346.2266"/><g><title>User</title><rect fill="#000000" fill-opacity="0.00000" height="1601.25" width="8" x="24.9551" y="128.9063"/><line style="stroke:#000000;stroke-width:1;" x1="28" x2="28" y1="128.9063" y2="1730.1563"/></g><g><title>MCP Client</title><rect fill="#000000" fill-opacity="0.00000" height="1601.25" width="8" x="270.4946" y="128.9063"/><line style="stroke:#000000;stroke-width:1;" x1="273.856" x2="273.856" y1="128.9063" y2="1730.1563"/></g><g><title>FastMCP Server</title><rect fill="#000000" fill-opacity="0.00000" height="1601.25" width="8" x="407.1694" y="128.9063"/><line style="stroke:#000000;stroke-width:1;" x1="411.1333" x2="411.1333" y1="128.9063" y2="1730.1563"/></g><g><title>.mcp.tool search_papers</title><rect fill="#000000" fill-opacity="0.00000" height="1601.25" width="8" x="778.8032" y="128.9063"/><line style="stroke:#000000;stroke-width:1;" x1="782.0732" x2="782.0732" y1="128.9063" y2="1730.1563"/></g><g><title>mcp_error_handler</title><rect fill="#000000" fill-opacity="0.00000" height="1601.25" width="8" x="1001.4258" y="128.9063"/><line style="stroke:#000000;stroke-width:1;" x1="1005.3564" x2="1005.3564" y1="128.9063" y2="1730.1563"/></g><g><title>SemanticScholarClient</title><rect fill="#000000" fill-opacity="0.00000" height="1601.25" width="8" x="1190.7168" y="128.9063"/><line style="stroke:#000000;stroke-width:1;" x1="1194.4951" x2="1194.4951" y1="128.9063" y2="1730.1563"/></g><g><title>CircuitBreaker</title><rect fill="#000000" fill-opacity="0.00000" height="1601.25" width="8" x="1417.2222" y="128.9063"/><line style="stroke:#000000;stroke-width:1;" x1="1421.0225" x2="1421.0225" y1="128.9063" y2="1730.1563"/></g><g><title>InMemoryCache</title><rect fill="#000000" fill-opacity="0.00000" height="1601.25" width="8" x="1568.1602" y="128.9063"/><line style="stroke:#000000;stroke-width:1;" x1="1571.4219" x2="1571.4219" y1="128.9063" y2="1730.1563"/></g><g><title>MetricsCollector</title><rect fill="#000000" fill-opacity="0.00000" height="1601.25" width="8" x="1725.4282" y="128.9063"/><line style="stroke:#000000;stroke-width:1;" x1="1728.8984" x2="1728.8984" y1="128.9063" y2="1730.1563"/></g><g><title>Semantic Scholar API</title><rect fill="#000000" fill-opacity="0.00000" height="1601.25" width="8" x="1900.439" y="128.9063"/><line style="stroke:#000000;stroke-width:1;" x1="1903.958" x2="1903.958" y1="128.9063" y2="1730.1563"/></g><g><title>StructuredLogger</title><rect fill="#000000" fill-opacity="0.00000" height="1601.25" width="8" x="2080.334" y="128.9063"/><line style="stroke:#000000;stroke-width:1;" x1="2083.9199" x2="2083.9199" y1="128.9063" y2="1730.1563"/></g><g><title>Context</title><rect fill="#000000" fill-opacity="0.00000" height="1601.25" width="8" x="2213.2935" y="128.9063"/><line style="stroke:#000000;stroke-width:1;" x1="2216.748" x2="2216.748" y1="128.9063" y2="1730.1563"/></g><g class="participant participant-head" data-participant="User"><text fill="#000000" font-family="Verdana" font-size="14" lengthAdjust="spacing" textLength="31.9102" x="10" y="125.6045">User</text><ellipse cx="28.9551" cy="60.6094" fill="#FFFFFF" rx="8" ry="8" style="stroke:#000000;stroke-width:1;"/><path d="M28.9551,68.6094 L28.9551,95.6094 M15.9551,76.6094 L41.9551,76.6094 M28.9551,95.6094 L15.9551,110.6094 M28.9551,95.6094 L41.9551,110.6094" fill="none" style="stroke:#000000;stroke-width:1;"/></g><g class="participant participant-tail" data-participant="User"><text fill="#000000" font-family="Verdana" font-size="14" lengthAdjust="spacing" textLength="31.9102" x="10" y="1742.1514">User</text><ellipse cx="28.9551" cy="1754.4531" fill="#FFFFFF" rx="8" ry="8" style="stroke:#000000;stroke-width:1;"/><path d="M28.9551,1762.4531 L28.9551,1789.4531 M15.9551,1770.4531 L41.9551,1770.4531 M28.9551,1789.4531 L15.9551,1804.4531 M28.9551,1789.4531 L41.9551,1804.4531" fill="none" style="stroke:#000000;stroke-width:1;"/></g><g class="participant participant-head" data-participant="Client"><rect fill="#FFFFFF" height="30.2969" rx="2.5" ry="2.5" style="stroke:#000000;stroke-width:1;" width="89.2773" x="229.856" y="97.6094"/><text fill="#000000" font-family="Verdana" font-size="14" lengthAdjust="spacing" textLength="75.2773" x="236.856" y="117.6045">MCP Client</text></g><g class="participant participant-tail" data-participant="Client"><rect fill="#FFFFFF" height="30.2969" rx="2.5" ry="2.5" style="stroke:#000000;stroke-width:1;" width="89.2773" x="229.856" y="1729.1563"/><text fill="#000000" font-family="Verdana" font-size="14" lengthAdjust="spacing" textLength="75.2773" x="236.856" y="1749.1514">MCP Client</text></g><g class="participant participant-head" data-participant="Server"><rect fill="#FFFFFF" height="30.2969" rx="2.5" ry="2.5" style="stroke:#000000;stroke-width:1;" width="124.0723" x="349.1333" y="97.6094"/><text fill="#000000" font-family="Verdana" font-size="14" lengthAdjust="spacing" textLength="110.0723" x="356.1333" y="117.6045">FastMCP Server</text></g><g class="participant participant-tail" data-participant="Server"><rect fill="#FFFFFF" height="30.2969" rx="2.5" ry="2.5" style="stroke:#000000;stroke-width:1;" width="124.0723" x="349.1333" y="1729.1563"/><text fill="#000000" font-family="Verdana" font-size="14" lengthAdjust="spacing" textLength="110.0723" x="356.1333" y="1749.1514">FastMCP Server</text></g><g class="participant participant-head" data-participant="SearchTool"><rect fill="#FFFFFF" height="30.2969" rx="2.5" ry="2.5" style="stroke:#000000;stroke-width:1;" width="195.46" x="685.0732" y="97.6094"/><text fill="#000000" font-family="Verdana" font-size="14" lengthAdjust="spacing" textLength="181.46" x="692.0732" y="117.6045">@mcp.tool search_papers</text></g><g class="participant participant-tail" data-participant="SearchTool"><rect fill="#FFFFFF" height="30.2969" rx="2.5" ry="2.5" style="stroke:#000000;stroke-width:1;" width="195.46" x="685.0732" y="1729.1563"/><text fill="#000000" font-family="Verdana" font-size="14" lengthAdjust="spacing" textLength="181.46" x="692.0732" y="1749.1514">@mcp.tool search_papers</text></g><g class="participant participant-head" data-participant="ErrorHandler"><rect fill="#FFFFFF" height="30.2969" rx="2.5" ry="2.5" style="stroke:#000000;stroke-width:1;" width="146.1387" x="932.3564" y="97.6094"/><text fill="#000000" font-family="Verdana" font-size="14" lengthAdjust="spacing" textLength="132.1387" x="939.3564" y="117.6045">mcp_error_handler</text></g><g class="participant participant-tail" data-participant="ErrorHandler"><rect fill="#FFFFFF" height="30.2969" rx="2.5" ry="2.5" style="stroke:#000000;stroke-width:1;" width="146.1387" x="932.3564" y="1729.1563"/><text fill="#000000" font-family="Verdana" font-size="14" lengthAdjust="spacing" textLength="132.1387" x="939.3564" y="1749.1514">mcp_error_handler</text></g><g class="participant participant-head" data-participant="APIClient"><rect fill="#FFFFFF" height="30.2969" rx="2.5" ry="2.5" style="stroke:#000000;stroke-width:1;" width="172.4434" x="1108.4951" y="97.6094"/><text fill="#000000" font-family="Verdana" font-size="14" lengthAdjust="spacing" textLength="158.4434" x="1115.4951" y="117.6045">SemanticScholarClient</text></g><g class="participant participant-tail" data-participant="APIClient"><rect fill="#FFFFFF" height="30.2969" rx="2.5" ry="2.5" style="stroke:#000000;stroke-width:1;" width="172.4434" x="1108.4951" y="1729.1563"/><text fill="#000000" font-family="Verdana" font-size="14" lengthAdjust="spacing" textLength="158.4434" x="1115.4951" y="1749.1514">SemanticScholarClient</text></g><g class="participant participant-head" data-participant="CB"><rect fill="#FFFFFF" height="30.2969" rx="2.5" ry="2.5" style="stroke:#000000;stroke-width:1;" width="114.3994" x="1364.0225" y="97.6094"/><text fill="#000000" font-family="Verdana" font-size="14" lengthAdjust="spacing" textLength="100.3994" x="1371.0225" y="117.6045">CircuitBreaker</text></g><g class="participant participant-tail" data-participant="CB"><rect fill="#FFFFFF" height="30.2969" rx="2.5" ry="2.5" style="stroke:#000000;stroke-width:1;" width="114.3994" x="1364.0225" y="1729.1563"/><text fill="#000000" font-family="Verdana" font-size="14" lengthAdjust="spacing" textLength="100.3994" x="1371.0225" y="1749.1514">CircuitBreaker</text></g><g class="participant participant-head" data-participant="Cache"><rect fill="#FFFFFF" height="30.2969" rx="2.5" ry="2.5" style="stroke:#000000;stroke-width:1;" width="127.4766" x="1508.4219" y="97.6094"/><text fill="#000000" font-family="Verdana" font-size="14" lengthAdjust="spacing" textLength="113.4766" x="1515.4219" y="117.6045">InMemoryCache</text></g><g class="participant participant-tail" data-participant="Cache"><rect fill="#FFFFFF" height="30.2969" rx="2.5" ry="2.5" style="stroke:#000000;stroke-width:1;" width="127.4766" x="1508.4219" y="1729.1563"/><text fill="#000000" font-family="Verdana" font-size="14" lengthAdjust="spacing" textLength="113.4766" x="1515.4219" y="1749.1514">InMemoryCache</text></g><g class="participant participant-head" data-participant="Metrics"><rect fill="#FFFFFF" height="30.2969" rx="2.5" ry="2.5" style="stroke:#000000;stroke-width:1;" width="127.0596" x="1665.8984" y="97.6094"/><text fill="#000000" font-family="Verdana" font-size="14" lengthAdjust="spacing" textLength="113.0596" x="1672.8984" y="117.6045">MetricsCollector</text></g><g class="participant participant-tail" data-participant="Metrics"><rect fill="#FFFFFF" height="30.2969" rx="2.5" ry="2.5" style="stroke:#000000;stroke-width:1;" width="127.0596" x="1665.8984" y="1729.1563"/><text fill="#000000" font-family="Verdana" font-size="14" lengthAdjust="spacing" textLength="113.0596" x="1672.8984" y="1749.1514">MetricsCollector</text></g><g class="participant participant-head" data-participant="API"><rect fill="#FFFFFF" height="30.2969" rx="2.5" ry="2.5" style="stroke:#000000;stroke-width:1;" width="162.9619" x="1822.958" y="97.6094"/><text fill="#000000" font-family="Verdana" font-size="14" lengthAdjust="spacing" textLength="148.9619" x="1829.958" y="117.6045">Semantic Scholar API</text></g><g class="participant participant-tail" data-participant="API"><rect fill="#FFFFFF" height="30.2969" rx="2.5" ry="2.5" style="stroke:#000000;stroke-width:1;" width="162.9619" x="1822.958" y="1729.1563"/><text fill="#000000" font-family="Verdana" font-size="14" lengthAdjust="spacing" textLength="148.9619" x="1829.958" y="1749.1514">Semantic Scholar API</text></g><g class="participant participant-head" data-participant="Logger"><rect fill="#FFFFFF" height="30.2969" rx="2.5" ry="2.5" style="stroke:#000000;stroke-width:1;" width="136.8281" x="2015.9199" y="97.6094"/><text fill="#000000" font-family="Verdana" font-size="14" lengthAdjust="spacing" textLength="122.8281" x="2022.9199" y="117.6045">StructuredLogger</text></g><g class="participant participant-tail" data-participant="Logger"><rect fill="#FFFFFF" height="30.2969" rx="2.5" ry="2.5" style="stroke:#000000;stroke-width:1;" width="136.8281" x="2015.9199" y="1729.1563"/><text fill="#000000" font-family="Verdana" font-size="14" lengthAdjust="spacing" textLength="122.8281" x="2022.9199" y="1749.1514">StructuredLogger</text></g><g class="participant participant-head" data-participant="Context"><rect fill="#FFFFFF" height="30.2969" rx="2.5" ry="2.5" style="stroke:#000000;stroke-width:1;" width="69.0908" x="2182.748" y="97.6094"/><text fill="#000000" font-family="Verdana" font-size="14" lengthAdjust="spacing" textLength="55.0908" x="2189.748" y="117.6045">Context</text></g><g class="participant participant-tail" data-participant="Context"><rect fill="#FFFFFF" height="30.2969" rx="2.5" ry="2.5" style="stroke:#000000;stroke-width:1;" width="69.0908" x="2182.748" y="1729.1563"/><text fill="#000000" font-family="Verdana" font-size="14" lengthAdjust="spacing" textLength="55.0908" x="2189.748" y="1749.1514">Context</text></g><g><title>MCP Client</title><rect fill="#FFFFFF" height="1552.1172" style="stroke:#000000;stroke-width:1;" width="10" x="269.4946" y="160.0391"/></g><g><title>FastMCP Server</title><rect fill="#FFFFFF" height="1478.7188" style="stroke:#000000;stroke-width:1;" width="10" x="406.1694" y="204.3047"/></g><g><title>.mcp.tool search_papers</title><rect fill="#FFFFFF" height="1405.3203" style="stroke:#000000;stroke-width:1;" width="10" x="777.8032" y="248.5703"/></g><g><title>mcp_error_handler</title><rect fill="#FFFFFF" height="1432.8867" style="stroke:#000000;stroke-width:1;" width="10" x="1000.4258" y="288.2695"/></g><g><title>SemanticScholarClient</title><rect fill="#FFFFFF" height="1053.1953" style="stroke:#000000;stroke-width:1;" width="10" x="1189.7168" y="386.2344"/></g><g><title>CircuitBreaker</title><rect fill="#FFFFFF" height="894.3984" style="stroke:#000000;stroke-width:1;" width="10" x="1416.2222" y="523.8984"/></g><g><title>InMemoryCache</title><rect fill="#FFFFFF" height="29.1328" style="stroke:#000000;stroke-width:1;" width="10" x="1567.1602" y="415.3672"/></g><g><title>InMemoryCache</title><rect fill="#FFFFFF" height="29.1328" style="stroke:#000000;stroke-width:1;" width="10" x="1567.1602" y="906.8906"/></g><g><title>MetricsCollector</title><rect fill="#FFFFFF" height="1364.0547" style="stroke:#000000;stroke-width:1;" width="10" x="1724.4282" y="357.1016"/></g><g><title>Semantic Scholar API</title><rect fill="#FFFFFF" height="68.3984" style="stroke:#000000;stroke-width:1;" width="10" x="1899.439" y="694.8281"/></g><g><title>StructuredLogger</title><rect fill="#FFFFFF" height="1393.1875" style="stroke:#000000;stroke-width:1;" width="10" x="2079.334" y="327.9688"/></g><g><title>StructuredLogger</title><rect fill="#FFFFFF" height="29.1328" style="stroke:#000000;stroke-width:1;" width="10" x="2084.334" y="606.2969"/></g><g><title>StructuredLogger</title><rect fill="#FFFFFF" height="29.1328" style="stroke:#000000;stroke-width:1;" width="10" x="2084.334" y="965.1563"/></g><g class="message" data-participant-1="User" data-participant-2="Client"><polygon fill="#000000" points="257.4946,156.0391,267.4946,160.0391,257.4946,164.0391,261.4946,160.0391" style="stroke:#000000;stroke-width:1;"/><line style="stroke:#000000;stroke-width:1;" x1="28.9551" x2="263.4946" y1="160.0391" y2="160.0391"/><text fill="#000000" font-family="Verdana" font-size="13" lengthAdjust="spacing" textLength="221.5396" x="35.9551" y="154.9731">search papers "machine learning"</text></g><g class="message" data-participant-1="Client" data-participant-2="Server"><polygon fill="#000000" points="394.1694,200.3047,404.1694,204.3047,394.1694,208.3047,398.1694,204.3047" style="stroke:#000000;stroke-width:1;"/><line style="stroke:#000000;stroke-width:1;" x1="279.4946" x2="400.1694" y1="204.3047" y2="204.3047"/><text fill="#000000" font-family="Verdana" font-size="13" lengthAdjust="spacing" textLength="71.7729" x="286.4946" y="184.106">invoke tool</text><text fill="#000000" font-family="Verdana" font-size="13" lengthAdjust="spacing" textLength="106.5137" x="286.4946" y="199.2388">"search_papers"</text></g><g class="message" data-participant-1="Server" data-participant-2="SearchTool"><polygon fill="#000000" points="765.8032,244.5703,775.8032,248.5703,765.8032,252.5703,769.8032,248.5703" style="stroke:#000000;stroke-width:1;"/><line style="stroke:#000000;stroke-width:1;" x1="416.1694" x2="771.8032" y1="248.5703" y2="248.5703"/><text fill="#000000" font-family="Verdana" font-size="13" lengthAdjust="spacing" textLength="139.9531" x="423.1694" y="228.3716">@mcp.tool decorated</text><text fill="#000000" font-family="Verdana" font-size="13" lengthAdjust="spacing" textLength="342.6338" x="423.1694" y="243.5044">search_papers(query="machine learning", limit=10)</text></g><g class="message" data-participant-1="SearchTool" data-participant-2="ErrorHandler"><polygon fill="#000000" points="988.4258,284.2695,998.4258,288.2695,988.4258,292.2695,992.4258,288.2695" style="stroke:#000000;stroke-width:1;"/><line style="stroke:#000000;stroke-width:1;" x1="787.8032" x2="994.4258" y1="288.2695" y2="288.2695"/><text fill="#000000" font-family="Verdana" font-size="13" lengthAdjust="spacing" textLength="193.6226" x="794.8032" y="283.2036">@mcp_error_handler wrapper</text></g><path d="M1015,261.5703 L1015,301.5703 L1195,301.5703 L1195,271.5703 L1185,261.5703 L1015,261.5703" fill="#FFFFFF" style="stroke:#000000;stroke-width:1;"/><path d="M1185,261.5703 L1185,271.5703 L1195,271.5703 L1185,261.5703" fill="#FFFFFF" style="stroke:#000000;stroke-width:1;"/><text fill="#000000" font-family="Verdana" font-size="13" lengthAdjust="spacing" textLength="159.9355" x="1021" y="278.6372">Error handling decorator</text><text fill="#000000" font-family="Verdana" font-size="13" lengthAdjust="spacing" textLength="93.8755" x="1021" y="293.77">applied to tool</text><g class="message" data-participant-1="ErrorHandler" data-participant-2="Logger"><polygon fill="#000000" points="2067.334,323.9688,2077.334,327.9688,2067.334,331.9688,2071.334,327.9688" style="stroke:#000000;stroke-width:1;"/><line style="stroke:#000000;stroke-width:1;" x1="1010.4258" x2="2073.334" y1="327.9688" y2="327.9688"/><text fill="#000000" font-family="Verdana" font-size="13" lengthAdjust="spacing" textLength="108.0625" x="1017.4258" y="322.9028">log request start</text></g><g class="message" data-participant-1="Logger" data-participant-2="Metrics"><polygon fill="#000000" points="1745.4282,353.1016,1735.4282,357.1016,1745.4282,361.1016,1741.4282,357.1016" style="stroke:#000000;stroke-width:1;"/><line style="stroke:#000000;stroke-width:1;" x1="1739.4282" x2="2078.334" y1="357.1016" y2="357.1016"/><text fill="#000000" font-family="Verdana" font-size="13" lengthAdjust="spacing" textLength="214.8999" x="1751.4282" y="352.0356">record_request("search_papers")</text></g><g class="message" data-participant-1="SearchTool" data-participant-2="APIClient"><polygon fill="#000000" points="1177.7168,382.2344,1187.7168,386.2344,1177.7168,390.2344,1181.7168,386.2344" style="stroke:#000000;stroke-width:1;"/><line style="stroke:#000000;stroke-width:1;" x1="787.8032" x2="1183.7168" y1="386.2344" y2="386.2344"/><text fill="#000000" font-family="Verdana" font-size="13" lengthAdjust="spacing" textLength="192.1943" x="794.8032" y="381.1685">search_papers(search_query)</text></g><g class="message" data-participant-1="APIClient" data-participant-2="Cache"><polygon fill="#000000" points="1555.1602,411.3672,1565.1602,415.3672,1555.1602,419.3672,1559.1602,415.3672" style="stroke:#000000;stroke-width:1;"/><line style="stroke:#000000;stroke-width:1;" x1="1199.7168" x2="1561.1602" y1="415.3672" y2="415.3672"/><text fill="#000000" font-family="Verdana" font-size="13" lengthAdjust="spacing" textLength="238.1323" x="1206.7168" y="410.3013">get("search:machine learning:0:10")</text></g><g class="message" data-participant-1="Cache" data-participant-2="APIClient"><polygon fill="#000000" points="1210.7168,440.5,1200.7168,444.5,1210.7168,448.5,1206.7168,444.5" style="stroke:#000000;stroke-width:1;"/><line style="stroke:#000000;stroke-width:1;stroke-dasharray:2,2;" x1="1204.7168" x2="1571.1602" y1="444.5" y2="444.5"/><text fill="#000000" font-family="Verdana" font-size="13" lengthAdjust="spacing" textLength="120.6436" x="1216.7168" y="439.4341">None (cache miss)</text></g><path d="M1204,457.5 L1204,497.5 L1364,497.5 L1364,467.5 L1354,457.5 L1204,457.5" fill="#FFFFFF" style="stroke:#000000;stroke-width:1;"/><path d="M1354,457.5 L1354,467.5 L1364,467.5 L1354,457.5" fill="#FFFFFF" style="stroke:#000000;stroke-width:1;"/><text fill="#000000" font-family="Verdana" font-size="13" lengthAdjust="spacing" textLength="139.6167" x="1210" y="474.5669">Rate limiting handled</text><text fill="#000000" font-family="Verdana" font-size="13" lengthAdjust="spacing" textLength="121.3291" x="1210" y="489.6997">internally by client</text><g class="message" data-participant-1="APIClient" data-participant-2="CB"><polygon fill="#000000" points="1404.2222,519.8984,1414.2222,523.8984,1404.2222,527.8984,1408.2222,523.8984" style="stroke:#000000;stroke-width:1;"/><line style="stroke:#000000;stroke-width:1;" x1="1199.7168" x2="1410.2222" y1="523.8984" y2="523.8984"/><text fill="#000000" font-family="Verdana" font-size="13" lengthAdjust="spacing" textLength="147.3545" x="1206.7168" y="518.8325">call(_execute_request)</text></g><path d="M1078.4951,538.8984 L1142.938,538.8984 L1142.938,546.0313 L1132.938,556.0313 L1078.4951,556.0313 L1078.4951,538.8984" fill="#FFFFFF" style="stroke:#000000;stroke-width:1;"/><rect fill="none" height="872.3984" style="stroke:#000000;stroke-width:1;" width="1104.2529" x="1078.4951" y="538.8984"/><text fill="#000000" font-family="Verdana" font-size="13" font-weight="bold" lengthAdjust="spacing" textLength="19.4429" x="1093.4951" y="551.9653">alt</text><text fill="#000000" font-family="Verdana" font-size="11" font-weight="bold" lengthAdjust="spacing" textLength="156.2559" x="1157.938" y="551.1089">[Circuit Breaker CLOSED]</text><g class="message" data-participant-1="CB" data-participant-2="APIClient"><polygon fill="#000000" points="1210.7168,573.1641,1200.7168,577.1641,1210.7168,581.1641,1206.7168,577.1641" style="stroke:#000000;stroke-width:1;"/><line style="stroke:#000000;stroke-width:1;" x1="1204.7168" x2="1415.2222" y1="577.1641" y2="577.1641"/><text fill="#000000" font-family="Verdana" font-size="13" lengthAdjust="spacing" textLength="125.0171" x="1216.7168" y="572.0981">_execute_request()</text></g><g class="message" data-participant-1="APIClient" data-participant-2="Logger"><polygon fill="#000000" points="2072.334,602.2969,2082.334,606.2969,2072.334,610.2969,2076.334,606.2969" style="stroke:#000000;stroke-width:1;"/><line style="stroke:#000000;stroke-width:1;" x1="1199.7168" x2="2078.334" y1="606.2969" y2="606.2969"/><text fill="#000000" font-family="Verdana" font-size="13" lengthAdjust="spacing" textLength="275.1011" x="1206.7168" y="601.231">debug("Making request to /paper/search")</text></g><g class="message" data-participant-1="Logger" data-participant-2="APIClient"><polygon fill="#000000" points="1210.7168,631.4297,1200.7168,635.4297,1210.7168,639.4297,1206.7168,635.4297" style="stroke:#000000;stroke-width:1;"/><line style="stroke:#000000;stroke-width:1;stroke-dasharray:2,2;" x1="1204.7168" x2="2078.334" y1="635.4297" y2="635.4297"/><text fill="#000000" font-family="Verdana" font-size="13" lengthAdjust="spacing" textLength="44.3193" x="1216.7168" y="630.3638">logged</text></g><g class="message" data-participant-1="APIClient" data-participant-2="API"><polygon fill="#000000" points="1887.439,690.8281,1897.439,694.8281,1887.439,698.8281,1891.439,694.8281" style="stroke:#000000;stroke-width:1;"/><line style="stroke:#000000;stroke-width:1;" x1="1199.7168" x2="1893.439" y1="694.8281" y2="694.8281"/><text fill="#000000" font-family="Verdana" font-size="13" lengthAdjust="spacing" textLength="120.4023" x="1206.7168" y="659.4966">GET /paper/search</text><text fill="#000000" font-family="Verdana" font-size="13" lengthAdjust="spacing" textLength="168.5811" x="1206.7168" y="674.6294">?query=machine learning</text><text fill="#000000" font-family="Verdana" font-size="13" lengthAdjust="spacing" textLength="66.168" x="1206.7168" y="689.7622">&amp;limit=10</text></g><path d="M1088.4951,709.8281 L1152.938,709.8281 L1152.938,716.9609 L1142.938,726.9609 L1088.4951,726.9609 L1088.4951,709.8281" fill="#FFFFFF" style="stroke:#000000;stroke-width:1;"/><rect fill="none" height="629.3984" style="stroke:#000000;stroke-width:1;" width="1084.2529" x="1088.4951" y="709.8281"/><text fill="#000000" font-family="Verdana" font-size="13" font-weight="bold" lengthAdjust="spacing" textLength="19.4429" x="1103.4951" y="722.895">alt</text><text fill="#000000" font-family="Verdana" font-size="11" font-weight="bold" lengthAdjust="spacing" textLength="122.9819" x="1167.938" y="722.0386">[Success Response]</text><g class="message" data-participant-1="API" data-participant-2="APIClient"><polygon fill="#000000" points="1210.7168,759.2266,1200.7168,763.2266,1210.7168,767.2266,1206.7168,763.2266" style="stroke:#000000;stroke-width:1;"/><line style="stroke:#000000;stroke-width:1;stroke-dasharray:2,2;" x1="1204.7168" x2="1903.439" y1="763.2266" y2="763.2266"/><text fill="#000000" font-family="Verdana" font-size="13" lengthAdjust="spacing" textLength="47.7026" x="1216.7168" y="743.0278">200 OK</text><text fill="#000000" font-family="Verdana" font-size="13" lengthAdjust="spacing" textLength="156.4634" x="1216.7168" y="758.1606">{data: [...], total: 1000}</text></g><g class="message" data-participant-1="CB" data-participant-2="CB"><line style="stroke:#000000;stroke-width:1;" x1="1426.2222" x2="1468.2222" y1="792.3594" y2="792.3594"/><line style="stroke:#000000;stroke-width:1;" x1="1468.2222" x2="1468.2222" y1="792.3594" y2="805.3594"/><line style="stroke:#000000;stroke-width:1;" x1="1427.2222" x2="1468.2222" y1="805.3594" y2="805.3594"/><polygon fill="#000000" points="1437.2222,801.3594,1427.2222,805.3594,1437.2222,809.3594,1433.2222,805.3594" style="stroke:#000000;stroke-width:1;"/><text fill="#000000" font-family="Verdana" font-size="13" lengthAdjust="spacing" textLength="90.1875" x="1433.2222" y="787.2935">_on_success()</text></g><path d="M1545.1875,779.7266 L1545.1875,804.7266 L1689.1875,804.7266 L1689.1875,789.7266 L1679.1875,779.7266 L1545.1875,779.7266" fill="#FFFFFF" style="stroke:#000000;stroke-width:1;"/><path d="M1679.1875,779.7266 L1679.1875,789.7266 L1689.1875,789.7266 L1679.1875,779.7266" fill="#FFFFFF" style="stroke:#000000;stroke-width:1;"/><text fill="#000000" font-family="Verdana" font-size="13" lengthAdjust="spacing" textLength="123.189" x="1551.1875" y="796.7935">Reset failure count</text><g class="message" data-participant-1="APIClient" data-participant-2="APIClient"><line style="stroke:#000000;stroke-width:1;" x1="1199.7168" x2="1241.7168" y1="849.625" y2="849.625"/><line style="stroke:#000000;stroke-width:1;" x1="1241.7168" x2="1241.7168" y1="849.625" y2="862.625"/><line style="stroke:#000000;stroke-width:1;" x1="1200.7168" x2="1241.7168" y1="862.625" y2="862.625"/><polygon fill="#000000" points="1210.7168,858.625,1200.7168,862.625,1210.7168,866.625,1206.7168,862.625" style="stroke:#000000;stroke-width:1;"/><text fill="#000000" font-family="Verdana" font-size="13" lengthAdjust="spacing" textLength="99.3853" x="1206.7168" y="829.4263">Parse response</text><text fill="#000000" font-family="Verdana" font-size="13" lengthAdjust="spacing" textLength="135.9795" x="1206.7168" y="844.5591">Create Paper objects</text></g><g class="message" data-participant-1="APIClient" data-participant-2="Cache"><polygon fill="#000000" points="1555.1602,902.8906,1565.1602,906.8906,1555.1602,910.8906,1559.1602,906.8906" style="stroke:#000000;stroke-width:1;"/><line style="stroke:#000000;stroke-width:1;" x1="1199.7168" x2="1561.1602" y1="906.8906" y2="906.8906"/><text fill="#000000" font-family="Verdana" font-size="13" lengthAdjust="spacing" textLength="235.7139" x="1206.7168" y="886.6919">set("search:machine learning:0:10",</text><text fill="#000000" font-family="Verdana" font-size="13" lengthAdjust="spacing" textLength="122.1797" x="1227.3784" y="901.8247">response, ttl=300)</text></g><g class="message" data-participant-1="Cache" data-participant-2="APIClient"><polygon fill="#000000" points="1210.7168,932.0234,1200.7168,936.0234,1210.7168,940.0234,1206.7168,936.0234" style="stroke:#000000;stroke-width:1;"/><line style="stroke:#000000;stroke-width:1;stroke-dasharray:2,2;" x1="1204.7168" x2="1571.1602" y1="936.0234" y2="936.0234"/><text fill="#000000" font-family="Verdana" font-size="13" lengthAdjust="spacing" textLength="41.4185" x="1216.7168" y="930.9575">stored</text></g><g class="message" data-participant-1="APIClient" data-participant-2="Logger"><polygon fill="#000000" points="2072.334,961.1563,2082.334,965.1563,2072.334,969.1563,2076.334,965.1563" style="stroke:#000000;stroke-width:1;"/><line style="stroke:#000000;stroke-width:1;" x1="1199.7168" x2="2078.334" y1="965.1563" y2="965.1563"/><text fill="#000000" font-family="Verdana" font-size="13" lengthAdjust="spacing" textLength="216.0742" x="1206.7168" y="960.0903">info("Completed search_papers")</text></g><g class="message" data-participant-1="Logger" data-participant-2="APIClient"><polygon fill="#000000" points="1210.7168,990.2891,1200.7168,994.2891,1210.7168,998.2891,1206.7168,994.2891" style="stroke:#000000;stroke-width:1;"/><line style="stroke:#000000;stroke-width:1;stroke-dasharray:2,2;" x1="1204.7168" x2="2078.334" y1="994.2891" y2="994.2891"/><text fill="#000000" font-family="Verdana" font-size="13" lengthAdjust="spacing" textLength="44.3193" x="1216.7168" y="989.2231">logged</text></g><line style="stroke:#000000;stroke-width:1;stroke-dasharray:2,2;" x1="1088.4951" x2="2172.748" y1="1003.2891" y2="1003.2891"/><text fill="#000000" font-family="Verdana" font-size="11" font-weight="bold" lengthAdjust="spacing" textLength="89.1011" x="1093.4951" y="1013.4995">[Rate Limited]</text><g class="message" data-participant-1="API" data-participant-2="APIClient"><polygon fill="#000000" points="1210.7168,1049.3594,1200.7168,1053.3594,1210.7168,1057.3594,1206.7168,1053.3594" style="stroke:#000000;stroke-width:1;"/><line style="stroke:#000000;stroke-width:1;stroke-dasharray:2,2;" x1="1204.7168" x2="1903.439" y1="1053.3594" y2="1053.3594"/><text fill="#000000" font-family="Verdana" font-size="13" lengthAdjust="spacing" textLength="156.3364" x="1216.7168" y="1033.1606">429 Too Many Requests</text><text fill="#000000" font-family="Verdana" font-size="13" lengthAdjust="spacing" textLength="96.8208" x="1216.7168" y="1048.2935">Retry-After: 60</text></g><g class="message" data-participant-1="APIClient" data-participant-2="APIClient"><line style="stroke:#000000;stroke-width:1;" x1="1199.7168" x2="1241.7168" y1="1082.4922" y2="1082.4922"/><line style="stroke:#000000;stroke-width:1;" x1="1241.7168" x2="1241.7168" y1="1082.4922" y2="1095.4922"/><line style="stroke:#000000;stroke-width:1;" x1="1200.7168" x2="1241.7168" y1="1095.4922" y2="1095.4922"/><polygon fill="#000000" points="1210.7168,1091.4922,1200.7168,1095.4922,1210.7168,1099.4922,1206.7168,1095.4922" style="stroke:#000000;stroke-width:1;"/><text fill="#000000" font-family="Verdana" font-size="13" lengthAdjust="spacing" textLength="130.3491" x="1206.7168" y="1077.4263">raise RateLimitError</text></g><g class="message" data-participant-1="CB" data-participant-2="CB"><line style="stroke:#000000;stroke-width:1;" x1="1426.2222" x2="1468.2222" y1="1124.625" y2="1124.625"/><line style="stroke:#000000;stroke-width:1;" x1="1468.2222" x2="1468.2222" y1="1124.625" y2="1137.625"/><line style="stroke:#000000;stroke-width:1;" x1="1427.2222" x2="1468.2222" y1="1137.625" y2="1137.625"/><polygon fill="#000000" points="1437.2222,1133.625,1427.2222,1137.625,1437.2222,1141.625,1433.2222,1137.625" style="stroke:#000000;stroke-width:1;"/><text fill="#000000" font-family="Verdana" font-size="13" lengthAdjust="spacing" textLength="80.6851" x="1433.2222" y="1119.5591">_on_failure()</text></g><path d="M1535.6851,1111.9922 L1535.6851,1136.9922 L1708.6851,1136.9922 L1708.6851,1121.9922 L1698.6851,1111.9922 L1535.6851,1111.9922" fill="#FFFFFF" style="stroke:#000000;stroke-width:1;"/><path d="M1698.6851,1111.9922 L1698.6851,1121.9922 L1708.6851,1121.9922 L1698.6851,1111.9922" fill="#FFFFFF" style="stroke:#000000;stroke-width:1;"/><text fill="#000000" font-family="Verdana" font-size="13" lengthAdjust="spacing" textLength="152.8516" x="1541.6851" y="1129.0591">Increment failure count</text><g class="message" data-participant-1="APIClient" data-participant-2="APIClient"><line style="stroke:#000000;stroke-width:1;" x1="1199.7168" x2="1241.7168" y1="1181.8906" y2="1181.8906"/><line style="stroke:#000000;stroke-width:1;" x1="1241.7168" x2="1241.7168" y1="1181.8906" y2="1194.8906"/><line style="stroke:#000000;stroke-width:1;" x1="1200.7168" x2="1241.7168" y1="1194.8906" y2="1194.8906"/><polygon fill="#000000" points="1210.7168,1190.8906,1200.7168,1194.8906,1210.7168,1198.8906,1206.7168,1194.8906" style="stroke:#000000;stroke-width:1;"/><text fill="#000000" font-family="Verdana" font-size="13" lengthAdjust="spacing" textLength="66.8789" x="1206.7168" y="1161.6919">Retry with</text><text fill="#000000" font-family="Verdana" font-size="13" lengthAdjust="spacing" textLength="128.7939" x="1206.7168" y="1176.8247">exponential backoff</text></g><line style="stroke:#000000;stroke-width:1;stroke-dasharray:2,2;" x1="1088.4951" x2="2172.748" y1="1203.8906" y2="1203.8906"/><text fill="#000000" font-family="Verdana" font-size="11" font-weight="bold" lengthAdjust="spacing" textLength="86.0933" x="1093.4951" y="1214.1011">[Server Error]</text><g class="message" data-participant-1="API" data-participant-2="APIClient"><polygon fill="#000000" points="1210.7168,1234.8281,1200.7168,1238.8281,1210.7168,1242.8281,1206.7168,1238.8281" style="stroke:#000000;stroke-width:1;"/><line style="stroke:#000000;stroke-width:1;stroke-dasharray:2,2;" x1="1204.7168" x2="1903.439" y1="1238.8281" y2="1238.8281"/><text fill="#000000" font-family="Verdana" font-size="13" lengthAdjust="spacing" textLength="157.5552" x="1216.7168" y="1233.7622">503 Service Unavailable</text></g><g class="message" data-participant-1="APIClient" data-participant-2="APIClient"><line style="stroke:#000000;stroke-width:1;" x1="1199.7168" x2="1241.7168" y1="1267.9609" y2="1267.9609"/><line style="stroke:#000000;stroke-width:1;" x1="1241.7168" x2="1241.7168" y1="1267.9609" y2="1280.9609"/><line style="stroke:#000000;stroke-width:1;" x1="1200.7168" x2="1241.7168" y1="1280.9609" y2="1280.9609"/><polygon fill="#000000" points="1210.7168,1276.9609,1200.7168,1280.9609,1210.7168,1284.9609,1206.7168,1280.9609" style="stroke:#000000;stroke-width:1;"/><text fill="#000000" font-family="Verdana" font-size="13" lengthAdjust="spacing" textLength="192.5054" x="1206.7168" y="1262.895">raise ServiceUnavailableError</text></g><g class="message" data-participant-1="CB" data-participant-2="CB"><line style="stroke:#000000;stroke-width:1;" x1="1426.2222" x2="1468.2222" y1="1314.1602" y2="1314.1602"/><line style="stroke:#000000;stroke-width:1;" x1="1468.2222" x2="1468.2222" y1="1314.1602" y2="1327.1602"/><line style="stroke:#000000;stroke-width:1;" x1="1427.2222" x2="1468.2222" y1="1327.1602" y2="1327.1602"/><polygon fill="#000000" points="1437.2222,1323.1602,1427.2222,1327.1602,1437.2222,1331.1602,1433.2222,1327.1602" style="stroke:#000000;stroke-width:1;"/><text fill="#000000" font-family="Verdana" font-size="13" lengthAdjust="spacing" textLength="80.6851" x="1433.2222" y="1309.0942">_on_failure()</text></g><path d="M1535.6851,1293.9609 L1535.6851,1333.9609 L1731.6851,1333.9609 L1731.6851,1303.9609 L1721.6851,1293.9609 L1535.6851,1293.9609" fill="#FFFFFF" style="stroke:#000000;stroke-width:1;"/><path d="M1721.6851,1293.9609 L1721.6851,1303.9609 L1731.6851,1303.9609 L1721.6851,1293.9609" fill="#FFFFFF" style="stroke:#000000;stroke-width:1;"/><text fill="#000000" font-family="Verdana" font-size="13" lengthAdjust="spacing" textLength="175.0303" x="1541.6851" y="1311.0278">Check if threshold reached</text><text fill="#000000" font-family="Verdana" font-size="13" lengthAdjust="spacing" textLength="107.7832" x="1541.6851" y="1326.1606">May open circuit</text><line style="stroke:#000000;stroke-width:1;stroke-dasharray:2,2;" x1="1078.4951" x2="2182.748" y1="1347.2266" y2="1347.2266"/><text fill="#000000" font-family="Verdana" font-size="11" font-weight="bold" lengthAdjust="spacing" textLength="141.3887" x="1083.4951" y="1357.437">[Circuit Breaker OPEN]</text><g class="message" data-participant-1="CB" data-participant-2="APIClient"><polygon fill="#000000" points="1210.7168,1388.7305,1200.7168,1392.7305,1210.7168,1396.7305,1206.7168,1392.7305" style="stroke:#000000;stroke-width:1;"/><line style="stroke:#000000;stroke-width:1;" x1="1204.7168" x2="1415.2222" y1="1392.7305" y2="1392.7305"/><text fill="#000000" font-family="Verdana" font-size="13" lengthAdjust="spacing" textLength="192.5054" x="1216.7168" y="1387.6646">raise ServiceUnavailableError</text></g><path d="M1431,1366.0313 L1431,1406.0313 L1556,1406.0313 L1556,1376.0313 L1546,1366.0313 L1431,1366.0313" fill="#FFFFFF" style="stroke:#000000;stroke-width:1;"/><path d="M1546,1366.0313 L1546,1376.0313 L1556,1376.0313 L1546,1366.0313" fill="#FFFFFF" style="stroke:#000000;stroke-width:1;"/><text fill="#000000" font-family="Verdana" font-size="13" lengthAdjust="spacing" textLength="104.2158" x="1437" y="1383.0981">Fast fail without</text><text fill="#000000" font-family="Verdana" font-size="13" lengthAdjust="spacing" textLength="67.1392" x="1437" y="1398.231">calling API</text><g class="message" data-participant-1="APIClient" data-participant-2="SearchTool"><polygon fill="#000000" points="798.8032,1435.4297,788.8032,1439.4297,798.8032,1443.4297,794.8032,1439.4297" style="stroke:#000000;stroke-width:1;"/><line style="stroke:#000000;stroke-width:1;stroke-dasharray:2,2;" x1="792.8032" x2="1193.7168" y1="1439.4297" y2="1439.4297"/><text fill="#000000" font-family="Verdana" font-size="13" lengthAdjust="spacing" textLength="175.7856" x="804.8032" y="1434.3638">PaginatedResponse[Paper]</text></g><g class="message" data-participant-1="SearchTool" data-participant-2="SearchTool"><line style="stroke:#000000;stroke-width:1;" x1="787.8032" x2="829.8032" y1="1472.6289" y2="1472.6289"/><line style="stroke:#000000;stroke-width:1;" x1="829.8032" x2="829.8032" y1="1472.6289" y2="1485.6289"/><line style="stroke:#000000;stroke-width:1;" x1="788.8032" x2="829.8032" y1="1485.6289" y2="1485.6289"/><polygon fill="#000000" points="798.8032,1481.6289,788.8032,1485.6289,798.8032,1489.6289,794.8032,1485.6289" style="stroke:#000000;stroke-width:1;"/><text fill="#000000" font-family="Verdana" font-size="13" lengthAdjust="spacing" textLength="109.9668" x="794.8032" y="1467.563">Format response</text></g><path d="M925.9668,1452.4297 L925.9668,1492.4297 L1057.9668,1492.4297 L1057.9668,1462.4297 L1047.9668,1452.4297 L925.9668,1452.4297" fill="#FFFFFF" style="stroke:#000000;stroke-width:1;"/><path d="M1047.9668,1452.4297 L1047.9668,1462.4297 L1057.9668,1462.4297 L1047.9668,1452.4297" fill="#FFFFFF" style="stroke:#000000;stroke-width:1;"/><text fill="#000000" font-family="Verdana" font-size="13" lengthAdjust="spacing" textLength="96.8271" x="931.9668" y="1469.4966">Convert to dict</text><text fill="#000000" font-family="Verdana" font-size="13" lengthAdjust="spacing" textLength="111.103" x="931.9668" y="1484.6294">with success flag</text><g class="message" data-participant-1="SearchTool" data-participant-2="Context"><polygon fill="#000000" points="2205.2935,1514.8281,2215.2935,1518.8281,2205.2935,1522.8281,2209.2935,1518.8281" style="stroke:#000000;stroke-width:1;"/><line style="stroke:#000000;stroke-width:1;" x1="787.8032" x2="2211.2935" y1="1518.8281" y2="1518.8281"/><text fill="#000000" font-family="Verdana" font-size="13" lengthAdjust="spacing" text-decoration="underline" textLength="24.4004" x="794.8032" y="1513.7622">exit</text><text fill="#000000" font-family="Verdana" font-size="13" lengthAdjust="spacing" textLength="10.1436" x="819.2036" y="1513.7622">()</text></g><g class="message" data-participant-1="SearchTool" data-participant-2="Server"><polygon fill="#000000" points="427.1694,1649.8906,417.1694,1653.8906,427.1694,1657.8906,423.1694,1653.8906" style="stroke:#000000;stroke-width:1;"/><line style="stroke:#000000;stroke-width:1;stroke-dasharray:2,2;" x1="421.1694" x2="781.8032" y1="1653.8906" y2="1653.8906"/><text fill="#000000" font-family="Verdana" font-size="13" lengthAdjust="spacing" textLength="8.271" x="433.1694" y="1542.895">{</text><text fill="#000000" font-family="Verdana" font-size="13" lengthAdjust="spacing" textLength="102.1338" x="441.4341" y="1558.0278">"success": true,</text><text fill="#000000" font-family="Verdana" font-size="13" lengthAdjust="spacing" textLength="58.0239" x="441.4341" y="1573.1606">"data": {</text><text fill="#000000" font-family="Verdana" font-size="13" lengthAdjust="spacing" textLength="91.73" x="449.6987" y="1588.2935">"papers": [...],</text><text fill="#000000" font-family="Verdana" font-size="13" lengthAdjust="spacing" textLength="87.4136" x="449.6987" y="1603.4263">"total": 1000,</text><text fill="#000000" font-family="Verdana" font-size="13" lengthAdjust="spacing" textLength="110.5889" x="449.6987" y="1618.5591">"has_more": true</text><text fill="#000000" font-family="Verdana" font-size="13" lengthAdjust="spacing" textLength="8.271" x="441.4341" y="1633.6919">}</text><text fill="#000000" font-family="Verdana" font-size="13" lengthAdjust="spacing" textLength="8.271" x="433.1694" y="1648.8247">}</text></g><g class="message" data-participant-1="Server" data-participant-2="Client"><polygon fill="#000000" points="290.4946,1679.0234,280.4946,1683.0234,290.4946,1687.0234,286.4946,1683.0234" style="stroke:#000000;stroke-width:1;"/><line style="stroke:#000000;stroke-width:1;stroke-dasharray:2,2;" x1="284.4946" x2="410.1694" y1="1683.0234" y2="1683.0234"/><text fill="#000000" font-family="Verdana" font-size="13" lengthAdjust="spacing" textLength="68.6563" x="296.4946" y="1677.9575">Tool result</text></g><g class="message" data-participant-1="Client" data-participant-2="User"><polygon fill="#000000" points="39.9551,1708.1563,29.9551,1712.1563,39.9551,1716.1563,35.9551,1712.1563" style="stroke:#000000;stroke-width:1;"/><line style="stroke:#000000;stroke-width:1;stroke-dasharray:2,2;" x1="33.9551" x2="273.4946" y1="1712.1563" y2="1712.1563"/><text fill="#000000" font-family="Verdana" font-size="13" lengthAdjust="spacing" textLength="95.8877" x="45.9551" y="1707.0903">Display results</text></g><!--SRC=[dLTTRzis57tNhxZJm-00IQgqsu09oBP6JRTWSMF4xLDL60n5srneqYFfD4QH_xxB3zcawYBRW22MgVjnUEwvb_HtTibM3DQ2S5aKbbl1OCg8fakOa3NJ1h_zlM6ICdZ3oKAJLL4GQfM63uRfOasqvPIlYRHGZfi9D88pQKiW9Zxc9c-9iSviolG3qzuiFEPclwte-jGg9S1uBBErnnBjtSfxV9dxeCkCQQtqR4ba9sBqIxVoHrZ8xQTiXP-SJkbI2Q8JuAydLuUmDrpJ3RSNcf7x6Bsvo4skv9YjbDusX2vPi71F0vgOrPoQHWd179FUBYuUXWWHeqFM8nnOMhsXTgDPTwqMYuWkF1Q5gnIS_18BKaTE8N2An254BXa8N9PSBafNOFv0BEjBM8HF5oDKgmOk7zGz0rUZLfPvbVR-iRP5-0p-VVLgs5UvOrHfTEXQcOKQeVJqzlnhYCSW-8hRyxFgACssKqQnVtPPKnM4lBbKuBCcQqouZvNfHYfSqNonHFBy2_1-2AH7hdGhCGBIr24ddfQYI6Cu5A4UDGYr0EswobWm5ikuJnjB5ZwSJzH5ZGwOg9j5lz60yeI5Naa32dQYhlEU6iLldkaapBu9YjsZ5v4JT0qBjiDG3wjJL_LPbK8AJU3_mqcEvPr2nn7rhrRScAEYOmE_X7vGyzJvrXbv8RXIX5gYXBYqJ4iYn1Rkja0FxkAY1eeMenbxP7HZMKziYle2Hvsm4FiUOkD3StqplNnJ01eCY1q66nsX5VvbgNiLTEnkinYLOtBlmFTwGF6yy8Lv4SWjNOYXF01wWUJvXLljy7N2uSvbY0E_rF3xvViyNoj_3JqtB6ehl-zRBaNa9f6FxPYQRYXbni0jCsk5dOpBFkaGvykgWfi_M_cb8vRKyF7qzFJJCMxT4fmAPrLLFNdFP1SXZK_Ky-vAE5DoPa9IppL0sge8WrcO4ovmC09L6vJ1BiYGYnxRX6Y34U8EMjbWrJ6aFmn1tVs58zjy8qfi3VDiQnotqZdlik3UhJX_LLLX3mFz-oqVwXs3OyUNEwDgx_GrmbvxNCxLg6pKQYqOJbqO3fCCnKv1pyhkiF0y42QGLT-lrqv5qVo0Ddvu-JFWp88naLkieEyAqyfRd6hRazTpw-3_L3rVHqrupEWJ-bdyBGb5YHoGq9Ma6kz7yZ_BoEE5pznYHx57h3AkSYBWZj1xDPzdjCJJSG_n02q_Lg-y7SUBs0T97X0DkHFit_8GNHFF_qb8isJq7lWSx1BLYxUI3bNi58TpTqoseDPC0WqJSxT9wQfT-BqEX-dDvFBTeL7w7EmKaxjK-lfuljN6jjBDTZTMtTnmwRDJvI8x30QNaWbPSEck8lqG- -XR_rEHJwF-RCmFsJJGMwLNnEvwFBj4D4fYnVsqxpX5l0uun4a6Sq4MmyZeOTcZEsFmaE5sDXlb9sLudNibrxKlRkAKCK5P0ruNcPz2fHl1PJJ0ht44z4CvhlhHN8RPtAyjYPdXNPV5Q6xrgPLFAQhyGXQkWCazrAD4VZR2vbxXqfWKoDrWQ_m1Ol1toZQwc6p_eHp_0000]--></g></svg>