<?xml version="1.0" encoding="UTF-8" standalone="no"?>
<!-- Created with Inkscape (http://www.inkscape.org/) -->

<svg
   width="210mm"
   height="297mm"
   viewBox="0 0 210 297"
   version="1.1"
   id="svg1"
   xml:space="preserve"
   inkscape:version="1.1 (c68e22c387, 2021-05-23)"
   sodipodi:docname="logo.svg"
   inkscape:export-filename="C:\Users\zoeva\logo.png"
   inkscape:export-xdpi="96"
   inkscape:export-ydpi="96"
   xmlns:inkscape="http://www.inkscape.org/namespaces/inkscape"
   xmlns:sodipodi="http://sodipodi.sourceforge.net/DTD/sodipodi-0.dtd"
   xmlns="http://www.w3.org/2000/svg"
   xmlns:svg="http://www.w3.org/2000/svg"><sodipodi:namedview
     id="namedview1"
     pagecolor="#ffffff"
     bordercolor="#000000"
     borderopacity="0.25"
     inkscape:showpageshadow="2"
     inkscape:pageopacity="0.0"
     inkscape:pagecheckerboard="0"
     inkscape:deskcolor="#d1d1d1"
     inkscape:document-units="mm"
     inkscape:zoom="1.3779795"
     inkscape:cx="398.04655"
     inkscape:cy="637.52761"
     inkscape:window-width="1920"
     inkscape:window-height="1009"
     inkscape:window-x="-8"
     inkscape:window-y="-8"
     inkscape:window-maximized="1"
     inkscape:current-layer="layer1"
     inkscape:pageshadow="2"
     showgrid="false" /><defs
     id="defs1"><rect
       x="311.52274"
       y="513.51466"
       width="217.16502"
       height="150.30854"
       id="rect15743" /></defs><g
     inkscape:label="Layer 1"
     inkscape:groupmode="layer"
     id="layer1"><path
       id="path3340"
       style="fill:#f9d456;stroke:#4d3378;stroke-width:2;stroke-linejoin:bevel"
       d="m 149.41249,177.29588 a 50,50 0 0 1 -49.999994,50 50,50 0 0 1 -49.999997,-50 50,50 0 0 1 49.999997,-50 50,50 0 0 1 49.999994,50 z" /><path
       style="fill:#000000"
       d="m 66.948469,141.86362 c 1.375781,4.84442 6.269229,19.63476 6.269977,19.85009 0.0024,0.68487 1.092503,1.09912 2.113934,0.80331 0.789371,-0.2286 0.933226,-0.40786 0.848506,-1.05733 -0.09729,-0.74584 -2.353189,-7.09239 -3.702967,-11.50141 -0.691839,-2.25988 -2.815084,-10.90348 -2.82443,-10.45847 m 0.195664,-0.38039 c 0.177937,0.0655 3.636056,11.34374 4.952359,15.37471 1.316304,4.03097 2.581931,7.5373 2.812505,7.79184 0.230574,0.25454 1.988196,0.98817 3.905825,1.6303 2.576741,0.86283 3.794786,1.12024 4.667576,0.98638 4.319019,-0.66237 5.109874,-0.64059 5.888788,0.16218 0.410571,0.42314 0.946272,1.31744 1.190447,1.98732 0.515104,1.41316 0.877301,1.66566 3.855906,2.68809 2.699331,0.92656 3.567401,0.95402 4.239071,0.13408 1.40198,-1.71147 5.68169,-2.15616 7.37942,-0.76678 1.25209,1.02467 2.11108,2.64666 2.11108,3.98624 0,1.37936 0.10451,1.44811 2.28759,2.40304 4.15104,1.81575 5.47344,2.17231 8.93897,1.93309 3.87319,-0.26736 4.70104,0.0568 6.96027,2.72508 1.43385,1.69349 4.02856,2.30658 5.49965,2.92125 l 2.26047,0.9445 c 2.44158,0.96564 8.22043,3.12186 10.27129,3.84968 -0.29439,1.50279 -0.0401,1.53646 -0.74785,3.27526 -0.36347,0.89294 -0.68647,1.99509 -0.94559,2.86297 -0.25912,0.86788 -0.61038,1.43324 -1.34243,1.11609 -3.82193,-1.65582 -9.12175,-4.02552 -12.82478,-5.49006 l -2.83447,-1.12102 -1.71753,1.57908 c -0.95365,0.87677 -2.61049,1.97401 -3.72528,2.46704 -1.10426,0.48837 -2.55862,1.44893 -3.23191,2.13457 -2.04176,2.07918 -2.92008,2.36399 -7.43663,2.4114 l -3.98516,0.0418 -2.513,1.38813 -2.51299,1.38813 -4.441477,0.003 -4.441477,0.003 -1.076536,1.06274 c -2.348862,2.31875 -4.791726,3.15594 -9.279647,3.18021 -3.244921,0.0175 -3.402601,0.0513 -4.813437,1.03142 -0.802239,0.5573 -2.114995,1.26032 -2.917234,1.56226 -1.981487,0.74577 -7.044212,0.93179 -9.373495,0.34442 l -3.9e-5,-5.4e-4 c -2.018446,-0.509 -8.175746,-3.00396 -8.080804,-3.51497 0.1621,-0.87249 4.495398,1.40713 4.945642,1.528 0.915559,0.24579 7.117348,2.1235 7.985949,2.12392 2.051417,9.9e-4 7.175972,-2.32216 7.494634,-3.39758 0.134128,-0.45266 -9.380398,-2.10547 -12.015353,-2.08724 -2.233423,0.0155 -4.516985,0.55319 -6.529659,1.25139 -3.898793,1.3525 -0.938636,-0.76456 3.10653,-1.79234 2.517993,-0.63977 3.732315,-1.1447 4.858646,-3.06501 0.510382,-0.87017 0.05547,-0.80902 -0.769751,-1.06316 -0.544177,-0.16759 -1.549871,-0.27474 -4.523876,1.57555 -1.501198,0.93397 -3.077013,2.64023 -4.79847,4.85037 -0.469505,0.60279 -1.075921,9.7e-4 0.287219,-2.39717 0.53598,-0.94293 1.685354,-2.22403 2.701258,-2.76946 0.93415,-0.50153 1.662957,-1.02483 2.037822,-1.20503 1.482496,-0.71266 4.22808,-1.4081 5.899088,-0.49443 l 1.491107,-1.03121 c 2.564251,-1.77336 3.293986,-2.17685 4.875007,-2.69555 1.709201,-0.56075 4.186638,-0.64149 5.935599,-0.19344 1.07078,0.27432 1.227877,0.21844 2.247712,-0.79944 1.917192,-1.91352 3.340243,-2.54859 5.794248,-2.58583 2.124944,-0.0323 2.24336,-0.0768 3.879938,-1.46028 2.033434,-1.71894 2.048119,-1.38445 -0.331486,-7.55042 -3.305089,-8.56407 -3.090358,-8.17053 -4.955394,-9.08175 l -1.654905,-0.80855 -2.779379,1.626 c -5.256969,3.07544 -6.55029,2.63867 -9.406921,-3.17681 -0.565958,-1.15216 -1.121151,-2.81482 -1.233763,-3.69479 -0.112612,-0.87998 -0.730871,-3.0554 -1.37391,-4.83427 -2.420977,-6.69729 -5.340895,-18.52134 -5.284392,-18.5513 0.08198,-0.0435 0.07949,-0.0713 0.126144,-0.0997 m 23.241143,60.55786 c 1.009506,-0.50992 2.175066,-1.37299 2.590133,-1.91794 l 0.754667,-0.99083 -3.902889,-0.89604 c -5.098445,-1.17052 -8.312677,-1.23947 -11.590374,-0.24865 -2.302652,0.69608 -4.856623,2.31667 -4.856623,3.08171 0,0.84473 7.148957,2.04791 11.668938,1.96391 3.167617,-0.0589 3.675313,-0.15326 5.336148,-0.99216 z m -16.459137,-2.58349 c 1.06478,-0.78881 2.690289,-1.67544 3.612242,-1.97029 3.447055,-1.10238 3.69771,-1.24781 4.301789,-2.49596 0.509328,-1.05238 0.527858,-1.24484 0.145862,-1.51501 -0.729379,-0.51587 -4.679035,-0.35007 -6.272054,0.26329 -2.797104,1.07696 -8.003641,5.57917 -7.645236,6.611 0.148906,0.42869 0.575972,0.54118 2.054705,0.54118 1.724813,0 2.013908,-0.10904 3.802692,-1.43421 z m 67.467066,-12.616 -3.80664,-1.4172 -3.55586,-1.29055 c -3.52117,-1.27796 -3.0344,-1.13268 -5.12076,-1.96171 -3.69228,-1.46716 -5.6903,1.1175 -6.07892,1.54683 -0.1907,0.21068 -0.28984,0.43577 -0.22031,0.50021 0.12279,0.11381 7.71014,3.37658 8.29467,3.56695 0.16045,0.0523 0.68555,0.27102 1.1669,0.48615 0.48134,0.21514 2.00911,0.99899 3.45314,1.6257 1.44403,0.62672 4.02448,1.9096 8.89407,3.85811 1.38198,-1.86186 1.55562,-3.17296 2.14415,-4.74424 -1.0011,-0.48057 -2.7567,-1.18527 -5.17044,-2.17025 z m -38.97477,12.11403 c 1.71919,-0.36019 4.65581,-1.73599 4.65581,-2.18123 0,-0.15711 -0.32799,-0.47958 -0.72887,-0.7166 -1.11048,-0.65657 -0.71076,-0.70814 1.34308,-0.17329 2.47841,0.64541 7.38594,0.64596 9.04061,9.9e-4 1.35237,-0.52712 2.59757,-1.61671 2.59757,-2.27294 0,-0.22162 -0.55106,-0.492 -1.23983,-0.60833 -0.6819,-0.11517 -2.81513,-0.58342 -4.74051,-1.04056 -3.88619,-0.92269 -7.19367,-1.0987 -8.31411,-0.44245 -0.89026,0.52144 -2.04207,1.65385 -2.04207,2.00767 0,0.14276 0.53782,0.56268 1.19516,0.93316 0.65734,0.37048 1.14963,0.70217 1.09397,0.73709 -0.0557,0.0349 -3.58,-0.0323 -7.83187,-0.14942 -7.674936,-0.21139 -7.741714,-0.20749 -9.26222,0.54076 -1.724709,0.84874 -1.978147,1.43391 -0.621026,1.43391 0.500788,0 2.568378,0.42537 4.594645,0.94527 2.026267,0.5199 4.012311,1.00775 4.41343,1.08411 1.422169,0.27073 4.317641,0.22213 5.846231,-0.0981 z m -14.667021,-3.93743 c 2.411851,-1.22224 2.775102,-1.51915 3.286522,-2.68628 0.316233,-0.72168 0.57497,-1.63393 0.57497,-2.02721 0,-0.67441 -0.08707,-0.70313 -1.531548,-0.50516 -0.842352,0.11544 -2.056651,0.46184 -2.698442,0.76977 -2.129227,1.02159 -5.396884,4.50721 -5.396884,5.75687 0,0.82227 2.827597,0.18078 5.765382,-1.30799 z m 7.108248,-1.45836 c 0.418699,-1.17775 0.976927,-5.51267 0.74315,-5.77093 -0.334763,-0.36984 -2.144847,1.26634 -3.08528,2.78885 -0.508345,0.82298 -1.002659,2.03003 -1.098476,2.68234 l -0.174213,1.18602 h 1.649869 c 1.528992,0 1.672953,-0.0649 1.96495,-0.88628 z m 6.494773,0.37649 c 0.0974,-0.28038 0.17967,-2.92714 0.18285,-5.88169 0.007,-6.79602 0.32536,-9.27072 1.50604,-11.71796 1.57014,-3.25449 2.87812,-4.02441 5.09695,-3.0002 1.49874,0.69182 2.43465,0.63408 2.43465,-0.15021 0,-1.1099 -0.89213,-2.75073 -1.91771,-3.52708 -3.20256,-2.42432 -7.64917,0.0698 -10.055614,5.64032 -1.401235,3.24361 -1.728828,4.80985 -2.049819,9.80036 -0.165317,2.57022 -0.424533,5.18072 -0.576035,5.80112 -0.44419,1.81894 -0.35101,3.15471 0.231803,3.32297 0.280784,0.0811 1.513857,0.16421 2.740162,0.18477 1.785213,0.0299 2.264943,-0.0642 2.406723,-0.4724 z m 22.44166,-2.71875 c 1.49465,-0.82466 3.69879,-2.75285 3.69879,-3.23572 0,-0.64495 -2.32884,-1.59256 -3.85371,-1.56809 -3.31112,0.0531 -4.56685,1.0341 -5.59623,4.37165 l -0.45798,1.48492 2.40309,-0.13935 c 1.76718,-0.10247 2.77435,-0.34417 3.80604,-0.91341 z m -5.61708,-2.16922 c 2.3837,-5.19591 5.84704,-8.015 9.53409,-7.76056 0.8431,0.0582 1.53274,-0.0254 1.53252,-0.18582 -0.001,-0.76606 -2.44345,-2.78717 -3.95466,-3.27252 -1.47431,-0.47349 -1.7246,-0.47378 -2.97424,-0.003 -1.88928,0.71118 -3.42301,1.95655 -4.93506,4.0072 -1.43864,1.9511 -3.54119,6.49903 -3.7911,8.20035 -0.14704,1.00102 -0.08,1.14551 0.67137,1.44766 0.45909,0.18461 1.23721,0.34711 1.72915,0.3611 0.83777,0.0238 0.97641,-0.15322 2.18793,-2.79404 z m -13.39748,1.85971 c 1.45678,-0.73029 3.58926,-0.83041 5.78122,-0.27144 1.23768,0.31562 1.56092,0.30193 1.90285,-0.0806 0.50323,-0.56296 1.22125,-3.41483 0.93842,-3.72728 -0.30443,-0.33632 -5.89121,0.75114 -6.98567,1.35975 -1.41444,0.78654 -3.72878,3.35703 -3.02251,3.35703 0.0627,0 0.68626,-0.28687 1.38569,-0.63749 z m -0.31939,-2.44818 c 0.30824,-0.551 0.83816,-1.99516 1.17759,-3.20924 0.33943,-1.21409 0.99797,-2.95289 1.46342,-3.86401 0.46544,-0.91112 0.84531,-1.78989 0.84415,-1.95281 -0.002,-0.2433 -2.7159,-1.42422 -3.27336,-1.42422 -0.20374,0 -0.99098,2.15274 -1.70892,4.67312 -0.38367,1.34689 -0.55197,2.90433 -0.55459,5.13216 l -0.004,3.19846 0.74751,-0.77583 c 0.41113,-0.4267 0.99972,-1.22663 1.30796,-1.77763 z m 4.21658,-1.7486 c 1.25469,-0.35451 2.97674,-0.64457 3.82677,-0.64457 1.52174,0 1.55728,-0.0222 2.30973,-1.44064 0.85012,-1.60258 -1.80965,-2.73862 -3.32419,-3.80066 -0.96959,-0.67992 -2.01475,-0.88211 -2.50566,-0.88211 -0.50536,0 -3.07802,5.96001 -3.07802,7.13078 0,0.39164 0.18866,0.36695 2.77137,-0.3628 z m -12.345644,-5.05033 c 0.161437,-1.21059 0.296522,-2.49113 0.30019,-2.84564 0.0084,-0.80728 -1.237662,-4.39614 -1.773083,-5.10696 -0.42946,-0.57015 -2.561259,-1.39834 -2.831345,-1.09996 -0.09006,0.0995 0.698438,2.56179 1.752221,5.47177 1.053784,2.90997 1.91597,5.48648 1.91597,5.72557 0,1.09536 0.370621,-0.15439 0.636047,-2.14478 z m 34.079044,1.18291 c -86.737253,-122.050947 -43.368627,-61.02547 0,0 z m -26.54938,-5.07598 c 0.001,-0.22157 -0.17979,-0.40285 -0.40265,-0.40285 -0.50821,0 -1.50796,3.91098 -1.20996,4.73329 0.15795,0.43582 0.38954,0.0108 0.91093,-1.67159 0.38452,-1.24079 0.70027,-2.43728 0.70168,-2.65885 z m 14.89794,0.76327 c -0.0599,-0.34647 -4.31363,-1.99168 -6.45787,-2.83271 -2.22949,-0.87447 -6.47084,-2.38721 -6.47084,-2.38721 l -1.5771,2.54894 10.79919,5.77356 c 1.54222,0.82452 3.76656,-2.75611 3.70662,-3.10258 z m -21.31331,-2.93869 c 0,-0.44314 -0.0549,-0.80571 -0.122003,-0.80571 -0.0671,0 -0.327421,-0.0871 -0.578488,-0.19352 -0.392569,-0.16642 -0.412337,-0.0536 -0.141183,0.80571 0.379454,1.20254 0.841674,1.30881 0.841674,0.19352 z m -15.373925,-3.28755 0.933614,-0.54813 -1.395885,-0.23247 c -0.767736,-0.12786 -2.259325,-0.67886 -3.314641,-1.22444 -1.055317,-0.54557 -1.973028,-0.99196 -2.039358,-0.99196 -0.33922,0 0.86747,1.96744 1.656628,2.70103 1.08404,1.00772 2.745934,1.12597 4.159642,0.29597 z m 15.325508,0.97679 c 1.152321,0.58864 1.05132,-0.31848 1.805825,-1.28003 0.73454,-0.9361 0.227201,-0.6379 -0.07256,-0.88605 -0.276692,-0.22906 -1.720723,-0.75078 -3.208958,-1.15938 -1.488235,-0.40861 -3.175405,-0.92388 -3.749267,-1.14504 -1.181972,-0.45553 -2.421111,-0.29509 -2.927543,0.37905 -0.188211,0.25054 -0.286289,0.5173 -0.21795,0.5928 0.118075,0.13044 4.315397,2.00965 4.630219,2.07302 0.08229,0.0166 3.35808,1.23041 3.740234,1.42563 z m -13.830265,-3.17457 c 0.504163,-0.4214 0.520158,-0.55503 0.156322,-1.30609 -0.534999,-1.10438 -1.573686,-1.89154 -3.602499,-2.73014 -1.327879,-0.54887 -1.599302,-0.7759 -1.34011,-1.12093 0.365143,-0.48606 1.80335,-0.11746 3.862925,0.99002 0.790621,0.42514 1.185533,0.49189 1.414383,0.23906 0.228849,-0.25282 -0.471096,-0.63398 -2.506869,-1.36511 -3.726968,-1.33852 -5.32355,-1.65474 -6.17948,-1.2239 -1.147602,0.57766 -0.737345,2.73 0.823411,4.31989 0.591774,0.60281 2.978247,1.96515 4.330639,2.47218 0.877427,0.32896 2.493539,0.18283 3.041278,-0.27498 z m 4.208067,-1.18174 c 1.691887,-0.90473 2.931935,-1.35607 3.763215,-1.36971 1.292146,-0.0212 1.499017,-0.33338 0.95925,-1.4476 -0.709673,-1.46495 -3.235858,-1.62025 -5.687364,-0.34963 -2.068408,1.07205 -2.269311,1.37085 -2.042951,3.03846 0.110332,0.81282 0.264471,1.47786 0.342532,1.47786 0.07806,0 1.277454,-0.60722 2.665318,-1.34938 z"
       id="path1"
       sodipodi:nodetypes="cssssccssscssssssssssccsssscsssscccccscssccsssscssssssssscsssscssscssssscsscsssssssssssssccssssssscccsssssssssssssssssssssssssssssscssscsssssssssssssscsscscscssssccsssssssscsscssccsccsssssssscssssscczssczsccszssssssssssssssssssssssssssssssssssssssss" /><path
       style="fill:#4d3378;stroke-width:0.345948"
       d="m 144.05757,194.00893 c -2.69538,-1.38793 -0.71855,-0.47302 -7.21718,-3.29618 -3.49881,-1.51994 -7.14408,-3.08792 -8.10058,-3.4844 -3.23706,-1.34178 -6.39278,-2.74791 -6.43216,-2.86604 -0.0215,-0.0647 0.28416,-0.43468 0.67936,-0.82231 1.16031,-1.13808 2.20291,-1.54544 3.73453,-1.45914 0.85242,0.048 1.35481,0.20007 3.34548,1.0125 0.42791,0.17464 2.38441,0.90335 4.34777,1.61935 1.96336,0.71601 6.97336,2.58639 11.78693,4.55198 -0.46646,1.18262 -1.3805,3.45516 -2.14415,4.74424 z"
       id="path2"
       sodipodi:nodetypes="cssssssscc" /><path
       style="fill:#4d3378;stroke-width:0.345948"
       d="m 114.70672,181.71721 c -0.18179,-0.0868 -2.64393,-1.31256 -5.44176,-2.8426 l -5.08696,-2.78188 0.49648,-0.98997 c 0.25928,-0.51701 0.87245,-1.53254 0.99646,-1.4793 0.60301,0.25886 2.1307,0.73583 4.06174,1.50101 2.00586,0.72812 6.50874,2.57904 8.24231,3.40605 0.65286,0.31145 0.10801,0.87978 -0.52553,1.81747 -0.6683,0.98915 -1.50005,1.53736 -2.05926,1.52901 -0.40167,-0.006 -0.50168,-0.0734 -0.68348,-0.15983 z"
       id="path3"
       sodipodi:nodetypes="sscsscsssss" /><path
       style="fill:#4d3378;stroke-width:1.30752"
       d=""
       id="path4"
       transform="scale(0.26458333)" /><path
       style="fill:#4d3378;stroke-width:1.30752"
       d="m 302.85509,644.48259 c -2.21345,-0.85164 -6.9232,-3.25057 -10.61822,-5.40843 -4.01822,-2.34662 -7.52549,-5.889 -9.0878,-9.17878 -2.11253,-4.44839 -2.19507,-7.73924 -0.24307,-9.69124 2.48371,-2.48371 7.15114,-1.94438 19.62539,2.26775 9.74623,3.29097 13.83791,5.10245 13.83791,6.12634 0,1.1699 -2.05138,0.73145 -6.25327,-1.33652 -7.31157,-3.5984 -12.04724,-4.73925 -13.41214,-3.23105 -1.36639,1.50984 -0.59791,2.26709 4.65501,4.58699 5.43864,2.40192 7.88626,3.82629 10.18457,5.92682 2.13741,1.95347 3.40583,3.74132 4.14925,5.84839 0.46211,1.30975 0.44557,1.38241 -0.58077,2.55135 -1.37985,1.57155 -3.68673,2.25392 -7.54062,2.23048 -2.0722,-0.0126 -3.49149,-0.22088 -4.71624,-0.6921 z"
       id="path5"
       transform="scale(0.26458333)" /><path
       style="fill:#4d3378;stroke-width:1.30752"
       d="m 366.41855,655.38605 c -1.01361,-0.46043 -5.0612,-2.03234 -8.99464,-3.49313 -6.24119,-2.31784 -14.36884,-5.76745 -19.94767,-8.46636 -0.94909,-0.45915 -1.7738,-1.08506 -1.83271,-1.39091 -0.16596,-0.86178 1.49555,-2.58487 3.11876,-3.23435 2.49423,-0.99799 5.16988,-0.7462 10.54036,0.9919 2.62623,0.84995 7.77174,2.41482 11.43446,3.47749 3.66272,1.06267 7.4768,2.24856 8.47572,2.63531 1.53923,0.59593 5.29828,2.32096 5.76571,2.64588 0.0792,0.0551 -0.40771,0.91748 -1.08209,1.91645 -0.67438,0.99898 -1.78808,2.71146 -2.4749,3.80552 -1.45961,2.32505 -2.046,2.45541 -5.003,1.1122 z"
       id="path6"
       transform="scale(0.26458333)" /><path
       style="fill:#d3274e;stroke-width:1.76862;fill-opacity:1"
       d="m 366.99873,735.21197 c -3.08328,-0.22282 -4.54027,-0.53446 -5.09577,-1.08996 -1.22089,-1.2209 -1.30377,-4.89774 -0.25226,-11.19184 0.99577,-5.96044 1.57002,-11.51517 2.41378,-23.34821 1.38464,-19.4187 3.18064,-26.94398 9.42419,-39.48754 6.82653,-13.7148 18.17731,-22.3313 27.82913,-21.12538 3.46747,0.43323 7.71966,2.67675 10.06005,5.30781 2.26081,2.5416 4.60681,7.22231 4.96742,9.91095 0.50654,3.77649 -1.54995,4.15943 -8.58993,1.59953 -3.72135,-1.35317 -5.09864,-1.6408 -7.09144,-1.48097 -4.51219,0.36189 -8.12849,3.92034 -12.00943,11.81733 -4.86437,9.89807 -5.75643,16.35077 -6.30746,45.62491 -0.22043,11.71039 -0.54503,21.64385 -0.72135,22.07435 -0.17631,0.4305 -0.6728,0.92132 -1.1033,1.09071 -1.21485,0.478 -8.74015,0.644 -13.52363,0.29831 z"
       id="path7"
       transform="scale(0.26458333)" /><path
       style="fill:#b93378;fill-opacity:1;stroke-width:1.76862"
       d="m 386.21311,711.04668 c 0.16173,-6.65543 0.55006,-12.70342 0.95322,-14.84563 0.77512,-4.11864 4.48358,-16.07335 6.16671,-19.87921 1.2507,-2.82806 0.91663,-2.76771 5.59246,-1.0104 4.62447,1.73801 7.49749,3.4465 7.33429,4.36146 -0.0841,0.4714 -1.37424,3.51181 -2.86702,6.75648 -1.49278,3.24466 -4.00591,9.85935 -5.58474,14.69932 -1.57882,4.83996 -3.3731,9.79161 -3.9873,11.00366 -1.30246,2.57029 -4.78074,7.29424 -6.6085,8.97519 l -1.27203,1.16987 z"
       id="path8"
       transform="scale(0.26458333)" /><path
       style="fill:#1033b2;fill-opacity:1;stroke-width:1.76862"
       d="m 434.02158,725.27148 c -2.95266,-0.66496 -5.33473,-1.87584 -5.6511,-2.87264 -1.34055,-4.22371 7.65106,-25.07403 15.09818,-35.01061 2.95319,-3.9404 7.09418,-7.99324 10.6322,-10.40588 3.64627,-2.48645 9.78074,-4.99128 12.24882,-5.00144 3.98941,-0.0164 10.50388,2.9424 15.29144,6.94527 2.30336,1.92583 5.49254,5.49042 5.49254,6.13909 0,0.65445 -2.00036,0.93315 -6.78525,0.94536 -9.00871,0.023 -14.39911,2.4517 -21.78654,9.81614 -5.89667,5.87832 -8.59187,9.86025 -13.56254,20.0375 -2.04835,4.1939 -4.2412,8.14221 -4.87301,8.77402 -1.23612,1.23612 -2.7365,1.39174 -6.10474,0.63319 z"
       id="path9"
       transform="scale(0.26458333)" /><path
       style="fill:#1033b2;fill-opacity:1;stroke-width:1.76862"
       d="m 443.80464,726.66263 c 2.23086,-7.00729 2.96334,-9.02594 4.10074,-11.30128 0.74357,-1.4875 2.10163,-3.53435 3.01791,-4.54855 4.48293,-4.96207 14.58742,-6.53588 23.05551,-3.59097 3.38589,1.1775 6.60359,3.19882 6.60359,4.14831 0,0.89323 -6.6667,7.0741 -10.37455,9.61849 -6.19429,4.25065 -10.20741,5.41519 -20.63406,5.98766 -4.95441,0.27202 -5.93856,0.21852 -5.76914,-0.31366 z"
       id="path10"
       transform="scale(0.26458333)" /><path
       style="fill:#1033b2;fill-opacity:1;stroke-width:1.76862"
       d="m 390.10299,722.9894 c 1.12631,-1.9067 5.48918,-6.42006 8.49864,-8.79178 1.62723,-1.2824 3.72517,-2.3496 6.08332,-3.09452 4.63252,-1.46337 14.7555,-3.51231 19.21554,-3.88933 l 3.47596,-0.29382 -0.26104,2.99926 c -0.35821,4.11572 -1.99948,9.05631 -3.6057,10.85399 l -1.33639,1.49568 -5.54059,-1.15537 c -9.82822,-2.04945 -16.93575,-1.47635 -23.63576,1.90581 -3.42088,1.72685 -3.92863,1.7216 -2.89398,-0.0299 z"
       id="path11"
       transform="scale(0.26458333)" /><path
       style="fill:#1033b2;fill-opacity:1;stroke-width:1.76862"
       d="m 367.80697,753.38372 c -2.21416,-0.19104 -8.95655,-1.59551 -15.20831,-3.16794 -12.52322,-3.14983 -20.0686,-4.77494 -22.17005,-4.77494 -0.77021,0 -1.97119,-0.21702 -2.66883,-0.48226 l -1.26846,-0.48227 1.0108,-1.07595 c 1.30285,-1.38681 7.17316,-4.32069 9.88824,-4.94196 2.77035,-0.63392 11.59145,-0.62874 37.56702,0.022 11.78255,0.29519 21.57403,0.3855 21.75884,0.20069 0.37305,-0.37305 0.23037,-0.48281 -4.78674,-3.68227 -1.94304,-1.23909 -3.53281,-2.46554 -3.53281,-2.72544 0,-1.06943 5.43766,-6.09186 7.91013,-7.3061 2.47779,-1.21684 2.95863,-1.28427 8.93599,-1.25312 7.75948,0.0404 10.22961,0.41792 27.60892,4.21918 13.10229,2.86578 16.84612,3.92289 16.84612,4.75668 0,0.91858 -2.53289,3.94715 -4.33151,5.17917 -5.61791,3.84817 -9.53809,4.72381 -21.25477,4.74761 -8.48913,0.0172 -12.97812,-0.42698 -19.10273,-1.89034 -4.0229,-0.9612 -6.78524,-1.15737 -6.78524,-0.48186 0,0.23054 1.03416,1.08279 2.29815,1.89389 1.26398,0.8111 2.41602,1.78187 2.56007,2.15728 0.69772,1.81824 -12.08094,7.48589 -19.36461,8.58869 -4.45351,0.67429 -11.36715,0.89123 -15.91022,0.49923 z"
       id="path12"
       transform="scale(0.26458333)" /><path
       style="fill:#1033b2;fill-opacity:1;stroke-width:1.76862"
       d="m 344.18325,733.90932 c 1.24854,-7.4411 4.17924,-13.01811 9.88442,-18.80968 5.34763,-5.42861 6.08269,-5.52388 5.87807,-0.76187 -0.31154,7.25055 -2.41785,18.23538 -3.83128,19.98088 -0.79053,0.97627 -1.30655,1.07305 -6.54612,1.22774 l -5.68795,0.16793 z"
       id="path13"
       transform="scale(0.26458333)" /><path
       style="fill:#1033b2;fill-opacity:1;stroke-width:1.76862"
       d="m 309.39376,743.43179 c -2.20568,-2.65769 10.82638,-17.42692 19.05764,-21.59801 4.87068,-2.46816 14.28573,-4.40964 15.84721,-3.26786 0.69435,0.50772 0.72627,0.88506 0.26063,3.08094 -1.77463,8.36882 -3.98496,10.90199 -13.72015,15.72409 -10.64843,5.27446 -19.92267,7.89553 -21.44533,6.06084 z"
       id="path14"
       transform="scale(0.26458333)" /><path
       style="fill:#1033b2;fill-opacity:1;stroke-width:1.76862"
       d="m 359.93358,692.51491 c -0.55093,-1.83255 -3.32348,-9.95103 -6.16121,-18.04105 -2.83774,-8.09002 -5.57277,-16.20036 -6.07784,-18.02298 l -0.91831,-3.31385 1.61327,0.2618 c 2.42498,0.39352 7.00408,2.58735 8.33657,3.99402 1.38506,1.46217 3.98649,7.57811 5.72332,13.4555 1.11925,3.78749 1.20493,4.63441 0.94226,9.31377 -0.26357,4.69549 -1.76121,14.98955 -2.25219,15.48054 -0.1123,0.1123 -0.65494,-1.29519 -1.20587,-3.12775 z"
       id="path15"
       transform="scale(0.26458333)" /><path
       style="fill:#1033b2;fill-opacity:1;stroke-width:1.76862"
       d="m 320.38548,643.54521 c -0.5168,-0.84761 -1.2998,-7.86766 -1.03498,-9.27928 0.83837,-4.46889 14.72142,-10.83798 21.43097,-9.83183 4.66436,0.69947 8.27875,3.91781 8.29989,7.39042 0.006,1.06543 -0.26898,1.3417 -1.74711,1.75219 -0.96514,0.26804 -2.40096,0.48851 -3.1907,0.48995 -2.62549,0.005 -6.43851,1.46268 -14.8197,5.66633 -4.56526,2.28975 -8.39586,4.16318 -8.51243,4.16318 -0.11657,0 -0.30824,-0.15793 -0.42594,-0.35096 z"
       id="path16"
       transform="scale(0.26458333)" /><path
       style="fill:#1033b2;fill-opacity:1;stroke-width:1.18517"
       d="m 299.1928,653.79922 c -3.3024,-0.69148 -5.63072,-2.42854 -8.59073,-6.40919 -1.79392,-2.41247 -3.85979,-6.0519 -3.589,-6.32269 0.0726,-0.0727 2.52628,1.05522 5.4525,2.5064 7.71617,3.82661 11.81915,5.28884 17.30933,6.16872 l 2.31363,0.3708 -2.03412,1.18007 c -3.96548,2.30053 -7.71309,3.16514 -10.86161,2.50589 z"
       id="path17"
       transform="scale(0.26458333)" /><path
       style="fill:#1033b2;fill-opacity:1;stroke-width:1.18517"
       d="m 259.54665,759.81551 c -1.89115,-0.26508 -3.35789,-1.22428 -3.35212,-2.19218 0.0177,-2.97043 10.988,-13.49488 20.66119,-19.82148 7.82664,-5.11889 12.87776,-6.53688 23.29946,-6.54079 6.88019,-0.003 9.34432,0.67278 9.34432,2.56109 0,1.3145 -2.66934,6.33233 -4.00911,7.5363 -1.80422,1.62136 -2.86917,2.10736 -9.77886,4.46268 -3.59413,1.22513 -7.49475,2.80913 -9.54937,3.87789 -3.22688,1.67852 -4.67479,2.59368 -11.28128,7.13031 -3.57659,2.45602 -5.13563,2.95571 -9.70775,3.11145 -2.09415,0.0713 -4.62606,0.015 -5.62648,-0.12527 z"
       id="path18"
       transform="scale(0.26458333)" /><path
       style="fill:#3f5bca;fill-opacity:1;stroke-width:1.18517"
       d="m 314.83029,768.03373 c -15.25871,-0.45841 -36.0365,-4.15336 -38.23209,-6.79888 -1.63779,-1.97341 8.42408,-8.7411 17.26058,-11.60959 10.96436,-3.55923 22.01772,-3.78217 37.59104,-0.75821 4.23364,0.82207 21.05673,4.59867 21.22221,4.76415 0.0332,0.0332 -0.78426,1.14733 -1.81664,2.47576 -3.12641,4.02294 -9.73523,8.4203 -15.70809,10.4518 -3.28805,1.11834 -11.74696,1.73244 -20.31701,1.47497 z"
       id="path19"
       transform="scale(0.26458333)" /><path
       style="fill:#1033b2;fill-opacity:1;stroke-width:1.18517"
       d="m 264.65814,781.74641 c -6.6876,-1.74862 -23.5957,-6.53885 -30.64799,-9.707 -3.48455,-1.56539 -6.40222,-2.8007 -6.97507,-2.92631 -0.57285,-0.12562 -1.81455,-0.135 -1.76546,-0.24779 0.16947,-0.38936 2.20789,-0.62076 3.8148,-1.18183 1.60691,-0.56106 5.06408,-1.84531 8.03633,-2.47145 9.08992,-1.91493 14.02409,-2.90821 20.98721,-2.29208 15.20984,1.34584 41.04353,6.1543 41.04353,7.63949 0,1.11472 -4.33125,4.22381 -9.19477,6.60025 -7.07849,3.45873 -13.42679,5.52079 -17.61597,5.72202 -2.53753,0.12189 -3.31242,0.007 -7.68261,-1.1353 z"
       id="path20"
       transform="scale(0.26458333)"
       sodipodi:nodetypes="csssssssssc" /><path
       style="fill:#1033b2;fill-opacity:1;stroke-width:0.83782"
       d="m 222.91761,767.59904 c 0.79024,-1.35029 7.40791,-8.80542 9.96421,-11.22516 4.89611,-4.63458 11.78625,-8.87991 17.53307,-10.80291 2.81128,-0.94071 4.47165,-1.01248 7.05859,-0.3051 2.09023,0.57156 2.77091,0.95571 2.77091,1.56378 0,1.13229 -2.50348,4.90136 -4.62392,6.96149 -3.06563,2.97842 -5.96761,4.33341 -13.7703,6.42962 -7.70573,2.07016 -14.74587,4.83527 -18.02545,7.07973 -0.93493,0.63984 -1.14786,0.70992 -0.90711,0.29855 z"
       id="path21"
       transform="scale(0.26458333)" /><path
       style="fill:#3f5bca;fill-opacity:1;stroke-width:1.46202"
       d="m 266.13709,781.92023 c -12.60502,-3.32267 -24.06368,-6.91945 -30.78741,-9.66394 -2.95951,-1.20801 -6.20968,-2.493 -7.22258,-2.85554 l -1.84166,-0.65915 4.54945,-1.4601 c 8.88186,-2.85053 20.23734,-4.72901 25.79695,-4.26746 12.29479,1.0207 36.85825,5.19674 41.1741,7.00001 1.3156,0.54969 1.31952,0.55879 0.59097,1.3702 -1.19937,1.33579 -4.73402,3.58721 -8.85678,5.64137 -9.99412,4.97958 -17.29113,6.50571 -23.40304,4.89461 z"
       id="path24"
       transform="scale(0.26458333)" /><path
       style="fill:#3f5bca;fill-opacity:1;stroke-width:1.46202"
       d="m 258.01372,759.07424 c -2.03746,-1.0528 -1.92066,-1.91981 0.70349,-5.22203 4.84353,-6.09506 15.90976,-14.963 23.53601,-18.86061 5.20638,-2.66087 8.05616,-3.21594 16.76418,-3.26528 7.55348,-0.0428 9.74211,0.26804 10.16202,1.44328 0.52967,1.48242 -2.7241,7.26318 -4.98497,8.85646 -0.82621,0.58224 -4.55076,2.16974 -8.27678,3.52778 -8.39067,3.05817 -11.58522,4.65252 -18.33202,9.14922 -2.91996,1.94613 -5.9506,3.8169 -6.73477,4.15727 -0.98616,0.42804 -2.97627,0.66428 -6.45451,0.76618 -4.28582,0.12556 -5.22878,0.044 -6.38265,-0.55227 z"
       id="path25"
       transform="scale(0.26458333)" /><path
       style="fill:#3f5bca;fill-opacity:1;stroke-width:1.46202"
       d="m 225.58092,764.67269 c 3.75237,-4.50889 9.44693,-10.0373 12.72361,-12.35239 5.98939,-4.23171 12.74398,-7.29119 16.09719,-7.29119 1.89844,0 4.66535,0.75872 5.22467,1.43266 0.63653,0.76697 -0.62343,3.1526 -3.1799,6.02089 -3.37467,3.78629 -5.60468,4.89963 -15.72986,7.85317 -5.99935,1.75002 -13.73764,4.67139 -15.33211,5.7882 -1.54599,1.08285 -1.4748,0.55679 0.1964,-1.45134 z"
       id="path26"
       transform="scale(0.26458333)" /><path
       style="fill:#3f5bca;fill-opacity:1;stroke-width:1.46202"
       d="m 309.88908,743.51504 c -1.72326,-1.09117 1.5976,-6.31883 8.27012,-13.01875 6.91468,-6.94307 10.46184,-9.14481 17.67976,-10.97394 4.43853,-1.12478 7.31136,-1.36353 8.21959,-0.68308 0.69881,0.52354 0.71569,0.71506 0.24981,2.83462 -1.30045,5.91662 -3.03624,8.88937 -6.71504,11.5003 -4.72406,3.35279 -15.71524,8.29993 -21.934,9.87252 -3.51195,0.8881 -4.92605,1.00287 -5.77024,0.46833 z"
       id="path27"
       transform="scale(0.26458333)" /><path
       style="fill:#3f5bca;fill-opacity:1;stroke-width:1.46202"
       d="m 369.03311,753.28599 c -3.17984,-0.28443 -8.21067,-1.3203 -18.65163,-3.84046 -11.42658,-2.75806 -17.32757,-4.02959 -18.70073,-4.02959 -0.498,0 -1.79835,-0.19149 -2.88968,-0.42554 l -1.98423,-0.42554 0.90141,-0.96054 c 0.49579,-0.5283 2.66541,-1.83766 4.8214,-2.9097 5.44992,-2.7099 6.80307,-2.81088 30.50764,-2.27659 25.61398,0.57733 33.95555,0.56209 33.76118,-0.0617 -0.0829,-0.26595 -1.88161,-1.64549 -3.99721,-3.06566 -2.1156,-1.42016 -3.89853,-2.83393 -3.96206,-3.1417 -0.17132,-0.82989 5.5745,-5.9435 8.03751,-7.15315 2.0843,-1.02366 2.29319,-1.04757 8.71157,-0.99721 7.35552,0.0577 9.75579,0.39608 23.01622,3.24457 12.29915,2.64199 18.38325,4.13171 19.7404,4.83352 l 1.17278,0.60647 -0.68921,1.1862 c -1.73939,2.9937 -6.73822,6.22697 -11.71378,7.57653 -2.13801,0.57991 -4.19355,0.67977 -13.73236,0.66715 -11.12128,-0.0147 -11.26876,-0.0255 -17.10682,-1.25719 -6.41271,-1.35287 -7.65424,-1.47476 -8.07566,-0.79287 -0.29357,0.475 0.1354,0.88168 3.11829,2.9562 1.81394,1.26154 1.82847,1.28842 1.11982,2.07223 -0.94946,1.05018 -8.43038,4.64691 -12.30533,5.91624 -1.69245,0.55441 -4.47761,1.24702 -6.18924,1.53914 -3.31631,0.56599 -12.02161,0.99756 -14.91028,0.73917 z"
       id="path28"
       transform="scale(0.26458333)" /><path
       style="fill:#3f5bca;fill-opacity:1;stroke-width:1.46202"
       d="m 344.46343,733.52395 c 0.44434,-2.96308 2.28857,-7.98132 3.97414,-10.81381 2.89151,-4.85899 9.91011,-12.15555 11.02795,-11.46469 1.32254,0.81737 -1.62676,19.95728 -3.52619,22.88377 -0.52498,0.80885 -3.0072,1.21001 -7.54869,1.21999 l -4.20231,0.009 z"
       id="path29"
       transform="scale(0.26458333)" /><path
       style="fill:#3f5bca;fill-opacity:1;stroke-width:1.46202"
       d="m 365.11045,752.54814 c -1.62557,-0.29421 -8.54021,-1.84444 -15.36585,-3.44495 -11.02616,-2.58547 -14.71405,-3.34219 -20.87543,-4.28343 l -1.67464,-0.25582 0.82736,-0.88069 c 1.33968,-1.42602 7.67585,-4.37298 10.44438,-4.85769 1.81752,-0.31821 10.1943,-0.361 30.46264,-0.1556 15.68229,0.15893 27.95576,0.13646 27.95576,-0.0512 0,-0.44402 -1.52344,-1.73133 -4.92573,-4.16225 -1.53899,-1.09961 -2.80102,-2.20058 -2.80449,-2.4466 -0.0118,-0.83242 5.45687,-5.51192 7.82346,-6.69452 2.26102,-1.12984 2.5457,-1.17483 7.41497,-1.17178 8.23402,0.005 13.95635,0.91224 32.91523,5.21754 8.1738,1.85616 11.47919,2.8634 11.7037,3.56642 0.23118,0.72392 -3.068,4.01918 -5.4845,5.47796 -1.19023,0.71852 -3.33757,1.76246 -4.77187,2.31988 l -2.60781,1.01349 -12.7653,-0.0123 c -12.42854,-0.012 -12.89171,-0.0401 -17.55713,-1.06269 -8.23286,-1.80461 -9.6318,-1.28941 -5.34539,1.96859 1.92466,1.46288 2.16779,1.78549 1.73886,2.30723 -0.91555,1.11363 -10.49819,5.46518 -14.23103,6.46242 -6.33824,1.69327 -16.92359,2.22354 -22.87719,1.14602 z"
       id="path30"
       transform="scale(0.26458333)" /><path
       style="fill:#3f5bca;fill-opacity:1;stroke-width:1.46202"
       d="m 389.92178,723.89125 c 0,-0.6329 3.49695,-4.69886 6.12006,-7.11589 4.72675,-4.35541 8.32924,-5.82337 19.79736,-8.06712 3.43448,-0.67196 9.76174,-1.58819 10.9677,-1.58819 0.58156,0 -0.12895,5.35162 -1.13212,8.52722 -1.04999,3.3238 -2.89273,6.17221 -3.99302,6.17221 -0.40075,0 -2.44501,-0.36741 -4.54279,-0.81647 -5.48151,-1.1734 -13.44433,-1.41945 -17.40752,-0.53788 -1.67211,0.37195 -3.99759,1.10839 -5.16774,1.63653 -3.95435,1.7848 -4.64193,2.04988 -4.64193,1.78959 z"
       id="path31"
       transform="scale(0.26458333)" /><path
       style="fill:#3f5bca;fill-opacity:1;stroke-width:1.46202"
       d="m 433.7106,724.90536 c -3.9759,-1.04161 -5.1061,-1.92486 -5.1061,-3.99035 0,-5.13737 6.76733,-20.87695 13.08926,-30.44321 5.82441,-8.81342 12.92859,-14.7152 20.95153,-17.4054 4.65496,-1.56088 9.44247,-0.36977 15.91485,3.95954 3.67991,2.46145 8.72893,7.53919 8.11099,8.15713 -0.20535,0.20536 -3.12761,0.51596 -6.4939,0.69023 -3.71505,0.19232 -6.95671,0.57009 -8.24809,0.9612 -5.13469,1.5551 -9.33391,4.46104 -14.88923,10.3036 -4.554,4.78949 -7.40511,9.04447 -11.48369,17.13826 -4.41324,8.7579 -5.5052,10.48239 -6.95831,10.98895 -1.51748,0.52899 -1.48504,0.53138 -4.88731,-0.35995 z"
       id="path32"
       transform="scale(0.26458333)" /><path
       style="fill:#3f5bca;fill-opacity:1;stroke-width:1.46202"
       d="m 444.31953,725.78446 c 1.29335,-5.35986 4.37201,-11.95728 6.8408,-14.65949 4.50069,-4.92624 13.92953,-6.55959 22.12339,-3.83241 2.99066,0.99538 7.15562,3.34838 7.15562,4.04258 0,0.60194 -6.94977,6.97324 -9.80298,8.98701 -3.67729,2.59541 -6.57994,4.03492 -10.00289,4.96075 -3.16433,0.85588 -9.37499,1.56534 -13.70304,1.56534 h -2.86759 z"
       id="path33"
       transform="scale(0.26458333)" /><path
       style="fill:#3f5bca;fill-opacity:1;stroke-width:1.46202"
       d="m 355.71763,679.63214 c -5.93035,-17.34554 -8.74427,-26.01125 -8.51957,-26.23675 0.34324,-0.34446 5.66253,1.67258 7.37678,2.79722 2.26,1.48268 3.12738,2.72587 4.9668,7.11873 2.50626,5.98537 3.68907,10.60723 3.68907,14.41514 0,3.16796 -1.22194,13.87607 -1.87279,16.41168 -0.24682,0.96155 -1.1184,-1.28003 -5.64029,-14.50602 z"
       id="path34"
       transform="scale(0.26458333)" /><path
       style="fill:#3f5bca;fill-opacity:1;stroke-width:1.46202"
       d="m 320.48518,643.29176 c -0.11535,-0.18665 -0.41212,-2.15052 -0.65949,-4.36418 -0.36698,-3.28399 -0.35355,-4.25711 0.0729,-5.28678 1.55754,-3.76022 12.63355,-8.97031 19.07906,-8.97468 4.1587,-0.003 7.69234,1.8116 9.17032,4.70867 1.56775,3.07305 0.99947,3.73403 -3.83065,4.45557 -4.04104,0.60367 -6.77006,1.6266 -14.10277,5.28619 -7.25864,3.62263 -9.48141,4.57649 -9.72942,4.17521 z"
       id="path35"
       transform="scale(0.26458333)" /><path
       style="fill:#3f5bca;fill-opacity:1;stroke-width:0.386826"
       d="m 73.897344,162.35549 c -0.195879,-0.10178 -0.410165,-0.3002 -0.476192,-0.44092 -0.06603,-0.14073 -0.442203,-1.24609 -0.835946,-2.45636 -0.393742,-1.21026 -1.273582,-3.82816 -1.955202,-5.81755 -0.681619,-1.98939 -1.394555,-4.43039 -1.700723,-5.42444 -0.554397,-1.8 -2.083974,-6.5301 -2.026012,-6.58633 0.01675,-0.0162 0.106432,-0.26513 1.142965,-0.96795 l 1.510132,-1.34828 2.21468,8.37453 c 0.08481,0.32068 0.733833,2.59442 1.696911,5.47562 1.887405,5.64647 2.599592,8.02525 2.555925,8.53704 -0.0383,0.44887 -0.418026,0.69317 -1.210955,0.77908 -0.428604,0.0464 -0.642729,0.0173 -0.915583,-0.12444 z"
       id="path36"
       sodipodi:nodetypes="ssssssscsssss" /><path
       style="fill:#3f5bca;fill-opacity:1;stroke-width:1.46202"
       d=""
       id="path37"
       transform="scale(0.26458333)" /><path
       style="fill:#3f5bca;fill-opacity:1;stroke-width:0.91737"
       d="m 298.5465,653.51698 c -0.73423,-0.20549 -1.91842,-0.72451 -2.63153,-1.15339 -1.71179,-1.0295 -4.45225,-3.92176 -6.14344,-6.48372 -1.42729,-2.16219 -2.67857,-4.40421 -2.53701,-4.54577 0.0457,-0.0457 2.03623,0.85756 4.4233,2.00735 8.31707,4.00611 12.48209,5.54138 17.19756,6.33918 1.40543,0.23778 2.55532,0.49648 2.55532,0.57489 0,0.27243 -3.86789,2.20146 -5.63015,2.80791 -2.28128,0.78506 -5.35981,0.97808 -7.23405,0.45355 z"
       id="path38"
       transform="scale(0.26458333)" /><path
       style="fill:#d3274e;fill-opacity:1;stroke-width:2.20233"
       d="m 386.61098,710.10614 c 0.38297,-12.55968 1.48743,-18.48948 5.48204,-29.43284 2.37806,-6.51476 2.46021,-6.59788 5.48675,-5.55168 3.70058,1.2792 8.2902,3.99514 8.11695,4.80326 -0.0846,0.39455 -1.29512,3.3941 -2.69008,6.66568 -1.39495,3.27157 -4.04154,10.27276 -5.88132,15.55819 -3.25472,9.3504 -5.25747,13.21867 -9.05297,17.48568 l -1.8141,2.03945 z"
       id="path39"
       transform="scale(0.26458333)" /><text
       xml:space="preserve"
       transform="matrix(0.26458333,0,0,0.26458333,3.7041668,2.1166667)"
       id="text15741"
       style="font-weight:bold;font-size:64px;line-height:0.75;font-family:sans-serif;-inkscape-font-specification:'sans-serif Bold';white-space:pre;shape-inside:url(#rect15743);fill:#d3274e;fill-opacity:1;stroke:#020202;stroke-opacity:1;stroke-width:1.51181104;stroke-miterlimit:4;stroke-dasharray:none"><tspan
         x="311.52344"
         y="556.34565"
         id="tspan45133"><tspan
           style="font-family:'Bauhaus 93';-inkscape-font-specification:'Bauhaus 93 Bold'"
           id="tspan45131">SNP-</tspan></tspan><tspan
         x="311.52344"
         y="604.78657"
         id="tspan45137"><tspan
           style="font-family:'Bauhaus 93';-inkscape-font-specification:'Bauhaus 93 Bold'"
           id="tspan45135">STITCH
</tspan></tspan></text></g></svg>
