<?xml version="1.0" encoding="UTF-8" standalone="no"?>
<!DOCTYPE svg PUBLIC "-//W3C//DTD SVG 1.1//EN"
 "http://www.w3.org/Graphics/SVG/1.1/DTD/svg11.dtd">
<!-- Generated by graphviz version 2.43.0 (0)
 -->
<!-- Title: G Pages: 1 -->
<svg width="1699pt" height="395pt"
 viewBox="0.00 0.00 1699.00 395.00" xmlns="http://www.w3.org/2000/svg" xmlns:xlink="http://www.w3.org/1999/xlink">
<g id="graph0" class="graph" transform="scale(1 1) rotate(0) translate(4 391)">
<title>G</title>
<polygon fill="#eeeeee" stroke="transparent" points="-4,4 -4,-391 1695,-391 1695,4 -4,4"/>
<g id="clust1" class="cluster">
<title>cluster_inputs</title>
<polygon fill="#eeeeee" stroke="black" stroke-dasharray="5,2" points="8,-303 8,-379 1683,-379 1683,-303 8,-303"/>
<text text-anchor="middle" x="1616.5" y="-310.8" font-family="Times,serif" font-size="14.00">Workflow Inputs</text>
</g>
<g id="clust2" class="cluster">
<title>cluster_outputs</title>
<polygon fill="#eeeeee" stroke="black" stroke-dasharray="5,2" points="1045,-8 1045,-84 1255,-84 1255,-8 1045,-8"/>
<text text-anchor="middle" x="1182.5" y="-15.8" font-family="Times,serif" font-size="14.00">Workflow Outputs</text>
</g>
<!-- main/directory_stage_in_0 -->
<g id="node1" class="node">
<title>main/directory_stage_in_0</title>
<polygon fill="lightgoldenrodyellow" stroke="black" points="326.5,-258.5 326.5,-294.5 529.5,-294.5 529.5,-258.5 326.5,-258.5"/>
<text text-anchor="middle" x="428" y="-272.8" font-family="Times,serif" font-size="14.00">main/directory_stage_in_0</text>
</g>
<!-- main/app -->
<g id="node2" class="node">
<title>main/app</title>
<polygon fill="#f3cea1" stroke="black" points="140,-185.5 140,-221.5 412,-221.5 412,-185.5 140,-185.5"/>
<text text-anchor="middle" x="276" y="-199.8" font-family="Times,serif" font-size="14.00">NDVI and NDWI vegetation indexes</text>
</g>
<!-- main/directory_stage_in_0&#45;&gt;main/app -->
<g id="edge1" class="edge">
<title>main/directory_stage_in_0&#45;&gt;main/app</title>
<path fill="none" stroke="black" d="M391.59,-258.49C370.69,-248.73 344.24,-236.38 321.92,-225.95"/>
<polygon fill="black" stroke="black" points="323.18,-222.67 312.64,-221.61 320.22,-229.02 323.18,-222.67"/>
</g>
<!-- main/stage_out_0 -->
<g id="node3" class="node">
<title>main/stage_out_0</title>
<polygon fill="lightgoldenrodyellow" stroke="black" points="1079.5,-112.5 1079.5,-148.5 1220.5,-148.5 1220.5,-112.5 1079.5,-112.5"/>
<text text-anchor="middle" x="1150" y="-126.8" font-family="Times,serif" font-size="14.00">main/stage_out_0</text>
</g>
<!-- main/app&#45;&gt;main/stage_out_0 -->
<g id="edge2" class="edge">
<title>main/app&#45;&gt;main/stage_out_0</title>
<path fill="none" stroke="black" d="M412.08,-191.45C596.29,-176.48 919.16,-150.25 1069.16,-138.07"/>
<polygon fill="black" stroke="black" points="1069.54,-141.55 1079.22,-137.25 1068.97,-134.57 1069.54,-141.55"/>
</g>
<!-- main/vegetation_indexes -->
<g id="node15" class="node">
<title>main/vegetation_indexes</title>
<polygon fill="#94ddf4" stroke="black" points="1053,-39.5 1053,-75.5 1247,-75.5 1247,-39.5 1053,-39.5"/>
<text text-anchor="middle" x="1150" y="-53.8" font-family="Times,serif" font-size="14.00">main/vegetation_indexes</text>
</g>
<!-- main/stage_out_0&#45;&gt;main/vegetation_indexes -->
<g id="edge14" class="edge">
<title>main/stage_out_0&#45;&gt;main/vegetation_indexes</title>
<path fill="none" stroke="black" d="M1150,-112.31C1150,-104.29 1150,-94.55 1150,-85.57"/>
<polygon fill="black" stroke="black" points="1153.5,-85.53 1150,-75.53 1146.5,-85.53 1153.5,-85.53"/>
</g>
<!-- main/aoi -->
<g id="node4" class="node">
<title>main/aoi</title>
<polygon fill="#94ddf4" stroke="black" points="16.5,-334.5 16.5,-370.5 93.5,-370.5 93.5,-334.5 16.5,-334.5"/>
<text text-anchor="middle" x="55" y="-348.8" font-family="Times,serif" font-size="14.00">main/aoi</text>
</g>
<!-- main/aoi&#45;&gt;main/app -->
<g id="edge3" class="edge">
<title>main/aoi&#45;&gt;main/app</title>
<path fill="none" stroke="black" d="M69.97,-334.17C78.97,-324.35 90.97,-312.23 103,-303 143.16,-272.21 193.97,-244.42 230.12,-226.27"/>
<polygon fill="black" stroke="black" points="232.04,-229.22 239.44,-221.64 228.92,-222.95 232.04,-229.22"/>
</g>
<!-- main/epsg -->
<g id="node5" class="node">
<title>main/epsg</title>
<polygon fill="#94ddf4" stroke="black" points="112,-334.5 112,-370.5 202,-370.5 202,-334.5 112,-334.5"/>
<text text-anchor="middle" x="157" y="-348.8" font-family="Times,serif" font-size="14.00">main/epsg</text>
</g>
<!-- main/epsg&#45;&gt;main/app -->
<g id="edge4" class="edge">
<title>main/epsg&#45;&gt;main/app</title>
<path fill="none" stroke="black" d="M170.88,-334.35C191.84,-308.46 231.68,-259.25 255.84,-229.41"/>
<polygon fill="black" stroke="black" points="258.63,-231.52 262.2,-221.54 253.19,-227.11 258.63,-231.52"/>
</g>
<!-- main/indexes -->
<g id="node6" class="node">
<title>main/indexes</title>
<polygon fill="#94ddf4" stroke="black" points="220.5,-334.5 220.5,-370.5 331.5,-370.5 331.5,-334.5 220.5,-334.5"/>
<text text-anchor="middle" x="276" y="-348.8" font-family="Times,serif" font-size="14.00">main/indexes</text>
</g>
<!-- main/indexes&#45;&gt;main/app -->
<g id="edge5" class="edge">
<title>main/indexes&#45;&gt;main/app</title>
<path fill="none" stroke="black" d="M276,-334.35C276,-309.12 276,-261.76 276,-231.74"/>
<polygon fill="black" stroke="black" points="279.5,-231.54 276,-221.54 272.5,-231.54 279.5,-231.54"/>
</g>
<!-- main/another_input -->
<g id="node7" class="node">
<title>main/another_input</title>
<polygon fill="#94ddf4" stroke="black" points="350,-334.5 350,-370.5 506,-370.5 506,-334.5 350,-334.5"/>
<text text-anchor="middle" x="428" y="-348.8" font-family="Times,serif" font-size="14.00">main/another_input</text>
</g>
<!-- main/another_input&#45;&gt;main/directory_stage_in_0 -->
<g id="edge6" class="edge">
<title>main/another_input&#45;&gt;main/directory_stage_in_0</title>
<path fill="none" stroke="black" d="M428,-334.34C428,-325.56 428,-314.66 428,-304.77"/>
<polygon fill="black" stroke="black" points="431.5,-304.57 428,-294.57 424.5,-304.57 431.5,-304.57"/>
</g>
<!-- main/item -->
<g id="node8" class="node">
<title>main/item</title>
<polygon fill="#94ddf4" stroke="black" points="524.5,-334.5 524.5,-370.5 613.5,-370.5 613.5,-334.5 524.5,-334.5"/>
<text text-anchor="middle" x="569" y="-348.8" font-family="Times,serif" font-size="14.00">main/item</text>
</g>
<!-- main/item&#45;&gt;main/directory_stage_in_0 -->
<g id="edge7" class="edge">
<title>main/item&#45;&gt;main/directory_stage_in_0</title>
<path fill="none" stroke="black" d="M553.49,-334.09C543.43,-323.74 529.53,-311.1 515,-303 512.27,-301.48 509.44,-300.04 506.54,-298.68"/>
<polygon fill="black" stroke="black" points="507.66,-295.35 497.09,-294.6 504.89,-301.78 507.66,-295.35"/>
</g>
<!-- main/aws_access_key_id -->
<g id="node9" class="node">
<title>main/aws_access_key_id</title>
<polygon fill="#94ddf4" stroke="black" points="631.5,-334.5 631.5,-370.5 820.5,-370.5 820.5,-334.5 631.5,-334.5"/>
<text text-anchor="middle" x="726" y="-348.8" font-family="Times,serif" font-size="14.00">main/aws_access_key_id</text>
</g>
<!-- main/aws_access_key_id&#45;&gt;main/stage_out_0 -->
<g id="edge8" class="edge">
<title>main/aws_access_key_id&#45;&gt;main/stage_out_0</title>
<path fill="none" stroke="black" d="M758.92,-334.42C835.15,-294.86 1023.73,-197.02 1108.07,-153.26"/>
<polygon fill="black" stroke="black" points="1109.84,-156.28 1117.1,-148.57 1106.61,-150.07 1109.84,-156.28"/>
</g>
<!-- main/aws_secret_access_key -->
<g id="node10" class="node">
<title>main/aws_secret_access_key</title>
<polygon fill="#94ddf4" stroke="black" points="839,-334.5 839,-370.5 1059,-370.5 1059,-334.5 839,-334.5"/>
<text text-anchor="middle" x="949" y="-348.8" font-family="Times,serif" font-size="14.00">main/aws_secret_access_key</text>
</g>
<!-- main/aws_secret_access_key&#45;&gt;main/stage_out_0 -->
<g id="edge9" class="edge">
<title>main/aws_secret_access_key&#45;&gt;main/stage_out_0</title>
<path fill="none" stroke="black" d="M964.77,-334.24C1000.22,-295.44 1086.28,-201.24 1127.4,-156.23"/>
<polygon fill="black" stroke="black" points="1130.14,-158.43 1134.3,-148.68 1124.97,-153.7 1130.14,-158.43"/>
</g>
<!-- main/endpoint_url -->
<g id="node11" class="node">
<title>main/endpoint_url</title>
<polygon fill="#94ddf4" stroke="black" points="1077,-334.5 1077,-370.5 1223,-370.5 1223,-334.5 1077,-334.5"/>
<text text-anchor="middle" x="1150" y="-348.8" font-family="Times,serif" font-size="14.00">main/endpoint_url</text>
</g>
<!-- main/endpoint_url&#45;&gt;main/stage_out_0 -->
<g id="edge10" class="edge">
<title>main/endpoint_url&#45;&gt;main/stage_out_0</title>
<path fill="none" stroke="black" d="M1150,-334.24C1150,-296.16 1150,-204.73 1150,-158.8"/>
<polygon fill="black" stroke="black" points="1153.5,-158.68 1150,-148.68 1146.5,-158.68 1153.5,-158.68"/>
</g>
<!-- main/region_name -->
<g id="node12" class="node">
<title>main/region_name</title>
<polygon fill="#94ddf4" stroke="black" points="1241,-334.5 1241,-370.5 1389,-370.5 1389,-334.5 1241,-334.5"/>
<text text-anchor="middle" x="1315" y="-348.8" font-family="Times,serif" font-size="14.00">main/region_name</text>
</g>
<!-- main/region_name&#45;&gt;main/stage_out_0 -->
<g id="edge11" class="edge">
<title>main/region_name&#45;&gt;main/stage_out_0</title>
<path fill="none" stroke="black" d="M1302.05,-334.24C1273.08,-295.6 1202.89,-202.02 1168.97,-156.8"/>
<polygon fill="black" stroke="black" points="1171.69,-154.58 1162.89,-148.68 1166.09,-158.78 1171.69,-154.58"/>
</g>
<!-- main/s3_bucket -->
<g id="node13" class="node">
<title>main/s3_bucket</title>
<polygon fill="#94ddf4" stroke="black" points="1407,-334.5 1407,-370.5 1535,-370.5 1535,-334.5 1407,-334.5"/>
<text text-anchor="middle" x="1471" y="-348.8" font-family="Times,serif" font-size="14.00">main/s3_bucket</text>
</g>
<!-- main/s3_bucket&#45;&gt;main/stage_out_0 -->
<g id="edge12" class="edge">
<title>main/s3_bucket&#45;&gt;main/stage_out_0</title>
<path fill="none" stroke="black" d="M1446.08,-334.42C1388.96,-295.27 1248.54,-199.03 1183.75,-154.63"/>
<polygon fill="black" stroke="black" points="1185.35,-151.49 1175.13,-148.72 1181.4,-157.26 1185.35,-151.49"/>
</g>
<!-- main/sub_path -->
<g id="node14" class="node">
<title>main/sub_path</title>
<polygon fill="#94ddf4" stroke="black" points="1553.5,-334.5 1553.5,-370.5 1674.5,-370.5 1674.5,-334.5 1553.5,-334.5"/>
<text text-anchor="middle" x="1614" y="-348.8" font-family="Times,serif" font-size="14.00">main/sub_path</text>
</g>
<!-- main/sub_path&#45;&gt;main/stage_out_0 -->
<g id="edge13" class="edge">
<title>main/sub_path&#45;&gt;main/stage_out_0</title>
<path fill="none" stroke="black" d="M1591.71,-334.39C1578.31,-324.52 1560.66,-312.28 1544,-303 1428.84,-238.85 1284.96,-181.56 1206.86,-152.21"/>
<polygon fill="black" stroke="black" points="1207.8,-148.83 1197.2,-148.6 1205.34,-155.38 1207.8,-148.83"/>
</g>
</g>
</svg>
